<svg width="32" height="46" viewBox="0 0 32 46" fill="none" xmlns="http://www.w3.org/2000/svg">
<path d="M0 39.2448C14.5513 29.1655 21.827 20.8019 21.827 14.1538C21.827 12.138 21.3333 10.551 20.3461 9.39301C19.4017 8.23496 17.8994 7.65594 15.839 7.65594C11.5895 7.65594 9.33602 10.551 9.07847 16.3413H0.257545C0.515091 10.98 2.14621 6.92681 5.15091 4.18182C8.1556 1.39394 11.9544 0 16.5473 0C21.226 0 24.8102 1.22238 27.2998 3.66713C29.8323 6.069 31.0986 9.28578 31.0986 13.3175C31.0986 16.4914 30.1543 19.6867 28.2656 22.9035C26.4199 26.0774 24.059 29.0154 21.1831 31.7175C18.3072 34.3767 15.281 36.6713 12.1046 38.6014H32V46H0V39.2448Z" fill="white"/>
</svg>
