<svg width="692" height="24" viewBox="0 0 692 24" fill="none" xmlns="http://www.w3.org/2000/svg">
<line x1="-4.37114e-08" y1="23.5" x2="692" y2="23.4999" stroke="white" stroke-opacity="0.2"/>
<path d="M6 12C9.31371 12 12 9.31371 12 6C12 2.68629 9.31371 0 6 0C2.68629 0 0 2.68629 0 6C0 9.31371 2.68629 12 6 12Z" fill="url(#paint0_linear_1_247)" fill-opacity="0.5"/>
<path d="M26 12C29.3137 12 32 9.31371 32 6C32 2.68629 29.3137 0 26 0C22.6863 0 20 2.68629 20 6C20 9.31371 22.6863 12 26 12Z" fill="url(#paint1_linear_1_247)" fill-opacity="0.5"/>
<path d="M46 12C49.3137 12 52 9.31371 52 6C52 2.68629 49.3137 0 46 0C42.6863 0 40 2.68629 40 6C40 9.31371 42.6863 12 46 12Z" fill="url(#paint2_linear_1_247)" fill-opacity="0.5"/>
<defs>
<linearGradient id="paint0_linear_1_247" x1="0" y1="0" x2="12" y2="12" gradientUnits="userSpaceOnUse">
<stop stop-color="white"/>
<stop offset="1" stop-color="white" stop-opacity="0"/>
</linearGradient>
<linearGradient id="paint1_linear_1_247" x1="20" y1="0" x2="32" y2="12" gradientUnits="userSpaceOnUse">
<stop stop-color="white"/>
<stop offset="1" stop-color="white" stop-opacity="0"/>
</linearGradient>
<linearGradient id="paint2_linear_1_247" x1="40" y1="0" x2="52" y2="12" gradientUnits="userSpaceOnUse">
<stop stop-color="white"/>
<stop offset="1" stop-color="white" stop-opacity="0"/>
</linearGradient>
</defs>
</svg>
