<svg width="470" height="119" viewBox="0 0 470 119" fill="none" xmlns="http://www.w3.org/2000/svg">
<path d="M0 13.058V11.882H8.12V13.058H0ZM11.3551 11V5.82H8.77909V4.336H13.0071V9.516H15.5831V11H11.3551ZM12.0411 3.132C11.7238 3.132 11.4578 3.02467 11.2431 2.81C11.0284 2.59533 10.9211 2.32933 10.9211 2.012C10.9211 1.69467 11.0284 1.42867 11.2431 1.214C11.4578 0.999332 11.7238 0.891999 12.0411 0.891999C12.3584 0.891999 12.6244 0.999332 12.8391 1.214C13.0538 1.42867 13.1611 1.69467 13.1611 2.012C13.1611 2.32933 13.0538 2.59533 12.8391 2.81C12.6244 3.02467 12.3584 3.132 12.0411 3.132ZM17.3762 11V4.336H18.5942L18.7342 4.91C19.0889 4.64867 19.4389 4.462 19.7842 4.35C20.1389 4.22867 20.5122 4.168 20.9042 4.168C21.6882 4.168 22.2902 4.392 22.7102 4.84C23.1302 5.27867 23.3402 5.90867 23.3402 6.73V11H21.6882V6.982C21.6882 6.506 21.5949 6.17 21.4082 5.974C21.2309 5.778 20.9182 5.68 20.4702 5.68C20.2089 5.68 19.9615 5.71267 19.7282 5.778C19.5042 5.834 19.2709 5.92733 19.0282 6.058V11H17.3762ZM28.3673 11.168C27.1166 11.168 26.0479 10.8927 25.1613 10.342L25.7633 9.054C26.1273 9.28733 26.5333 9.46467 26.9813 9.586C27.4386 9.70733 27.9146 9.768 28.4093 9.768C29.3706 9.768 29.8513 9.53933 29.8513 9.082C29.8513 8.89533 29.7999 8.76 29.6973 8.676C29.5946 8.592 29.4079 8.536 29.1373 8.508L27.5973 8.326C26.8879 8.242 26.3606 8.046 26.0153 7.738C25.6793 7.42067 25.5113 6.968 25.5113 6.38C25.5113 5.67067 25.7633 5.12467 26.2673 4.742C26.7713 4.35933 27.5039 4.168 28.4653 4.168C29.5106 4.168 30.4673 4.392 31.3353 4.84L30.8033 6.156C30.1219 5.764 29.3333 5.568 28.4373 5.568C27.5879 5.568 27.1633 5.792 27.1633 6.24C27.1633 6.41733 27.2146 6.548 27.3173 6.632C27.4293 6.716 27.6159 6.772 27.8773 6.8L29.4173 6.982C30.1266 7.066 30.6493 7.26667 30.9853 7.584C31.3306 7.892 31.5033 8.34467 31.5033 8.942C31.5033 9.65133 31.2326 10.202 30.6913 10.594C30.1593 10.9767 29.3846 11.168 28.3673 11.168ZM37.6644 11.168C35.947 11.168 35.0884 10.314 35.0884 8.606V5.82H33.1424V4.336H35.0884V2.446L36.7404 1.732V4.336H39.2604V5.82H36.7404V8.354C36.7404 8.83 36.829 9.166 37.0064 9.362C37.193 9.558 37.5104 9.656 37.9584 9.656C38.509 9.656 39.041 9.49733 39.5544 9.18L39.9744 10.58C39.3024 10.972 38.5324 11.168 37.6644 11.168ZM43.9515 11.168C43.1395 11.168 42.5048 10.9813 42.0475 10.608C41.5995 10.2253 41.3755 9.69333 41.3755 9.012C41.3755 8.35867 41.5901 7.85933 42.0195 7.514C42.4581 7.16867 43.0881 6.996 43.9095 6.996H45.9955V6.87C45.9955 6.40333 45.8835 6.072 45.6595 5.876C45.4355 5.67067 45.0621 5.568 44.5395 5.568C43.7181 5.568 42.9528 5.77333 42.2435 6.184L41.7535 4.854C42.6215 4.39667 43.6108 4.168 44.7215 4.168C45.7295 4.168 46.4668 4.378 46.9335 4.798C47.4095 5.218 47.6475 5.876 47.6475 6.772V11H46.4295L46.2895 10.426C45.9255 10.6873 45.5521 10.8787 45.1695 11C44.7961 11.112 44.3901 11.168 43.9515 11.168ZM44.3015 9.768C44.9361 9.768 45.5008 9.628 45.9955 9.348V8.242H44.0635C43.7088 8.242 43.4521 8.30267 43.2935 8.424C43.1348 8.536 43.0555 8.71333 43.0555 8.956C43.0555 9.22667 43.1535 9.432 43.3495 9.572C43.5548 9.70267 43.8721 9.768 44.3015 9.768ZM49.8606 11V4.336H51.0786L51.2186 4.91C51.5732 4.64867 51.9232 4.462 52.2686 4.35C52.6232 4.22867 52.9966 4.168 53.3886 4.168C54.1726 4.168 54.7746 4.392 55.1946 4.84C55.6146 5.27867 55.8246 5.90867 55.8246 6.73V11H54.1726V6.982C54.1726 6.506 54.0792 6.17 53.8926 5.974C53.7152 5.778 53.4026 5.68 52.9546 5.68C52.6932 5.68 52.4459 5.71267 52.2126 5.778C51.9886 5.834 51.7552 5.92733 51.5126 6.058V11H49.8606ZM61.4677 11.168C60.7397 11.168 60.105 11.028 59.5637 10.748C59.0317 10.4587 58.6163 10.0527 58.3177 9.53C58.0283 9.00733 57.8837 8.38667 57.8837 7.668C57.8837 6.94933 58.0283 6.32867 58.3177 5.806C58.6163 5.28333 59.0317 4.882 59.5637 4.602C60.105 4.31267 60.7397 4.168 61.4677 4.168C62.3357 4.168 63.129 4.39667 63.8477 4.854L63.2737 6.212C62.9283 6.016 62.6203 5.88067 62.3497 5.806C62.0883 5.722 61.8083 5.68 61.5097 5.68C60.2123 5.68 59.5637 6.34267 59.5637 7.668C59.5637 8.99333 60.2123 9.656 61.5097 9.656C61.8363 9.656 62.1443 9.60933 62.4337 9.516C62.723 9.42267 63.059 9.25933 63.4417 9.026L64.0577 10.342C63.283 10.8927 62.4197 11.168 61.4677 11.168ZM69.4068 11.168C68.2494 11.168 67.3394 10.8553 66.6768 10.23C66.0141 9.60467 65.6828 8.75067 65.6828 7.668C65.6828 6.968 65.8274 6.35667 66.1168 5.834C66.4061 5.31133 66.8074 4.90533 67.3208 4.616C67.8341 4.31733 68.4314 4.168 69.1128 4.168C69.7754 4.168 70.3494 4.308 70.8348 4.588C71.3294 4.85867 71.7121 5.24133 71.9828 5.736C72.2534 6.23067 72.3888 6.80933 72.3888 7.472C72.3888 7.59333 72.3841 7.71933 72.3748 7.85C72.3654 7.97133 72.3468 8.102 72.3188 8.242H67.3628C67.5401 9.25933 68.2261 9.768 69.4208 9.768C70.1208 9.768 70.8068 9.55333 71.4788 9.124L72.0948 10.342C71.6654 10.6313 71.2361 10.8413 70.8068 10.972C70.3774 11.1027 69.9108 11.168 69.4068 11.168ZM67.3768 6.996H70.7648C70.6061 6.044 70.0508 5.568 69.0988 5.568C68.1561 5.568 67.5821 6.044 67.3768 6.996ZM77.1498 11.168C76.8045 11.168 76.5105 11.0513 76.2678 10.818C76.0345 10.5753 75.9178 10.2813 75.9178 9.936C75.9178 9.58133 76.0345 9.28733 76.2678 9.054C76.5105 8.82067 76.8045 8.704 77.1498 8.704C77.4952 8.704 77.7845 8.82067 78.0178 9.054C78.2605 9.28733 78.3818 9.58133 78.3818 9.936C78.3818 10.2813 78.2605 10.5753 78.0178 10.818C77.7845 11.0513 77.4952 11.168 77.1498 11.168ZM165.656 11V5.82H163.08V4.336H167.308V9.516H169.884V11H165.656ZM166.342 3.132C166.025 3.132 165.759 3.02467 165.544 2.81C165.329 2.59533 165.222 2.32933 165.222 2.012C165.222 1.69467 165.329 1.42867 165.544 1.214C165.759 0.999332 166.025 0.891999 166.342 0.891999C166.659 0.891999 166.925 0.999332 167.14 1.214C167.355 1.42867 167.462 1.69467 167.462 2.012C167.462 2.32933 167.355 2.59533 167.14 2.81C166.925 3.02467 166.659 3.132 166.342 3.132ZM171.677 11V4.336H172.895L173.035 4.91C173.39 4.64867 173.74 4.462 174.085 4.35C174.44 4.22867 174.813 4.168 175.205 4.168C175.989 4.168 176.591 4.392 177.011 4.84C177.431 5.27867 177.641 5.90867 177.641 6.73V11H175.989V6.982C175.989 6.506 175.896 6.17 175.709 5.974C175.532 5.778 175.219 5.68 174.771 5.68C174.51 5.68 174.262 5.71267 174.029 5.778C173.805 5.834 173.572 5.92733 173.329 6.058V11H171.677ZM182.668 11.168C181.417 11.168 180.349 10.8927 179.462 10.342L180.064 9.054C180.428 9.28733 180.834 9.46467 181.282 9.586C181.739 9.70733 182.215 9.768 182.71 9.768C183.671 9.768 184.152 9.53933 184.152 9.082C184.152 8.89533 184.101 8.76 183.998 8.676C183.895 8.592 183.709 8.536 183.438 8.508L181.898 8.326C181.189 8.242 180.661 8.046 180.316 7.738C179.98 7.42067 179.812 6.968 179.812 6.38C179.812 5.67067 180.064 5.12467 180.568 4.742C181.072 4.35933 181.805 4.168 182.766 4.168C183.811 4.168 184.768 4.392 185.636 4.84L185.104 6.156C184.423 5.764 183.634 5.568 182.738 5.568C181.889 5.568 181.464 5.792 181.464 6.24C181.464 6.41733 181.515 6.548 181.618 6.632C181.73 6.716 181.917 6.772 182.178 6.8L183.718 6.982C184.427 7.066 184.95 7.26667 185.286 7.584C185.631 7.892 185.804 8.34467 185.804 8.942C185.804 9.65133 185.533 10.202 184.992 10.594C184.46 10.9767 183.685 11.168 182.668 11.168ZM191.965 11.168C190.248 11.168 189.389 10.314 189.389 8.606V5.82H187.443V4.336H189.389V2.446L191.041 1.732V4.336H193.561V5.82H191.041V8.354C191.041 8.83 191.13 9.166 191.307 9.362C191.494 9.558 191.811 9.656 192.259 9.656C192.81 9.656 193.342 9.49733 193.855 9.18L194.275 10.58C193.603 10.972 192.833 11.168 191.965 11.168ZM198.252 11.168C197.44 11.168 196.806 10.9813 196.348 10.608C195.9 10.2253 195.676 9.69333 195.676 9.012C195.676 8.35867 195.891 7.85933 196.32 7.514C196.759 7.16867 197.389 6.996 198.21 6.996H200.296V6.87C200.296 6.40333 200.184 6.072 199.96 5.876C199.736 5.67067 199.363 5.568 198.84 5.568C198.019 5.568 197.254 5.77333 196.544 6.184L196.054 4.854C196.922 4.39667 197.912 4.168 199.022 4.168C200.03 4.168 200.768 4.378 201.234 4.798C201.71 5.218 201.948 5.876 201.948 6.772V11H200.73L200.59 10.426C200.226 10.6873 199.853 10.8787 199.47 11C199.097 11.112 198.691 11.168 198.252 11.168ZM198.602 9.768C199.237 9.768 199.802 9.628 200.296 9.348V8.242H198.364C198.01 8.242 197.753 8.30267 197.594 8.424C197.436 8.536 197.356 8.71333 197.356 8.956C197.356 9.22667 197.454 9.432 197.65 9.572C197.856 9.70267 198.173 9.768 198.602 9.768ZM204.161 11V4.336H205.379L205.519 4.91C205.874 4.64867 206.224 4.462 206.569 4.35C206.924 4.22867 207.297 4.168 207.689 4.168C208.473 4.168 209.075 4.392 209.495 4.84C209.915 5.27867 210.125 5.90867 210.125 6.73V11H208.473V6.982C208.473 6.506 208.38 6.17 208.193 5.974C208.016 5.778 207.703 5.68 207.255 5.68C206.994 5.68 206.747 5.71267 206.513 5.778C206.289 5.834 206.056 5.92733 205.813 6.058V11H204.161ZM215.768 11.168C215.04 11.168 214.406 11.028 213.864 10.748C213.332 10.4587 212.917 10.0527 212.618 9.53C212.329 9.00733 212.184 8.38667 212.184 7.668C212.184 6.94933 212.329 6.32867 212.618 5.806C212.917 5.28333 213.332 4.882 213.864 4.602C214.406 4.31267 215.04 4.168 215.768 4.168C216.636 4.168 217.43 4.39667 218.148 4.854L217.574 6.212C217.229 6.016 216.921 5.88067 216.65 5.806C216.389 5.722 216.109 5.68 215.81 5.68C214.513 5.68 213.864 6.34267 213.864 7.668C213.864 8.99333 214.513 9.656 215.81 9.656C216.137 9.656 216.445 9.60933 216.734 9.516C217.024 9.42267 217.36 9.25933 217.742 9.026L218.358 10.342C217.584 10.8927 216.72 11.168 215.768 11.168ZM223.708 11.168C222.55 11.168 221.64 10.8553 220.978 10.23C220.315 9.60467 219.984 8.75067 219.984 7.668C219.984 6.968 220.128 6.35667 220.418 5.834C220.707 5.31133 221.108 4.90533 221.622 4.616C222.135 4.31733 222.732 4.168 223.414 4.168C224.076 4.168 224.65 4.308 225.136 4.588C225.63 4.85867 226.013 5.24133 226.284 5.736C226.554 6.23067 226.69 6.80933 226.69 7.472C226.69 7.59333 226.685 7.71933 226.676 7.85C226.666 7.97133 226.648 8.102 226.62 8.242H221.664C221.841 9.25933 222.527 9.768 223.722 9.768C224.422 9.768 225.108 9.55333 225.78 9.124L226.396 10.342C225.966 10.6313 225.537 10.8413 225.108 10.972C224.678 11.1027 224.212 11.168 223.708 11.168ZM221.678 6.996H225.066C224.907 6.044 224.352 5.568 223.4 5.568C222.457 5.568 221.883 6.044 221.678 6.996ZM231.451 11.168C231.105 11.168 230.811 11.0513 230.569 10.818C230.335 10.5753 230.219 10.2813 230.219 9.936C230.219 9.58133 230.335 9.28733 230.569 9.054C230.811 8.82067 231.105 8.704 231.451 8.704C231.796 8.704 232.085 8.82067 232.319 9.054C232.561 9.28733 232.683 9.58133 232.683 9.936C232.683 10.2813 232.561 10.5753 232.319 10.818C232.085 11.0513 231.796 11.168 231.451 11.168ZM266.217 14.108C265.293 13.8653 264.495 13.436 263.823 12.82C263.151 12.2133 262.633 11.4573 262.269 10.552C261.905 9.63733 261.723 8.62 261.723 7.5C261.723 6.37067 261.905 5.35333 262.269 4.448C262.633 3.54267 263.151 2.78667 263.823 2.18C264.495 1.564 265.293 1.13467 266.217 0.891999V2.026C265.601 2.23133 265.055 2.586 264.579 3.09C264.112 3.58467 263.744 4.20533 263.473 4.952C263.212 5.69867 263.081 6.548 263.081 7.5C263.081 8.452 263.212 9.30133 263.473 10.048C263.744 10.7947 264.112 11.4153 264.579 11.91C265.055 12.414 265.601 12.7687 266.217 12.974V14.108ZM269.774 14.108V12.974C270.399 12.7687 270.945 12.414 271.412 11.91C271.879 11.4153 272.243 10.7947 272.504 10.048C272.775 9.30133 272.91 8.452 272.91 7.5C272.91 6.548 272.775 5.69867 272.504 4.952C272.243 4.20533 271.879 3.58467 271.412 3.09C270.945 2.586 270.399 2.23133 269.774 2.026V0.891999C270.698 1.13467 271.496 1.564 272.168 2.18C272.84 2.78667 273.358 3.54267 273.722 4.448C274.086 5.35333 274.268 6.37067 274.268 7.5C274.268 8.62 274.086 9.63733 273.722 10.552C273.358 11.4573 272.84 12.2133 272.168 12.82C271.496 13.436 270.698 13.8653 269.774 14.108ZM280.177 11.168C279.832 11.168 279.538 11.0513 279.295 10.818C279.062 10.5753 278.945 10.2813 278.945 9.936C278.945 9.58133 279.062 9.28733 279.295 9.054C279.538 8.82067 279.832 8.704 280.177 8.704C280.523 8.704 280.812 8.82067 281.045 9.054C281.288 9.28733 281.409 9.58133 281.409 9.936C281.409 10.2813 281.288 10.5753 281.045 10.818C280.812 11.0513 280.523 11.168 280.177 11.168ZM339.307 14.108C338.383 13.8653 337.585 13.436 336.913 12.82C336.241 12.2133 335.723 11.4573 335.359 10.552C334.995 9.63733 334.813 8.62 334.813 7.5C334.813 6.37067 334.995 5.35333 335.359 4.448C335.723 3.54267 336.241 2.78667 336.913 2.18C337.585 1.564 338.383 1.13467 339.307 0.891999V2.026C338.691 2.23133 338.145 2.586 337.669 3.09C337.202 3.58467 336.834 4.20533 336.563 4.952C336.302 5.69867 336.171 6.548 336.171 7.5C336.171 8.452 336.302 9.30133 336.563 10.048C336.834 10.7947 337.202 11.4153 337.669 11.91C338.145 12.414 338.691 12.7687 339.307 12.974V14.108ZM342.864 14.108V12.974C343.489 12.7687 344.035 12.414 344.502 11.91C344.969 11.4153 345.333 10.7947 345.594 10.048C345.865 9.30133 346 8.452 346 7.5C346 6.548 345.865 5.69867 345.594 4.952C345.333 4.20533 344.969 3.58467 344.502 3.09C344.035 2.586 343.489 2.23133 342.864 2.026V0.891999C343.788 1.13467 344.586 1.564 345.258 2.18C345.93 2.78667 346.448 3.54267 346.812 4.448C347.176 5.35333 347.358 6.37067 347.358 7.5C347.358 8.62 347.176 9.63733 346.812 10.552C346.448 11.4573 345.93 12.2133 345.258 12.82C344.586 13.436 343.788 13.8653 342.864 14.108ZM351.755 13.674L351.573 12.834C352.04 12.7593 352.422 12.5773 352.721 12.288C353.029 12.008 353.23 11.6113 353.323 11.098C353.295 11.1073 353.267 11.112 353.239 11.112C353.211 11.112 353.183 11.112 353.155 11.112C352.838 11.112 352.572 11 352.357 10.776C352.142 10.552 352.035 10.272 352.035 9.936C352.035 9.59067 352.142 9.30133 352.357 9.068C352.581 8.82533 352.866 8.704 353.211 8.704C353.622 8.704 353.939 8.844 354.163 9.124C354.387 9.404 354.499 9.79133 354.499 10.286C354.499 10.874 354.378 11.406 354.135 11.882C353.902 12.3673 353.575 12.764 353.155 13.072C352.744 13.3893 352.278 13.59 351.755 13.674ZM230.625 32V26.82H228.049V25.336H232.277V30.516H234.853V32H230.625ZM231.311 24.132C230.993 24.132 230.727 24.0247 230.513 23.81C230.298 23.5953 230.191 23.3293 230.191 23.012C230.191 22.6947 230.298 22.4287 230.513 22.214C230.727 21.9993 230.993 21.892 231.311 21.892C231.628 21.892 231.894 21.9993 232.109 22.214C232.323 22.4287 232.431 22.6947 232.431 23.012C232.431 23.3293 232.323 23.5953 232.109 23.81C231.894 24.0247 231.628 24.132 231.311 24.132ZM236.646 32V25.336H237.864L238.004 25.91C238.358 25.6487 238.708 25.462 239.054 25.35C239.408 25.2287 239.782 25.168 240.174 25.168C240.958 25.168 241.56 25.392 241.98 25.84C242.4 26.2787 242.61 26.9087 242.61 27.73V32H240.958V27.982C240.958 27.506 240.864 27.17 240.678 26.974C240.5 26.778 240.188 26.68 239.74 26.68C239.478 26.68 239.231 26.7127 238.998 26.778C238.774 26.834 238.54 26.9273 238.298 27.058V32H236.646ZM246.867 32V26.82H244.291V25.336H248.519V30.516H251.095V32H246.867ZM247.553 24.132C247.235 24.132 246.969 24.0247 246.755 23.81C246.54 23.5953 246.433 23.3293 246.433 23.012C246.433 22.6947 246.54 22.4287 246.755 22.214C246.969 21.9993 247.235 21.892 247.553 21.892C247.87 21.892 248.136 21.9993 248.351 22.214C248.565 22.4287 248.673 22.6947 248.673 23.012C248.673 23.3293 248.565 23.5953 248.351 23.81C248.136 24.0247 247.87 24.132 247.553 24.132ZM256.934 32.168C255.217 32.168 254.358 31.314 254.358 29.606V26.82H252.412V25.336H254.358V23.446L256.01 22.732V25.336H258.53V26.82H256.01V29.354C256.01 29.83 256.099 30.166 256.276 30.362C256.463 30.558 256.78 30.656 257.228 30.656C257.779 30.656 258.311 30.4973 258.824 30.18L259.244 31.58C258.572 31.972 257.802 32.168 256.934 32.168ZM263.109 32V26.82H260.533V25.336H264.761V30.516H267.337V32H263.109ZM263.795 24.132C263.478 24.132 263.212 24.0247 262.997 23.81C262.782 23.5953 262.675 23.3293 262.675 23.012C262.675 22.6947 262.782 22.4287 262.997 22.214C263.212 21.9993 263.478 21.892 263.795 21.892C264.112 21.892 264.378 21.9993 264.593 22.214C264.808 22.4287 264.915 22.6947 264.915 23.012C264.915 23.3293 264.808 23.5953 264.593 23.81C264.378 24.0247 264.112 24.132 263.795 24.132ZM271.342 32.168C270.53 32.168 269.895 31.9813 269.438 31.608C268.99 31.2253 268.766 30.6933 268.766 30.012C268.766 29.3587 268.981 28.8593 269.41 28.514C269.849 28.1687 270.479 27.996 271.3 27.996H273.386V27.87C273.386 27.4033 273.274 27.072 273.05 26.876C272.826 26.6707 272.453 26.568 271.93 26.568C271.109 26.568 270.343 26.7733 269.634 27.184L269.144 25.854C270.012 25.3967 271.001 25.168 272.112 25.168C273.12 25.168 273.857 25.378 274.324 25.798C274.8 26.218 275.038 26.876 275.038 27.772V32H273.82L273.68 31.426C273.316 31.6873 272.943 31.8787 272.56 32C272.187 32.112 271.781 32.168 271.342 32.168ZM271.692 30.768C272.327 30.768 272.891 30.628 273.386 30.348V29.242H271.454C271.099 29.242 270.843 29.3027 270.684 29.424C270.525 29.536 270.446 29.7133 270.446 29.956C270.446 30.2267 270.544 30.432 270.74 30.572C270.945 30.7027 271.263 30.768 271.692 30.768ZM281.591 32.168C279.874 32.168 279.015 31.314 279.015 29.606V23.558H276.439V22.06H280.667V29.354C280.667 29.83 280.756 30.166 280.933 30.362C281.12 30.558 281.437 30.656 281.885 30.656C282.436 30.656 282.968 30.4973 283.481 30.18L283.901 31.58C283.229 31.972 282.459 32.168 281.591 32.168ZM284.238 34.058V32.882H292.358V34.058H284.238ZM296.363 32.168C295.113 32.168 294.044 31.8927 293.157 31.342L293.759 30.054C294.123 30.2873 294.529 30.4647 294.977 30.586C295.435 30.7073 295.911 30.768 296.405 30.768C297.367 30.768 297.847 30.5393 297.847 30.082C297.847 29.8953 297.796 29.76 297.693 29.676C297.591 29.592 297.404 29.536 297.133 29.508L295.593 29.326C294.884 29.242 294.357 29.046 294.011 28.738C293.675 28.4207 293.507 27.968 293.507 27.38C293.507 26.6707 293.759 26.1247 294.263 25.742C294.767 25.3593 295.5 25.168 296.461 25.168C297.507 25.168 298.463 25.392 299.331 25.84L298.799 27.156C298.118 26.764 297.329 26.568 296.433 26.568C295.584 26.568 295.159 26.792 295.159 27.24C295.159 27.4173 295.211 27.548 295.313 27.632C295.425 27.716 295.612 27.772 295.873 27.8L297.413 27.982C298.123 28.066 298.645 28.2667 298.981 28.584C299.327 28.892 299.499 29.3447 299.499 29.942C299.499 30.6513 299.229 31.202 298.687 31.594C298.155 31.9767 297.381 32.168 296.363 32.168ZM303.938 32.168C303.154 32.168 302.552 31.9487 302.132 31.51C301.712 31.062 301.502 30.4273 301.502 29.606V25.336H303.154V29.354C303.154 29.83 303.243 30.166 303.42 30.362C303.607 30.558 303.924 30.656 304.372 30.656C304.634 30.656 304.881 30.6233 305.114 30.558C305.348 30.4927 305.581 30.3993 305.814 30.278V25.336H307.466V32H306.248L306.108 31.426C305.763 31.6873 305.413 31.8787 305.058 32C304.704 32.112 304.33 32.168 303.938 32.168ZM309.666 34.94V25.336H310.884L311.024 25.896C311.714 25.4107 312.419 25.168 313.138 25.168C314.015 25.168 314.71 25.4853 315.224 26.12C315.746 26.7453 316.008 27.5947 316.008 28.668C316.008 29.7413 315.746 30.5953 315.224 31.23C314.71 31.8553 314.015 32.168 313.138 32.168C312.83 32.168 312.522 32.1213 312.214 32.028C311.915 31.944 311.616 31.8087 311.318 31.622V34.94H309.666ZM312.718 30.656C313.8 30.656 314.342 29.9933 314.342 28.668C314.342 27.3427 313.8 26.68 312.718 26.68C312.251 26.68 311.784 26.806 311.318 27.058V30.278C311.784 30.53 312.251 30.656 312.718 30.656ZM317.787 34.94V25.336H319.005L319.145 25.896C319.835 25.4107 320.54 25.168 321.259 25.168C322.136 25.168 322.831 25.4853 323.345 26.12C323.867 26.7453 324.129 27.5947 324.129 28.668C324.129 29.7413 323.867 30.5953 323.345 31.23C322.831 31.8553 322.136 32.168 321.259 32.168C320.951 32.168 320.643 32.1213 320.335 32.028C320.036 31.944 319.737 31.8087 319.439 31.622V34.94H317.787ZM320.839 30.656C321.921 30.656 322.463 29.9933 322.463 28.668C322.463 27.3427 321.921 26.68 320.839 26.68C320.372 26.68 319.905 26.806 319.439 27.058V30.278C319.905 30.53 320.372 30.656 320.839 30.656ZM330.318 32.168C328.6 32.168 327.742 31.314 327.742 29.606V23.558H325.166V22.06H329.394V29.354C329.394 29.83 329.482 30.166 329.66 30.362C329.846 30.558 330.164 30.656 330.612 30.656C331.162 30.656 331.694 30.4973 332.208 30.18L332.628 31.58C331.956 31.972 331.186 32.168 330.318 32.168ZM334.883 35.108C334.202 35.108 333.618 34.954 333.133 34.646L333.637 33.274C334.001 33.4887 334.374 33.596 334.757 33.596C335.084 33.596 335.34 33.5167 335.527 33.358C335.723 33.2087 335.896 32.9333 336.045 32.532L336.241 32.014L333.567 25.336H335.331L337.081 29.844L338.831 25.336H340.483L337.445 33.176C337.174 33.8853 336.843 34.3847 336.451 34.674C336.068 34.9633 335.546 35.108 334.883 35.108ZM342.864 35.108V33.974C343.489 33.7687 344.035 33.414 344.502 32.91C344.969 32.4153 345.333 31.7947 345.594 31.048C345.865 30.3013 346 29.452 346 28.5C346 27.548 345.865 26.6987 345.594 25.952C345.333 25.2053 344.969 24.5847 344.502 24.09C344.035 23.586 343.489 23.2313 342.864 23.026V21.892C343.788 22.1347 344.586 22.564 345.258 23.18C345.93 23.7867 346.448 24.5427 346.812 25.448C347.176 26.3533 347.358 27.3707 347.358 28.5C347.358 29.62 347.176 30.6373 346.812 31.552C346.448 32.4573 345.93 33.2133 345.258 33.82C344.586 34.436 343.788 34.8653 342.864 35.108ZM353.267 32.168C352.922 32.168 352.628 32.0513 352.385 31.818C352.152 31.5753 352.035 31.2813 352.035 30.936C352.035 30.5813 352.152 30.2873 352.385 30.054C352.628 29.8207 352.922 29.704 353.267 29.704C353.612 29.704 353.902 29.8207 354.135 30.054C354.378 30.2873 354.499 30.5813 354.499 30.936C354.499 31.2813 354.378 31.5753 354.135 31.818C353.902 32.0513 353.612 32.168 353.267 32.168ZM412.397 35.108C411.473 34.8653 410.675 34.436 410.003 33.82C409.331 33.2133 408.813 32.4573 408.449 31.552C408.085 30.6373 407.903 29.62 407.903 28.5C407.903 27.3707 408.085 26.3533 408.449 25.448C408.813 24.5427 409.331 23.7867 410.003 23.18C410.675 22.564 411.473 22.1347 412.397 21.892V23.026C411.781 23.2313 411.235 23.586 410.759 24.09C410.292 24.5847 409.923 25.2053 409.653 25.952C409.391 26.6987 409.261 27.548 409.261 28.5C409.261 29.452 409.391 30.3013 409.653 31.048C409.923 31.7947 410.292 32.4153 410.759 32.91C411.235 33.414 411.781 33.7687 412.397 33.974V35.108ZM42.3835 56.108V54.974C43.0088 54.7687 43.5548 54.414 44.0215 53.91C44.4881 53.4153 44.8521 52.7947 45.1135 52.048C45.3841 51.3013 45.5195 50.452 45.5195 49.5C45.5195 48.548 45.3841 47.6987 45.1135 46.952C44.8521 46.2053 44.4881 45.5847 44.0215 45.09C43.5548 44.586 43.0088 44.2313 42.3835 44.026V42.892C43.3075 43.1347 44.1055 43.564 44.7775 44.18C45.4495 44.7867 45.9675 45.5427 46.3315 46.448C46.6955 47.3533 46.8775 48.3707 46.8775 49.5C46.8775 50.62 46.6955 51.6373 46.3315 52.552C45.9675 53.4573 45.4495 54.2133 44.7775 54.82C44.1055 55.436 43.3075 55.8653 42.3835 56.108ZM51.2746 55.674L51.0926 54.834C51.5592 54.7593 51.9419 54.5773 52.2406 54.288C52.5486 54.008 52.7492 53.6113 52.8426 53.098C52.8146 53.1073 52.7866 53.112 52.7586 53.112C52.7306 53.112 52.7026 53.112 52.6746 53.112C52.3572 53.112 52.0912 53 51.8766 52.776C51.6619 52.552 51.5546 52.272 51.5546 51.936C51.5546 51.5907 51.6619 51.3013 51.8766 51.068C52.1006 50.8253 52.3852 50.704 52.7306 50.704C53.1412 50.704 53.4586 50.844 53.6826 51.124C53.9066 51.404 54.0186 51.7913 54.0186 52.286C54.0186 52.874 53.8972 53.406 53.6546 53.882C53.4212 54.3673 53.0946 54.764 52.6746 55.072C52.2639 55.3893 51.7972 55.59 51.2746 55.674ZM52.7866 48.632C52.4412 48.632 52.1472 48.5153 51.9046 48.282C51.6712 48.0393 51.5546 47.7453 51.5546 47.4C51.5546 47.0453 51.6712 46.7513 51.9046 46.518C52.1472 46.2847 52.4412 46.168 52.7866 46.168C53.1319 46.168 53.4212 46.2847 53.6546 46.518C53.8972 46.7513 54.0186 47.0453 54.0186 47.4C54.0186 47.7453 53.8972 48.0393 53.6546 48.282C53.4212 48.5153 53.1319 48.632 52.7866 48.632ZM227.391 76.058V74.882H235.511V76.058H227.391ZM238.746 74V68.82H236.17V67.336H240.398V72.516H242.974V74H238.746ZM239.432 66.132C239.114 66.132 238.848 66.0247 238.634 65.81C238.419 65.5953 238.312 65.3293 238.312 65.012C238.312 64.6947 238.419 64.4287 238.634 64.214C238.848 63.9993 239.114 63.892 239.432 63.892C239.749 63.892 240.015 63.9993 240.23 64.214C240.444 64.4287 240.552 64.6947 240.552 65.012C240.552 65.3293 240.444 65.5953 240.23 65.81C240.015 66.0247 239.749 66.132 239.432 66.132ZM244.767 74V67.336H245.985L246.125 67.91C246.479 67.6487 246.829 67.462 247.175 67.35C247.529 67.2287 247.903 67.168 248.295 67.168C249.079 67.168 249.681 67.392 250.101 67.84C250.521 68.2787 250.731 68.9087 250.731 69.73V74H249.079V69.982C249.079 69.506 248.985 69.17 248.799 68.974C248.621 68.778 248.309 68.68 247.861 68.68C247.599 68.68 247.352 68.7127 247.119 68.778C246.895 68.834 246.661 68.9273 246.419 69.058V74H244.767ZM255.758 74.168C254.507 74.168 253.439 73.8927 252.552 73.342L253.154 72.054C253.518 72.2873 253.924 72.4647 254.372 72.586C254.829 72.7073 255.305 72.768 255.8 72.768C256.761 72.768 257.242 72.5393 257.242 72.082C257.242 71.8953 257.191 71.76 257.088 71.676C256.985 71.592 256.799 71.536 256.528 71.508L254.988 71.326C254.279 71.242 253.751 71.046 253.406 70.738C253.07 70.4207 252.902 69.968 252.902 69.38C252.902 68.6707 253.154 68.1247 253.658 67.742C254.162 67.3593 254.895 67.168 255.856 67.168C256.901 67.168 257.858 67.392 258.726 67.84L258.194 69.156C257.513 68.764 256.724 68.568 255.828 68.568C254.979 68.568 254.554 68.792 254.554 69.24C254.554 69.4173 254.605 69.548 254.708 69.632C254.82 69.716 255.007 69.772 255.268 69.8L256.808 69.982C257.517 70.066 258.04 70.2667 258.376 70.584C258.721 70.892 258.894 71.3447 258.894 71.942C258.894 72.6513 258.623 73.202 258.082 73.594C257.55 73.9767 256.775 74.168 255.758 74.168ZM265.055 74.168C263.338 74.168 262.479 73.314 262.479 71.606V68.82H260.533V67.336H262.479V65.446L264.131 64.732V67.336H266.651V68.82H264.131V71.354C264.131 71.83 264.22 72.166 264.397 72.362C264.584 72.558 264.901 72.656 265.349 72.656C265.9 72.656 266.432 72.4973 266.945 72.18L267.365 73.58C266.693 73.972 265.923 74.168 265.055 74.168ZM271.342 74.168C270.53 74.168 269.895 73.9813 269.438 73.608C268.99 73.2253 268.766 72.6933 268.766 72.012C268.766 71.3587 268.981 70.8593 269.41 70.514C269.849 70.1687 270.479 69.996 271.3 69.996H273.386V69.87C273.386 69.4033 273.274 69.072 273.05 68.876C272.826 68.6707 272.453 68.568 271.93 68.568C271.109 68.568 270.343 68.7733 269.634 69.184L269.144 67.854C270.012 67.3967 271.001 67.168 272.112 67.168C273.12 67.168 273.857 67.378 274.324 67.798C274.8 68.218 275.038 68.876 275.038 69.772V74H273.82L273.68 73.426C273.316 73.6873 272.943 73.8787 272.56 74C272.187 74.112 271.781 74.168 271.342 74.168ZM271.692 72.768C272.327 72.768 272.891 72.628 273.386 72.348V71.242H271.454C271.099 71.242 270.843 71.3027 270.684 71.424C270.525 71.536 270.446 71.7133 270.446 71.956C270.446 72.2267 270.544 72.432 270.74 72.572C270.945 72.7027 271.263 72.768 271.692 72.768ZM277.251 74V67.336H278.469L278.609 67.91C278.964 67.6487 279.314 67.462 279.659 67.35C280.014 67.2287 280.387 67.168 280.779 67.168C281.563 67.168 282.165 67.392 282.585 67.84C283.005 68.2787 283.215 68.9087 283.215 69.73V74H281.563V69.982C281.563 69.506 281.47 69.17 281.283 68.974C281.106 68.778 280.793 68.68 280.345 68.68C280.084 68.68 279.837 68.7127 279.603 68.778C279.379 68.834 279.146 68.9273 278.903 69.058V74H277.251ZM288.858 74.168C288.13 74.168 287.496 74.028 286.954 73.748C286.422 73.4587 286.007 73.0527 285.708 72.53C285.419 72.0073 285.274 71.3867 285.274 70.668C285.274 69.9493 285.419 69.3287 285.708 68.806C286.007 68.2833 286.422 67.882 286.954 67.602C287.496 67.3127 288.13 67.168 288.858 67.168C289.726 67.168 290.52 67.3967 291.238 67.854L290.664 69.212C290.319 69.016 290.011 68.8807 289.74 68.806C289.479 68.722 289.199 68.68 288.9 68.68C287.603 68.68 286.954 69.3427 286.954 70.668C286.954 71.9933 287.603 72.656 288.9 72.656C289.227 72.656 289.535 72.6093 289.824 72.516C290.114 72.4227 290.45 72.2593 290.832 72.026L291.448 73.342C290.674 73.8927 289.81 74.168 288.858 74.168ZM296.797 74.168C295.64 74.168 294.73 73.8553 294.067 73.23C293.405 72.6047 293.073 71.7507 293.073 70.668C293.073 69.968 293.218 69.3567 293.507 68.834C293.797 68.3113 294.198 67.9053 294.711 67.616C295.225 67.3173 295.822 67.168 296.503 67.168C297.166 67.168 297.74 67.308 298.225 67.588C298.72 67.8587 299.103 68.2413 299.373 68.736C299.644 69.2307 299.779 69.8093 299.779 70.472C299.779 70.5933 299.775 70.7193 299.765 70.85C299.756 70.9713 299.737 71.102 299.709 71.242H294.753C294.931 72.2593 295.617 72.768 296.811 72.768C297.511 72.768 298.197 72.5533 298.869 72.124L299.485 73.342C299.056 73.6313 298.627 73.8413 298.197 73.972C297.768 74.1027 297.301 74.168 296.797 74.168ZM294.767 69.996H298.155C297.997 69.044 297.441 68.568 296.489 68.568C295.547 68.568 294.973 69.044 294.767 69.996ZM155.603 97.94V96.764H156.527C157.077 96.764 157.465 96.6427 157.689 96.4C157.913 96.1667 158.025 95.7887 158.025 95.266C158.025 95.1353 158.02 94.9953 158.011 94.846C158.001 94.6873 157.987 94.5333 157.969 94.384C157.95 94.1973 157.931 94.02 157.913 93.852C157.903 93.684 157.899 93.5253 157.899 93.376C157.899 92.8253 158.006 92.41 158.221 92.13C158.435 91.85 158.753 91.6493 159.173 91.528V91.472C158.753 91.3507 158.435 91.15 158.221 90.87C158.006 90.5807 157.899 90.1653 157.899 89.624C157.899 89.4747 157.903 89.316 157.913 89.148C157.931 88.98 157.95 88.8027 157.969 88.616C157.987 88.4667 158.001 88.3127 158.011 88.154C158.02 87.9953 158.025 87.8553 158.025 87.734C158.025 87.2113 157.913 86.8333 157.689 86.6C157.465 86.3573 157.077 86.236 156.527 86.236H155.603V85.06H156.793C157.707 85.06 158.361 85.2887 158.753 85.746C159.154 86.194 159.355 86.8333 159.355 87.664C159.355 87.8413 159.345 88.014 159.327 88.182C159.317 88.35 159.303 88.5273 159.285 88.714C159.266 88.882 159.252 89.0407 159.243 89.19C159.233 89.3393 159.229 89.4793 159.229 89.61C159.229 90.0953 159.313 90.436 159.481 90.632C159.658 90.8187 159.975 90.912 160.433 90.912H161.189V92.088H160.433C159.975 92.088 159.658 92.186 159.481 92.382C159.313 92.5687 159.229 92.9047 159.229 93.39C159.229 93.5207 159.233 93.6607 159.243 93.81C159.252 93.9593 159.266 94.118 159.285 94.286C159.303 94.4727 159.317 94.65 159.327 94.818C159.345 94.986 159.355 95.1587 159.355 95.336C159.355 96.1667 159.154 96.806 158.753 97.254C158.361 97.7113 157.707 97.94 156.793 97.94H155.603ZM82.5129 118.94V117.764H83.4369C83.9876 117.764 84.3749 117.643 84.5989 117.4C84.8229 117.167 84.9349 116.789 84.9349 116.266C84.9349 116.135 84.9303 115.995 84.9209 115.846C84.9116 115.687 84.8976 115.533 84.8789 115.384C84.8603 115.197 84.8416 115.02 84.8229 114.852C84.8136 114.684 84.8089 114.525 84.8089 114.376C84.8089 113.825 84.9163 113.41 85.1309 113.13C85.3456 112.85 85.6629 112.649 86.0829 112.528V112.472C85.6629 112.351 85.3456 112.15 85.1309 111.87C84.9163 111.581 84.8089 111.165 84.8089 110.624C84.8089 110.475 84.8136 110.316 84.8229 110.148C84.8416 109.98 84.8603 109.803 84.8789 109.616C84.8976 109.467 84.9116 109.313 84.9209 109.154C84.9303 108.995 84.9349 108.855 84.9349 108.734C84.9349 108.211 84.8229 107.833 84.5989 107.6C84.3749 107.357 83.9876 107.236 83.4369 107.236H82.5129V106.06H83.7029C84.6176 106.06 85.2709 106.289 85.6629 106.746C86.0643 107.194 86.2649 107.833 86.2649 108.664C86.2649 108.841 86.2556 109.014 86.2369 109.182C86.2276 109.35 86.2136 109.527 86.1949 109.714C86.1763 109.882 86.1623 110.041 86.1529 110.19C86.1436 110.339 86.1389 110.479 86.1389 110.61C86.1389 111.095 86.2229 111.436 86.3909 111.632C86.5683 111.819 86.8856 111.912 87.3429 111.912H88.0989V113.088H87.3429C86.8856 113.088 86.5683 113.186 86.3909 113.382C86.2229 113.569 86.1389 113.905 86.1389 114.39C86.1389 114.521 86.1436 114.661 86.1529 114.81C86.1623 114.959 86.1763 115.118 86.1949 115.286C86.2136 115.473 86.2276 115.65 86.2369 115.818C86.2556 115.986 86.2649 116.159 86.2649 116.336C86.2649 117.167 86.0643 117.806 85.6629 118.254C85.2709 118.711 84.6176 118.94 83.7029 118.94H82.5129Z" fill="white"/>
<path d="M81.2109 13.058V11.882H89.3309V13.058H81.2109ZM89.948 11V4.336H90.928L91.054 4.84C91.53 4.392 92.0434 4.168 92.594 4.168C93.1727 4.168 93.5974 4.392 93.868 4.84C94.316 4.392 94.8107 4.168 95.352 4.168C95.828 4.168 96.2014 4.322 96.472 4.63C96.752 4.92867 96.892 5.33933 96.892 5.862V11H95.464V6.058C95.464 5.722 95.282 5.554 94.918 5.554C94.6287 5.554 94.3674 5.65667 94.134 5.862V11H92.706V6.058C92.706 5.722 92.524 5.554 92.16 5.554C91.88 5.554 91.6187 5.652 91.376 5.848V11H89.948ZM100.687 11V5.82H98.1111V4.336H102.339V9.516H104.915V11H100.687ZM101.373 3.132C101.056 3.132 100.79 3.02467 100.575 2.81C100.36 2.59533 100.253 2.32933 100.253 2.012C100.253 1.69467 100.36 1.42867 100.575 1.214C100.79 0.999332 101.056 0.891999 101.373 0.891999C101.69 0.891999 101.956 0.999332 102.171 1.214C102.386 1.42867 102.493 1.69467 102.493 2.012C102.493 2.32933 102.386 2.59533 102.171 2.81C101.956 3.02467 101.69 3.132 101.373 3.132ZM106.708 11V4.336H107.926L108.066 4.91C108.421 4.64867 108.771 4.462 109.116 4.35C109.471 4.22867 109.844 4.168 110.236 4.168C111.02 4.168 111.622 4.392 112.042 4.84C112.462 5.27867 112.672 5.90867 112.672 6.73V11H111.02V6.982C111.02 6.506 110.927 6.17 110.74 5.974C110.563 5.778 110.25 5.68 109.802 5.68C109.541 5.68 109.294 5.71267 109.06 5.778C108.836 5.834 108.603 5.92733 108.36 6.058V11H106.708ZM118.875 11.168C117.158 11.168 116.299 10.314 116.299 8.606V5.82H114.353V4.336H116.299V2.446L117.951 1.732V4.336H120.471V5.82H117.951V8.354C117.951 8.83 118.04 9.166 118.217 9.362C118.404 9.558 118.721 9.656 119.169 9.656C119.72 9.656 120.252 9.49733 120.765 9.18L121.185 10.58C120.513 10.972 119.743 11.168 118.875 11.168ZM121.816 13.058V11.882H129.936V13.058H121.816ZM135.118 11.168C133.4 11.168 132.542 10.314 132.542 8.606V5.82H130.596V4.336H132.542V2.446L134.194 1.732V4.336H136.714V5.82H134.194V8.354C134.194 8.83 134.282 9.166 134.46 9.362C134.646 9.558 134.964 9.656 135.412 9.656C135.962 9.656 136.494 9.49733 137.007 9.18L137.428 10.58C136.756 10.972 135.986 11.168 135.118 11.168ZM142.119 11.168C141.447 11.168 140.854 11.0233 140.341 10.734C139.827 10.4353 139.426 10.0247 139.137 9.502C138.847 8.97 138.703 8.35867 138.703 7.668C138.703 6.968 138.847 6.35667 139.137 5.834C139.426 5.31133 139.827 4.90533 140.341 4.616C140.854 4.31733 141.447 4.168 142.119 4.168C142.791 4.168 143.383 4.31733 143.897 4.616C144.41 4.90533 144.811 5.31133 145.101 5.834C145.39 6.35667 145.535 6.968 145.535 7.668C145.535 8.35867 145.39 8.97 145.101 9.502C144.811 10.0247 144.41 10.4353 143.897 10.734C143.383 11.0233 142.791 11.168 142.119 11.168ZM142.119 9.656C142.66 9.656 143.085 9.48333 143.393 9.138C143.701 8.78333 143.855 8.29333 143.855 7.668C143.855 7.04267 143.701 6.55733 143.393 6.212C143.085 5.85733 142.66 5.68 142.119 5.68C141.577 5.68 141.153 5.85733 140.845 6.212C140.537 6.55733 140.383 7.04267 140.383 7.668C140.383 8.29333 140.537 8.78333 140.845 9.138C141.153 9.48333 141.577 9.656 142.119 9.656ZM152.522 14.108C151.598 13.8653 150.8 13.436 150.128 12.82C149.456 12.2133 148.938 11.4573 148.574 10.552C148.21 9.63733 148.028 8.62 148.028 7.5C148.028 6.37067 148.21 5.35333 148.574 4.448C148.938 3.54267 149.456 2.78667 150.128 2.18C150.8 1.564 151.598 1.13467 152.522 0.891999V2.026C151.906 2.23133 151.36 2.586 150.884 3.09C150.417 3.58467 150.048 4.20533 149.778 4.952C149.516 5.69867 149.386 6.548 149.386 7.5C149.386 8.452 149.516 9.30133 149.778 10.048C150.048 10.7947 150.417 11.4153 150.884 11.91C151.36 12.414 151.906 12.7687 152.522 12.974V14.108ZM154.301 13.058V11.882H162.421V13.058H154.301ZM239.95 11.168C238.792 11.168 237.882 10.8553 237.22 10.23C236.557 9.60467 236.226 8.75067 236.226 7.668C236.226 6.968 236.37 6.35667 236.66 5.834C236.949 5.31133 237.35 4.90533 237.864 4.616C238.377 4.31733 238.974 4.168 239.656 4.168C240.318 4.168 240.892 4.308 241.378 4.588C241.872 4.85867 242.255 5.24133 242.526 5.736C242.796 6.23067 242.932 6.80933 242.932 7.472C242.932 7.59333 242.927 7.71933 242.918 7.85C242.908 7.97133 242.89 8.102 242.862 8.242H237.906C238.083 9.25933 238.769 9.768 239.964 9.768C240.664 9.768 241.35 9.55333 242.022 9.124L242.638 10.342C242.208 10.6313 241.779 10.8413 241.35 10.972C240.92 11.1027 240.454 11.168 239.95 11.168ZM237.92 6.996H241.308C241.149 6.044 240.594 5.568 239.642 5.568C238.699 5.568 238.125 6.044 237.92 6.996ZM244.767 11V4.336H245.985L246.125 4.91C246.479 4.64867 246.829 4.462 247.175 4.35C247.529 4.22867 247.903 4.168 248.295 4.168C249.079 4.168 249.681 4.392 250.101 4.84C250.521 5.27867 250.731 5.90867 250.731 6.73V11H249.079V6.982C249.079 6.506 248.985 6.17 248.799 5.974C248.621 5.778 248.309 5.68 247.861 5.68C247.599 5.68 247.352 5.71267 247.119 5.778C246.895 5.834 246.661 5.92733 246.419 6.058V11H244.767ZM254.974 11L252.356 4.336H254.12L255.87 8.942L257.62 4.336H259.272L256.654 11H254.974ZM288.858 11.168C288.13 11.168 287.496 11.028 286.954 10.748C286.422 10.4587 286.007 10.0527 285.708 9.53C285.419 9.00733 285.274 8.38667 285.274 7.668C285.274 6.94933 285.419 6.32867 285.708 5.806C286.007 5.28333 286.422 4.882 286.954 4.602C287.496 4.31267 288.13 4.168 288.858 4.168C289.726 4.168 290.52 4.39667 291.238 4.854L290.664 6.212C290.319 6.016 290.011 5.88067 289.74 5.806C289.479 5.722 289.199 5.68 288.9 5.68C287.603 5.68 286.954 6.34267 286.954 7.668C286.954 8.99333 287.603 9.656 288.9 9.656C289.227 9.656 289.535 9.60933 289.824 9.516C290.114 9.42267 290.45 9.25933 290.832 9.026L291.448 10.342C290.674 10.8927 289.81 11.168 288.858 11.168ZM295.705 11.168C294.893 11.168 294.259 10.9813 293.801 10.608C293.353 10.2253 293.129 9.69333 293.129 9.012C293.129 8.35867 293.344 7.85933 293.773 7.514C294.212 7.16867 294.842 6.996 295.663 6.996H297.749V6.87C297.749 6.40333 297.637 6.072 297.413 5.876C297.189 5.67067 296.816 5.568 296.293 5.568C295.472 5.568 294.707 5.77333 293.997 6.184L293.507 4.854C294.375 4.39667 295.365 4.168 296.475 4.168C297.483 4.168 298.221 4.378 298.687 4.798C299.163 5.218 299.401 5.876 299.401 6.772V11H298.183L298.043 10.426C297.679 10.6873 297.306 10.8787 296.923 11C296.55 11.112 296.144 11.168 295.705 11.168ZM296.055 9.768C296.69 9.768 297.255 9.628 297.749 9.348V8.242H295.817C295.463 8.242 295.206 8.30267 295.047 8.424C294.889 8.536 294.809 8.71333 294.809 8.956C294.809 9.22667 294.907 9.432 295.103 9.572C295.309 9.70267 295.626 9.768 296.055 9.768ZM305.954 11.168C304.237 11.168 303.378 10.314 303.378 8.606V2.558H300.802V1.06H305.03V8.354C305.03 8.83 305.119 9.166 305.296 9.362C305.483 9.558 305.8 9.656 306.248 9.656C306.799 9.656 307.331 9.49733 307.844 9.18L308.264 10.58C307.592 10.972 306.822 11.168 305.954 11.168ZM314.076 11.168C312.358 11.168 311.5 10.314 311.5 8.606V2.558H308.924V1.06H313.152V8.354C313.152 8.83 313.24 9.166 313.418 9.362C313.604 9.558 313.922 9.656 314.37 9.656C314.92 9.656 315.452 9.49733 315.966 9.18L316.386 10.58C315.714 10.972 314.944 11.168 314.076 11.168ZM321.161 11.168C320.003 11.168 319.093 10.8553 318.431 10.23C317.768 9.60467 317.437 8.75067 317.437 7.668C317.437 6.968 317.581 6.35667 317.871 5.834C318.16 5.31133 318.561 4.90533 319.075 4.616C319.588 4.31733 320.185 4.168 320.867 4.168C321.529 4.168 322.103 4.308 322.589 4.588C323.083 4.85867 323.466 5.24133 323.737 5.736C324.007 6.23067 324.143 6.80933 324.143 7.472C324.143 7.59333 324.138 7.71933 324.129 7.85C324.119 7.97133 324.101 8.102 324.073 8.242H319.117C319.294 9.25933 319.98 9.768 321.175 9.768C321.875 9.768 322.561 9.55333 323.233 9.124L323.849 10.342C323.419 10.6313 322.99 10.8413 322.561 10.972C322.131 11.1027 321.665 11.168 321.161 11.168ZM319.131 6.996H322.519C322.36 6.044 321.805 5.568 320.853 5.568C319.91 5.568 319.336 6.044 319.131 6.996ZM326.37 11V4.336H327.658L327.826 5.26C328.171 4.87733 328.544 4.602 328.946 4.434C329.347 4.25667 329.8 4.168 330.304 4.168C330.985 4.168 331.573 4.34533 332.068 4.7L331.452 6.128C331.246 5.97867 331.036 5.87133 330.822 5.806C330.616 5.73133 330.392 5.694 330.15 5.694C329.356 5.694 328.647 6.07667 328.022 6.842V11H326.37ZM361.766 32.168C360.609 32.168 359.699 31.8553 359.036 31.23C358.373 30.6047 358.042 29.7507 358.042 28.668C358.042 27.968 358.187 27.3567 358.476 26.834C358.765 26.3113 359.167 25.9053 359.68 25.616C360.193 25.3173 360.791 25.168 361.472 25.168C362.135 25.168 362.709 25.308 363.194 25.588C363.689 25.8587 364.071 26.2413 364.342 26.736C364.613 27.2307 364.748 27.8093 364.748 28.472C364.748 28.5933 364.743 28.7193 364.734 28.85C364.725 28.9713 364.706 29.102 364.678 29.242H359.722C359.899 30.2593 360.585 30.768 361.78 30.768C362.48 30.768 363.166 30.5533 363.838 30.124L364.454 31.342C364.025 31.6313 363.595 31.8413 363.166 31.972C362.737 32.1027 362.27 32.168 361.766 32.168ZM359.736 27.996H363.124C362.965 27.044 362.41 26.568 361.458 26.568C360.515 26.568 359.941 27.044 359.736 27.996ZM365.911 32L368.459 28.598L365.981 25.336H368.053L369.635 27.408L371.147 25.336H373.037L370.559 28.64L373.107 32H371.035L369.383 29.83L367.801 32H365.911ZM374.634 34.94V25.336H375.852L375.992 25.896C376.683 25.4107 377.388 25.168 378.106 25.168C378.984 25.168 379.679 25.4853 380.192 26.12C380.715 26.7453 380.976 27.5947 380.976 28.668C380.976 29.7413 380.715 30.5953 380.192 31.23C379.679 31.8553 378.984 32.168 378.106 32.168C377.798 32.168 377.49 32.1213 377.182 32.028C376.884 31.944 376.585 31.8087 376.286 31.622V34.94H374.634ZM377.686 30.656C378.769 30.656 379.31 29.9933 379.31 28.668C379.31 27.3427 378.769 26.68 377.686 26.68C377.22 26.68 376.753 26.806 376.286 27.058V30.278C376.753 30.53 377.22 30.656 377.686 30.656ZM386.129 32.168C384.972 32.168 384.062 31.8553 383.399 31.23C382.737 30.6047 382.405 29.7507 382.405 28.668C382.405 27.968 382.55 27.3567 382.839 26.834C383.129 26.3113 383.53 25.9053 384.043 25.616C384.557 25.3173 385.154 25.168 385.835 25.168C386.498 25.168 387.072 25.308 387.557 25.588C388.052 25.8587 388.435 26.2413 388.705 26.736C388.976 27.2307 389.111 27.8093 389.111 28.472C389.111 28.5933 389.107 28.7193 389.097 28.85C389.088 28.9713 389.069 29.102 389.041 29.242H384.085C384.263 30.2593 384.949 30.768 386.143 30.768C386.843 30.768 387.529 30.5533 388.201 30.124L388.817 31.342C388.388 31.6313 387.959 31.8413 387.529 31.972C387.1 32.1027 386.633 32.168 386.129 32.168ZM384.099 27.996H387.487C387.329 27.044 386.773 26.568 385.821 26.568C384.879 26.568 384.305 27.044 384.099 27.996ZM394.433 32.168C393.705 32.168 393.07 32.028 392.529 31.748C391.997 31.4587 391.581 31.0527 391.283 30.53C390.993 30.0073 390.849 29.3867 390.849 28.668C390.849 27.9493 390.993 27.3287 391.283 26.806C391.581 26.2833 391.997 25.882 392.529 25.602C393.07 25.3127 393.705 25.168 394.433 25.168C395.301 25.168 396.094 25.3967 396.812 25.854L396.239 27.212C395.893 27.016 395.585 26.8807 395.315 26.806C395.053 26.722 394.773 26.68 394.475 26.68C393.177 26.68 392.529 27.3427 392.529 28.668C392.529 29.9933 393.177 30.656 394.475 30.656C394.801 30.656 395.109 30.6093 395.399 30.516C395.688 30.4227 396.024 30.2593 396.407 30.026L397.023 31.342C396.248 31.8927 395.385 32.168 394.433 32.168ZM403.114 32.168C401.396 32.168 400.538 31.314 400.538 29.606V26.82H398.592V25.336H400.538V23.446L402.19 22.732V25.336H404.71V26.82H402.19V29.354C402.19 29.83 402.278 30.166 402.456 30.362C402.642 30.558 402.96 30.656 403.408 30.656C403.958 30.656 404.49 30.4973 405.004 30.18L405.424 31.58C404.752 31.972 403.982 32.168 403.114 32.168Z" fill="#DCDCAF"/>
<path d="M416.192 27.156L415.604 22.9H417.536L416.948 27.156H416.192ZM419.524 27.156L418.936 22.9H420.868L420.28 27.156H419.524ZM426.273 32.168C425.62 32.168 425.013 32.0793 424.453 31.902C423.893 31.7153 423.38 31.426 422.913 31.034L423.767 29.676C424.131 29.9933 424.523 30.2267 424.943 30.376C425.372 30.5253 425.83 30.6 426.315 30.6C427.416 30.6 427.967 30.208 427.967 29.424C427.967 29.1253 427.888 28.9013 427.729 28.752C427.58 28.5933 427.318 28.4673 426.945 28.374L425.475 28.01C424.719 27.8233 424.159 27.5293 423.795 27.128C423.44 26.7173 423.263 26.1713 423.263 25.49C423.263 24.6313 423.548 23.9593 424.117 23.474C424.686 22.9793 425.484 22.732 426.511 22.732C427.622 22.732 428.606 23.0353 429.465 23.642L428.667 25.028C428.07 24.5427 427.351 24.3 426.511 24.3C425.475 24.3 424.957 24.6687 424.957 25.406C424.957 25.6673 425.032 25.8773 425.181 26.036C425.34 26.1853 425.606 26.3067 425.979 26.4L427.449 26.764C428.205 26.9507 428.76 27.2493 429.115 27.66C429.479 28.0613 429.661 28.6213 429.661 29.34C429.661 30.2173 429.362 30.908 428.765 31.412C428.177 31.916 427.346 32.168 426.273 32.168ZM431.552 32V22.06H433.204V25.714C433.783 25.35 434.408 25.168 435.08 25.168C435.864 25.168 436.466 25.392 436.886 25.84C437.306 26.2787 437.516 26.9087 437.516 27.73V32H435.864V27.982C435.864 27.506 435.771 27.17 435.584 26.974C435.407 26.778 435.094 26.68 434.646 26.68C434.385 26.68 434.137 26.7127 433.904 26.778C433.68 26.834 433.447 26.9273 433.204 27.058V32H431.552ZM442.599 32.168C441.927 32.168 441.334 32.0233 440.821 31.734C440.308 31.4353 439.906 31.0247 439.617 30.502C439.328 29.97 439.183 29.3587 439.183 28.668C439.183 27.968 439.328 27.3567 439.617 26.834C439.906 26.3113 440.308 25.9053 440.821 25.616C441.334 25.3173 441.927 25.168 442.599 25.168C443.271 25.168 443.864 25.3173 444.377 25.616C444.89 25.9053 445.292 26.3113 445.581 26.834C445.87 27.3567 446.015 27.968 446.015 28.668C446.015 29.3587 445.87 29.97 445.581 30.502C445.292 31.0247 444.89 31.4353 444.377 31.734C443.864 32.0233 443.271 32.168 442.599 32.168ZM442.599 30.656C443.14 30.656 443.565 30.4833 443.873 30.138C444.181 29.7833 444.335 29.2933 444.335 28.668C444.335 28.0427 444.181 27.5573 443.873 27.212C443.565 26.8573 443.14 26.68 442.599 26.68C442.058 26.68 441.633 26.8573 441.325 27.212C441.017 27.5573 440.863 28.0427 440.863 28.668C440.863 29.2933 441.017 29.7833 441.325 30.138C441.633 30.4833 442.058 30.656 442.599 30.656ZM450.118 32.168C449.334 32.168 448.732 31.9487 448.312 31.51C447.892 31.062 447.682 30.4273 447.682 29.606V25.336H449.334V29.354C449.334 29.83 449.423 30.166 449.6 30.362C449.787 30.558 450.104 30.656 450.552 30.656C450.813 30.656 451.061 30.6233 451.294 30.558C451.527 30.4927 451.761 30.3993 451.994 30.278V25.336H453.646V32H452.428L452.288 31.426C451.943 31.6873 451.593 31.8787 451.238 32C450.883 32.112 450.51 32.168 450.118 32.168ZM460.255 32.168C458.538 32.168 457.679 31.314 457.679 29.606V23.558H455.103V22.06H459.331V29.354C459.331 29.83 459.42 30.166 459.597 30.362C459.784 30.558 460.101 30.656 460.549 30.656C461.1 30.656 461.632 30.4973 462.145 30.18L462.565 31.58C461.893 31.972 461.123 32.168 460.255 32.168ZM466.486 32.168C465.609 32.168 464.909 31.8553 464.386 31.23C463.873 30.5953 463.616 29.7413 463.616 28.668C463.616 27.5947 463.873 26.7453 464.386 26.12C464.909 25.4853 465.609 25.168 466.486 25.168C466.794 25.168 467.098 25.2147 467.396 25.308C467.704 25.392 468.008 25.5273 468.306 25.714V22.06H469.958V32H468.74L468.6 31.44C467.91 31.9253 467.205 32.168 466.486 32.168ZM466.906 30.656C467.382 30.656 467.849 30.53 468.306 30.278V27.058C467.849 26.806 467.382 26.68 466.906 26.68C465.824 26.68 465.282 27.3427 465.282 28.668C465.282 29.9933 465.824 30.656 466.906 30.656ZM0.616 53V46.336H1.596L1.722 46.84C2.198 46.392 2.71133 46.168 3.262 46.168C3.84067 46.168 4.26533 46.392 4.536 46.84C4.984 46.392 5.47867 46.168 6.02 46.168C6.496 46.168 6.86933 46.322 7.14 46.63C7.42 46.9287 7.56 47.3393 7.56 47.862V53H6.132V48.058C6.132 47.722 5.95 47.554 5.586 47.554C5.29667 47.554 5.03533 47.6567 4.802 47.862V53H3.374V48.058C3.374 47.722 3.192 47.554 2.828 47.554C2.548 47.554 2.28667 47.652 2.044 47.848V53H0.616ZM11.3551 53V47.82H8.77909V46.336H13.0071V51.516H15.5831V53H11.3551ZM12.0411 45.132C11.7238 45.132 11.4578 45.0247 11.2431 44.81C11.0284 44.5953 10.9211 44.3293 10.9211 44.012C10.9211 43.6947 11.0284 43.4287 11.2431 43.214C11.4578 42.9993 11.7238 42.892 12.0411 42.892C12.3584 42.892 12.6244 42.9993 12.8391 43.214C13.0538 43.4287 13.1611 43.6947 13.1611 44.012C13.1611 44.3293 13.0538 44.5953 12.8391 44.81C12.6244 45.0247 12.3584 45.132 12.0411 45.132ZM17.3762 53V46.336H18.5942L18.7342 46.91C19.0889 46.6487 19.4389 46.462 19.7842 46.35C20.1389 46.2287 20.5122 46.168 20.9042 46.168C21.6882 46.168 22.2902 46.392 22.7102 46.84C23.1302 47.2787 23.3402 47.9087 23.3402 48.73V53H21.6882V48.982C21.6882 48.506 21.5949 48.17 21.4082 47.974C21.2309 47.778 20.9182 47.68 20.4702 47.68C20.2089 47.68 19.9615 47.7127 19.7282 47.778C19.5042 47.834 19.2709 47.9273 19.0282 48.058V53H17.3762ZM29.5433 53.168C27.8259 53.168 26.9673 52.314 26.9673 50.606V47.82H25.0213V46.336H26.9673V44.446L28.6193 43.732V46.336H31.1393V47.82H28.6193V50.354C28.6193 50.83 28.7079 51.166 28.8853 51.362C29.0719 51.558 29.3893 51.656 29.8373 51.656C30.3879 51.656 30.9199 51.4973 31.4333 51.18L31.8533 52.58C31.1813 52.972 30.4113 53.168 29.5433 53.168ZM34.5004 48.156L33.9124 43.9H35.8444L35.2564 48.156H34.5004ZM37.8324 48.156L37.2444 43.9H39.1764L38.5884 48.156H37.8324Z" fill="#C5947C"/>
</svg>
