<svg width="22" height="21" viewBox="0 0 22 21" fill="none" xmlns="http://www.w3.org/2000/svg">
<path d="M13.8638 5.5H3.19922" stroke="#0C42CD"/>
<path fill-rule="evenodd" clip-rule="evenodd" d="M0 1.5C0 0.671573 0.716203 0 1.59968 0H15.4636C16.3471 0 17.0633 0.671573 17.0633 1.5V6.12407C16.7197 5.98331 16.3636 5.86452 15.9968 5.76962V1.5C15.9968 1.22386 15.7581 1 15.4636 1H1.59968C1.30519 1 1.06646 1.22386 1.06646 1.5V14.5C1.06646 14.7761 1.30519 15 1.59968 15H6.15304C6.25425 15.3439 6.38093 15.6778 6.53104 16H1.59968C0.716203 16 0 15.3284 0 14.5V1.5ZM6.53104 10C6.38093 10.3222 6.25425 10.6561 6.15304 11H3.19937V10H6.53104ZM8.42599 7.5C8.07475 7.80549 7.75282 8.14019 7.4646 8.5H3.19937V7.5H8.42599ZM13.8639 5.5C12.8496 5.5 11.8793 5.67705 10.9864 6H3.19937V5H13.8639V5.5Z" fill="#0C42CD"/>
<path d="M21.3621 13C21.3621 16.8362 18.0357 20 13.8637 20C9.6916 20 6.36523 16.8362 6.36523 13C6.36523 9.16382 9.6916 6 13.8637 6C18.0357 6 21.3621 9.16382 21.3621 13Z" stroke="white"/>
<path fill-rule="evenodd" clip-rule="evenodd" d="M11.6973 13C11.6973 11.9252 12.6363 11 13.8634 11C14.7442 11 15.4766 11.4767 15.8198 12.1432L15.164 11.9693L14.9165 12.9095L16.7306 13.3907L17.2105 13.518L17.3462 13.068L17.8594 11.3669L16.8756 11.0721L16.6983 11.6599C16.1743 10.6666 15.0872 10 13.8634 10C12.1456 10 10.6973 11.3133 10.6973 13C10.6973 14.6867 12.1456 16 13.8634 16V15C12.6363 15 11.6973 14.0748 11.6973 13Z" fill="white"/>
</svg>
