<svg width="25" height="25" viewBox="0 0 25 25" fill="none" xmlns="http://www.w3.org/2000/svg">
<path fill-rule="evenodd" clip-rule="evenodd" d="M10.3123 9.36527L6.93016 9.40411L3.64009 12.6942L2.66632 13.6679L4.04336 13.6521L7.39221 13.6137C7.51651 13.3347 7.6757 13.0086 7.87703 12.6455L5.01713 12.6784L7.33343 10.3621L9.45471 10.3377C9.71402 10.021 9.9991 9.69579 10.3123 9.36527Z" fill="white"/>
<path fill-rule="evenodd" clip-rule="evenodd" d="M14.9717 13.8984L14.9315 17.4035L11.6414 20.6935L10.6676 21.6673L10.6834 20.2902L10.7223 16.9025C11.0066 16.7704 11.3323 16.6049 11.6906 16.3997L11.6572 19.3165L13.9735 17.0002L13.999 14.7777C14.3164 14.5112 14.6417 14.2188 14.9717 13.8984Z" fill="white"/>
<path fill-rule="evenodd" clip-rule="evenodd" d="M7.0003 14.6679C7.0003 14.6679 7.66701 12.001 10.6672 9.00084C14.6674 5.00059 20.3345 4.00053 20.3345 4.00053C20.3345 4.00053 19.3344 9.66755 15.3341 13.6678C12.334 16.668 9.66713 17.3347 9.66713 17.3347L7.0003 14.6679ZM14.6671 9.66791C15.2194 10.2202 16.1149 10.2202 16.6672 9.66791C17.2195 9.11559 17.2195 8.2201 16.6672 7.66778C16.1149 7.11546 15.2194 7.11546 14.6671 7.66778C14.1148 8.2201 14.1148 9.11559 14.6671 9.66791Z" fill="#0C42CD"/>
<path fill-rule="evenodd" clip-rule="evenodd" d="M5.99333 20.3272L8.66016 17.6603L9.34075 18.3409L6.67392 21.0078L5.99333 20.3272Z" fill="white"/>
<path fill-rule="evenodd" clip-rule="evenodd" d="M3.65934 19.9939L6.32617 17.3271L7.00677 18.0077L4.33994 20.6745L3.65934 19.9939Z" fill="white"/>
<path fill-rule="evenodd" clip-rule="evenodd" d="M3.32536 17.6607L5.99219 14.9939L6.67279 15.6745L4.00595 18.3413L3.32536 17.6607Z" fill="white"/>
</svg>
