<svg width="46" height="25" viewBox="0 0 46 25" fill="none" xmlns="http://www.w3.org/2000/svg">
<path d="M25.8796 12.4002C25.8796 19.2435 20.2339 24.8002 13.2401 24.8002C6.24623 24.8002 0.600586 19.2435 0.600586 12.4002C0.600586 5.55698 6.24623 0.000244141 13.2401 0.000244141C20.2339 0.000244141 25.8796 5.55698 25.8796 12.4002ZM39.7269 12.4002C39.7269 18.8329 36.89 24.0612 33.4071 24.0612C29.9242 24.0612 27.0874 18.8329 27.0874 12.4002C27.0874 5.96757 29.9242 0.739312 33.4071 0.739312C36.89 0.739312 39.7269 5.9402 39.7269 12.4002ZM45.4006 12.4002C45.4006 18.176 44.4175 22.8568 43.1817 22.8568C41.9458 22.8568 40.9627 18.176 40.9627 12.4002C40.9627 6.62453 41.9458 1.94373 43.1817 1.94373C44.4175 1.94373 45.4006 6.62453 45.4006 12.4002Z" fill="white"/>
</svg>
