<svg width="160" height="45" viewBox="0 0 160 45" fill="none" xmlns="http://www.w3.org/2000/svg">
<path d="M65.0092 11.6035C65.8669 11.6035 66.4841 11.3948 66.8609 10.9776C67.2377 10.5603 67.4262 9.97745 67.4262 9.22902C67.4262 8.89786 67.3774 8.5965 67.28 8.32495C67.1825 8.0534 67.0331 7.82158 66.8317 7.62951C66.6368 7.43081 66.3866 7.27848 66.0813 7.17251C65.7824 7.06653 65.4251 7.01355 65.0092 7.01355H63.294V11.6035H65.0092ZM65.0092 4.50003C66.0098 4.50003 66.8674 4.62256 67.5821 4.86762C68.3033 5.10606 68.8945 5.43722 69.3558 5.86111C69.8236 6.28499 70.1679 6.78505 70.3888 7.36127C70.6097 7.93749 70.7202 8.56008 70.7202 9.22902C70.7202 9.95095 70.6065 10.6133 70.3791 11.216C70.1517 11.8187 69.8041 12.3353 69.3363 12.7658C68.8685 13.1963 68.274 13.5341 67.5528 13.7792C66.8382 14.0176 65.9903 14.1368 65.0092 14.1368H63.294V18.9751H60V4.50003H65.0092Z" fill="#9097AA"/>
<path d="M84.7878 4.50003V18.9751H81.4743V12.8552H75.7049V18.9751H72.3914V4.50003H75.7049V10.5504H81.4743V4.50003H84.7878Z" fill="#9097AA"/>
<path d="M95.0469 13.4414L93.7312 9.47739C93.6338 9.22571 93.5298 8.93098 93.4194 8.59319C93.3089 8.24878 93.1985 7.87788 93.088 7.48049C92.9906 7.8845 92.8866 8.25872 92.7762 8.60313C92.6657 8.94753 92.5618 9.24558 92.4643 9.49726L91.1584 13.4414H95.0469ZM100.28 18.9751H97.7269C97.4411 18.9751 97.2104 18.9089 97.035 18.7764C96.8596 18.6373 96.7264 18.4618 96.6354 18.2499L95.7973 15.7264H90.3982L89.5601 18.2499C89.4886 18.4353 89.3587 18.6042 89.1703 18.7565C88.9884 18.9023 88.761 18.9751 88.4881 18.9751H85.9153L91.4118 4.50003H94.7838L100.28 18.9751Z" fill="#9097AA"/>
<path d="M109.956 16.2927V18.9751H101.4V4.50003H104.694V16.2927H109.956Z" fill="#9097AA"/>
<path d="M119.144 13.4414L117.829 9.47739C117.731 9.22571 117.627 8.93098 117.517 8.59319C117.406 8.24878 117.296 7.87788 117.186 7.48049C117.088 7.8845 116.984 8.25872 116.874 8.60313C116.763 8.94753 116.659 9.24558 116.562 9.49726L115.256 13.4414H119.144ZM124.378 18.9751H121.824C121.539 18.9751 121.308 18.9089 121.133 18.7764C120.957 18.6373 120.824 18.4618 120.733 18.2499L119.895 15.7264H114.496L113.658 18.2499C113.586 18.4353 113.456 18.6042 113.268 18.7565C113.086 18.9023 112.859 18.9751 112.586 18.9751H110.013L115.509 4.50003H118.881L124.378 18.9751Z" fill="#9097AA"/>
<path d="M72.3964 27.866V42.3411H70.6812C70.4278 42.3411 70.2134 42.3013 70.038 42.2218C69.8691 42.1357 69.7001 41.99 69.5312 41.7847L62.836 33.1513C62.862 33.4096 62.8782 33.6613 62.8847 33.9064C62.8977 34.1448 62.9042 34.37 62.9042 34.5819V42.3411H60V27.866H61.7347C61.8777 27.866 61.9979 27.8726 62.0953 27.8859C62.1928 27.8991 62.2805 27.9256 62.3584 27.9653C62.4364 27.9984 62.5111 28.0481 62.5826 28.1144C62.6541 28.1806 62.7353 28.27 62.8262 28.3826L69.5799 37.0756C69.5475 36.7974 69.5247 36.5292 69.5117 36.2709C69.4987 36.0059 69.4922 35.7576 69.4922 35.5258V27.866H72.3964Z" fill="#9097AA"/>
<path d="M78.4649 30.449V33.8269H82.9284V36.3106H78.4649V39.758H84.2928V42.3411H75.1514V27.866H84.2928V30.449H78.4649Z" fill="#9097AA"/>
<path d="M96.5282 30.5285H92.5325V42.3411H89.2385V30.5285H85.2428V27.866H96.5282V30.5285Z" fill="#9097AA"/>
<path d="M117.547 27.866L113.162 42.3411H110.179L107.509 33.3699C107.457 33.2308 107.408 33.0785 107.363 32.9129C107.317 32.7407 107.272 32.5619 107.226 32.3764C107.181 32.5619 107.136 32.7407 107.09 32.9129C107.045 33.0785 106.996 33.2308 106.944 33.3699L104.235 42.3411H101.252L96.8669 27.866H99.6346C99.9205 27.866 100.158 27.9322 100.346 28.0647C100.541 28.1971 100.668 28.3727 100.726 28.5912L102.675 36.1417C102.734 36.3802 102.792 36.6418 102.851 36.9266C102.909 37.2047 102.968 37.4962 103.026 37.8008C103.143 37.1783 103.286 36.6252 103.455 36.1417L105.755 28.5912C105.813 28.4058 105.937 28.2402 106.125 28.0945C106.32 27.9422 106.554 27.866 106.827 27.866H107.801C108.087 27.866 108.318 27.9355 108.493 28.0746C108.669 28.2071 108.802 28.3793 108.893 28.5912L111.173 36.1417C111.342 36.6053 111.485 37.1319 111.602 37.7214C111.654 37.4233 111.706 37.1451 111.758 36.8868C111.817 36.6219 111.875 36.3735 111.934 36.1417L113.883 28.5912C113.935 28.3992 114.058 28.2303 114.253 28.0845C114.448 27.9388 114.682 27.866 114.955 27.866H117.547Z" fill="#9097AA"/>
<path d="M132.543 35.0986C132.543 36.145 132.364 37.1186 132.007 38.0194C131.656 38.9202 131.159 39.705 130.516 40.374C129.873 41.0363 129.096 41.5562 128.187 41.9337C127.284 42.3113 126.28 42.5 125.175 42.5C124.071 42.5 123.064 42.3113 122.154 41.9337C121.245 41.5562 120.465 41.0363 119.815 40.374C119.172 39.705 118.672 38.9202 118.315 38.0194C117.964 37.1186 117.788 36.145 117.788 35.0986C117.788 34.0521 117.964 33.0785 118.315 32.1777C118.672 31.2769 119.172 30.4954 119.815 29.8331C120.465 29.1708 121.245 28.6508 122.154 28.2733C123.064 27.8958 124.071 27.707 125.175 27.707C126.28 27.707 127.284 27.8991 128.187 28.2832C129.096 28.6608 129.873 29.1807 130.516 29.843C131.159 30.5053 131.656 31.2869 132.007 32.1876C132.364 33.0884 132.543 34.0587 132.543 35.0986ZM129.171 35.0986C129.171 34.3832 129.08 33.7408 128.898 33.1712C128.716 32.595 128.453 32.1082 128.109 31.7108C127.771 31.3134 127.355 31.0087 126.861 30.7968C126.368 30.5848 125.806 30.4789 125.175 30.4789C124.539 30.4789 123.97 30.5848 123.47 30.7968C122.976 31.0087 122.557 31.3134 122.213 31.7108C121.875 32.1082 121.615 32.595 121.433 33.1712C121.251 33.7408 121.16 34.3832 121.16 35.0986C121.16 35.8205 121.251 36.4696 121.433 37.0458C121.615 37.6154 121.875 38.0989 122.213 38.4963C122.557 38.8937 122.976 39.1983 123.47 39.4103C123.97 39.6156 124.539 39.7183 125.175 39.7183C125.806 39.7183 126.368 39.6156 126.861 39.4103C127.355 39.1983 127.771 38.8937 128.109 38.4963C128.453 38.0989 128.716 37.6154 128.898 37.0458C129.08 36.4696 129.171 35.8205 129.171 35.0986Z" fill="#9097AA"/>
<path d="M139.101 34.6714C139.549 34.6714 139.929 34.6151 140.241 34.5025C140.56 34.3832 140.819 34.221 141.021 34.0157C141.222 33.8103 141.368 33.5719 141.459 33.3004C141.55 33.0222 141.596 32.7241 141.596 32.4062C141.596 31.7704 141.391 31.2736 140.982 30.916C140.579 30.5583 139.952 30.3795 139.101 30.3795H137.776V34.6714H139.101ZM146.098 42.3411H143.116C142.564 42.3411 142.168 42.1291 141.927 41.7052L139.569 37.5028C139.458 37.324 139.335 37.1948 139.198 37.1153C139.062 37.0292 138.867 36.9862 138.614 36.9862H137.776V42.3411H134.482V27.866H139.101C140.128 27.866 141.001 27.9753 141.723 28.1938C142.45 28.4058 143.041 28.7038 143.496 29.088C143.958 29.4721 144.292 29.9258 144.5 30.449C144.708 30.9723 144.812 31.5419 144.812 32.1578C144.812 32.6281 144.75 33.0718 144.627 33.4891C144.503 33.9064 144.321 34.2938 144.081 34.6515C143.841 35.0025 143.542 35.3171 143.184 35.5953C142.834 35.8735 142.427 36.102 141.966 36.2808C142.181 36.3934 142.382 36.5358 142.57 36.708C142.759 36.8736 142.928 37.0723 143.077 37.3041L146.098 42.3411Z" fill="#9097AA"/>
<path d="M150.586 33.7275H151.112C151.599 33.7275 151.95 33.5719 152.165 33.2606L155.361 28.5316C155.55 28.2799 155.751 28.1077 155.965 28.015C156.186 27.9157 156.459 27.866 156.784 27.866H159.649L155.439 33.7176C155.14 34.1216 154.819 34.4131 154.474 34.5919C154.721 34.6846 154.945 34.8138 155.147 34.9793C155.348 35.1449 155.537 35.3602 155.712 35.6251L160 42.3411H157.057C156.868 42.3411 156.706 42.3278 156.57 42.3013C156.44 42.2748 156.326 42.2351 156.228 42.1821C156.131 42.1291 156.047 42.0662 155.975 41.9933C155.904 41.9139 155.835 41.8245 155.77 41.7251L152.554 36.6881C152.437 36.5027 152.288 36.3735 152.106 36.3007C151.931 36.2212 151.69 36.1815 151.385 36.1815H150.586V42.3411H147.292V27.866H150.586V33.7275Z" fill="#9097AA"/>
<path d="M35.9973 22.5001H9V31.5005H35.9973V22.5001Z" fill="#9097AA"/>
<path d="M45.0004 9.00034H36V22.4999H45.0004V9.00034Z" fill="#9097AA"/>
<path d="M9.00236 31.5004H0V33.751V36.0015V45H9.0004V36.0015L9.00236 31.5004Z" fill="#9097AA"/>
<path d="M35.9996 3.05176e-05H9.00236H7.70847H0V18.0008V20.8747V22.4999H9.00236V20.8747V18.0008V9.00043H35.9996V3.05176e-05Z" fill="#9097AA"/>
<path d="M35.9973 22.5001H9V31.5005H35.9973V22.5001Z" fill="#9097AA"/>
</svg>
