<svg width="31" height="46" viewBox="0 0 31 46" fill="none" xmlns="http://www.w3.org/2000/svg">
<path d="M16.0281 0C19.01 0 21.5571 0.518019 23.6693 1.55406C25.823 2.59009 27.4382 4.01982 28.515 5.84324C29.6333 7.66667 30.1924 9.6973 30.1924 11.9351C30.1924 14.7532 29.4262 17.0739 27.8938 18.8973C26.3614 20.6793 24.332 21.7775 21.8056 22.1919V22.5027C27.9352 24.3261 31 27.9315 31 33.3189C31 37.0901 29.7368 40.1568 27.2104 42.5189C24.684 44.8396 21.1222 46 16.525 46C11.6379 46 7.74482 44.7982 4.84569 42.3946C1.94656 39.9495 0.331329 36.282 0 31.3919H8.57315C8.78023 33.6297 9.50501 35.4117 10.7475 36.7378C12.0314 38.0225 13.833 38.6649 16.1523 38.6649C18.1403 38.6649 19.6934 38.1261 20.8116 37.0486C21.9299 35.9297 22.489 34.4793 22.489 32.6973C22.489 30.5838 21.6814 28.9676 20.0661 27.8486C18.4509 26.7297 16.0695 26.1703 12.9218 26.1703H11.1202V19.0216H12.9218C18.7201 19.1045 21.6192 17.0946 21.6192 12.9919C21.6192 11.2099 21.1015 9.82162 20.0661 8.82703C19.0307 7.79099 17.6226 7.27297 15.8417 7.27297C13.978 7.27297 12.4456 7.87387 11.2445 9.07568C10.0434 10.236 9.36005 11.873 9.19439 13.9865H0.621243C0.86974 9.51081 2.3193 6.07117 4.96994 3.66757C7.62057 1.22252 11.3066 0 16.0281 0Z" fill="white"/>
</svg>
