<svg width="27" height="20" viewBox="0 0 27 20" fill="none" xmlns="http://www.w3.org/2000/svg">
<path d="M22.1164 1.68915C25.0626 6.04768 26.5176 10.964 25.9737 16.6238C25.9714 16.6477 25.959 16.6697 25.9394 16.6841C23.7083 18.3325 21.5467 19.3329 19.4154 19.9964C19.3988 20.0014 19.3811 20.0011 19.3646 19.9956C19.3482 19.99 19.3339 19.9793 19.3238 19.9652C18.8314 19.2758 18.384 18.5491 17.9921 17.7859C17.9696 17.741 17.9901 17.6868 18.0364 17.6691C18.7469 17.3997 19.4226 17.0769 20.0725 16.6946C20.1237 16.6645 20.1269 16.5906 20.0797 16.5552C19.9417 16.4522 19.8051 16.3439 19.6743 16.2356C19.6499 16.2156 19.6169 16.2117 19.5892 16.2251C15.37 18.1855 10.748 18.1855 6.47892 16.2251C6.4512 16.2127 6.41826 16.2169 6.39446 16.2366C6.26403 16.3449 6.12707 16.4522 5.99044 16.5552C5.94316 16.5906 5.94707 16.6645 5.99859 16.6946C6.64848 17.0697 7.32413 17.3997 8.0337 17.6704C8.07967 17.6881 8.10152 17.741 8.0787 17.7859C7.69522 18.5501 7.24783 19.2768 6.74631 19.9662C6.72446 19.9941 6.68859 20.0069 6.65468 19.9964C4.53348 19.3329 2.37186 18.3325 0.140774 16.6841C0.122187 16.6697 0.108818 16.6467 0.106861 16.6228C-0.347703 11.7272 0.578708 6.77016 3.96055 1.68816C3.9687 1.67471 3.98109 1.66421 3.99544 1.65798C5.65946 0.88956 7.44218 0.324237 9.30543 0.00138313C9.33935 -0.00386653 9.37326 0.0118824 9.39087 0.042068C9.62109 0.452198 9.88424 0.978148 10.0623 1.40796C12.0263 1.10611 14.021 1.10611 16.0261 1.40796C16.2041 0.987335 16.4581 0.452198 16.6874 0.042068C16.6955 0.0270933 16.7082 0.0150963 16.7235 0.00778993C16.7389 0.000483532 16.7561 -0.00175878 16.7728 0.00138313C18.6371 0.325221 20.4198 0.890544 22.0825 1.65798C22.0972 1.66421 22.1092 1.67471 22.1164 1.68915ZM11.0608 10.9974C11.0813 9.55018 10.0326 8.35261 8.7162 8.35261C7.41055 8.35261 6.37196 9.53969 6.37196 10.9974C6.37196 12.4549 7.43109 13.642 8.7162 13.642C10.0222 13.642 11.0608 12.4549 11.0608 10.9974ZM19.7288 10.9974C19.7493 9.55018 18.7006 8.35261 17.3846 8.35261C16.0786 8.35261 15.04 9.53969 15.04 10.9974C15.04 12.4549 16.0991 13.642 17.3846 13.642C18.7006 13.642 19.7288 12.4549 19.7288 10.9974Z" fill="white"/>
</svg>
