<svg width="42" height="32" viewBox="0 0 42 32" fill="none" xmlns="http://www.w3.org/2000/svg">
<path d="M35.586 2.70288C40.2999 9.67653 42.6279 17.5426 41.7577 26.5983C41.754 26.6366 41.7342 26.6718 41.7029 26.6949C38.1332 29.3323 34.6746 30.9329 31.2645 31.9944C31.2379 32.0025 31.2095 32.0021 31.1832 31.9931C31.1569 31.9842 31.1341 31.9672 31.1179 31.9445C30.33 30.8416 29.6142 29.6788 28.9871 28.4577C28.9511 28.3858 28.984 28.2992 29.058 28.2708C30.1949 27.8398 31.2759 27.3233 32.3158 26.7117C32.3977 26.6634 32.4029 26.5453 32.3273 26.4886C32.1066 26.3237 31.8879 26.1505 31.6787 25.9772C31.6396 25.9452 31.5869 25.9389 31.5426 25.9604C24.7918 29.0971 17.3967 29.0971 10.5661 25.9604C10.5217 25.9405 10.469 25.9473 10.4309 25.9788C10.2222 26.1521 10.0031 26.3237 9.78451 26.4886C9.70885 26.5453 9.71511 26.6634 9.79755 26.7117C10.8374 27.3117 11.9184 27.8398 13.0537 28.2729C13.1273 28.3013 13.1622 28.3858 13.1257 28.4577C12.5122 29.6804 11.7963 30.8432 10.9939 31.9461C10.9589 31.9907 10.9015 32.0112 10.8473 31.9944C7.45338 30.9329 3.99478 29.3323 0.425043 26.6949C0.395304 26.6718 0.373913 26.635 0.370783 26.5967C-0.356521 18.7637 1.12574 10.8325 6.53668 2.70131C6.54973 2.67978 6.56955 2.66298 6.59251 2.65301C9.25494 1.42354 12.1073 0.519024 15.0885 0.00245714C15.1428 -0.00594231 15.197 0.019256 15.2252 0.0675529C15.5935 0.72376 16.0146 1.56528 16.2995 2.25299C19.4419 1.77002 22.6334 1.77002 25.8415 2.25299C26.1264 1.57998 26.5328 0.72376 26.8996 0.0675529C26.9127 0.0435934 26.9329 0.0243983 26.9575 0.012708C26.982 0.00101779 27.0096 -0.0025699 27.0363 0.00245714C30.0191 0.520598 32.8714 1.42511 35.5318 2.65301C35.5552 2.66298 35.5746 2.67978 35.586 2.70288ZM17.897 17.5962C17.9299 15.2805 16.252 13.3644 14.1457 13.3644C12.0567 13.3644 10.3949 15.2637 10.3949 17.5962C10.3949 19.9281 12.0895 21.8274 14.1457 21.8274C16.2353 21.8274 17.897 19.9281 17.897 17.5962ZM31.7659 17.5962C31.7987 15.2805 30.1208 13.3644 28.0151 13.3644C25.9255 13.3644 24.2638 15.2637 24.2638 17.5962C24.2638 19.9281 25.9584 21.8274 28.0151 21.8274C30.1208 21.8274 31.7659 19.9281 31.7659 17.5962Z" fill="white"/>
</svg>
