<svg width="13" height="13" viewBox="0 0 13 13" fill="none" xmlns="http://www.w3.org/2000/svg">
<path fill-rule="evenodd" clip-rule="evenodd" d="M4.67969 0.779998C4.67969 0.349218 5.0289 0 5.45969 0C8.33157 0 10.6597 2.32811 10.6597 5.19999C10.6597 5.63077 10.3105 5.97998 9.87967 5.97998C9.44889 5.97998 9.09967 5.63077 9.09967 5.19999C9.09967 3.18966 7.47001 1.56 5.45969 1.56C5.0289 1.56 4.67969 1.21078 4.67969 0.779998Z" fill="url(#paint0_linear_106_2450)"/>
<path fill-rule="evenodd" clip-rule="evenodd" d="M8.31982 12.22C8.31982 12.6508 7.97061 13 7.53983 13C4.66797 13 2.33984 10.6719 2.33984 7.80002C2.33984 7.36924 2.68906 7.02002 3.11984 7.02002C3.55062 7.02002 3.89984 7.36924 3.89984 7.80002C3.89984 9.81032 5.52953 11.44 7.53983 11.44C7.97061 11.44 8.31982 11.7892 8.31982 12.22Z" fill="url(#paint1_linear_106_2450)"/>
<path fill-rule="evenodd" clip-rule="evenodd" d="M0.779998 8.32008C0.349218 8.32008 1.88301e-08 7.97086 0 7.54008C-1.25534e-07 4.6682 2.32811 2.34009 5.19999 2.34009C5.63077 2.34009 5.97998 2.68931 5.97998 3.12009C5.97998 3.55087 5.63077 3.90009 5.19999 3.90009C3.18969 3.90009 1.56 5.52976 1.56 7.54008C1.56 7.97086 1.21078 8.32008 0.779998 8.32008Z" fill="url(#paint2_linear_106_2450)"/>
<path fill-rule="evenodd" clip-rule="evenodd" d="M12.2198 4.67993C12.6505 4.67993 12.9998 5.02915 12.9998 5.45993C12.9998 8.33181 10.6717 10.6599 7.79977 10.6599C7.36899 10.6599 7.01978 10.3107 7.01978 9.87992C7.01978 9.44914 7.36899 9.09992 7.79977 9.09992C9.81007 9.09992 11.4398 7.47025 11.4398 5.45993C11.4398 5.02915 11.789 4.67993 12.2198 4.67993Z" fill="url(#paint3_linear_106_2450)"/>
<defs>
<linearGradient id="paint0_linear_106_2450" x1="4.97635" y1="0.911322" x2="10.0562" y2="5.8093" gradientUnits="userSpaceOnUse">
<stop stop-color="#1945E1"/>
<stop offset="1" stop-color="#206DE1"/>
</linearGradient>
<linearGradient id="paint1_linear_106_2450" x1="2.63651" y1="7.93134" x2="7.71634" y2="12.8293" gradientUnits="userSpaceOnUse">
<stop stop-color="#1945E1"/>
<stop offset="1" stop-color="#206DE1"/>
</linearGradient>
<linearGradient id="paint2_linear_106_2450" x1="0.296662" y1="3.25141" x2="5.3765" y2="8.14939" gradientUnits="userSpaceOnUse">
<stop stop-color="#1945E1"/>
<stop offset="1" stop-color="#206DE1"/>
</linearGradient>
<linearGradient id="paint3_linear_106_2450" x1="7.31644" y1="5.59125" x2="12.3963" y2="10.4892" gradientUnits="userSpaceOnUse">
<stop stop-color="#1945E1"/>
<stop offset="1" stop-color="#206DE1"/>
</linearGradient>
</defs>
</svg>
