<svg width="29" height="29" viewBox="0 0 29 29" fill="none" xmlns="http://www.w3.org/2000/svg">
<path fill-rule="evenodd" clip-rule="evenodd" d="M10.1992 1.69956C10.1992 0.760649 10.9604 -0.000488281 11.8993 -0.000488281C18.1587 -0.000488281 23.2329 5.07375 23.2329 11.3331C23.2329 12.272 22.4718 13.0332 21.5328 13.0332C20.5939 13.0332 19.8328 12.272 19.8328 11.3331C19.8328 6.95154 16.2809 3.3996 11.8993 3.3996C10.9604 3.3996 10.1992 2.63846 10.1992 1.69956Z" fill="white"/>
<path fill-rule="evenodd" clip-rule="evenodd" d="M18.1333 26.6337C18.1333 27.5726 17.3721 28.3337 16.4332 28.3337C10.1739 28.3337 5.09961 23.2595 5.09961 17.0001C5.09961 16.0612 5.86074 15.3 6.79965 15.3C7.73856 15.3 8.49969 16.0612 8.49969 17.0001C8.49969 21.3816 12.0517 24.9336 16.4332 24.9336C17.3721 24.9336 18.1333 25.6948 18.1333 26.6337Z" fill="white"/>
<path fill-rule="evenodd" clip-rule="evenodd" d="M1.70004 18.1331C0.761137 18.1331 4.10411e-08 17.3719 0 16.433C-2.73607e-07 10.1736 5.07424 5.09937 11.3336 5.09937C12.2725 5.09937 13.0337 5.86052 13.0337 6.79943C13.0337 7.73833 12.2725 8.49947 11.3336 8.49947C6.95208 8.49947 3.40009 12.0514 3.40009 16.433C3.40009 17.3719 2.63895 18.1331 1.70004 18.1331Z" fill="white"/>
<path fill-rule="evenodd" clip-rule="evenodd" d="M26.6334 10.1997C27.5723 10.1997 28.3335 10.9608 28.3335 11.8998C28.3335 18.1592 23.2593 23.2334 16.9999 23.2334C16.0609 23.2334 15.2998 22.4722 15.2998 21.5333C15.2998 20.5944 16.0609 19.8333 16.9999 19.8333C21.3814 19.8333 24.9334 16.2814 24.9334 11.8998C24.9334 10.9608 25.6945 10.1997 26.6334 10.1997Z" fill="white"/>
</svg>
