<svg width="18" height="18" viewBox="0 0 18 18" fill="none" xmlns="http://www.w3.org/2000/svg">
<path d="M6.39958 9.0463C6.39958 7.53375 7.62615 6.30726 9.13961 6.30726C10.6531 6.30726 11.8803 7.53375 11.8803 9.0463C11.8803 10.5589 10.6531 11.7853 9.13961 11.7853C7.62615 11.7853 6.39958 10.5589 6.39958 9.0463ZM4.91802 9.0463C4.91802 11.3765 6.80802 13.2654 9.13961 13.2654C11.4712 13.2654 13.3612 11.3765 13.3612 9.0463C13.3612 6.71611 11.4712 4.82725 9.13961 4.82725C6.80802 4.82725 4.91802 6.71611 4.91802 9.0463ZM12.5418 4.65996C12.5417 4.85497 12.5995 5.04562 12.7078 5.2078C12.8161 5.36999 12.9702 5.49643 13.1504 5.57112C13.3307 5.64582 13.529 5.66543 13.7204 5.62746C13.9118 5.58949 14.0876 5.49566 14.2257 5.35782C14.3637 5.21999 14.4577 5.04434 14.4959 4.85309C14.534 4.66185 14.5145 4.46359 14.4399 4.2834C14.3653 4.10321 14.239 3.94917 14.0768 3.84076C13.9146 3.73236 13.7238 3.67445 13.5287 3.67438H13.5283C13.2668 3.6745 13.016 3.77836 12.831 3.96316C12.646 4.14795 12.542 4.39857 12.5418 4.65996ZM5.81817 15.7343C5.01661 15.6978 4.58095 15.5644 4.29142 15.4517C3.90758 15.3023 3.63371 15.1245 3.34576 14.8371C3.05782 14.5497 2.87958 14.2763 2.7308 13.8926C2.61794 13.6034 2.48442 13.1679 2.44799 12.3668C2.40813 11.5007 2.40017 11.2406 2.40017 9.04637C2.40017 6.85218 2.40879 6.59273 2.44799 5.72593C2.48449 4.92486 2.61899 4.49017 2.7308 4.2001C2.88023 3.81649 3.05821 3.54278 3.34576 3.25501C3.63331 2.96723 3.90692 2.7891 4.29142 2.64042C4.58081 2.52762 5.01661 2.39418 5.81817 2.35777C6.68477 2.31794 6.94509 2.30998 9.13961 2.30998C11.3341 2.30998 11.5947 2.31859 12.462 2.35777C13.2636 2.39425 13.6985 2.52867 13.9888 2.64042C14.3726 2.7891 14.6465 2.96763 14.9345 3.25501C15.2224 3.54239 15.4 3.81649 15.5494 4.2001C15.6623 4.48932 15.7958 4.92486 15.8322 5.72593C15.8721 6.59273 15.88 6.85218 15.88 9.04637C15.88 11.2406 15.8721 11.5 15.8322 12.3668C15.7957 13.1679 15.6616 13.6033 15.5494 13.8926C15.4 14.2763 15.222 14.55 14.9345 14.8371C14.6469 15.1242 14.3726 15.3023 13.9888 15.4517C13.6994 15.5645 13.2636 15.6979 12.462 15.7343C11.5954 15.7741 11.3351 15.7821 9.13961 15.7821C6.9441 15.7821 6.68451 15.7741 5.81817 15.7343ZM5.75009 0.879593C4.87488 0.919426 4.27682 1.05812 3.75453 1.26123C3.21363 1.47098 2.75573 1.75238 2.29816 2.20895C1.84059 2.66552 1.55975 3.12387 1.34987 3.66445C1.14664 4.18675 1.00786 4.78413 0.968002 5.65882C0.927487 6.53489 0.918213 6.81497 0.918213 9.0463C0.918213 11.2776 0.927487 11.5577 0.968002 12.4338C1.00786 13.3085 1.14664 13.9059 1.34987 14.4282C1.55975 14.9684 1.84065 15.4273 2.29816 15.8837C2.75566 16.34 3.21363 16.621 3.75453 16.8314C4.27781 17.0345 4.87488 17.1732 5.75009 17.213C6.62715 17.2528 6.90694 17.2628 9.13961 17.2628C11.3723 17.2628 11.6525 17.2535 12.5291 17.213C13.4044 17.1732 14.0021 17.0345 14.5247 16.8314C15.0653 16.621 15.5235 16.3402 15.9811 15.8837C16.4386 15.4271 16.7189 14.9684 16.9294 14.4282C17.1326 13.9059 17.272 13.3085 17.3112 12.4338C17.3511 11.5571 17.3604 11.2776 17.3604 9.0463C17.3604 6.81497 17.3511 6.53489 17.3112 5.65882C17.2714 4.78406 17.1326 4.18643 16.9294 3.66445C16.7189 3.1242 16.4379 2.66625 15.9811 2.20895C15.5242 1.75166 15.0653 1.47098 14.5254 1.26123C14.0021 1.05812 13.4043 0.918769 12.5298 0.879593C11.6532 0.839759 11.3729 0.829834 9.14027 0.829834C6.9076 0.829834 6.62715 0.839102 5.75009 0.879593Z" fill="white"/>
<path d="M6.39958 9.0463C6.39958 7.53375 7.62615 6.30726 9.13961 6.30726C10.6531 6.30726 11.8803 7.53375 11.8803 9.0463C11.8803 10.5589 10.6531 11.7853 9.13961 11.7853C7.62615 11.7853 6.39958 10.5589 6.39958 9.0463ZM4.91802 9.0463C4.91802 11.3765 6.80802 13.2654 9.13961 13.2654C11.4712 13.2654 13.3612 11.3765 13.3612 9.0463C13.3612 6.71611 11.4712 4.82725 9.13961 4.82725C6.80802 4.82725 4.91802 6.71611 4.91802 9.0463ZM12.5418 4.65996C12.5417 4.85497 12.5995 5.04562 12.7078 5.2078C12.8161 5.36999 12.9702 5.49643 13.1504 5.57112C13.3307 5.64582 13.529 5.66543 13.7204 5.62746C13.9118 5.58949 14.0876 5.49566 14.2257 5.35782C14.3637 5.21999 14.4577 5.04434 14.4959 4.85309C14.534 4.66185 14.5145 4.46359 14.4399 4.2834C14.3653 4.10321 14.239 3.94917 14.0768 3.84076C13.9146 3.73236 13.7238 3.67445 13.5287 3.67438H13.5283C13.2668 3.6745 13.016 3.77836 12.831 3.96316C12.646 4.14795 12.542 4.39857 12.5418 4.65996ZM5.81817 15.7343C5.01661 15.6978 4.58095 15.5644 4.29142 15.4517C3.90758 15.3023 3.63371 15.1245 3.34576 14.8371C3.05782 14.5497 2.87958 14.2763 2.7308 13.8926C2.61794 13.6034 2.48442 13.1679 2.44799 12.3668C2.40813 11.5007 2.40017 11.2406 2.40017 9.04637C2.40017 6.85218 2.40879 6.59273 2.44799 5.72593C2.48449 4.92486 2.61899 4.49017 2.7308 4.2001C2.88023 3.81649 3.05821 3.54278 3.34576 3.25501C3.63331 2.96723 3.90692 2.7891 4.29142 2.64042C4.58081 2.52762 5.01661 2.39418 5.81817 2.35777C6.68477 2.31794 6.94509 2.30998 9.13961 2.30998C11.3341 2.30998 11.5947 2.31859 12.462 2.35777C13.2636 2.39425 13.6985 2.52867 13.9888 2.64042C14.3726 2.7891 14.6465 2.96763 14.9345 3.25501C15.2224 3.54239 15.4 3.81649 15.5494 4.2001C15.6623 4.48932 15.7958 4.92486 15.8322 5.72593C15.8721 6.59273 15.88 6.85218 15.88 9.04637C15.88 11.2406 15.8721 11.5 15.8322 12.3668C15.7957 13.1679 15.6616 13.6033 15.5494 13.8926C15.4 14.2763 15.222 14.55 14.9345 14.8371C14.6469 15.1242 14.3726 15.3023 13.9888 15.4517C13.6994 15.5645 13.2636 15.6979 12.462 15.7343C11.5954 15.7741 11.3351 15.7821 9.13961 15.7821C6.9441 15.7821 6.68451 15.7741 5.81817 15.7343ZM5.75009 0.879593C4.87488 0.919426 4.27682 1.05812 3.75453 1.26123C3.21363 1.47098 2.75573 1.75238 2.29816 2.20895C1.84059 2.66552 1.55975 3.12387 1.34987 3.66445C1.14664 4.18675 1.00786 4.78413 0.968002 5.65882C0.927487 6.53489 0.918213 6.81497 0.918213 9.0463C0.918213 11.2776 0.927487 11.5577 0.968002 12.4338C1.00786 13.3085 1.14664 13.9059 1.34987 14.4282C1.55975 14.9684 1.84065 15.4273 2.29816 15.8837C2.75566 16.34 3.21363 16.621 3.75453 16.8314C4.27781 17.0345 4.87488 17.1732 5.75009 17.213C6.62715 17.2528 6.90694 17.2628 9.13961 17.2628C11.3723 17.2628 11.6525 17.2535 12.5291 17.213C13.4044 17.1732 14.0021 17.0345 14.5247 16.8314C15.0653 16.621 15.5235 16.3402 15.9811 15.8837C16.4386 15.4271 16.7189 14.9684 16.9294 14.4282C17.1326 13.9059 17.272 13.3085 17.3112 12.4338C17.3511 11.5571 17.3604 11.2776 17.3604 9.0463C17.3604 6.81497 17.3511 6.53489 17.3112 5.65882C17.2714 4.78406 17.1326 4.18643 16.9294 3.66445C16.7189 3.1242 16.4379 2.66625 15.9811 2.20895C15.5242 1.75166 15.0653 1.47098 14.5254 1.26123C14.0021 1.05812 13.4043 0.918769 12.5298 0.879593C11.6532 0.839759 11.3729 0.829834 9.14027 0.829834C6.9076 0.829834 6.62715 0.839102 5.75009 0.879593Z" fill="white"/>
</svg>
