<svg width="28" height="28" viewBox="0 0 28 28" fill="none" xmlns="http://www.w3.org/2000/svg">
<path d="M9.44833 14.2777C9.44833 11.7645 11.4863 9.72669 14.001 9.72669C16.5157 9.72669 18.5547 11.7645 18.5547 14.2777C18.5547 16.7909 16.5157 18.8287 14.001 18.8287C11.4863 18.8287 9.44833 16.7909 9.44833 14.2777ZM6.98666 14.2777C6.98666 18.1494 10.127 21.2878 14.001 21.2878C17.875 21.2878 21.0153 18.1494 21.0153 14.2777C21.0153 10.406 17.875 7.26758 14.001 7.26758C10.127 7.26758 6.98666 10.406 6.98666 14.2777ZM19.6538 6.98963C19.6537 7.31364 19.7497 7.63042 19.9297 7.8999C20.1097 8.16937 20.3656 8.37945 20.6651 8.50357C20.9646 8.62768 21.2942 8.66026 21.6122 8.59717C21.9302 8.53409 22.2223 8.37818 22.4517 8.14916C22.681 7.92014 22.8372 7.62829 22.9006 7.31053C22.964 6.99277 22.9317 6.66336 22.8077 6.36396C22.6838 6.06457 22.4738 5.80862 22.2043 5.6285C21.9348 5.44838 21.6179 5.35218 21.2937 5.35205H21.293C20.8584 5.35225 20.4417 5.52483 20.1344 5.83187C19.827 6.13891 19.6542 6.55532 19.6538 6.98963ZM8.48228 25.3901C7.15047 25.3295 6.42659 25.1078 5.94553 24.9205C5.30777 24.6723 4.85272 24.3768 4.37429 23.8993C3.89585 23.4218 3.5997 22.9675 3.35251 22.3301C3.16498 21.8495 2.94314 21.1259 2.8826 19.7949C2.81637 18.3558 2.80315 17.9236 2.80315 14.2778C2.80315 10.6321 2.81746 10.201 2.8826 8.76078C2.94325 7.42977 3.16673 6.70753 3.35251 6.22556C3.60079 5.58817 3.89651 5.1334 4.37429 4.65525C4.85206 4.1771 5.30667 3.88113 5.94553 3.63408C6.42637 3.44667 7.15047 3.22496 8.48228 3.16445C9.92217 3.09827 10.3547 3.08505 14.001 3.08505C17.6473 3.08505 18.0802 3.09936 19.5213 3.16445C20.8532 3.22507 21.5758 3.44842 22.0581 3.63408C22.6959 3.88113 23.1509 4.17776 23.6293 4.65525C24.1078 5.13274 24.4028 5.58817 24.6511 6.22556C24.8386 6.70611 25.0605 7.42977 25.121 8.76078C25.1873 10.201 25.2005 10.6321 25.2005 14.2778C25.2005 17.9236 25.1873 18.3546 25.121 19.7949C25.0604 21.1259 24.8374 21.8493 24.6511 22.3301C24.4028 22.9675 24.1071 23.4222 23.6293 23.8993C23.1516 24.3764 22.6959 24.6723 22.0581 24.9205C21.5773 25.1079 20.8532 25.3296 19.5213 25.3901C18.0814 25.4563 17.6489 25.4695 14.001 25.4695C10.3531 25.4695 9.92174 25.4563 8.48228 25.3901ZM8.36918 0.708409C6.91497 0.774594 5.92127 1.00504 5.05347 1.34252C4.15474 1.69102 3.39392 2.15858 2.63365 2.91719C1.87338 3.6758 1.40675 4.43737 1.05803 5.33556C0.720354 6.20338 0.489771 7.19594 0.423546 8.64927C0.356229 10.1049 0.34082 10.5703 0.34082 14.2777C0.34082 17.9852 0.356229 18.4505 0.423546 19.9061C0.489771 21.3596 0.720354 22.352 1.05803 23.2199C1.40675 24.1175 1.87349 24.8799 2.63365 25.6382C3.39381 26.3965 4.15474 26.8634 5.05347 27.2129C5.92291 27.5504 6.91497 27.7808 8.36918 27.847C9.82644 27.9132 10.2913 27.9297 14.001 27.9297C17.7107 27.9297 18.1763 27.9143 19.6328 27.847C21.0871 27.7808 22.0802 27.5504 22.9485 27.2129C23.8467 26.8634 24.6081 26.3968 25.3683 25.6382C26.1286 24.8796 26.5942 24.1175 26.944 23.2199C27.2816 22.352 27.5133 21.3595 27.5784 19.9061C27.6447 18.4494 27.6601 17.9852 27.6601 14.2777C27.6601 10.5703 27.6447 10.1049 27.5784 8.64927C27.5122 7.19583 27.2816 6.20284 26.944 5.33556C26.5942 4.43791 26.1274 3.677 25.3683 2.91719C24.6093 2.15738 23.8467 1.69102 22.9496 1.34252C22.0802 1.00504 21.087 0.773501 19.6339 0.708409C18.1774 0.642224 17.7118 0.625732 14.0021 0.625732C10.2924 0.625732 9.82644 0.641132 8.36918 0.708409Z" fill="white"/>
<path d="M9.44833 14.2777C9.44833 11.7645 11.4863 9.72669 14.001 9.72669C16.5157 9.72669 18.5547 11.7645 18.5547 14.2777C18.5547 16.7909 16.5157 18.8287 14.001 18.8287C11.4863 18.8287 9.44833 16.7909 9.44833 14.2777ZM6.98666 14.2777C6.98666 18.1494 10.127 21.2878 14.001 21.2878C17.875 21.2878 21.0153 18.1494 21.0153 14.2777C21.0153 10.406 17.875 7.26758 14.001 7.26758C10.127 7.26758 6.98666 10.406 6.98666 14.2777ZM19.6538 6.98963C19.6537 7.31364 19.7497 7.63042 19.9297 7.8999C20.1097 8.16937 20.3656 8.37945 20.6651 8.50357C20.9646 8.62768 21.2942 8.66026 21.6122 8.59717C21.9302 8.53409 22.2223 8.37818 22.4517 8.14916C22.681 7.92014 22.8372 7.62829 22.9006 7.31053C22.964 6.99277 22.9317 6.66336 22.8077 6.36396C22.6838 6.06457 22.4738 5.80862 22.2043 5.6285C21.9348 5.44838 21.6179 5.35218 21.2937 5.35205H21.293C20.8584 5.35225 20.4417 5.52483 20.1344 5.83187C19.827 6.13891 19.6542 6.55532 19.6538 6.98963ZM8.48228 25.3901C7.15047 25.3295 6.42659 25.1078 5.94553 24.9205C5.30777 24.6723 4.85272 24.3768 4.37429 23.8993C3.89585 23.4218 3.5997 22.9675 3.35251 22.3301C3.16498 21.8495 2.94314 21.1259 2.8826 19.7949C2.81637 18.3558 2.80315 17.9236 2.80315 14.2778C2.80315 10.6321 2.81746 10.201 2.8826 8.76078C2.94325 7.42977 3.16673 6.70753 3.35251 6.22556C3.60079 5.58817 3.89651 5.1334 4.37429 4.65525C4.85206 4.1771 5.30667 3.88113 5.94553 3.63408C6.42637 3.44667 7.15047 3.22496 8.48228 3.16445C9.92217 3.09827 10.3547 3.08505 14.001 3.08505C17.6473 3.08505 18.0802 3.09936 19.5213 3.16445C20.8532 3.22507 21.5758 3.44842 22.0581 3.63408C22.6959 3.88113 23.1509 4.17776 23.6293 4.65525C24.1078 5.13274 24.4028 5.58817 24.6511 6.22556C24.8386 6.70611 25.0605 7.42977 25.121 8.76078C25.1873 10.201 25.2005 10.6321 25.2005 14.2778C25.2005 17.9236 25.1873 18.3546 25.121 19.7949C25.0604 21.1259 24.8374 21.8493 24.6511 22.3301C24.4028 22.9675 24.1071 23.4222 23.6293 23.8993C23.1516 24.3764 22.6959 24.6723 22.0581 24.9205C21.5773 25.1079 20.8532 25.3296 19.5213 25.3901C18.0814 25.4563 17.6489 25.4695 14.001 25.4695C10.3531 25.4695 9.92174 25.4563 8.48228 25.3901ZM8.36918 0.708409C6.91497 0.774594 5.92127 1.00504 5.05347 1.34252C4.15474 1.69102 3.39392 2.15858 2.63365 2.91719C1.87338 3.6758 1.40675 4.43737 1.05803 5.33556C0.720354 6.20338 0.489771 7.19594 0.423546 8.64927C0.356229 10.1049 0.34082 10.5703 0.34082 14.2777C0.34082 17.9852 0.356229 18.4505 0.423546 19.9061C0.489771 21.3596 0.720354 22.352 1.05803 23.2199C1.40675 24.1175 1.87349 24.8799 2.63365 25.6382C3.39381 26.3965 4.15474 26.8634 5.05347 27.2129C5.92291 27.5504 6.91497 27.7808 8.36918 27.847C9.82644 27.9132 10.2913 27.9297 14.001 27.9297C17.7107 27.9297 18.1763 27.9143 19.6328 27.847C21.0871 27.7808 22.0802 27.5504 22.9485 27.2129C23.8467 26.8634 24.6081 26.3968 25.3683 25.6382C26.1286 24.8796 26.5942 24.1175 26.944 23.2199C27.2816 22.352 27.5133 21.3595 27.5784 19.9061C27.6447 18.4494 27.6601 17.9852 27.6601 14.2777C27.6601 10.5703 27.6447 10.1049 27.5784 8.64927C27.5122 7.19583 27.2816 6.20284 26.944 5.33556C26.5942 4.43791 26.1274 3.677 25.3683 2.91719C24.6093 2.15738 23.8467 1.69102 22.9496 1.34252C22.0802 1.00504 21.087 0.773501 19.6339 0.708409C18.1774 0.642224 17.7118 0.625732 14.0021 0.625732C10.2924 0.625732 9.82644 0.641132 8.36918 0.708409Z" fill="white"/>
</svg>
