<svg width="13" height="7" viewBox="0 0 13 7" fill="none" xmlns="http://www.w3.org/2000/svg">
<path d="M7.33542 3.5C7.33542 5.43157 5.69718 7 3.66771 7C1.63824 7 0 5.43157 0 3.5C0 1.56843 1.63824 0 3.66771 0C5.69718 0 7.33542 1.56843 7.33542 3.5ZM11.3536 3.5C11.3536 5.31567 10.5304 6.79139 9.51975 6.79139C8.50909 6.79139 7.68589 5.31567 7.68589 3.5C7.68589 1.68433 8.50909 0.208608 9.51975 0.208608C10.5304 0.208608 11.3536 1.6766 11.3536 3.5ZM13 3.5C13 5.13024 12.7147 6.45144 12.3561 6.45144C11.9975 6.45144 11.7122 5.13024 11.7122 3.5C11.7122 1.86976 11.9975 0.548563 12.3561 0.548563C12.7147 0.548563 13 1.86976 13 3.5Z" fill="url(#paint0_linear_106_2444)"/>
<defs>
<linearGradient id="paint0_linear_106_2444" x1="0.64492" y1="1.06677" x2="5.71089" y2="10.1382" gradientUnits="userSpaceOnUse">
<stop stop-color="#1945E1"/>
<stop offset="1" stop-color="#206DE1"/>
</linearGradient>
</defs>
</svg>
