<svg width="28" height="17" viewBox="0 0 28 17" fill="none" xmlns="http://www.w3.org/2000/svg">
<path d="M15.8003 8.52808C15.8003 12.8051 12.2718 16.2781 7.90066 16.2781C3.5295 16.2781 0.000976562 12.8051 0.000976562 8.52808C0.000976562 4.25103 3.5295 0.778076 7.90066 0.778076C12.2718 0.778076 15.8003 4.25103 15.8003 8.52808ZM24.4549 8.52808C24.4549 12.5485 22.6819 15.8162 20.5051 15.8162C18.3282 15.8162 16.5552 12.5485 16.5552 8.52808C16.5552 4.50766 18.3282 1.23999 20.5051 1.23999C22.6819 1.23999 24.4549 4.49055 24.4549 8.52808ZM28.001 8.52808C28.001 12.1379 27.3866 15.0634 26.6141 15.0634C25.8417 15.0634 25.2273 12.1379 25.2273 8.52808C25.2273 4.91825 25.8417 1.99275 26.6141 1.99275C27.3866 1.99275 28.001 4.91825 28.001 8.52808Z" fill="white"/>
</svg>
