<svg width="17" height="10" viewBox="0 0 17 10" fill="none" xmlns="http://www.w3.org/2000/svg">
<path d="M9.59335 5.19682C9.59335 7.77097 7.4697 9.86117 4.83891 9.86117C2.20812 9.86117 0.0844727 7.77097 0.0844727 5.19682C0.0844727 2.62268 2.20812 0.532471 4.83891 0.532471C7.4697 0.532471 9.59335 2.62268 9.59335 5.19682ZM14.8021 5.19682C14.8021 7.61652 13.735 9.58317 12.4249 9.58317C11.1148 9.58317 10.0477 7.61652 10.0477 5.19682C10.0477 2.77712 11.1148 0.810477 12.4249 0.810477C13.735 0.810477 14.8021 2.76683 14.8021 5.19682ZM16.9363 5.19682C16.9363 7.3694 16.5665 9.13012 16.1017 9.13012C15.6368 9.13012 15.267 7.3694 15.267 5.19682C15.267 3.02424 15.6368 1.26353 16.1017 1.26353C16.5665 1.26353 16.9363 3.02424 16.9363 5.19682Z" fill="white"/>
</svg>
