<svg width="17" height="18" viewBox="0 0 17 18" fill="none" xmlns="http://www.w3.org/2000/svg">
<path fill-rule="evenodd" clip-rule="evenodd" d="M16.623 9.10909C16.623 13.6496 12.9421 17.3305 8.40158 17.3305C3.86103 17.3305 0.180176 13.6496 0.180176 9.10909C0.180176 4.56855 3.86103 0.887695 8.40158 0.887695C12.9421 0.887695 16.623 4.56855 16.623 9.10909ZM9.18945 6.58668C7.77705 7.19676 3.70459 8.92932 3.70459 8.92932C2.73945 9.31977 3.30438 9.6858 3.30438 9.6858C3.30438 9.6858 4.12829 9.97865 4.83452 10.1982C5.54072 10.4179 5.91737 10.1739 5.91737 10.1739C5.91737 10.1739 7.56519 9.05134 9.23653 7.8556C10.4135 7.02593 10.1311 7.7092 9.84857 8.00204C9.23653 8.63651 8.22431 9.637 7.37684 10.4423C7.00022 10.7839 7.18853 11.0767 7.35332 11.2232C7.83257 11.6435 8.96131 12.408 9.47377 12.7551C9.61577 12.8513 9.71045 12.9155 9.73089 12.9313C9.84857 13.029 10.5077 13.4682 10.9079 13.3706C11.3081 13.273 11.3552 12.7117 11.3552 12.7117C11.3552 12.7117 11.6612 10.7107 11.9437 8.88052C11.996 8.52115 12.0483 8.16933 12.0971 7.84127C12.2239 6.98864 12.3268 6.29654 12.3439 6.04982C12.4145 5.22015 11.567 5.56177 11.567 5.56177C11.567 5.56177 9.73089 6.34267 9.18945 6.58668Z" fill="white"/>
</svg>
