<svg width="12" height="12" viewBox="0 0 12 12" fill="none" xmlns="http://www.w3.org/2000/svg">
<path fill-rule="evenodd" clip-rule="evenodd" d="M5.42545 6.28018C5.42545 6.0213 5.44086 5.77862 5.51658 5.63667C5.60772 5.46583 5.72733 5.34055 5.87542 5.26082C6.02352 5.1773 6.17161 5.10516 6.3197 5.04442C6.4716 4.97988 6.6026 4.90395 6.71272 4.81663C6.82284 4.72551 6.8779 4.61162 6.8779 4.47494C6.8779 4.3041 6.79816 4.16932 6.63868 4.07062C6.47919 3.96811 6.26654 3.91686 6.00073 3.91686C5.71594 3.91686 5.48241 3.9814 5.30014 4.11048C5.12166 4.23576 5.03243 4.43888 5.03243 4.71982H4.00147C3.98248 4.14275 4.14766 3.71185 4.49701 3.42711C4.85016 3.14237 5.3514 3 6.00073 3C6.61969 3 7.10764 3.1139 7.46458 3.34169C7.82153 3.56568 8 3.90547 8 4.36105C8 4.60023 7.94874 4.79765 7.84621 4.9533C7.74368 5.10896 7.61837 5.22665 7.47028 5.30638C7.32598 5.38231 7.17979 5.45634 7.03169 5.52847C6.8874 5.59681 6.76209 5.69172 6.65576 5.81321C6.55324 5.9347 6.50323 6.14076 6.50197 6.28018C6.50072 6.41961 6.5 7 6.5 7H5.42545V6.28018ZM5.53351 8.82343C5.65502 8.94112 5.79742 8.99996 5.9607 8.99996C6.12778 8.99996 6.27018 8.94112 6.38789 8.82343C6.50941 8.70574 6.57016 8.56527 6.57016 8.40202C6.57016 8.23497 6.50941 8.0926 6.38789 7.97491C6.27018 7.85722 6.12778 7.79837 5.9607 7.79837C5.79742 7.79837 5.65502 7.85911 5.53351 7.9806C5.41579 8.09829 5.35693 8.23877 5.35693 8.40202C5.35693 8.56527 5.41579 8.70574 5.53351 8.82343Z" fill="white"/>
<circle cx="6" cy="6" r="5.5" stroke="white"/>
</svg>
