<svg width="18" height="14" viewBox="0 0 18 14" fill="none" xmlns="http://www.w3.org/2000/svg">
<path d="M17.2386 1.68179C16.7008 1.91822 16.1354 2.08285 15.5564 2.17163C15.8271 2.12423 16.2254 1.62648 16.384 1.42501C16.6248 1.12112 16.8084 0.774195 16.9253 0.401871C16.9253 0.374218 16.9524 0.334714 16.9253 0.314963C16.9117 0.307356 16.8964 0.30337 16.8809 0.30337C16.8653 0.30337 16.85 0.307356 16.8364 0.314963C16.2077 0.662761 15.5386 0.92821 14.8449 1.10503C14.8207 1.11258 14.795 1.11326 14.7705 1.10699C14.7459 1.10073 14.7236 1.08776 14.7057 1.06948C14.6517 1.0038 14.5936 0.941778 14.5317 0.883814C14.2487 0.624848 13.9277 0.412895 13.5804 0.255707C13.1116 0.0592076 12.6051 -0.0258921 12.0994 0.0068349C11.6086 0.0384962 11.1295 0.172962 10.6918 0.401871C10.2608 0.643207 9.88195 0.97107 9.5781 1.36576C9.25849 1.77199 9.02775 2.24344 8.90139 2.74838C8.79719 3.22869 8.78537 3.7251 8.86658 4.21001C8.86658 4.29297 8.86658 4.30482 8.79698 4.29297C6.03983 3.87818 3.77766 2.87874 1.92925 0.7337C1.84804 0.638892 1.80551 0.638892 1.73977 0.7337C0.93544 1.98201 1.326 3.95719 2.33141 4.93293C2.46676 5.06329 2.60597 5.1897 2.75291 5.30821C2.29194 5.27478 1.84222 5.14717 1.43041 4.93293C1.35307 4.88157 1.31054 4.90923 1.30667 5.00403C1.29571 5.13548 1.29571 5.26763 1.30667 5.39907C1.38735 6.02899 1.63036 6.62572 2.01084 7.12824C2.39132 7.63075 2.89562 8.02102 3.47217 8.25913C3.61272 8.32063 3.75917 8.36697 3.90913 8.39739C3.48239 8.48322 3.0447 8.49657 2.6137 8.4369C2.52089 8.41714 2.48609 8.4685 2.52089 8.55936C3.08934 10.1395 4.3229 10.6214 5.22777 10.8901C5.35151 10.9098 5.47526 10.9098 5.61447 10.9414C5.61447 10.9414 5.61447 10.9414 5.59126 10.9651C5.32444 11.4629 4.24556 11.7986 3.75059 11.9725C2.84714 12.304 1.88389 12.4307 0.927706 12.3438C0.776894 12.3201 0.742091 12.324 0.703422 12.3438C0.664752 12.3635 0.703422 12.407 0.745958 12.4465C0.939307 12.5769 1.13265 12.6914 1.33374 12.802C1.93236 13.1356 2.56523 13.4006 3.22082 13.5921C6.61601 14.5481 10.4366 13.8449 12.9849 11.2574C14.988 9.22697 15.6918 6.42616 15.6918 3.62141C15.6918 3.51475 15.8194 3.45155 15.8929 3.39624C16.3996 2.99287 16.8464 2.51649 17.2192 1.98201C17.2838 1.90234 17.3169 1.8009 17.312 1.69759C17.312 1.63833 17.312 1.65018 17.2386 1.68179Z" fill="url(#paint0_linear_106_2439)"/>
<defs>
<linearGradient id="paint0_linear_106_2439" x1="1.51225" y1="2.13354" x2="13.3045" y2="15.6356" gradientUnits="userSpaceOnUse">
<stop stop-color="#1945E1"/>
<stop offset="1" stop-color="#206DE1"/>
</linearGradient>
</defs>
</svg>
