<svg width="26" height="22" viewBox="0 0 26 22" fill="none" xmlns="http://www.w3.org/2000/svg">
<path d="M25.6477 3.00802C24.8222 3.36331 23.9542 3.61072 23.0654 3.74413C23.481 3.67289 24.0924 2.92491 24.3358 2.62215C24.7056 2.16547 24.9874 1.64414 25.1669 1.08462C25.1669 1.04307 25.2084 0.983705 25.1669 0.954023C25.146 0.942592 25.1225 0.936602 25.0986 0.936602C25.0748 0.936602 25.0513 0.942592 25.0304 0.954023C24.0652 1.47668 23.038 1.87558 21.9731 2.1413C21.936 2.15264 21.8965 2.15366 21.8588 2.14425C21.8212 2.13483 21.7868 2.11535 21.7594 2.08788C21.6765 1.98917 21.5873 1.89597 21.4923 1.80886C21.0579 1.4197 20.5651 1.10119 20.0319 0.864977C19.3121 0.569687 18.5347 0.441803 17.7583 0.490984C17.0049 0.538563 16.2694 0.740632 15.5974 1.08462C14.9357 1.44729 14.3542 1.93999 13.8877 2.53311C13.3971 3.14358 13.0428 3.85204 12.8489 4.61085C12.6889 5.33262 12.6708 6.07861 12.7954 6.80731C12.7954 6.93198 12.7954 6.94979 12.6886 6.93198C8.45593 6.30866 4.98314 4.80675 2.14554 1.58328C2.02087 1.44081 1.95557 1.44081 1.85466 1.58328C0.619884 3.45918 1.21946 6.42738 2.76292 7.89367C2.9707 8.08957 3.18441 8.27954 3.40999 8.45763C2.70232 8.40739 2.01194 8.21562 1.37974 7.89367C1.26102 7.8165 1.19571 7.85805 1.18978 8.00053C1.17295 8.19805 1.17295 8.39665 1.18978 8.59417C1.31364 9.54078 1.6867 10.4375 2.2708 11.1927C2.85489 11.9478 3.62907 12.5343 4.51416 12.8921C4.72992 12.9845 4.95475 13.0542 5.18497 13.0999C4.52985 13.2289 3.85793 13.2489 3.19628 13.1593C3.05381 13.1296 3.00038 13.2068 3.05381 13.3433C3.92646 15.7178 5.82017 16.4421 7.20929 16.8458C7.39925 16.8754 7.58922 16.8754 7.80293 16.9229C7.80293 16.9229 7.80293 16.9229 7.76731 16.9586C7.3577 17.7065 5.70144 18.2111 4.94158 18.4723C3.55464 18.9705 2.07591 19.1609 0.608011 19.0304C0.376492 18.9947 0.323064 19.0007 0.2637 19.0304C0.204336 19.06 0.2637 19.1253 0.329001 19.1847C0.625821 19.3806 0.92264 19.5528 1.23133 19.719C2.15031 20.2202 3.12186 20.6184 4.1283 20.9063C9.34045 22.3429 15.2056 21.2862 19.1177 17.3978C22.1928 14.3465 23.2732 10.1376 23.2732 5.92279C23.2732 5.76251 23.4691 5.66752 23.5819 5.58441C24.3598 4.97824 25.0457 4.26237 25.6181 3.45918C25.7172 3.33946 25.768 3.18702 25.7605 3.03176C25.7605 2.94272 25.7605 2.96053 25.6477 3.00802Z" fill="white"/>
</svg>
