<svg width="31" height="22" viewBox="0 0 31 22" fill="none" xmlns="http://www.w3.org/2000/svg">
<path fill-rule="evenodd" clip-rule="evenodd" d="M26.7227 0.631023C28.0136 0.978238 29.03 2.00148 29.375 3.30051C30.002 5.65534 30.002 10.5682 30.002 10.5682C30.002 10.5682 30.002 15.4812 29.375 17.836C29.03 19.135 28.0136 20.1581 26.7227 20.5055C24.3833 21.1364 15.002 21.1364 15.002 21.1364C15.002 21.1364 5.62065 21.1364 3.28099 20.5055C1.99031 20.1581 0.973714 19.135 0.628715 17.836C0.00195312 15.4812 0.00195312 10.5682 0.00195312 10.5682C0.00195312 10.5682 0.00195312 5.65534 0.628715 3.30051C0.973714 2.00148 1.99031 0.978238 3.28099 0.631023C5.62065 0 15.002 0 15.002 0C15.002 0 24.3833 0 26.7227 0.631023ZM19.7732 10.5682L11.9323 15.0287V6.10758L19.7732 10.5682Z" fill="white"/>
</svg>
