<svg width="19" height="18" viewBox="0 0 19 18" fill="none" xmlns="http://www.w3.org/2000/svg">
<path d="M9.50078 3.77564C11.3091 3.77564 12.775 2.93043 12.775 1.88782C12.775 0.845205 11.3091 0 9.50078 0C7.69248 0 6.22656 0.845205 6.22656 1.88782C6.22656 2.93043 7.69248 3.77564 9.50078 3.77564Z" fill="#0C42CD"/>
<path d="M9.50078 17.9998C11.3091 17.9998 12.775 17.1546 12.775 16.1119C12.775 15.0693 11.3091 14.2241 9.50078 14.2241C7.69248 14.2241 6.22656 15.0693 6.22656 16.1119C6.22656 17.1546 7.69248 17.9998 9.50078 17.9998Z" fill="#0C42CD"/>
<path d="M4.93753 6.38867C5.84168 4.83622 5.83581 3.15481 4.92443 2.63315C4.01304 2.1115 2.54126 2.94712 1.63711 4.49958C0.732958 6.05203 0.738826 7.73343 1.65021 8.25509C2.5616 8.77675 4.03339 7.94113 4.93753 6.38867Z" fill="#0C42CD"/>
<path d="M17.3621 13.5002C18.2662 11.9477 18.2608 10.2666 17.3501 9.74531C16.4393 9.224 14.968 10.0599 14.0639 11.6124C13.1597 13.1648 13.1651 14.8459 14.0759 15.3672C14.9866 15.8886 16.4579 15.0526 17.3621 13.5002Z" fill="white"/>
<path d="M4.9254 15.3668C5.83679 14.8452 5.84266 13.1638 4.93851 11.6113C4.03436 10.0589 2.56258 9.22325 1.65119 9.74491C0.739802 10.2666 0.733934 11.948 1.63808 13.5004C2.54223 15.0529 4.01402 15.8885 4.9254 15.3668Z" fill="#0C42CD"/>
<path d="M17.351 8.25567C18.2618 7.73436 18.2672 6.05324 17.363 4.50079C16.4589 2.94833 14.9876 2.11242 14.0768 2.63373C13.1661 3.15503 13.1607 4.83615 14.0648 6.38861C14.969 7.94106 16.4403 8.77697 17.351 8.25567Z" fill="#0C42CD"/>
</svg>
