<svg width="20" height="17" viewBox="0 0 20 17" fill="none" xmlns="http://www.w3.org/2000/svg">
<path fill-rule="evenodd" clip-rule="evenodd" d="M15.499 1H5.99902V16H18.999V4.5H15.999H15.499V4V1ZM15.499 0H16.499L19.999 3.4V3.5V4.5V16V17H18.999H5.99902H4.99902V16V1V0H5.99902H15.499ZM18.6668 3.5L16.499 1.39416V3.5H18.6668ZM8.99902 6H9.49902H15.499H15.999V7H15.499H9.49902H8.99902V6ZM9.49902 9H8.99902V10H9.49902H15.499H15.999V9H15.499H9.49902ZM8.99902 12H9.49902H15.499H15.999V13H15.499H9.49902H8.99902V12Z" fill="#0C42CD"/>
<circle cx="4.55242" cy="4.55242" r="4.05242" transform="matrix(0.710059 0.704142 -0.710059 0.704142 7.67676 0.56662)" stroke="white"/>
<rect width="1.13811" height="6.25958" transform="matrix(0.710059 0.704142 -0.710059 0.704142 4.44434 9.38173)" fill="white"/>
</svg>
