<svg width="20" height="20" viewBox="0 0 20 20" fill="none" xmlns="http://www.w3.org/2000/svg">
<path d="M16.5448 11.4155H19.7143C19.7884 11.4156 19.8597 11.3868 19.913 11.3354C19.9664 11.284 19.9975 11.2139 20 11.14V8.85999C20 8.78441 19.9699 8.71193 19.9163 8.65849C19.8627 8.60504 19.7901 8.57501 19.7143 8.57501H15.2724L11.7734 0.726099C11.7438 0.659365 11.6955 0.602556 11.6344 0.56246C11.5732 0.522364 11.5018 0.500681 11.4286 0.5H8.57152C8.49803 0.500316 8.42619 0.521829 8.3647 0.561945C8.30318 0.602065 8.25461 0.659072 8.22486 0.726099L4.72774 8.56551H0.285871C0.247536 8.56548 0.209588 8.57314 0.174288 8.58808C0.138988 8.60299 0.107058 8.62484 0.0803992 8.65232C0.0537398 8.67977 0.0328965 8.71234 0.0191115 8.74801C0.00532636 8.78371 -0.00111906 8.82178 0.000158787 8.85999V11.14C0.000158787 11.2156 0.0302604 11.2881 0.0838417 11.3415C0.137423 11.395 0.210095 11.425 0.285871 11.425H3.45537L0.0268251 19.1086C0.00955161 19.1514 0.00294771 19.1977 0.0075796 19.2436C0.0122115 19.2895 0.0279406 19.3336 0.0534174 19.3721C0.0788941 19.4106 0.113357 19.4423 0.153846 19.4646C0.194334 19.4869 0.23964 19.499 0.285871 19.5H2.83633C2.91014 19.5001 2.98238 19.4787 3.04426 19.4386C3.10613 19.3984 3.15499 19.3412 3.18489 19.2739L10.0001 4.00549L16.8153 19.2739C16.8452 19.3412 16.894 19.3984 16.9559 19.4386C17.0178 19.4787 17.09 19.5001 17.1638 19.5H19.7143C19.7619 19.5 19.8088 19.4881 19.8506 19.4654C19.8924 19.4428 19.9279 19.41 19.9539 19.3702C19.9798 19.3304 19.9953 19.2847 19.9991 19.2374C20.0028 19.19 19.9946 19.1425 19.9752 19.0991L16.5448 11.4155Z" fill="white"/>
</svg>
