<svg width="17" height="13" viewBox="0 0 17 13" fill="none" xmlns="http://www.w3.org/2000/svg">
<path d="M13.9039 1.04445C15.6771 3.66764 16.5528 6.62652 16.2254 10.0329C16.224 10.0473 16.2166 10.0605 16.2048 10.0692C14.862 11.0613 13.561 11.6634 12.2783 12.0627C12.2683 12.0657 12.2576 12.0656 12.2478 12.0622C12.2379 12.0588 12.2293 12.0524 12.2232 12.0439C11.9268 11.629 11.6576 11.1916 11.4217 10.7323C11.4081 10.7053 11.4205 10.6727 11.4484 10.662C11.876 10.4999 12.2826 10.3056 12.6738 10.0755C12.7046 10.0574 12.7066 10.0129 12.6781 9.99161C12.5951 9.9296 12.5128 9.86444 12.4341 9.79927C12.4194 9.78723 12.3996 9.78486 12.3829 9.79295C9.84357 10.9728 7.06184 10.9728 4.49246 9.79295C4.47578 9.78545 4.45596 9.78802 4.44163 9.79986C4.36313 9.86503 4.2807 9.9296 4.19847 9.99161C4.17002 10.0129 4.17237 10.0574 4.20338 10.0755C4.59452 10.3012 5.00116 10.4999 5.42821 10.6628C5.45588 10.6735 5.46903 10.7053 5.45529 10.7323C5.2245 11.1922 4.95524 11.6296 4.65339 12.0445C4.64024 12.0613 4.61866 12.069 4.59825 12.0627C3.3216 11.6634 2.02062 11.0613 0.677842 10.0692C0.666656 10.0605 0.658609 10.0467 0.657432 10.0323C0.383851 7.08584 0.941414 4.10247 2.97678 1.04386C2.98169 1.03576 2.98915 1.02944 2.99778 1.02569C3.99927 0.563215 5.0722 0.222975 6.19361 0.0286645C6.21402 0.025505 6.23443 0.0349835 6.24503 0.0531507C6.38358 0.299988 6.54196 0.616532 6.64912 0.875217C7.83117 0.693545 9.03166 0.693545 10.2384 0.875217C10.3456 0.622061 10.4985 0.299988 10.6364 0.0531507C10.6414 0.0441382 10.649 0.0369178 10.6582 0.0325204C10.6674 0.028123 10.6778 0.0267735 10.6879 0.0286645C11.8099 0.223567 12.8828 0.563808 13.8835 1.02569C13.8923 1.02944 13.8996 1.03576 13.9039 1.04445ZM7.25005 6.64667C7.26242 5.77563 6.63126 5.05486 5.83897 5.05486C5.05317 5.05486 4.42809 5.76931 4.42809 6.64667C4.42809 7.52383 5.06553 8.23827 5.83897 8.23827C6.62498 8.23827 7.25005 7.52383 7.25005 6.64667ZM12.4669 6.64667C12.4793 5.77563 11.8481 5.05486 11.056 5.05486C10.27 5.05486 9.64496 5.76931 9.64496 6.64667C9.64496 7.52383 10.2824 8.23827 11.056 8.23827C11.8481 8.23827 12.4669 7.52383 12.4669 6.64667Z" fill="white"/>
</svg>
