<svg width="13" height="9" viewBox="0 0 13 9" fill="none" xmlns="http://www.w3.org/2000/svg">
<path d="M11.0218 0.760117C12.49 2.72145 13.2151 4.93379 12.944 7.4807C12.9429 7.49148 12.9367 7.50137 12.927 7.50786C11.8151 8.24964 10.7379 8.69982 9.67584 8.99836C9.66757 9.00064 9.65872 9.00051 9.65053 8.998C9.64234 8.99548 9.63522 8.9907 9.63017 8.98433C9.3848 8.67413 9.16185 8.34709 8.96652 8.00366C8.95531 7.98343 8.96555 7.95907 8.98862 7.9511C9.34271 7.82988 9.67941 7.6846 10.0033 7.51259C10.0288 7.49901 10.0304 7.46579 10.0068 7.44984C9.93811 7.40348 9.87002 7.35475 9.80486 7.30603C9.79267 7.29702 9.77626 7.29525 9.76245 7.30131C7.65986 8.1835 5.35659 8.1835 3.22915 7.30131C3.21533 7.2957 3.19892 7.29762 3.18706 7.30647C3.12206 7.3552 3.05381 7.40348 2.98572 7.44984C2.96216 7.46579 2.96411 7.49901 2.98978 7.51259C3.31365 7.68135 3.65035 7.82988 4.00394 7.95169C4.02686 7.95966 4.03774 7.98343 4.02637 8.00366C3.83527 8.34753 3.61232 8.67457 3.3624 8.98477C3.35151 8.99732 3.33363 9.00308 3.31673 8.99836C2.25967 8.69982 1.18246 8.24964 0.0706391 7.50786C0.0613766 7.50137 0.0547141 7.49103 0.0537391 7.48025C-0.172786 5.27722 0.288876 3.04657 1.97416 0.759674C1.97822 0.75362 1.9844 0.748896 1.99155 0.74609C2.82078 0.400302 3.70917 0.145907 4.63769 0.000622407C4.65459 -0.00173994 4.67149 0.0053471 4.68027 0.0189306C4.79499 0.203489 4.92613 0.440167 5.01486 0.633584C5.99359 0.497749 6.9876 0.497749 7.98681 0.633584C8.07554 0.444301 8.20213 0.203489 8.31636 0.0189306C8.32043 0.012192 8.32674 0.00679335 8.33438 0.00350547C8.34203 0.000217589 8.35062 -0.00079145 8.35894 0.000622407C9.28795 0.14635 10.1763 0.400745 11.0049 0.74609C11.0122 0.748896 11.0182 0.75362 11.0218 0.760117ZM5.51243 4.94885C5.52267 4.29758 5.00007 3.75867 4.34406 3.75867C3.69341 3.75867 3.17585 4.29286 3.17585 4.94885C3.17585 5.6047 3.70365 6.13888 4.34406 6.13888C4.99487 6.13888 5.51243 5.6047 5.51243 4.94885ZM9.832 4.94885C9.84223 4.29758 9.31964 3.75867 8.66379 3.75867C8.01298 3.75867 7.49541 4.29286 7.49541 4.94885C7.49541 5.6047 8.02321 6.13888 8.66379 6.13888C9.31964 6.13888 9.832 5.6047 9.832 4.94885Z" fill="url(#paint0_linear_106_2457)"/>
<defs>
<linearGradient id="paint0_linear_106_2457" x1="0.64492" y1="1.37156" x2="7.89387" y2="11.4674" gradientUnits="userSpaceOnUse">
<stop stop-color="#1945E1"/>
<stop offset="1" stop-color="#206DE1"/>
</linearGradient>
</defs>
</svg>
