<svg width="14" height="14" viewBox="0 0 14 14" fill="none" xmlns="http://www.w3.org/2000/svg">
<path fill-rule="evenodd" clip-rule="evenodd" d="M5.04004 0.840029C5.04004 0.376094 5.41613 0 5.88007 0C8.97298 0 11.4803 2.50729 11.4803 5.60019C11.4803 6.06413 11.1042 6.44022 10.6402 6.44022C10.1763 6.44022 9.8002 6.06413 9.8002 5.60019C9.8002 3.43515 8.04511 1.68006 5.88007 1.68006C5.41613 1.68006 5.04004 1.30396 5.04004 0.840029Z" fill="url(#paint0_linear_106_2450)"/>
<path fill-rule="evenodd" clip-rule="evenodd" d="M8.95975 13.1605C8.95975 13.6244 8.58366 14.0005 8.11972 14.0005C5.02683 14.0005 2.51953 11.4932 2.51953 8.40033C2.51953 7.9364 2.89562 7.5603 3.35956 7.5603C3.82349 7.5603 4.19959 7.9364 4.19959 8.40033C4.19959 10.5654 5.9547 12.3205 8.11972 12.3205C8.58366 12.3205 8.95975 12.6966 8.95975 13.1605Z" fill="url(#paint1_linear_106_2450)"/>
<path fill-rule="evenodd" clip-rule="evenodd" d="M0.840029 8.96049C0.376095 8.96049 2.02793e-08 8.5844 0 8.12047C-1.35195e-07 5.02755 2.50729 2.52026 5.60019 2.52026C6.06413 2.52026 6.44022 2.89637 6.44022 3.3603C6.44022 3.82424 6.06413 4.20033 5.60019 4.20033C3.43517 4.20033 1.68006 5.95542 1.68006 8.12047C1.68006 8.5844 1.30396 8.96049 0.840029 8.96049Z" fill="url(#paint2_linear_106_2450)"/>
<path fill-rule="evenodd" clip-rule="evenodd" d="M13.1598 5.04028C13.6237 5.04028 13.9998 5.41638 13.9998 5.88031C13.9998 8.97323 11.4925 11.4805 8.3996 11.4805C7.93567 11.4805 7.55957 11.1044 7.55957 10.6405C7.55957 10.1765 7.93567 9.80045 8.3996 9.80045C10.5646 9.80045 12.3197 8.04536 12.3197 5.88031C12.3197 5.41638 12.6958 5.04028 13.1598 5.04028Z" fill="url(#paint3_linear_106_2450)"/>
<defs>
<linearGradient id="paint0_linear_106_2450" x1="5.35953" y1="0.981461" x2="10.8303" y2="6.2564" gradientUnits="userSpaceOnUse">
<stop stop-color="#1945E1"/>
<stop offset="1" stop-color="#206DE1"/>
</linearGradient>
<linearGradient id="paint1_linear_106_2450" x1="2.83903" y1="8.54176" x2="8.30982" y2="13.8167" gradientUnits="userSpaceOnUse">
<stop stop-color="#1945E1"/>
<stop offset="1" stop-color="#206DE1"/>
</linearGradient>
<linearGradient id="paint2_linear_106_2450" x1="0.319495" y1="3.50173" x2="5.7903" y2="8.77667" gradientUnits="userSpaceOnUse">
<stop stop-color="#1945E1"/>
<stop offset="1" stop-color="#206DE1"/>
</linearGradient>
<linearGradient id="paint3_linear_106_2450" x1="7.87906" y1="6.02174" x2="13.3499" y2="11.2967" gradientUnits="userSpaceOnUse">
<stop stop-color="#1945E1"/>
<stop offset="1" stop-color="#206DE1"/>
</linearGradient>
</defs>
</svg>
