<svg width="46" height="46" viewBox="0 0 46 46" fill="none" xmlns="http://www.w3.org/2000/svg">
<path fill-rule="evenodd" clip-rule="evenodd" d="M16.3193 2.71958C16.3193 1.21733 17.5372 -0.000488281 19.0394 -0.000488281C29.0545 -0.000488281 37.1732 8.11829 37.1732 18.1333C37.1732 19.6356 35.9554 20.8534 34.4531 20.8534C32.9509 20.8534 31.7331 19.6356 31.7331 18.1333C31.7331 11.1228 26.05 5.43965 19.0394 5.43965C17.5372 5.43965 16.3193 4.22183 16.3193 2.71958Z" fill="white"/>
<path fill-rule="evenodd" clip-rule="evenodd" d="M29.014 42.6143C29.014 44.1165 27.7962 45.3343 26.294 45.3343C16.279 45.3343 8.16016 37.2156 8.16016 27.2005C8.16016 25.6983 9.37797 24.4805 10.8802 24.4805C12.3825 24.4805 13.6003 25.6983 13.6003 27.2005C13.6003 34.211 19.2835 39.8942 26.294 39.8942C27.7962 39.8942 29.014 41.112 29.014 42.6143Z" fill="white"/>
<path fill-rule="evenodd" clip-rule="evenodd" d="M2.72007 29.0133C1.21782 29.0133 6.56657e-08 27.7955 0 26.2933C-4.37771e-07 16.2782 8.11878 8.15942 18.1338 8.15942C19.6361 8.15942 20.8539 9.37727 20.8539 10.8795C20.8539 12.3818 19.6361 13.5996 18.1338 13.5996C11.1233 13.5996 5.44014 19.2827 5.44014 26.2933C5.44014 27.7955 4.22232 29.0133 2.72007 29.0133Z" fill="white"/>
<path fill-rule="evenodd" clip-rule="evenodd" d="M42.6133 16.3198C44.1156 16.3198 45.3334 17.5376 45.3334 19.0399C45.3334 29.055 37.2146 37.1737 27.1996 37.1737C25.6973 37.1737 24.4795 35.9559 24.4795 34.4536C24.4795 32.9514 25.6973 31.7336 27.1996 31.7336C34.21 31.7336 39.8932 26.0505 39.8932 19.0399C39.8932 17.5376 41.111 16.3198 42.6133 16.3198Z" fill="white"/>
</svg>
