<svg width="28" height="28" viewBox="0 0 28 28" fill="none" xmlns="http://www.w3.org/2000/svg">
<path fill-rule="evenodd" clip-rule="evenodd" d="M2.48692 0.467773C1.37212 0.467773 0.467773 1.34459 0.467773 2.42481V25.8317C0.467773 26.9121 1.37223 27.7881 2.48692 27.7881H25.769C26.8842 27.7881 27.7881 26.9119 27.7881 25.8314V2.42481C27.7881 1.34459 26.8842 0.467773 25.769 0.467773H2.48692ZM8.76964 11.0317V23.3314H4.6814V11.0317H8.76964ZM9.03911 7.22787C9.03911 8.40819 8.15173 9.35267 6.72637 9.35267L6.72605 9.35256H6.69959C5.32749 9.35256 4.44043 8.40809 4.44043 7.22776C4.44043 6.02065 5.35427 5.10254 6.75348 5.10254C8.15173 5.10254 9.01243 6.02065 9.03911 7.22787ZM15.1204 23.3314H11.0325L11.0324 23.3318C11.0324 23.3318 11.0861 12.186 11.0327 11.0321H15.1208V12.7731C15.6642 11.9352 16.6368 10.7433 18.8053 10.7433C21.4949 10.7433 23.5115 12.5013 23.5115 16.2791V23.3314H19.4237V16.7521C19.4237 15.0985 18.8317 13.9707 17.3528 13.9707C16.2232 13.9707 15.5505 14.7313 15.2551 15.466C15.1471 15.7282 15.1204 16.0963 15.1204 16.4634V23.3314Z" fill="white"/>
</svg>
