<svg width="18" height="18" viewBox="0 0 18 18" fill="none" xmlns="http://www.w3.org/2000/svg">
<path fill-rule="evenodd" clip-rule="evenodd" d="M2.11708 0.901855C1.44614 0.901855 0.901855 1.42957 0.901855 2.0797V16.1672C0.901855 16.8174 1.4462 17.3447 2.11708 17.3447H16.1294C16.8006 17.3447 17.3447 16.8173 17.3447 16.167V2.0797C17.3447 1.42957 16.8006 0.901855 16.1294 0.901855H2.11708ZM5.89835 7.25977V14.6624H3.43784V7.25977H5.89835ZM6.06053 4.97043C6.06053 5.68081 5.52646 6.24924 4.66861 6.24924L4.66841 6.24918H4.65248C3.82668 6.24918 3.29281 5.68075 3.29281 4.97037C3.29281 4.24387 3.8428 3.6913 4.68492 3.6913C5.52646 3.6913 6.04447 4.24387 6.06053 4.97043ZM9.72059 14.6624H7.26027L7.26021 14.6626C7.26021 14.6626 7.29252 7.95448 7.2604 7.26003H9.72078V8.30784C10.0478 7.80354 10.6332 7.08622 11.9383 7.08622C13.5571 7.08622 14.7708 8.14428 14.7708 10.4179V14.6624H12.3105V10.7026C12.3105 9.70737 11.9542 9.02859 11.0641 9.02859C10.3843 9.02859 9.97944 9.48636 9.80165 9.92858C9.73665 10.0864 9.72059 10.3079 9.72059 10.5289V14.6624Z" fill="white"/>
</svg>
