<svg width="30" height="23" viewBox="0 0 30 23" fill="none" xmlns="http://www.w3.org/2000/svg">
<path d="M2.81434 22.0412H7.44658V10.7915L0.829102 5.82837V20.0559C0.829102 21.1544 1.71915 22.0412 2.81434 22.0412Z" fill="white"/>
<path d="M23.3281 22.0412H27.9604C29.0589 22.0412 29.9456 21.1511 29.9456 20.0559V5.82837L23.3281 10.7915" fill="white"/>
<path d="M23.3281 2.18887V10.7916L29.9456 5.82849V3.18149C29.9456 0.726411 27.1431 -0.673186 25.181 0.799203" fill="white"/>
<path d="M7.44629 10.7914V2.18872L15.3873 8.14445L23.3282 2.18872V10.7914L15.3873 16.7472" fill="white"/>
<path d="M0.829102 3.18149V5.82849L7.44658 10.7916V2.18887L5.59369 0.799203C3.62829 -0.673186 0.829102 0.726411 0.829102 3.18149Z" fill="white"/>
</svg>
