<svg width="18" height="14" viewBox="0 0 18 14" fill="none" xmlns="http://www.w3.org/2000/svg">
<path d="M1.66723 13.6916H4.45515V6.92089L0.472412 3.93384V12.4967C0.472412 13.1579 1.00809 13.6916 1.66723 13.6916Z" fill="white"/>
<path d="M14.0137 13.6916H16.8016C17.4627 13.6916 17.9964 13.1559 17.9964 12.4967V3.93384L14.0137 6.92089" fill="white"/>
<path d="M14.0137 1.74338V6.92094L17.9964 3.93389V2.34079C17.9964 0.863192 16.3097 0.0208423 15.1288 0.907002" fill="white"/>
<path d="M4.45508 6.92097V1.74341L9.23437 5.32787L14.0137 1.74341V6.92097L9.23437 10.5054" fill="white"/>
<path d="M0.472412 2.34079V3.93389L4.45515 6.92094V1.74338L3.33999 0.907002C2.15711 0.0208423 0.472412 0.863192 0.472412 2.34079Z" fill="white"/>
</svg>
