<svg width="25" height="12" viewBox="0 0 25 12" fill="none" xmlns="http://www.w3.org/2000/svg">
<path d="M14.1066 6C14.1066 9.31126 10.9561 12 7.05329 12C3.15047 12 0 9.31126 0 6C0 2.68874 3.15047 0 7.05329 0C10.9561 0 14.1066 2.68874 14.1066 6ZM21.8339 6C21.8339 9.11258 20.2508 11.6424 18.3072 11.6424C16.3636 11.6424 14.7806 9.11258 14.7806 6C14.7806 2.88742 16.3636 0.357614 18.3072 0.357614C20.2508 0.357614 21.8339 2.87417 21.8339 6ZM25 6C25 8.7947 24.4514 11.0596 23.7618 11.0596C23.0721 11.0596 22.5235 8.7947 22.5235 6C22.5235 3.2053 23.0721 0.940394 23.7618 0.940394C24.4514 0.940394 25 3.2053 25 6Z" fill="url(#paint0_linear_106_2444)"/>
<defs>
<linearGradient id="paint0_linear_106_2444" x1="1.24023" y1="1.82875" x2="9.3792" y2="18.1779" gradientUnits="userSpaceOnUse">
<stop stop-color="#1945E1"/>
<stop offset="1" stop-color="#206DE1"/>
</linearGradient>
</defs>
</svg>
