<svg width="20" height="17" viewBox="0 0 20 17" fill="none" xmlns="http://www.w3.org/2000/svg">
<path fill-rule="evenodd" clip-rule="evenodd" d="M15.4999 1H5.99951V16H19V4.5H15.9999H15.4999V4V1ZM15.4999 0H16.4999H16.4999V6.7627e-05L20 3.4V3.5H20.0001V4.5H20V16V17H19H5.99951H4.99951V16V1V0H5.99951H15.4999ZM18.6678 3.5L16.4999 1.3942V3.5H18.6678ZM8.99954 6H9.49954H15.4998H15.9998V7H15.4998H9.49954H8.99954V6ZM9.49954 9H8.99954V10H9.49954H15.4998H15.9998V9H15.4998H9.49954ZM8.99954 12H9.49954H15.4998H15.9998V13H15.4998H9.49954H8.99954V12Z" fill="#1945E1"/>
<circle cx="4.55249" cy="4.55249" r="4.05249" transform="matrix(0.71007 0.704131 -0.71007 0.704131 7.677 0.56662)" fill="white" fill-opacity="0.5" stroke="#1945E1"/>
<rect width="1.13812" height="6.25968" transform="matrix(0.71007 0.704131 -0.71007 0.704131 4.44458 9.38171)" fill="#1945E1"/>
</svg>
