<svg width="28" height="28" viewBox="0 0 28 28" fill="none" xmlns="http://www.w3.org/2000/svg">
<path fill-rule="evenodd" clip-rule="evenodd" d="M27.7881 14.044C27.7881 21.5883 21.6722 27.7041 14.1279 27.7041C6.58365 27.7041 0.467773 21.5883 0.467773 14.044C0.467773 6.49967 6.58365 0.383789 14.1279 0.383789C21.6722 0.383789 27.7881 6.49967 27.7881 14.044ZM15.437 9.85287C13.0903 10.8665 6.32372 13.7453 6.32372 13.7453C4.7201 14.394 5.65876 15.0022 5.65876 15.0022C5.65876 15.0022 7.02771 15.4888 8.20114 15.8536C9.37452 16.2185 10.0003 15.8131 10.0003 15.8131C10.0003 15.8131 12.7383 13.948 15.5152 11.9612C17.4709 10.5827 17.0016 11.718 16.5322 12.2046C15.5152 13.2587 13.8334 14.9211 12.4253 16.2591C11.7995 16.8268 12.1124 17.3133 12.3862 17.5566C13.1825 18.255 15.0579 19.5253 15.9094 20.102C16.1454 20.2618 16.3027 20.3684 16.3367 20.3948C16.5322 20.557 17.6274 21.2868 18.2923 21.1246C18.9572 20.9624 19.0354 20.0298 19.0354 20.0298C19.0354 20.0298 19.5439 16.7051 20.0133 13.6642C20.1002 13.0671 20.1871 12.4825 20.2682 11.9374C20.4789 10.5208 20.6499 9.3708 20.6782 8.96086C20.7955 7.58233 19.3875 8.14994 19.3875 8.14994C19.3875 8.14994 16.3367 9.44744 15.437 9.85287Z" fill="white"/>
</svg>
