<svg width="45" height="45" viewBox="0 0 45 45" fill="none" xmlns="http://www.w3.org/2000/svg">
<path fill-rule="evenodd" clip-rule="evenodd" d="M44.0612 22.8258C44.0612 34.8966 34.2758 44.682 22.2049 44.682C10.134 44.682 0.348633 34.8966 0.348633 22.8258C0.348633 10.7549 10.134 0.969482 22.2049 0.969482C34.2758 0.969482 44.0612 10.7549 44.0612 22.8258ZM24.2994 16.12C20.5446 17.7419 9.71815 22.3478 9.71815 22.3478C7.15236 23.3858 8.65421 24.3589 8.65421 24.3589C8.65421 24.3589 10.8445 25.1374 12.722 25.7212C14.5994 26.3051 15.6007 25.6564 15.6007 25.6564C15.6007 25.6564 19.9814 22.6722 24.4246 19.4934C27.5536 17.2878 26.8027 19.1042 26.0517 19.8827C24.4246 21.5694 21.7336 24.2292 19.4807 26.37C18.4795 27.2783 18.9801 28.0567 19.4182 28.4459C20.6922 29.5635 23.6929 31.5959 25.0553 32.5186C25.4328 32.7743 25.6845 32.9448 25.7388 32.987C26.0517 33.2466 27.804 34.4142 28.8679 34.1548C29.9317 33.8953 30.0569 32.4032 30.0569 32.4032C30.0569 32.4032 30.8704 27.0836 31.6214 22.2181C31.7605 21.2627 31.8996 20.3274 32.0293 19.4553C32.3664 17.1886 32.6401 15.3487 32.6853 14.6928C32.8731 12.4872 30.6201 13.3953 30.6201 13.3953C30.6201 13.3953 25.7388 15.4713 24.2994 16.12Z" fill="white"/>
</svg>
