<svg width="13" height="11" viewBox="0 0 13 11" fill="none" xmlns="http://www.w3.org/2000/svg">
<path d="M12.9422 1.3214C12.5217 1.50717 12.0796 1.63653 11.6268 1.70628C11.8385 1.66903 12.1499 1.27795 12.2739 1.11965C12.4623 0.880877 12.6058 0.608296 12.6973 0.315755C12.6973 0.294028 12.7184 0.26299 12.6973 0.247471C12.6866 0.241494 12.6746 0.238362 12.6625 0.238362C12.6503 0.238362 12.6384 0.241494 12.6277 0.247471C12.1361 0.520741 11.6129 0.729308 11.0705 0.868241C11.0515 0.874169 11.0314 0.874701 11.0122 0.86978C10.9931 0.864859 10.9756 0.85467 10.9616 0.840306C10.9194 0.788698 10.8739 0.739968 10.8255 0.694425C10.6043 0.490952 10.3533 0.324418 10.0817 0.200913C9.71505 0.0465202 9.31905 -0.0203438 8.92356 0.00537028C8.53982 0.030247 8.16517 0.135899 7.8229 0.315755C7.48586 0.505377 7.18964 0.762983 6.95205 1.0731C6.70213 1.39228 6.5217 1.7627 6.42289 2.15944C6.34141 2.53683 6.33217 2.92687 6.39567 3.30787C6.39567 3.37305 6.39567 3.38236 6.34125 3.37305C4.18528 3.04714 2.41636 2.26187 0.970992 0.576479C0.907492 0.501987 0.874231 0.501987 0.822826 0.576479C0.193878 1.5573 0.499281 3.10922 1.28547 3.87587C1.3913 3.9783 1.50016 4.07762 1.61506 4.17074C1.2546 4.14447 0.902941 4.0442 0.580923 3.87587C0.520447 3.83552 0.487185 3.85725 0.484162 3.93174C0.47559 4.03502 0.47559 4.13885 0.484162 4.24213C0.547255 4.73707 0.737276 5.20592 1.03479 5.60076C1.33231 5.99559 1.72665 6.30223 2.17748 6.48932C2.28739 6.53764 2.4019 6.57405 2.51917 6.59795C2.18547 6.66539 1.84323 6.67587 1.5062 6.62899C1.43363 6.61347 1.40642 6.65382 1.43363 6.72521C1.87813 7.96675 2.84272 8.34542 3.55029 8.55648C3.64705 8.572 3.74381 8.572 3.85266 8.59683C3.85266 8.59683 3.85266 8.59683 3.83452 8.61545C3.62588 9.00654 2.78224 9.27037 2.3952 9.40694C1.68874 9.66741 0.935526 9.76697 0.18783 9.6987C0.0699022 9.68007 0.042688 9.68318 0.0124501 9.6987C-0.0177878 9.71422 0.0124501 9.74836 0.0457118 9.7794C0.196901 9.88183 0.348091 9.97184 0.505328 10.0587C0.973425 10.3208 1.4683 10.529 1.98094 10.6795C4.63583 11.4306 7.62333 10.8782 9.61601 8.84514C11.1823 7.24976 11.7327 5.04913 11.7327 2.84539C11.7327 2.76159 11.8325 2.71193 11.8899 2.66847C12.2862 2.35154 12.6355 1.97724 12.9271 1.5573C12.9776 1.4947 13.0034 1.41499 12.9996 1.33382C12.9996 1.28726 12.9996 1.29657 12.9422 1.3214Z" fill="url(#paint0_linear_106_2440)"/>
<defs>
<linearGradient id="paint0_linear_106_2440" x1="0.64492" y1="1.67635" x2="9.91616" y2="12.241" gradientUnits="userSpaceOnUse">
<stop stop-color="#1945E1"/>
<stop offset="1" stop-color="#206DE1"/>
</linearGradient>
</defs>
</svg>
