<svg width="16" height="14" viewBox="0 0 16 14" fill="none" xmlns="http://www.w3.org/2000/svg">
<path d="M15.8437 2.23639C15.3468 2.45023 14.8244 2.59913 14.2895 2.67943C14.5396 2.63655 14.9076 2.18638 15.0541 2.00416C15.2766 1.72931 15.4462 1.41554 15.5543 1.0788C15.5543 1.05379 15.5793 1.01806 15.5543 1.00019C15.5417 0.993315 15.5275 0.98971 15.5132 0.98971C15.4988 0.98971 15.4847 0.993315 15.4721 1.00019C14.8912 1.31475 14.273 1.55484 13.6321 1.71476C13.6097 1.72159 13.586 1.7222 13.5633 1.71653C13.5406 1.71087 13.5199 1.69914 13.5034 1.68261C13.4536 1.6232 13.3999 1.56711 13.3427 1.51468C13.0813 1.28047 12.7847 1.08877 12.4638 0.946602C12.0306 0.768881 11.5627 0.691914 11.0954 0.721514C10.6419 0.750149 10.1993 0.871765 9.79485 1.0788C9.39661 1.29707 9.04661 1.5936 8.76587 1.95057C8.47057 2.31798 8.25738 2.74437 8.14063 3.20106C8.04436 3.63546 8.03344 4.08444 8.10847 4.52301C8.10847 4.59804 8.10847 4.60876 8.04416 4.59804C5.49673 4.22289 3.40663 3.31896 1.69881 1.37891C1.62378 1.29317 1.58448 1.29317 1.52374 1.37891C0.780594 2.50793 1.14145 4.29435 2.07039 5.17684C2.19544 5.29474 2.32406 5.40907 2.45983 5.51625C2.03391 5.48602 1.6184 5.3706 1.23792 5.17684C1.16646 5.13039 1.12716 5.1554 1.12359 5.24115C1.11346 5.36003 1.11346 5.47955 1.12359 5.59843C1.19814 6.16815 1.42266 6.70785 1.7742 7.16234C2.12574 7.61683 2.59168 7.9698 3.12437 8.18516C3.25423 8.24078 3.38954 8.28269 3.5281 8.31021C3.13381 8.38784 2.72942 8.39991 2.3312 8.34594C2.24546 8.32807 2.2133 8.37452 2.24546 8.4567C2.77066 9.88583 3.9104 10.3217 4.74644 10.5647C4.86077 10.5825 4.9751 10.5825 5.10372 10.6111C5.10372 10.6111 5.10372 10.6111 5.08228 10.6326C4.83576 11.0827 3.83894 11.3864 3.38162 11.5436C2.54689 11.8435 1.65691 11.9581 0.773449 11.8795C0.634108 11.858 0.601953 11.8616 0.566224 11.8795C0.530496 11.8973 0.566224 11.9366 0.605526 11.9724C0.784167 12.0903 0.962809 12.1939 1.1486 12.2939C1.70169 12.5956 2.28641 12.8352 2.89214 13.0085C6.02908 13.8731 9.55904 13.2371 11.9135 10.8969C13.7643 9.0605 14.4145 6.52737 14.4145 3.99066C14.4145 3.89419 14.5324 3.83702 14.6003 3.787C15.0685 3.42218 15.4813 2.99133 15.8258 2.50793C15.8854 2.43587 15.916 2.34413 15.9115 2.25069C15.9115 2.19709 15.9115 2.20781 15.8437 2.23639Z" fill="white"/>
</svg>
