<svg width="20" height="20" viewBox="0 0 20 20" fill="none" xmlns="http://www.w3.org/2000/svg">
<path fill-rule="evenodd" clip-rule="evenodd" d="M8.19342 7.44098L5.50619 7.47184L2.89209 10.0859L2.11839 10.8596L3.2125 10.8471L5.87331 10.8165C5.97207 10.5949 6.09855 10.3357 6.25852 10.0473L3.98621 10.0734L5.82661 8.23297L7.51206 8.21362C7.71809 7.96199 7.9446 7.70359 8.19342 7.44098Z" fill="white"/>
<path fill-rule="evenodd" clip-rule="evenodd" d="M11.896 11.0429L11.864 13.8279L9.24992 16.442L8.47622 17.2157L8.48877 16.1215L8.51963 13.4299C8.74551 13.3249 9.00434 13.1934 9.28904 13.0304L9.26247 15.3478L11.1029 13.5074L11.1231 11.7416C11.3753 11.5298 11.6338 11.2975 11.896 11.0429Z" fill="white"/>
<path fill-rule="evenodd" clip-rule="evenodd" d="M5.5622 11.6542C5.5622 11.6542 6.09193 9.53526 8.47571 7.15148C11.6541 3.97311 16.1568 3.17852 16.1568 3.17852C16.1568 3.17852 15.3622 7.68121 12.1838 10.8596C9.80004 13.2434 7.68112 13.7731 7.68112 13.7731L5.5622 11.6542ZM11.6538 7.6815C12.0926 8.12034 12.8042 8.12034 13.243 7.6815C13.6818 7.24266 13.6818 6.53115 13.243 6.09231C12.8042 5.65347 12.0926 5.65347 11.6538 6.09231C11.215 6.53115 11.215 7.24266 11.6538 7.6815Z" fill="white"/>
<path fill-rule="evenodd" clip-rule="evenodd" d="M4.76194 16.1509L6.88086 14.032L7.42162 14.5727L5.30271 16.6917L4.76194 16.1509Z" fill="white"/>
<path fill-rule="evenodd" clip-rule="evenodd" d="M2.90745 15.8858L5.02637 13.7668L5.56713 14.3076L3.44822 16.4265L2.90745 15.8858Z" fill="white"/>
<path fill-rule="evenodd" clip-rule="evenodd" d="M2.6428 14.0322L4.76172 11.9133L5.30248 12.4541L3.18357 14.573L2.6428 14.0322Z" fill="white"/>
</svg>
