<svg width="25" height="20" viewBox="0 0 25 20" fill="none" xmlns="http://www.w3.org/2000/svg">
<path d="M18.3083 9.51566H0.000576361C-0.00202507 9.44316 0.00418675 9.37066 0.01907 9.29976C0.422209 8.04897 0.836446 6.80196 1.23219 5.54941C1.25413 5.44423 1.3152 5.35152 1.40289 5.2903C1.49057 5.229 1.59822 5.20391 1.70376 5.21991C5.14525 5.21991 8.59039 5.16593 12.032 5.25157C14.7836 5.3223 16.8271 6.70706 18.1882 9.10987C18.2401 9.20418 18.2858 9.30178 18.325 9.40207C18.3268 9.42632 18.3139 9.46169 18.3083 9.51566Z" fill="white"/>
<path d="M24.9988 10.4758C24.677 11.4659 24.3737 12.4189 24.0575 13.37C23.9076 13.8204 23.854 14.4327 23.5341 14.6635C23.2142 14.8943 22.6224 14.7566 22.1472 14.7584C19.1514 14.7584 16.1555 14.792 13.1597 14.7584C10.347 14.7194 8.23884 13.4053 6.80931 10.9764C6.74827 10.8703 6.69466 10.7587 6.64288 10.647C6.62696 10.5944 6.61703 10.54 6.61328 10.4851L24.9988 10.4758Z" fill="white"/>
<path d="M6.57227 4.27434C7.25564 2.7812 8.41662 1.56173 9.8695 0.81062C10.838 0.292165 11.9164 0.0163078 13.0133 0.00662418C16.1922 -0.00828022 19.3711 0.00662418 22.55 0.00662418C22.6641 0.0131922 22.7776 0.0262442 22.8903 0.0456957C22.8771 0.156679 22.8567 0.266735 22.8292 0.375107C22.4446 1.56443 22.0507 2.7519 21.6698 3.94492C21.592 4.19249 21.4941 4.33016 21.1982 4.33016C16.4209 4.32275 11.6442 4.32275 6.86818 4.33016C6.76862 4.3172 6.66982 4.2985 6.57227 4.27434Z" fill="white"/>
<path d="M18.3696 15.706C17.8061 16.9537 16.9052 18.0168 15.7698 18.7738C14.6344 19.5308 13.3104 19.9511 11.949 19.9867C8.75349 20.0165 5.5579 19.9867 2.36237 19.9867C2.27361 19.9867 2.17744 19.97 2.0332 19.9532C2.07573 19.7876 2.10533 19.6424 2.15155 19.5028C2.52141 18.3563 2.90606 17.2135 3.26113 16.0652C3.34618 15.7934 3.45715 15.6613 3.76966 15.6631C8.53212 15.6718 13.294 15.6718 18.0553 15.6631C18.1385 15.6725 18.2125 15.6892 18.3696 15.706Z" fill="white"/>
</svg>
