<svg width="15" height="14" viewBox="0 0 15 14" fill="none" xmlns="http://www.w3.org/2000/svg">
<path d="M8.965 3.55688H2.06836" stroke="white" stroke-width="0.646688"/>
<path fill-rule="evenodd" clip-rule="evenodd" d="M0 0.970031C0 0.434298 0.46316 0 1.0345 0H10.0001C10.5715 0 11.0346 0.434298 11.0346 0.970031V3.96064C10.8124 3.86959 10.5821 3.79276 10.345 3.73136V0.970031C10.345 0.791454 10.1906 0.646688 10.0001 0.646688H1.0345C0.84405 0.646688 0.689664 0.791454 0.689664 0.970031V9.37697C0.689664 9.55555 0.84405 9.70031 1.0345 9.70031H3.97865C4.0441 9.92269 4.12601 10.1387 4.22308 10.347H1.0345C0.463159 10.347 0 9.9127 0 9.37697V0.970031ZM4.22313 6.46699C4.12606 6.67533 4.04414 6.8913 3.97868 7.11368H2.06866V6.46699H4.22313ZM5.44858 4.85027C5.22143 5.04783 5.01325 5.26428 4.82686 5.49696H2.06866V4.85027H5.44858ZM8.9653 3.5569C8.96527 3.5569 8.96524 3.5569 8.96522 3.5569C8.30925 3.5569 7.6818 3.67139 7.10436 3.88024H2.06866V3.23355H8.9653V3.5569Z" fill="white"/>
<path d="M13.8146 8.40704C13.8146 10.8878 11.6635 12.9339 8.96545 12.9339C6.26743 12.9339 4.11631 10.8878 4.11631 8.40704C4.11631 5.92623 6.26743 3.88023 8.96545 3.88023C11.6635 3.88023 13.8146 5.92623 13.8146 8.40704Z" stroke="white" stroke-width="0.646688"/>
<path fill-rule="evenodd" clip-rule="evenodd" d="M7.56368 8.4071C7.56368 7.71207 8.17093 7.11373 8.9645 7.11373C9.53414 7.11373 10.0078 7.42205 10.2297 7.85313L9.80545 7.74059L9.64537 8.34862L10.8185 8.65978L11.1289 8.7421L11.2166 8.45109L11.5485 7.35106L10.9123 7.16042L10.7977 7.54031C10.4588 6.89805 9.75587 6.46704 8.9645 6.46704C7.8536 6.46704 6.91699 7.31635 6.91699 8.4071C6.91699 9.49785 7.8536 10.3472 8.9645 10.3472V9.70048C8.17093 9.70048 7.56368 9.10213 7.56368 8.4071Z" fill="white"/>
</svg>
