<svg width="14" height="12" viewBox="0 0 14 12" fill="none" xmlns="http://www.w3.org/2000/svg">
<path fill-rule="evenodd" clip-rule="evenodd" d="M10.5 1H4.50195V11H13.0009V3.5H11H10.5V3V1ZM10.5 0H11.5H11.5511L14.0009 2.4V11V12H13.0009H4.50195H3.50195V11V1V0H4.50195H10.5ZM11.5 1.34985V2.5H12.674L11.5 1.34985ZM6.29883 3.94116H6.79883H10.6983H11.1983V4.94116H10.6983H6.79883H6.29883V3.94116ZM6.79883 6.05884H6.29883V7.05884H6.79883H10.6983H11.1983V6.05884H10.6983H6.79883ZM6.29883 8.17651H6.79883H10.6983H11.1983V9.17651H10.6983H6.79883H6.29883V8.17651Z" fill="white"/>
<circle cx="3.19983" cy="3.19983" r="2.69983" transform="matrix(0.70707 0.707143 -0.70707 0.707143 5.375 0.399902)" fill="white" fill-opacity="0.5" stroke="white"/>
<rect width="0.799958" height="4.39977" transform="matrix(0.70707 0.707143 -0.70707 0.707143 3.11133 6.62256)" fill="white"/>
</svg>
