<svg width="16" height="16" viewBox="0 0 16 16" fill="none" xmlns="http://www.w3.org/2000/svg">
<path d="M8 13.4444L6.44444 15L4.88889 13.4444M8 13.4444L13.4444 8M8 13.4444L6.44444 11.8889L4.88889 13.4444M4.88889 13.4444L2.55556 11.1111M2.55556 11.1111L1 9.55556L2.55556 8M2.55556 11.1111L4.11111 9.55556L2.55556 8M2.55556 8L8 2.55556M8 2.55556L9.55556 1L11.1111 2.55556M8 2.55556L9.55556 4.11111L11.1111 2.55556M11.1111 2.55556L13.4444 4.88889M13.4444 4.88889L15 6.44444L13.4444 8M13.4444 4.88889L11.8889 6.44444L13.4444 8M9.55556 8C9.55556 8.85911 8.85911 9.55556 8 9.55556C7.14089 9.55556 6.44444 8.85911 6.44444 8C6.44444 7.14089 7.14089 6.44444 8 6.44444C8.85911 6.44444 9.55556 7.14089 9.55556 8Z" stroke="white" stroke-linecap="round" stroke-linejoin="round"/>
</svg>
