<svg width="150" height="18" viewBox="0 0 150 18" fill="none" xmlns="http://www.w3.org/2000/svg">
<path d="M0 15.6361V18.0002H3.95342L16.8381 5.4816V11.7402H11.9634L8.76765 14.8615H16.8381V18.0002H20.8218V0.0110168H16.0474L0 15.6361Z" fill="white"/>
<path d="M22.4478 0.0110168V18.0002H26.4548V3.9203L22.4478 0.0110168Z" fill="white"/>
<path d="M24.0581 0.0110168L28.0294 3.88808H35.2707L32.0406 7.04155H28.0418V10.9414H29.6644L36.8878 17.9975H41.6677V15.6428L35.6406 9.75872L41.6814 3.88808V0.0110168H24.0581Z" fill="white"/>
<path d="M108.238 0.0110168V18.0002H112.245V3.9203L108.238 0.0110168Z" fill="white"/>
<path d="M109.848 0.0110168L113.819 3.88808H121.06L117.83 7.04155H113.831V10.9414H115.454L122.677 17.9975H127.457V15.6428L121.43 9.75872L127.471 3.88808V0.0110168H109.848Z" fill="white"/>
<path d="M43.2668 0.0110168V3.88808H50.5095V17.9975H54.5826V3.88808H60.1503L61.7427 2.33216V0.0110168H43.2668Z" fill="white"/>
<path d="M63.3711 0.0110168V3.88808H75.3716L63.3711 15.6361V17.9975H67.3424L84.2108 1.53741V0.0110168H63.3711Z" fill="white"/>
<path d="M72.9707 14.1193L70.5505 16.427V17.9964H84.2218V14.1193H72.9707Z" fill="white"/>
<path d="M86.5942 0.0107703V2.297L93.0737 8.53951L86.6121 14.8465V17.9972H106.676V15.6425L104.993 14.1202L93.8699 14.0826L97.0656 10.9627H104.23V6.22777H97.0354L90.6563 3.05176e-05L86.5942 0.0107703Z" fill="white"/>
<path d="M92.2832 0.0107703L96.2256 3.8583H105.076L106.635 2.33594V3.05176e-05L92.2832 0.0107703Z" fill="white"/>
<path d="M129.95 1.5674V17.2019L133.901 13.3248V3.8872H145.116L149.133 0.0114746H131.581L129.95 1.5674Z" fill="white"/>
<path d="M150 16.4409V0.758087L145.982 4.69959V14.1197H134.765L130.794 17.9968H148.37L150 16.4409Z" fill="white"/>
</svg>
