<svg width="1209" height="218" viewBox="0 0 1209 218" fill="none" xmlns="http://www.w3.org/2000/svg">
<path d="M2 106.061L1202 106.062" stroke="white" stroke-opacity="0.3"/>
<circle cx="102" cy="106" r="12" fill="#0C42CD"/>
<circle cx="245" cy="106" r="12" fill="#0C42CD"/>
<circle cx="388" cy="106" r="12" fill="#0C42CD"/>
<circle cx="531" cy="106" r="12" fill="#0C42CD"/>
<circle cx="817" cy="106" r="12" fill="#0C42CD"/>
<circle cx="674" cy="106" r="12" fill="#0C42CD"/>
<circle cx="960" cy="106" r="12" fill="#0C42CD"/>
<path d="M118.1 162.88V177H115.28V162.88H118.1ZM124.991 165.78C125.924 165.78 126.718 166 127.371 166.44C128.038 166.88 128.518 167.473 128.811 168.22V162.2H131.611V177H128.811V174.68C128.518 175.427 128.038 176.027 127.371 176.48C126.718 176.92 125.924 177.14 124.991 177.14C124.058 177.14 123.218 176.913 122.471 176.46C121.724 176.007 121.138 175.353 120.711 174.5C120.298 173.633 120.091 172.62 120.091 171.46C120.091 170.3 120.298 169.293 120.711 168.44C121.138 167.573 121.724 166.913 122.471 166.46C123.218 166.007 124.058 165.78 124.991 165.78ZM125.871 168.24C124.991 168.24 124.284 168.527 123.751 169.1C123.218 169.673 122.951 170.46 122.951 171.46C122.951 172.46 123.218 173.247 123.751 173.82C124.284 174.38 124.991 174.66 125.871 174.66C126.724 174.66 127.424 174.373 127.971 173.8C128.531 173.213 128.811 172.433 128.811 171.46C128.811 170.473 128.531 169.693 127.971 169.12C127.424 168.533 126.724 168.24 125.871 168.24ZM144.587 171.04C144.587 171.32 144.553 171.64 144.487 172H136.367C136.407 172.987 136.673 173.713 137.167 174.18C137.66 174.647 138.273 174.88 139.007 174.88C139.66 174.88 140.2 174.72 140.627 174.4C141.067 174.08 141.347 173.647 141.467 173.1H144.447C144.3 173.873 143.987 174.567 143.507 175.18C143.027 175.793 142.407 176.273 141.647 176.62C140.9 176.967 140.067 177.14 139.147 177.14C138.067 177.14 137.107 176.913 136.267 176.46C135.427 175.993 134.773 175.333 134.307 174.48C133.84 173.627 133.607 172.62 133.607 171.46C133.607 170.3 133.84 169.293 134.307 168.44C134.773 167.573 135.427 166.913 136.267 166.46C137.107 166.007 138.067 165.78 139.147 165.78C140.24 165.78 141.193 166.007 142.007 166.46C142.833 166.913 143.467 167.54 143.907 168.34C144.36 169.127 144.587 170.027 144.587 171.04ZM141.747 170.76C141.787 169.853 141.547 169.167 141.027 168.7C140.52 168.233 139.893 168 139.147 168C138.387 168 137.747 168.233 137.227 168.7C136.707 169.167 136.42 169.853 136.367 170.76H141.747ZM153.189 165.76C154.469 165.76 155.489 166.18 156.249 167.02C157.009 167.86 157.389 169.04 157.389 170.56V177H154.589V170.88C154.589 170 154.362 169.32 153.909 168.84C153.455 168.347 152.835 168.1 152.049 168.1C151.249 168.1 150.609 168.36 150.129 168.88C149.649 169.4 149.409 170.147 149.409 171.12V177H146.589V165.92H149.409V168.14C149.702 167.393 150.182 166.813 150.849 166.4C151.529 165.973 152.309 165.76 153.189 165.76ZM165.79 174.58V177H164.31C163.07 177 162.117 176.7 161.45 176.1C160.797 175.5 160.47 174.5 160.47 173.1V168.3H158.93V165.92H160.47V163.18H163.29V165.92H165.77V168.3H163.29V173.14C163.29 173.673 163.397 174.047 163.61 174.26C163.823 174.473 164.183 174.58 164.69 174.58H165.79ZM167.499 162.74C167.499 162.287 167.659 161.92 167.979 161.64C168.299 161.347 168.719 161.2 169.239 161.2C169.759 161.2 170.179 161.347 170.499 161.64C170.819 161.92 170.979 162.287 170.979 162.74C170.979 163.18 170.819 163.547 170.499 163.84C170.179 164.12 169.759 164.26 169.239 164.26C168.719 164.26 168.299 164.12 167.979 163.84C167.659 163.547 167.499 163.18 167.499 162.74ZM170.639 165.92V177H167.819V165.92H170.639ZM178.67 164C177.843 163.947 177.263 164.067 176.93 164.36C176.597 164.653 176.43 165.167 176.43 165.9V165.92H178.67V168.3H176.43V177H173.61V168.3H172.19V165.92H173.61V165.66C173.61 164.34 173.983 163.327 174.73 162.62C175.49 161.9 176.61 161.54 178.09 161.54C178.343 161.54 178.537 161.547 178.67 161.56V164ZM182.258 165.92L185.278 173.44L188.078 165.92H191.178L184.398 182.28H181.278L183.778 176.68L179.118 165.92H182.258ZM117.18 189.92L120.2 197.44L123 189.92H126.1L119.32 206.28H116.2L118.7 200.68L114.04 189.92H117.18ZM132.548 189.78C133.628 189.78 134.595 190.007 135.448 190.46C136.315 190.913 136.995 191.573 137.488 192.44C137.982 193.293 138.228 194.3 138.228 195.46C138.228 196.62 137.982 197.627 137.488 198.48C136.995 199.333 136.315 199.993 135.448 200.46C134.595 200.913 133.628 201.14 132.548 201.14C131.468 201.14 130.495 200.913 129.628 200.46C128.775 199.993 128.102 199.333 127.608 198.48C127.115 197.627 126.868 196.62 126.868 195.46C126.868 194.3 127.115 193.293 127.608 192.44C128.102 191.573 128.775 190.913 129.628 190.46C130.495 190.007 131.468 189.78 132.548 189.78ZM132.548 192.22C131.762 192.22 131.095 192.5 130.548 193.06C130.002 193.607 129.728 194.407 129.728 195.46C129.728 196.513 130.002 197.32 130.548 197.88C131.095 198.427 131.762 198.7 132.548 198.7C133.335 198.7 134.002 198.427 134.548 197.88C135.095 197.32 135.368 196.513 135.368 195.46C135.368 194.407 135.095 193.607 134.548 193.06C134.002 192.5 133.335 192.22 132.548 192.22ZM150.821 189.92V201H148.001V198.76C147.708 199.507 147.221 200.093 146.541 200.52C145.875 200.933 145.101 201.14 144.221 201.14C142.941 201.14 141.921 200.72 141.161 199.88C140.401 199.04 140.021 197.867 140.021 196.36V189.92H142.821V196.04C142.821 196.92 143.048 197.607 143.501 198.1C143.955 198.58 144.568 198.82 145.341 198.82C146.155 198.82 146.801 198.56 147.281 198.04C147.761 197.52 148.001 196.773 148.001 195.8V189.92H150.821ZM156.205 192.04C156.619 191.333 157.165 190.78 157.845 190.38C158.525 189.967 159.285 189.76 160.125 189.76V192.78H159.305C157.239 192.78 156.205 193.74 156.205 195.66V201H153.385V189.92H156.205V192.04ZM172.642 189.76C173.922 189.76 174.942 190.18 175.702 191.02C176.462 191.86 176.842 193.04 176.842 194.56V201H174.042V194.88C174.042 194 173.815 193.32 173.362 192.84C172.908 192.347 172.288 192.1 171.502 192.1C170.702 192.1 170.062 192.36 169.582 192.88C169.102 193.4 168.862 194.147 168.862 195.12V201H166.042V189.92H168.862V192.14C169.155 191.393 169.635 190.813 170.302 190.4C170.982 189.973 171.762 189.76 172.642 189.76ZM189.743 195.04C189.743 195.32 189.71 195.64 189.643 196H181.523C181.563 196.987 181.83 197.713 182.323 198.18C182.816 198.647 183.43 198.88 184.163 198.88C184.816 198.88 185.356 198.72 185.783 198.4C186.223 198.08 186.503 197.647 186.623 197.1H189.603C189.456 197.873 189.143 198.567 188.663 199.18C188.183 199.793 187.563 200.273 186.803 200.62C186.056 200.967 185.223 201.14 184.303 201.14C183.223 201.14 182.263 200.913 181.423 200.46C180.583 199.993 179.93 199.333 179.463 198.48C178.996 197.627 178.763 196.62 178.763 195.46C178.763 194.3 178.996 193.293 179.463 192.44C179.93 191.573 180.583 190.913 181.423 190.46C182.263 190.007 183.223 189.78 184.303 189.78C185.396 189.78 186.35 190.007 187.163 190.46C187.99 190.913 188.623 191.54 189.063 192.34C189.516 193.127 189.743 194.027 189.743 195.04ZM186.903 194.76C186.943 193.853 186.703 193.167 186.183 192.7C185.676 192.233 185.05 192 184.303 192C183.543 192 182.903 192.233 182.383 192.7C181.863 193.167 181.576 193.853 181.523 194.76H186.903ZM202.165 195.04C202.165 195.32 202.132 195.64 202.065 196H193.945C193.985 196.987 194.252 197.713 194.745 198.18C195.238 198.647 195.852 198.88 196.585 198.88C197.238 198.88 197.778 198.72 198.205 198.4C198.645 198.08 198.925 197.647 199.045 197.1H202.025C201.878 197.873 201.565 198.567 201.085 199.18C200.605 199.793 199.985 200.273 199.225 200.62C198.478 200.967 197.645 201.14 196.725 201.14C195.645 201.14 194.685 200.913 193.845 200.46C193.005 199.993 192.352 199.333 191.885 198.48C191.418 197.627 191.185 196.62 191.185 195.46C191.185 194.3 191.418 193.293 191.885 192.44C192.352 191.573 193.005 190.913 193.845 190.46C194.685 190.007 195.645 189.78 196.725 189.78C197.818 189.78 198.772 190.007 199.585 190.46C200.412 190.913 201.045 191.54 201.485 192.34C201.938 193.127 202.165 194.027 202.165 195.04ZM199.325 194.76C199.365 193.853 199.125 193.167 198.605 192.7C198.098 192.233 197.472 192 196.725 192C195.965 192 195.325 192.233 194.805 192.7C194.285 193.167 193.998 193.853 193.945 194.76H199.325ZM208.507 189.78C209.44 189.78 210.233 190 210.887 190.44C211.553 190.88 212.033 191.473 212.327 192.22V186.2H215.127V201H212.327V198.68C212.033 199.427 211.553 200.027 210.887 200.48C210.233 200.92 209.44 201.14 208.507 201.14C207.573 201.14 206.733 200.913 205.987 200.46C205.24 200.007 204.653 199.353 204.227 198.5C203.813 197.633 203.607 196.62 203.607 195.46C203.607 194.3 203.813 193.293 204.227 192.44C204.653 191.573 205.24 190.913 205.987 190.46C206.733 190.007 207.573 189.78 208.507 189.78ZM209.387 192.24C208.507 192.24 207.8 192.527 207.267 193.1C206.733 193.673 206.467 194.46 206.467 195.46C206.467 196.46 206.733 197.247 207.267 197.82C207.8 198.38 208.507 198.66 209.387 198.66C210.24 198.66 210.94 198.373 211.487 197.8C212.047 197.213 212.327 196.433 212.327 195.46C212.327 194.473 212.047 193.693 211.487 193.12C210.94 192.533 210.24 192.24 209.387 192.24ZM221.502 189.78C222.849 189.78 223.929 190.12 224.742 190.8C225.556 191.48 226.062 192.387 226.262 193.52H223.622C223.516 192.987 223.276 192.56 222.902 192.24C222.529 191.92 222.042 191.76 221.442 191.76C220.962 191.76 220.589 191.873 220.322 192.1C220.056 192.327 219.922 192.633 219.922 193.02C219.922 193.327 220.029 193.573 220.242 193.76C220.456 193.947 220.722 194.093 221.042 194.2C221.362 194.307 221.822 194.433 222.422 194.58C223.262 194.767 223.942 194.967 224.462 195.18C224.996 195.38 225.449 195.707 225.822 196.16C226.209 196.6 226.402 197.2 226.402 197.96C226.402 198.907 226.029 199.673 225.282 200.26C224.549 200.847 223.556 201.14 222.302 201.14C220.862 201.14 219.709 200.82 218.842 200.18C217.976 199.527 217.449 198.6 217.262 197.4H219.962C220.029 197.947 220.269 198.38 220.682 198.7C221.096 199.007 221.636 199.16 222.302 199.16C222.782 199.16 223.149 199.047 223.402 198.82C223.656 198.58 223.782 198.273 223.782 197.9C223.782 197.58 223.669 197.32 223.442 197.12C223.229 196.92 222.956 196.767 222.622 196.66C222.302 196.553 221.842 196.427 221.242 196.28C220.416 196.093 219.742 195.907 219.222 195.72C218.716 195.52 218.276 195.207 217.902 194.78C217.542 194.353 217.362 193.767 217.362 193.02C217.362 192.06 217.729 191.28 218.462 190.68C219.196 190.08 220.209 189.78 221.502 189.78Z" fill="white"/>
<path d="M266.16 17.72C267.013 17.8933 267.693 18.3 268.2 18.94C268.72 19.5667 268.98 20.3067 268.98 21.16C268.98 22.3467 268.58 23.2867 267.78 23.98C266.993 24.66 265.847 25 264.34 25H258.28V10.88H264.22C265.647 10.88 266.74 11.1933 267.5 11.82C268.273 12.4467 268.66 13.3267 268.66 14.46C268.66 15.34 268.427 16.06 267.96 16.62C267.507 17.18 266.907 17.5467 266.16 17.72ZM261.1 16.8H263.64C264.347 16.8 264.88 16.6467 265.24 16.34C265.613 16.02 265.8 15.5667 265.8 14.98C265.8 14.3933 265.62 13.94 265.26 13.62C264.9 13.3 264.347 13.14 263.6 13.14H261.1V16.8ZM263.78 22.7C264.527 22.7 265.1 22.54 265.5 22.22C265.9 21.8867 266.1 21.4067 266.1 20.78C266.1 20.1533 265.893 19.6733 265.48 19.34C265.08 18.9933 264.507 18.82 263.76 18.82H261.1V22.7H263.78ZM273.776 16.04C274.189 15.3333 274.736 14.78 275.416 14.38C276.096 13.9667 276.856 13.76 277.696 13.76V16.78H276.876C274.809 16.78 273.776 17.74 273.776 19.66V25H270.956V13.92H273.776V16.04ZM283.597 13.78C284.53 13.78 285.33 14 285.997 14.44C286.663 14.88 287.137 15.4733 287.417 16.22V13.92H290.217V25H287.417V22.68C287.137 23.4267 286.663 24.0267 285.997 24.48C285.33 24.92 284.53 25.14 283.597 25.14C282.663 25.14 281.823 24.9133 281.077 24.46C280.33 24.0067 279.743 23.3533 279.317 22.5C278.903 21.6333 278.697 20.62 278.697 19.46C278.697 18.3 278.903 17.2933 279.317 16.44C279.743 15.5733 280.33 14.9133 281.077 14.46C281.823 14.0067 282.663 13.78 283.597 13.78ZM284.477 16.24C283.597 16.24 282.89 16.5267 282.357 17.1C281.823 17.6733 281.557 18.46 281.557 19.46C281.557 20.46 281.823 21.2467 282.357 21.82C282.89 22.38 283.597 22.66 284.477 22.66C285.33 22.66 286.03 22.3733 286.577 21.8C287.137 21.2133 287.417 20.4333 287.417 19.46C287.417 18.4733 287.137 17.6933 286.577 17.12C286.03 16.5333 285.33 16.24 284.477 16.24ZM292.452 10.74C292.452 10.2867 292.612 9.92 292.932 9.64C293.252 9.34667 293.672 9.2 294.192 9.2C294.712 9.2 295.132 9.34667 295.452 9.64C295.772 9.92 295.932 10.2867 295.932 10.74C295.932 11.18 295.772 11.5467 295.452 11.84C295.132 12.12 294.712 12.26 294.192 12.26C293.672 12.26 293.252 12.12 292.932 11.84C292.612 11.5467 292.452 11.18 292.452 10.74ZM295.592 13.92V25H292.772V13.92H295.592ZM304.743 13.76C306.023 13.76 307.043 14.18 307.803 15.02C308.563 15.86 308.943 17.04 308.943 18.56V25H306.143V18.88C306.143 18 305.917 17.32 305.463 16.84C305.01 16.3467 304.39 16.1 303.603 16.1C302.803 16.1 302.163 16.36 301.683 16.88C301.203 17.4 300.963 18.1467 300.963 19.12V25H298.143V13.92H300.963V16.14C301.257 15.3933 301.737 14.8133 302.403 14.4C303.083 13.9733 303.863 13.76 304.743 13.76ZM315.245 13.78C316.591 13.78 317.671 14.12 318.485 14.8C319.298 15.48 319.805 16.3867 320.005 17.52H317.365C317.258 16.9867 317.018 16.56 316.645 16.24C316.271 15.92 315.785 15.76 315.185 15.76C314.705 15.76 314.331 15.8733 314.065 16.1C313.798 16.3267 313.665 16.6333 313.665 17.02C313.665 17.3267 313.771 17.5733 313.985 17.76C314.198 17.9467 314.465 18.0933 314.785 18.2C315.105 18.3067 315.565 18.4333 316.165 18.58C317.005 18.7667 317.685 18.9667 318.205 19.18C318.738 19.38 319.191 19.7067 319.565 20.16C319.951 20.6 320.145 21.2 320.145 21.96C320.145 22.9067 319.771 23.6733 319.025 24.26C318.291 24.8467 317.298 25.14 316.045 25.14C314.605 25.14 313.451 24.82 312.585 24.18C311.718 23.5267 311.191 22.6 311.005 21.4H313.705C313.771 21.9467 314.011 22.38 314.425 22.7C314.838 23.0067 315.378 23.16 316.045 23.16C316.525 23.16 316.891 23.0467 317.145 22.82C317.398 22.58 317.525 22.2733 317.525 21.9C317.525 21.58 317.411 21.32 317.185 21.12C316.971 20.92 316.698 20.7667 316.365 20.66C316.045 20.5533 315.585 20.4267 314.985 20.28C314.158 20.0933 313.485 19.9067 312.965 19.72C312.458 19.52 312.018 19.2067 311.645 18.78C311.285 18.3533 311.105 17.7667 311.105 17.02C311.105 16.06 311.471 15.28 312.205 14.68C312.938 14.08 313.951 13.78 315.245 13.78ZM328.165 22.58V25H326.685C325.445 25 324.492 24.7 323.825 24.1C323.172 23.5 322.845 22.5 322.845 21.1V16.3H321.305V13.92H322.845V11.18H325.665V13.92H328.145V16.3H325.665V21.14C325.665 21.6733 325.772 22.0467 325.985 22.26C326.198 22.4733 326.558 22.58 327.065 22.58H328.165ZM335.314 13.78C336.394 13.78 337.361 14.0067 338.214 14.46C339.081 14.9133 339.761 15.5733 340.254 16.44C340.747 17.2933 340.994 18.3 340.994 19.46C340.994 20.62 340.747 21.6267 340.254 22.48C339.761 23.3333 339.081 23.9933 338.214 24.46C337.361 24.9133 336.394 25.14 335.314 25.14C334.234 25.14 333.261 24.9133 332.394 24.46C331.541 23.9933 330.867 23.3333 330.374 22.48C329.881 21.6267 329.634 20.62 329.634 19.46C329.634 18.3 329.881 17.2933 330.374 16.44C330.867 15.5733 331.541 14.9133 332.394 14.46C333.261 14.0067 334.234 13.78 335.314 13.78ZM335.314 16.22C334.527 16.22 333.861 16.5 333.314 17.06C332.767 17.6067 332.494 18.4067 332.494 19.46C332.494 20.5133 332.767 21.32 333.314 21.88C333.861 22.4267 334.527 22.7 335.314 22.7C336.101 22.7 336.767 22.4267 337.314 21.88C337.861 21.32 338.134 20.5133 338.134 19.46C338.134 18.4067 337.861 17.6067 337.314 17.06C336.767 16.5 336.101 16.22 335.314 16.22ZM345.807 16.04C346.22 15.3333 346.767 14.78 347.447 14.38C348.127 13.9667 348.887 13.76 349.727 13.76V16.78H348.907C346.84 16.78 345.807 17.74 345.807 19.66V25H342.987V13.92H345.807V16.04ZM365.388 13.76C366.734 13.76 367.794 14.18 368.568 15.02C369.354 15.8467 369.748 17.0267 369.748 18.56V25H366.948V18.88C366.948 18.0267 366.728 17.3733 366.288 16.92C365.861 16.4533 365.268 16.22 364.508 16.22C363.721 16.22 363.094 16.4667 362.628 16.96C362.161 17.4533 361.928 18.1733 361.928 19.12V25H359.128V18.88C359.128 18.0267 358.908 17.3733 358.468 16.92C358.041 16.4533 357.448 16.22 356.688 16.22C355.901 16.22 355.274 16.4667 354.808 16.96C354.341 17.4533 354.108 18.1733 354.108 19.12V25H351.288V13.92H354.108V16.02C354.401 15.3 354.861 14.7467 355.488 14.36C356.128 13.96 356.868 13.76 357.708 13.76C358.601 13.76 359.374 13.9733 360.028 14.4C360.694 14.8267 361.194 15.44 361.528 16.24C361.874 15.48 362.388 14.88 363.068 14.44C363.761 13.9867 364.534 13.76 365.388 13.76ZM380.921 13.78C381.854 13.78 382.654 14 383.321 14.44C383.987 14.88 384.461 15.4733 384.741 16.22V13.92H387.541V25H384.741V22.68C384.461 23.4267 383.987 24.0267 383.321 24.48C382.654 24.92 381.854 25.14 380.921 25.14C379.987 25.14 379.147 24.9133 378.401 24.46C377.654 24.0067 377.067 23.3533 376.641 22.5C376.227 21.6333 376.021 20.62 376.021 19.46C376.021 18.3 376.227 17.2933 376.641 16.44C377.067 15.5733 377.654 14.9133 378.401 14.46C379.147 14.0067 379.987 13.78 380.921 13.78ZM381.801 16.24C380.921 16.24 380.214 16.5267 379.681 17.1C379.147 17.6733 378.881 18.46 378.881 19.46C378.881 20.46 379.147 21.2467 379.681 21.82C380.214 22.38 380.921 22.66 381.801 22.66C382.654 22.66 383.354 22.3733 383.901 21.8C384.461 21.2133 384.741 20.4333 384.741 19.46C384.741 18.4733 384.461 17.6933 383.901 17.12C383.354 16.5333 382.654 16.24 381.801 16.24ZM262.1 37.78C263.447 37.78 264.527 38.12 265.34 38.8C266.153 39.48 266.66 40.3867 266.86 41.52H264.22C264.113 40.9867 263.873 40.56 263.5 40.24C263.127 39.92 262.64 39.76 262.04 39.76C261.56 39.76 261.187 39.8733 260.92 40.1C260.653 40.3267 260.52 40.6333 260.52 41.02C260.52 41.3267 260.627 41.5733 260.84 41.76C261.053 41.9467 261.32 42.0933 261.64 42.2C261.96 42.3067 262.42 42.4333 263.02 42.58C263.86 42.7667 264.54 42.9667 265.06 43.18C265.593 43.38 266.047 43.7067 266.42 44.16C266.807 44.6 267 45.2 267 45.96C267 46.9067 266.627 47.6733 265.88 48.26C265.147 48.8467 264.153 49.14 262.9 49.14C261.46 49.14 260.307 48.82 259.44 48.18C258.573 47.5267 258.047 46.6 257.86 45.4H260.56C260.627 45.9467 260.867 46.38 261.28 46.7C261.693 47.0067 262.233 47.16 262.9 47.16C263.38 47.16 263.747 47.0467 264 46.82C264.253 46.58 264.38 46.2733 264.38 45.9C264.38 45.58 264.267 45.32 264.04 45.12C263.827 44.92 263.553 44.7667 263.22 44.66C262.9 44.5533 262.44 44.4267 261.84 44.28C261.013 44.0933 260.34 43.9067 259.82 43.72C259.313 43.52 258.873 43.2067 258.5 42.78C258.14 42.3533 257.96 41.7667 257.96 41.02C257.96 40.06 258.327 39.28 259.06 38.68C259.793 38.08 260.807 37.78 262.1 37.78ZM274.22 37.78C275.3 37.78 276.267 38.0067 277.12 38.46C277.987 38.9133 278.667 39.5733 279.16 40.44C279.654 41.2933 279.9 42.3 279.9 43.46C279.9 44.62 279.654 45.6267 279.16 46.48C278.667 47.3333 277.987 47.9933 277.12 48.46C276.267 48.9133 275.3 49.14 274.22 49.14C273.14 49.14 272.167 48.9133 271.3 48.46C270.447 47.9933 269.774 47.3333 269.28 46.48C268.787 45.6267 268.54 44.62 268.54 43.46C268.54 42.3 268.787 41.2933 269.28 40.44C269.774 39.5733 270.447 38.9133 271.3 38.46C272.167 38.0067 273.14 37.78 274.22 37.78ZM274.22 40.22C273.434 40.22 272.767 40.5 272.22 41.06C271.674 41.6067 271.4 42.4067 271.4 43.46C271.4 44.5133 271.674 45.32 272.22 45.88C272.767 46.4267 273.434 46.7 274.22 46.7C275.007 46.7 275.674 46.4267 276.22 45.88C276.767 45.32 277.04 44.5133 277.04 43.46C277.04 42.4067 276.767 41.6067 276.22 41.06C275.674 40.5 275.007 40.22 274.22 40.22ZM284.713 34.2V49H281.893V34.2H284.713ZM297.864 37.92V49H295.044V46.76C294.751 47.5067 294.264 48.0933 293.584 48.52C292.918 48.9333 292.144 49.14 291.264 49.14C289.984 49.14 288.964 48.72 288.204 47.88C287.444 47.04 287.064 45.8667 287.064 44.36V37.92H289.864V44.04C289.864 44.92 290.091 45.6067 290.544 46.1C290.998 46.58 291.611 46.82 292.384 46.82C293.198 46.82 293.844 46.56 294.324 46.04C294.804 45.52 295.044 44.7733 295.044 43.8V37.92H297.864ZM306.348 46.58V49H304.868C303.628 49 302.675 48.7 302.008 48.1C301.355 47.5 301.028 46.5 301.028 45.1V40.3H299.488V37.92H301.028V35.18H303.848V37.92H306.328V40.3H303.848V45.14C303.848 45.6733 303.955 46.0467 304.168 46.26C304.382 46.4733 304.742 46.58 305.248 46.58H306.348ZM308.058 34.74C308.058 34.2867 308.218 33.92 308.538 33.64C308.858 33.3467 309.278 33.2 309.798 33.2C310.318 33.2 310.738 33.3467 311.058 33.64C311.378 33.92 311.538 34.2867 311.538 34.74C311.538 35.18 311.378 35.5467 311.058 35.84C310.738 36.12 310.318 36.26 309.798 36.26C309.278 36.26 308.858 36.12 308.538 35.84C308.218 35.5467 308.058 35.18 308.058 34.74ZM311.198 37.92V49H308.378V37.92H311.198ZM318.869 37.78C319.949 37.78 320.915 38.0067 321.769 38.46C322.635 38.9133 323.315 39.5733 323.809 40.44C324.302 41.2933 324.549 42.3 324.549 43.46C324.549 44.62 324.302 45.6267 323.809 46.48C323.315 47.3333 322.635 47.9933 321.769 48.46C320.915 48.9133 319.949 49.14 318.869 49.14C317.789 49.14 316.815 48.9133 315.949 48.46C315.095 47.9933 314.422 47.3333 313.929 46.48C313.435 45.6267 313.189 44.62 313.189 43.46C313.189 42.3 313.435 41.2933 313.929 40.44C314.422 39.5733 315.095 38.9133 315.949 38.46C316.815 38.0067 317.789 37.78 318.869 37.78ZM318.869 40.22C318.082 40.22 317.415 40.5 316.869 41.06C316.322 41.6067 316.049 42.4067 316.049 43.46C316.049 44.5133 316.322 45.32 316.869 45.88C317.415 46.4267 318.082 46.7 318.869 46.7C319.655 46.7 320.322 46.4267 320.869 45.88C321.415 45.32 321.689 44.5133 321.689 43.46C321.689 42.4067 321.415 41.6067 320.869 41.06C320.322 40.5 319.655 40.22 318.869 40.22ZM333.142 37.76C334.422 37.76 335.442 38.18 336.202 39.02C336.962 39.86 337.342 41.04 337.342 42.56V49H334.542V42.88C334.542 42 334.315 41.32 333.862 40.84C333.408 40.3467 332.788 40.1 332.002 40.1C331.202 40.1 330.562 40.36 330.082 40.88C329.602 41.4 329.362 42.1467 329.362 43.12V49H326.542V37.92H329.362V40.14C329.655 39.3933 330.135 38.8133 330.802 38.4C331.482 37.9733 332.262 37.76 333.142 37.76Z" fill="white"/>
<line x1="245.5" y1="6" x2="245.5" y2="106" stroke="#0C42CD" stroke-dasharray="6.13 6.13"/>
<line x1="102.5" y1="106" x2="102.5" y2="205" stroke="#0C42CD" stroke-dasharray="6.13 6.13"/>
<line x1="388.5" y1="106" x2="388.5" y2="205" stroke="#0C42CD" stroke-dasharray="6.13 6.13"/>
<line x1="674.5" y1="106" x2="674.5" y2="206" stroke="#0C42CD" stroke-dasharray="6.13 6.13"/>
<line x1="960.5" y1="106" x2="960.5" y2="205" stroke="#0C42CD" stroke-dasharray="6.13 6.13"/>
<line x1="531.5" y1="6" x2="531.5" y2="106" stroke="#0C42CD" stroke-dasharray="6.13 6.13"/>
<line x1="817.5" y1="6" x2="817.5" y2="106" stroke="#0C42CD" stroke-dasharray="6.13 6.13"/>
<path d="M413.7 193.92C413.7 195.32 413.407 196.553 412.82 197.62C412.233 198.687 411.38 199.52 410.26 200.12C409.153 200.707 407.833 201 406.3 201H401.28V186.88H406.3C407.833 186.88 409.153 187.173 410.26 187.76C411.38 188.333 412.233 189.153 412.82 190.22C413.407 191.273 413.7 192.507 413.7 193.92ZM406.06 198.48C407.58 198.48 408.753 198.08 409.58 197.28C410.42 196.48 410.84 195.36 410.84 193.92C410.84 192.467 410.42 191.34 409.58 190.54C408.753 189.74 407.58 189.34 406.06 189.34H404.1V198.48H406.06ZM420.931 189.78C422.011 189.78 422.978 190.007 423.831 190.46C424.698 190.913 425.378 191.573 425.871 192.44C426.365 193.293 426.611 194.3 426.611 195.46C426.611 196.62 426.365 197.627 425.871 198.48C425.378 199.333 424.698 199.993 423.831 200.46C422.978 200.913 422.011 201.14 420.931 201.14C419.851 201.14 418.878 200.913 418.011 200.46C417.158 199.993 416.485 199.333 415.991 198.48C415.498 197.627 415.251 196.62 415.251 195.46C415.251 194.3 415.498 193.293 415.991 192.44C416.485 191.573 417.158 190.913 418.011 190.46C418.878 190.007 419.851 189.78 420.931 189.78ZM420.931 192.22C420.145 192.22 419.478 192.5 418.931 193.06C418.385 193.607 418.111 194.407 418.111 195.46C418.111 196.513 418.385 197.32 418.931 197.88C419.478 198.427 420.145 198.7 420.931 198.7C421.718 198.7 422.385 198.427 422.931 197.88C423.478 197.32 423.751 196.513 423.751 195.46C423.751 194.407 423.478 193.607 422.931 193.06C422.385 192.5 421.718 192.22 420.931 192.22ZM440.32 201L437.02 195.5H435.78V201H432.96V186.88H438.34C439.98 186.88 441.226 187.28 442.08 188.08C442.946 188.88 443.38 189.933 443.38 191.24C443.38 192.307 443.08 193.2 442.48 193.92C441.893 194.64 441.04 195.12 439.92 195.36L443.44 201H440.32ZM435.78 193.56H438.1C439.713 193.56 440.52 192.847 440.52 191.42C440.52 190.74 440.32 190.213 439.92 189.84C439.533 189.453 438.926 189.26 438.1 189.26H435.78V193.56ZM454.864 201L452.704 198.48C452.597 198.747 452.504 198.953 452.424 199.1C452.184 199.713 451.764 200.207 451.164 200.58C450.564 200.953 449.864 201.14 449.064 201.14C448.171 201.14 447.384 200.953 446.704 200.58C446.037 200.207 445.524 199.7 445.164 199.06C444.804 198.407 444.624 197.667 444.624 196.84C444.624 196.027 444.777 195.313 445.084 194.7C445.404 194.087 445.831 193.613 446.364 193.28C446.911 192.933 447.517 192.747 448.184 192.72L447.944 192.36C447.677 191.987 447.471 191.62 447.324 191.26C447.177 190.887 447.104 190.473 447.104 190.02C447.104 189.447 447.251 188.913 447.544 188.42C447.851 187.913 448.297 187.507 448.884 187.2C449.484 186.893 450.197 186.74 451.024 186.74C452.211 186.74 453.124 187.007 453.764 187.54C454.417 188.073 454.837 188.76 455.024 189.6C455.157 190 455.224 190.427 455.224 190.88L455.204 191.26H452.584C452.584 190.927 452.571 190.7 452.544 190.58C452.531 190.1 452.397 189.733 452.144 189.48C451.891 189.213 451.537 189.08 451.084 189.08C450.671 189.08 450.344 189.2 450.104 189.44C449.864 189.68 449.744 189.973 449.744 190.32C449.744 190.627 449.804 190.893 449.924 191.12C450.044 191.347 450.244 191.627 450.524 191.96L457.704 201H454.864ZM449.084 198.78C449.657 198.78 450.124 198.607 450.484 198.26C450.857 197.9 451.044 197.44 451.044 196.88C451.044 196.293 450.831 195.807 450.404 195.42C449.991 195.033 449.497 194.84 448.924 194.84C448.377 194.84 447.924 195.007 447.564 195.34C447.217 195.673 447.044 196.147 447.044 196.76C447.044 197.373 447.237 197.867 447.624 198.24C448.024 198.6 448.511 198.78 449.084 198.78ZM471.493 193.92C471.493 195.32 471.2 196.553 470.613 197.62C470.026 198.687 469.173 199.52 468.053 200.12C466.946 200.707 465.626 201 464.093 201H459.073V186.88H464.093C465.626 186.88 466.946 187.173 468.053 187.76C469.173 188.333 470.026 189.153 470.613 190.22C471.2 191.273 471.493 192.507 471.493 193.92ZM463.853 198.48C465.373 198.48 466.546 198.08 467.373 197.28C468.213 196.48 468.633 195.36 468.633 193.92C468.633 192.467 468.213 191.34 467.373 190.54C466.546 189.74 465.373 189.34 463.853 189.34H461.893V198.48H463.853Z" fill="white"/>
<path d="M982.88 162.88V165.12H978.98V177H976.16V165.12H972.28V162.88H982.88ZM987.252 168.04C987.666 167.333 988.212 166.78 988.892 166.38C989.572 165.967 990.332 165.76 991.172 165.76V168.78H990.352C988.286 168.78 987.252 169.74 987.252 171.66V177H984.432V165.92H987.252V168.04ZM997.073 165.78C998.006 165.78 998.806 166 999.473 166.44C1000.14 166.88 1000.61 167.473 1000.89 168.22V165.92H1003.69V177H1000.89V174.68C1000.61 175.427 1000.14 176.027 999.473 176.48C998.806 176.92 998.006 177.14 997.073 177.14C996.14 177.14 995.3 176.913 994.553 176.46C993.806 176.007 993.22 175.353 992.793 174.5C992.38 173.633 992.173 172.62 992.173 171.46C992.173 170.3 992.38 169.293 992.793 168.44C993.22 167.573 993.806 166.913 994.553 166.46C995.3 166.007 996.14 165.78 997.073 165.78ZM997.953 168.24C997.073 168.24 996.366 168.527 995.833 169.1C995.3 169.673 995.033 170.46 995.033 171.46C995.033 172.46 995.3 173.247 995.833 173.82C996.366 174.38 997.073 174.66 997.953 174.66C998.806 174.66 999.506 174.373 1000.05 173.8C1000.61 173.213 1000.89 172.433 1000.89 171.46C1000.89 170.473 1000.61 169.693 1000.05 169.12C999.506 168.533 998.806 168.24 997.953 168.24ZM1012.85 165.76C1014.13 165.76 1015.15 166.18 1015.91 167.02C1016.67 167.86 1017.05 169.04 1017.05 170.56V177H1014.25V170.88C1014.25 170 1014.02 169.32 1013.57 168.84C1013.12 168.347 1012.5 168.1 1011.71 168.1C1010.91 168.1 1010.27 168.36 1009.79 168.88C1009.31 169.4 1009.07 170.147 1009.07 171.12V177H1006.25V165.92H1009.07V168.14C1009.36 167.393 1009.84 166.813 1010.51 166.4C1011.19 165.973 1011.97 165.76 1012.85 165.76ZM1023.35 165.78C1024.7 165.78 1025.78 166.12 1026.59 166.8C1027.4 167.48 1027.91 168.387 1028.11 169.52H1025.47C1025.36 168.987 1025.12 168.56 1024.75 168.24C1024.38 167.92 1023.89 167.76 1023.29 167.76C1022.81 167.76 1022.44 167.873 1022.17 168.1C1021.9 168.327 1021.77 168.633 1021.77 169.02C1021.77 169.327 1021.88 169.573 1022.09 169.76C1022.3 169.947 1022.57 170.093 1022.89 170.2C1023.21 170.307 1023.67 170.433 1024.27 170.58C1025.11 170.767 1025.79 170.967 1026.31 171.18C1026.84 171.38 1027.3 171.707 1027.67 172.16C1028.06 172.6 1028.25 173.2 1028.25 173.96C1028.25 174.907 1027.88 175.673 1027.13 176.26C1026.4 176.847 1025.4 177.14 1024.15 177.14C1022.71 177.14 1021.56 176.82 1020.69 176.18C1019.82 175.527 1019.3 174.6 1019.11 173.4H1021.81C1021.88 173.947 1022.12 174.38 1022.53 174.7C1022.94 175.007 1023.48 175.16 1024.15 175.16C1024.63 175.16 1025 175.047 1025.25 174.82C1025.5 174.58 1025.63 174.273 1025.63 173.9C1025.63 173.58 1025.52 173.32 1025.29 173.12C1025.08 172.92 1024.8 172.767 1024.47 172.66C1024.15 172.553 1023.69 172.427 1023.09 172.28C1022.26 172.093 1021.59 171.907 1021.07 171.72C1020.56 171.52 1020.12 171.207 1019.75 170.78C1019.39 170.353 1019.21 169.767 1019.21 169.02C1019.21 168.06 1019.58 167.28 1020.31 166.68C1021.04 166.08 1022.06 165.78 1023.35 165.78ZM1035.83 164C1035 163.947 1034.42 164.067 1034.09 164.36C1033.76 164.653 1033.59 165.167 1033.59 165.9V165.92H1035.83V168.3H1033.59V177H1030.77V168.3H1029.35V165.92H1030.77V165.66C1030.77 164.34 1031.14 163.327 1031.89 162.62C1032.65 161.9 1033.77 161.54 1035.25 161.54C1035.5 161.54 1035.7 161.547 1035.83 161.56V164ZM1042.64 165.78C1043.72 165.78 1044.68 166.007 1045.54 166.46C1046.4 166.913 1047.08 167.573 1047.58 168.44C1048.07 169.293 1048.32 170.3 1048.32 171.46C1048.32 172.62 1048.07 173.627 1047.58 174.48C1047.08 175.333 1046.4 175.993 1045.54 176.46C1044.68 176.913 1043.72 177.14 1042.64 177.14C1041.56 177.14 1040.58 176.913 1039.72 176.46C1038.86 175.993 1038.19 175.333 1037.7 174.48C1037.2 173.627 1036.96 172.62 1036.96 171.46C1036.96 170.3 1037.2 169.293 1037.7 168.44C1038.19 167.573 1038.86 166.913 1039.72 166.46C1040.58 166.007 1041.56 165.78 1042.64 165.78ZM1042.64 168.22C1041.85 168.22 1041.18 168.5 1040.64 169.06C1040.09 169.607 1039.82 170.407 1039.82 171.46C1039.82 172.513 1040.09 173.32 1040.64 173.88C1041.18 174.427 1041.85 174.7 1042.64 174.7C1043.42 174.7 1044.09 174.427 1044.64 173.88C1045.18 173.32 1045.46 172.513 1045.46 171.46C1045.46 170.407 1045.18 169.607 1044.64 169.06C1044.09 168.5 1043.42 168.22 1042.64 168.22ZM1053.13 168.04C1053.54 167.333 1054.09 166.78 1054.77 166.38C1055.45 165.967 1056.21 165.76 1057.05 165.76V168.78H1056.23C1054.16 168.78 1053.13 169.74 1053.13 171.66V177H1050.31V165.92H1053.13V168.04ZM1072.71 165.76C1074.06 165.76 1075.12 166.18 1075.89 167.02C1076.68 167.847 1077.07 169.027 1077.07 170.56V177H1074.27V170.88C1074.27 170.027 1074.05 169.373 1073.61 168.92C1073.19 168.453 1072.59 168.22 1071.83 168.22C1071.05 168.22 1070.42 168.467 1069.95 168.96C1069.49 169.453 1069.25 170.173 1069.25 171.12V177H1066.45V170.88C1066.45 170.027 1066.23 169.373 1065.79 168.92C1065.37 168.453 1064.77 168.22 1064.01 168.22C1063.23 168.22 1062.6 168.467 1062.13 168.96C1061.67 169.453 1061.43 170.173 1061.43 171.12V177H1058.61V165.92H1061.43V168.02C1061.73 167.3 1062.19 166.747 1062.81 166.36C1063.45 165.96 1064.19 165.76 1065.03 165.76C1065.93 165.76 1066.7 165.973 1067.35 166.4C1068.02 166.827 1068.52 167.44 1068.85 168.24C1069.2 167.48 1069.71 166.88 1070.39 166.44C1071.09 165.987 1071.86 165.76 1072.71 165.76ZM1089.83 174.58V177H1088.35C1087.11 177 1086.15 176.7 1085.49 176.1C1084.83 175.5 1084.51 174.5 1084.51 173.1V168.3H1082.97V165.92H1084.51V163.18H1087.33V165.92H1089.81V168.3H1087.33V173.14C1087.33 173.673 1087.43 174.047 1087.65 174.26C1087.86 174.473 1088.22 174.58 1088.73 174.58H1089.83ZM1098.45 165.76C1099.73 165.76 1100.75 166.18 1101.51 167.02C1102.27 167.86 1102.65 169.04 1102.65 170.56V177H1099.85V170.88C1099.85 170 1099.63 169.32 1099.17 168.84C1098.72 168.347 1098.1 168.1 1097.31 168.1C1096.51 168.1 1095.87 168.36 1095.39 168.88C1094.91 169.4 1094.67 170.147 1094.67 171.12V177H1091.85V162.2H1094.67V168.14C1094.97 167.393 1095.45 166.813 1096.11 166.4C1096.79 165.973 1097.57 165.76 1098.45 165.76ZM1115.56 171.04C1115.56 171.32 1115.52 171.64 1115.46 172H1107.34C1107.38 172.987 1107.64 173.713 1108.14 174.18C1108.63 174.647 1109.24 174.88 1109.98 174.88C1110.63 174.88 1111.17 174.72 1111.6 174.4C1112.04 174.08 1112.32 173.647 1112.44 173.1H1115.42C1115.27 173.873 1114.96 174.567 1114.48 175.18C1114 175.793 1113.38 176.273 1112.62 176.62C1111.87 176.967 1111.04 177.14 1110.12 177.14C1109.04 177.14 1108.08 176.913 1107.24 176.46C1106.4 175.993 1105.74 175.333 1105.28 174.48C1104.81 173.627 1104.58 172.62 1104.58 171.46C1104.58 170.3 1104.81 169.293 1105.28 168.44C1105.74 167.573 1106.4 166.913 1107.24 166.46C1108.08 166.007 1109.04 165.78 1110.12 165.78C1111.21 165.78 1112.16 166.007 1112.98 166.46C1113.8 166.913 1114.44 167.54 1114.88 168.34C1115.33 169.127 1115.56 170.027 1115.56 171.04ZM1112.72 170.76C1112.76 169.853 1112.52 169.167 1112 168.7C1111.49 168.233 1110.86 168 1110.12 168C1109.36 168 1108.72 168.233 1108.2 168.7C1107.68 169.167 1107.39 169.853 1107.34 170.76H1112.72ZM1128.53 165.78C1129.47 165.78 1130.31 166.007 1131.05 166.46C1131.8 166.913 1132.38 167.573 1132.79 168.44C1133.22 169.293 1133.43 170.3 1133.43 171.46C1133.43 172.62 1133.22 173.633 1132.79 174.5C1132.38 175.353 1131.8 176.007 1131.05 176.46C1130.31 176.913 1129.47 177.14 1128.53 177.14C1127.6 177.14 1126.8 176.92 1126.13 176.48C1125.48 176.027 1125.01 175.427 1124.73 174.68V182.28H1121.91V165.92H1124.73V168.22C1125.01 167.473 1125.48 166.88 1126.13 166.44C1126.8 166 1127.6 165.78 1128.53 165.78ZM1127.65 168.24C1126.8 168.24 1126.09 168.533 1125.53 169.12C1124.99 169.693 1124.71 170.473 1124.71 171.46C1124.71 172.433 1124.99 173.213 1125.53 173.8C1126.09 174.373 1126.8 174.66 1127.65 174.66C1128.53 174.66 1129.24 174.38 1129.77 173.82C1130.31 173.247 1130.57 172.46 1130.57 171.46C1130.57 170.46 1130.31 169.673 1129.77 169.1C1129.24 168.527 1128.53 168.24 1127.65 168.24ZM1138.25 168.04C1138.66 167.333 1139.21 166.78 1139.89 166.38C1140.57 165.967 1141.33 165.76 1142.17 165.76V168.78H1141.35C1139.28 168.78 1138.25 169.74 1138.25 171.66V177H1135.43V165.92H1138.25V168.04ZM1148.85 165.78C1149.93 165.78 1150.9 166.007 1151.75 166.46C1152.62 166.913 1153.3 167.573 1153.79 168.44C1154.28 169.293 1154.53 170.3 1154.53 171.46C1154.53 172.62 1154.28 173.627 1153.79 174.48C1153.3 175.333 1152.62 175.993 1151.75 176.46C1150.9 176.913 1149.93 177.14 1148.85 177.14C1147.77 177.14 1146.8 176.913 1145.93 176.46C1145.08 175.993 1144.4 175.333 1143.91 174.48C1143.42 173.627 1143.17 172.62 1143.17 171.46C1143.17 170.3 1143.42 169.293 1143.91 168.44C1144.4 167.573 1145.08 166.913 1145.93 166.46C1146.8 166.007 1147.77 165.78 1148.85 165.78ZM1148.85 168.22C1148.06 168.22 1147.4 168.5 1146.85 169.06C1146.3 169.607 1146.03 170.407 1146.03 171.46C1146.03 172.513 1146.3 173.32 1146.85 173.88C1147.4 174.427 1148.06 174.7 1148.85 174.7C1149.64 174.7 1150.3 174.427 1150.85 173.88C1151.4 173.32 1151.67 172.513 1151.67 171.46C1151.67 170.407 1151.4 169.607 1150.85 169.06C1150.3 168.5 1149.64 168.22 1148.85 168.22ZM1161.5 165.78C1162.93 165.78 1164.12 166.167 1165.06 166.94C1166.02 167.713 1166.62 168.767 1166.86 170.1H1163.88C1163.76 169.513 1163.49 169.053 1163.06 168.72C1162.64 168.373 1162.1 168.2 1161.44 168.2C1160.7 168.2 1160.07 168.48 1159.56 169.04C1159.07 169.587 1158.82 170.393 1158.82 171.46C1158.82 172.527 1159.07 173.34 1159.56 173.9C1160.07 174.447 1160.7 174.72 1161.44 174.72C1162.1 174.72 1162.64 174.553 1163.06 174.22C1163.49 173.873 1163.76 173.407 1163.88 172.82H1166.86C1166.62 174.153 1166.02 175.207 1165.06 175.98C1164.12 176.753 1162.93 177.14 1161.5 177.14C1160.42 177.14 1159.46 176.913 1158.62 176.46C1157.78 175.993 1157.13 175.333 1156.66 174.48C1156.2 173.627 1155.96 172.62 1155.96 171.46C1155.96 170.3 1156.2 169.293 1156.66 168.44C1157.13 167.573 1157.78 166.913 1158.62 166.46C1159.46 166.007 1160.42 165.78 1161.5 165.78ZM1179.29 171.04C1179.29 171.32 1179.25 171.64 1179.19 172H1171.07C1171.11 172.987 1171.37 173.713 1171.87 174.18C1172.36 174.647 1172.97 174.88 1173.71 174.88C1174.36 174.88 1174.9 174.72 1175.33 174.4C1175.77 174.08 1176.05 173.647 1176.17 173.1H1179.15C1179 173.873 1178.69 174.567 1178.21 175.18C1177.73 175.793 1177.11 176.273 1176.35 176.62C1175.6 176.967 1174.77 177.14 1173.85 177.14C1172.77 177.14 1171.81 176.913 1170.97 176.46C1170.13 175.993 1169.47 175.333 1169.01 174.48C1168.54 173.627 1168.31 172.62 1168.31 171.46C1168.31 170.3 1168.54 169.293 1169.01 168.44C1169.47 167.573 1170.13 166.913 1170.97 166.46C1171.81 166.007 1172.77 165.78 1173.85 165.78C1174.94 165.78 1175.89 166.007 1176.71 166.46C1177.53 166.913 1178.17 167.54 1178.61 168.34C1179.06 169.127 1179.29 170.027 1179.29 171.04ZM1176.45 170.76C1176.49 169.853 1176.25 169.167 1175.73 168.7C1175.22 168.233 1174.59 168 1173.85 168C1173.09 168 1172.45 168.233 1171.93 168.7C1171.41 169.167 1171.12 169.853 1171.07 170.76H1176.45ZM1185.11 165.78C1186.45 165.78 1187.53 166.12 1188.35 166.8C1189.16 167.48 1189.67 168.387 1189.87 169.52H1187.23C1187.12 168.987 1186.88 168.56 1186.51 168.24C1186.13 167.92 1185.65 167.76 1185.05 167.76C1184.57 167.76 1184.19 167.873 1183.93 168.1C1183.66 168.327 1183.53 168.633 1183.53 169.02C1183.53 169.327 1183.63 169.573 1183.85 169.76C1184.06 169.947 1184.33 170.093 1184.65 170.2C1184.97 170.307 1185.43 170.433 1186.03 170.58C1186.87 170.767 1187.55 170.967 1188.07 171.18C1188.6 171.38 1189.05 171.707 1189.43 172.16C1189.81 172.6 1190.01 173.2 1190.01 173.96C1190.01 174.907 1189.63 175.673 1188.89 176.26C1188.15 176.847 1187.16 177.14 1185.91 177.14C1184.47 177.14 1183.31 176.82 1182.45 176.18C1181.58 175.527 1181.05 174.6 1180.87 173.4H1183.57C1183.63 173.947 1183.87 174.38 1184.29 174.7C1184.7 175.007 1185.24 175.16 1185.91 175.16C1186.39 175.16 1186.75 175.047 1187.01 174.82C1187.26 174.58 1187.39 174.273 1187.39 173.9C1187.39 173.58 1187.27 173.32 1187.05 173.12C1186.83 172.92 1186.56 172.767 1186.23 172.66C1185.91 172.553 1185.45 172.427 1184.85 172.28C1184.02 172.093 1183.35 171.907 1182.83 171.72C1182.32 171.52 1181.88 171.207 1181.51 170.78C1181.15 170.353 1180.97 169.767 1180.97 169.02C1180.97 168.06 1181.33 167.28 1182.07 166.68C1182.8 166.08 1183.81 165.78 1185.11 165.78ZM1195.93 165.78C1197.27 165.78 1198.35 166.12 1199.17 166.8C1199.98 167.48 1200.49 168.387 1200.69 169.52H1198.05C1197.94 168.987 1197.7 168.56 1197.33 168.24C1196.95 167.92 1196.47 167.76 1195.87 167.76C1195.39 167.76 1195.01 167.873 1194.75 168.1C1194.48 168.327 1194.35 168.633 1194.35 169.02C1194.35 169.327 1194.45 169.573 1194.67 169.76C1194.88 169.947 1195.15 170.093 1195.47 170.2C1195.79 170.307 1196.25 170.433 1196.85 170.58C1197.69 170.767 1198.37 170.967 1198.89 171.18C1199.42 171.38 1199.87 171.707 1200.25 172.16C1200.63 172.6 1200.83 173.2 1200.83 173.96C1200.83 174.907 1200.45 175.673 1199.71 176.26C1198.97 176.847 1197.98 177.14 1196.73 177.14C1195.29 177.14 1194.13 176.82 1193.27 176.18C1192.4 175.527 1191.87 174.6 1191.69 173.4H1194.39C1194.45 173.947 1194.69 174.38 1195.11 174.7C1195.52 175.007 1196.06 175.16 1196.73 175.16C1197.21 175.16 1197.57 175.047 1197.83 174.82C1198.08 174.58 1198.21 174.273 1198.21 173.9C1198.21 173.58 1198.09 173.32 1197.87 173.12C1197.65 172.92 1197.38 172.767 1197.05 172.66C1196.73 172.553 1196.27 172.427 1195.67 172.28C1194.84 172.093 1194.17 171.907 1193.65 171.72C1193.14 171.52 1192.7 171.207 1192.33 170.78C1191.97 170.353 1191.79 169.767 1191.79 169.02C1191.79 168.06 1192.15 167.28 1192.89 166.68C1193.62 166.08 1194.63 165.78 1195.93 165.78ZM978.4 189.78C979.48 189.78 980.447 190.007 981.3 190.46C982.167 190.913 982.847 191.573 983.34 192.44C983.833 193.293 984.08 194.3 984.08 195.46C984.08 196.62 983.833 197.627 983.34 198.48C982.847 199.333 982.167 199.993 981.3 200.46C980.447 200.913 979.48 201.14 978.4 201.14C977.32 201.14 976.347 200.913 975.48 200.46C974.627 199.993 973.953 199.333 973.46 198.48C972.967 197.627 972.72 196.62 972.72 195.46C972.72 194.3 972.967 193.293 973.46 192.44C973.953 191.573 974.627 190.913 975.48 190.46C976.347 190.007 977.32 189.78 978.4 189.78ZM978.4 192.22C977.613 192.22 976.947 192.5 976.4 193.06C975.853 193.607 975.58 194.407 975.58 195.46C975.58 196.513 975.853 197.32 976.4 197.88C976.947 198.427 977.613 198.7 978.4 198.7C979.187 198.7 979.853 198.427 980.4 197.88C980.947 197.32 981.22 196.513 981.22 195.46C981.22 194.407 980.947 193.607 980.4 193.06C979.853 192.5 979.187 192.22 978.4 192.22ZM1001.93 189.92L998.953 201H995.833L993.453 192.94L991.013 201H987.893L984.933 189.92H987.753L989.553 198.48L992.013 189.92H994.993L997.473 198.48L999.293 189.92H1001.93ZM1009.94 189.76C1011.22 189.76 1012.24 190.18 1013 191.02C1013.76 191.86 1014.14 193.04 1014.14 194.56V201H1011.34V194.88C1011.34 194 1011.11 193.32 1010.66 192.84C1010.21 192.347 1009.59 192.1 1008.8 192.1C1008 192.1 1007.36 192.36 1006.88 192.88C1006.4 193.4 1006.16 194.147 1006.16 195.12V201H1003.34V189.92H1006.16V192.14C1006.45 191.393 1006.93 190.813 1007.6 190.4C1008.28 189.973 1009.06 189.76 1009.94 189.76ZM1027.04 195.04C1027.04 195.32 1027.01 195.64 1026.94 196H1018.82C1018.86 196.987 1019.13 197.713 1019.62 198.18C1020.11 198.647 1020.73 198.88 1021.46 198.88C1022.11 198.88 1022.65 198.72 1023.08 198.4C1023.52 198.08 1023.8 197.647 1023.92 197.1H1026.9C1026.75 197.873 1026.44 198.567 1025.96 199.18C1025.48 199.793 1024.86 200.273 1024.1 200.62C1023.35 200.967 1022.52 201.14 1021.6 201.14C1020.52 201.14 1019.56 200.913 1018.72 200.46C1017.88 199.993 1017.23 199.333 1016.76 198.48C1016.29 197.627 1016.06 196.62 1016.06 195.46C1016.06 194.3 1016.29 193.293 1016.76 192.44C1017.23 191.573 1017.88 190.913 1018.72 190.46C1019.56 190.007 1020.52 189.78 1021.6 189.78C1022.69 189.78 1023.65 190.007 1024.46 190.46C1025.29 190.913 1025.92 191.54 1026.36 192.34C1026.81 193.127 1027.04 194.027 1027.04 195.04ZM1024.2 194.76C1024.24 193.853 1024 193.167 1023.48 192.7C1022.97 192.233 1022.35 192 1021.6 192C1020.84 192 1020.2 192.233 1019.68 192.7C1019.16 193.167 1018.87 193.853 1018.82 194.76H1024.2ZM1031.86 192.04C1032.28 191.333 1032.82 190.78 1033.5 190.38C1034.18 189.967 1034.94 189.76 1035.78 189.76V192.78H1034.96C1032.9 192.78 1031.86 193.74 1031.86 195.66V201H1029.04V189.92H1031.86V192.04ZM1041.16 189.78C1042.51 189.78 1043.59 190.12 1044.4 190.8C1045.22 191.48 1045.72 192.387 1045.92 193.52H1043.28C1043.18 192.987 1042.94 192.56 1042.56 192.24C1042.19 191.92 1041.7 191.76 1041.1 191.76C1040.62 191.76 1040.25 191.873 1039.98 192.1C1039.72 192.327 1039.58 192.633 1039.58 193.02C1039.58 193.327 1039.69 193.573 1039.9 193.76C1040.12 193.947 1040.38 194.093 1040.7 194.2C1041.02 194.307 1041.48 194.433 1042.08 194.58C1042.92 194.767 1043.6 194.967 1044.12 195.18C1044.66 195.38 1045.11 195.707 1045.48 196.16C1045.87 196.6 1046.06 197.2 1046.06 197.96C1046.06 198.907 1045.69 199.673 1044.94 200.26C1044.21 200.847 1043.22 201.14 1041.96 201.14C1040.52 201.14 1039.37 200.82 1038.5 200.18C1037.64 199.527 1037.11 198.6 1036.92 197.4H1039.62C1039.69 197.947 1039.93 198.38 1040.34 198.7C1040.76 199.007 1041.3 199.16 1041.96 199.16C1042.44 199.16 1042.81 199.047 1043.06 198.82C1043.32 198.58 1043.44 198.273 1043.44 197.9C1043.44 197.58 1043.33 197.32 1043.1 197.12C1042.89 196.92 1042.62 196.767 1042.28 196.66C1041.96 196.553 1041.5 196.427 1040.9 196.28C1040.08 196.093 1039.4 195.907 1038.88 195.72C1038.38 195.52 1037.94 195.207 1037.56 194.78C1037.2 194.353 1037.02 193.767 1037.02 193.02C1037.02 192.06 1037.39 191.28 1038.12 190.68C1038.86 190.08 1039.87 189.78 1041.16 189.78ZM1054.76 189.76C1056.04 189.76 1057.06 190.18 1057.82 191.02C1058.58 191.86 1058.96 193.04 1058.96 194.56V201H1056.16V194.88C1056.16 194 1055.94 193.32 1055.48 192.84C1055.03 192.347 1054.41 192.1 1053.62 192.1C1052.82 192.1 1052.18 192.36 1051.7 192.88C1051.22 193.4 1050.98 194.147 1050.98 195.12V201H1048.16V186.2H1050.98V192.14C1051.28 191.393 1051.76 190.813 1052.42 190.4C1053.1 189.973 1053.88 189.76 1054.76 189.76ZM1061.12 186.74C1061.12 186.287 1061.28 185.92 1061.6 185.64C1061.92 185.347 1062.34 185.2 1062.86 185.2C1063.38 185.2 1063.8 185.347 1064.12 185.64C1064.44 185.92 1064.6 186.287 1064.6 186.74C1064.6 187.18 1064.44 187.547 1064.12 187.84C1063.8 188.12 1063.38 188.26 1062.86 188.26C1062.34 188.26 1061.92 188.12 1061.6 187.84C1061.28 187.547 1061.12 187.18 1061.12 186.74ZM1064.26 189.92V201H1061.44V189.92H1064.26ZM1073.44 189.78C1074.37 189.78 1075.21 190.007 1075.96 190.46C1076.7 190.913 1077.28 191.573 1077.7 192.44C1078.12 193.293 1078.34 194.3 1078.34 195.46C1078.34 196.62 1078.12 197.633 1077.7 198.5C1077.28 199.353 1076.7 200.007 1075.96 200.46C1075.21 200.913 1074.37 201.14 1073.44 201.14C1072.5 201.14 1071.7 200.92 1071.04 200.48C1070.38 200.027 1069.92 199.427 1069.64 198.68V206.28H1066.82V189.92H1069.64V192.22C1069.92 191.473 1070.38 190.88 1071.04 190.44C1071.7 190 1072.5 189.78 1073.44 189.78ZM1072.56 192.24C1071.7 192.24 1071 192.533 1070.44 193.12C1069.89 193.693 1069.62 194.473 1069.62 195.46C1069.62 196.433 1069.89 197.213 1070.44 197.8C1071 198.373 1071.7 198.66 1072.56 198.66C1073.44 198.66 1074.14 198.38 1074.68 197.82C1075.21 197.247 1075.48 196.46 1075.48 195.46C1075.48 194.46 1075.21 193.673 1074.68 193.1C1074.14 192.527 1073.44 192.24 1072.56 192.24ZM1090.61 198.58V201H1089.13C1087.89 201 1086.93 200.7 1086.27 200.1C1085.61 199.5 1085.29 198.5 1085.29 197.1V192.3H1083.75V189.92H1085.29V187.18H1088.11V189.92H1090.59V192.3H1088.11V197.14C1088.11 197.673 1088.21 198.047 1088.43 198.26C1088.64 198.473 1089 198.58 1089.51 198.58H1090.61ZM1097.76 189.78C1098.84 189.78 1099.8 190.007 1100.66 190.46C1101.52 190.913 1102.2 191.573 1102.7 192.44C1103.19 193.293 1103.44 194.3 1103.44 195.46C1103.44 196.62 1103.19 197.627 1102.7 198.48C1102.2 199.333 1101.52 199.993 1100.66 200.46C1099.8 200.913 1098.84 201.14 1097.76 201.14C1096.68 201.14 1095.7 200.913 1094.84 200.46C1093.98 199.993 1093.31 199.333 1092.82 198.48C1092.32 197.627 1092.08 196.62 1092.08 195.46C1092.08 194.3 1092.32 193.293 1092.82 192.44C1093.31 191.573 1093.98 190.913 1094.84 190.46C1095.7 190.007 1096.68 189.78 1097.76 189.78ZM1097.76 192.22C1096.97 192.22 1096.3 192.5 1095.76 193.06C1095.21 193.607 1094.94 194.407 1094.94 195.46C1094.94 196.513 1095.21 197.32 1095.76 197.88C1096.3 198.427 1096.97 198.7 1097.76 198.7C1098.54 198.7 1099.21 198.427 1099.76 197.88C1100.3 197.32 1100.58 196.513 1100.58 195.46C1100.58 194.407 1100.3 193.607 1099.76 193.06C1099.21 192.5 1098.54 192.22 1097.76 192.22ZM1111.68 189.92L1114.7 197.44L1117.5 189.92H1120.6L1113.82 206.28H1110.7L1113.2 200.68L1108.54 189.92H1111.68ZM1127.05 189.78C1128.13 189.78 1129.1 190.007 1129.95 190.46C1130.82 190.913 1131.5 191.573 1131.99 192.44C1132.49 193.293 1132.73 194.3 1132.73 195.46C1132.73 196.62 1132.49 197.627 1131.99 198.48C1131.5 199.333 1130.82 199.993 1129.95 200.46C1129.1 200.913 1128.13 201.14 1127.05 201.14C1125.97 201.14 1125 200.913 1124.13 200.46C1123.28 199.993 1122.61 199.333 1122.11 198.48C1121.62 197.627 1121.37 196.62 1121.37 195.46C1121.37 194.3 1121.62 193.293 1122.11 192.44C1122.61 191.573 1123.28 190.913 1124.13 190.46C1125 190.007 1125.97 189.78 1127.05 189.78ZM1127.05 192.22C1126.27 192.22 1125.6 192.5 1125.05 193.06C1124.51 193.607 1124.23 194.407 1124.23 195.46C1124.23 196.513 1124.51 197.32 1125.05 197.88C1125.6 198.427 1126.27 198.7 1127.05 198.7C1127.84 198.7 1128.51 198.427 1129.05 197.88C1129.6 197.32 1129.87 196.513 1129.87 195.46C1129.87 194.407 1129.6 193.607 1129.05 193.06C1128.51 192.5 1127.84 192.22 1127.05 192.22ZM1145.33 189.92V201H1142.51V198.76C1142.21 199.507 1141.73 200.093 1141.05 200.52C1140.38 200.933 1139.61 201.14 1138.73 201.14C1137.45 201.14 1136.43 200.72 1135.67 199.88C1134.91 199.04 1134.53 197.867 1134.53 196.36V189.92H1137.33V196.04C1137.33 196.92 1137.55 197.607 1138.01 198.1C1138.46 198.58 1139.07 198.82 1139.85 198.82C1140.66 198.82 1141.31 198.56 1141.79 198.04C1142.27 197.52 1142.51 196.773 1142.51 195.8V189.92H1145.33Z" fill="white"/>
<path d="M695.16 169.72C696.013 169.893 696.693 170.3 697.2 170.94C697.72 171.567 697.98 172.307 697.98 173.16C697.98 174.347 697.58 175.287 696.78 175.98C695.993 176.66 694.847 177 693.34 177H687.28V162.88H693.22C694.647 162.88 695.74 163.193 696.5 163.82C697.273 164.447 697.66 165.327 697.66 166.46C697.66 167.34 697.427 168.06 696.96 168.62C696.507 169.18 695.907 169.547 695.16 169.72ZM690.1 168.8H692.64C693.347 168.8 693.88 168.647 694.24 168.34C694.613 168.02 694.8 167.567 694.8 166.98C694.8 166.393 694.62 165.94 694.26 165.62C693.9 165.3 693.347 165.14 692.6 165.14H690.1V168.8ZM692.78 174.7C693.527 174.7 694.1 174.54 694.5 174.22C694.9 173.887 695.1 173.407 695.1 172.78C695.1 172.153 694.893 171.673 694.48 171.34C694.08 170.993 693.507 170.82 692.76 170.82H690.1V174.7H692.78ZM710.556 165.92V177H707.736V174.76C707.442 175.507 706.956 176.093 706.276 176.52C705.609 176.933 704.836 177.14 703.956 177.14C702.676 177.14 701.656 176.72 700.896 175.88C700.136 175.04 699.756 173.867 699.756 172.36V165.92H702.556V172.04C702.556 172.92 702.782 173.607 703.236 174.1C703.689 174.58 704.302 174.82 705.076 174.82C705.889 174.82 706.536 174.56 707.016 174.04C707.496 173.52 707.736 172.773 707.736 171.8V165.92H710.556ZM712.8 162.74C712.8 162.287 712.96 161.92 713.28 161.64C713.6 161.347 714.02 161.2 714.54 161.2C715.06 161.2 715.48 161.347 715.8 161.64C716.12 161.92 716.28 162.287 716.28 162.74C716.28 163.18 716.12 163.547 715.8 163.84C715.48 164.12 715.06 164.26 714.54 164.26C714.02 164.26 713.6 164.12 713.28 163.84C712.96 163.547 712.8 163.18 712.8 162.74ZM715.94 165.92V177H713.12V165.92H715.94ZM721.311 162.2V177H718.491V162.2H721.311ZM728.202 165.78C729.135 165.78 729.929 166 730.582 166.44C731.249 166.88 731.729 167.473 732.022 168.22V162.2H734.822V177H732.022V174.68C731.729 175.427 731.249 176.027 730.582 176.48C729.929 176.92 729.135 177.14 728.202 177.14C727.269 177.14 726.429 176.913 725.682 176.46C724.935 176.007 724.349 175.353 723.922 174.5C723.509 173.633 723.302 172.62 723.302 171.46C723.302 170.3 723.509 169.293 723.922 168.44C724.349 167.573 724.935 166.913 725.682 166.46C726.429 166.007 727.269 165.78 728.202 165.78ZM729.082 168.24C728.202 168.24 727.495 168.527 726.962 169.1C726.429 169.673 726.162 170.46 726.162 171.46C726.162 172.46 726.429 173.247 726.962 173.82C727.495 174.38 728.202 174.66 729.082 174.66C729.935 174.66 730.635 174.373 731.182 173.8C731.742 173.213 732.022 172.433 732.022 171.46C732.022 170.473 731.742 169.693 731.182 169.12C730.635 168.533 729.935 168.24 729.082 168.24ZM747.653 174.58V177H746.173C744.933 177 743.98 176.7 743.313 176.1C742.66 175.5 742.333 174.5 742.333 173.1V168.3H740.793V165.92H742.333V163.18H745.153V165.92H747.633V168.3H745.153V173.14C745.153 173.673 745.26 174.047 745.473 174.26C745.686 174.473 746.046 174.58 746.553 174.58H747.653ZM756.282 165.76C757.562 165.76 758.582 166.18 759.342 167.02C760.102 167.86 760.482 169.04 760.482 170.56V177H757.682V170.88C757.682 170 757.456 169.32 757.002 168.84C756.549 168.347 755.929 168.1 755.142 168.1C754.342 168.1 753.702 168.36 753.222 168.88C752.742 169.4 752.502 170.147 752.502 171.12V177H749.682V162.2H752.502V168.14C752.796 167.393 753.276 166.813 753.942 166.4C754.622 165.973 755.402 165.76 756.282 165.76ZM773.384 171.04C773.384 171.32 773.35 171.64 773.284 172H765.164C765.204 172.987 765.47 173.713 765.964 174.18C766.457 174.647 767.07 174.88 767.804 174.88C768.457 174.88 768.997 174.72 769.424 174.4C769.864 174.08 770.144 173.647 770.264 173.1H773.244C773.097 173.873 772.784 174.567 772.304 175.18C771.824 175.793 771.204 176.273 770.444 176.62C769.697 176.967 768.864 177.14 767.944 177.14C766.864 177.14 765.904 176.913 765.064 176.46C764.224 175.993 763.57 175.333 763.104 174.48C762.637 173.627 762.404 172.62 762.404 171.46C762.404 170.3 762.637 169.293 763.104 168.44C763.57 167.573 764.224 166.913 765.064 166.46C765.904 166.007 766.864 165.78 767.944 165.78C769.037 165.78 769.99 166.007 770.804 166.46C771.63 166.913 772.264 167.54 772.704 168.34C773.157 169.127 773.384 170.027 773.384 171.04ZM770.544 170.76C770.584 169.853 770.344 169.167 769.824 168.7C769.317 168.233 768.69 168 767.944 168C767.184 168 766.544 168.233 766.024 168.7C765.504 169.167 765.217 169.853 765.164 170.76H770.544ZM693.9 189.78C694.833 189.78 695.673 190.007 696.42 190.46C697.167 190.913 697.747 191.573 698.16 192.44C698.587 193.293 698.8 194.3 698.8 195.46C698.8 196.62 698.587 197.633 698.16 198.5C697.747 199.353 697.167 200.007 696.42 200.46C695.673 200.913 694.833 201.14 693.9 201.14C692.967 201.14 692.167 200.92 691.5 200.48C690.847 200.027 690.38 199.427 690.1 198.68V206.28H687.28V189.92H690.1V192.22C690.38 191.473 690.847 190.88 691.5 190.44C692.167 190 692.967 189.78 693.9 189.78ZM693.02 192.24C692.167 192.24 691.46 192.533 690.9 193.12C690.353 193.693 690.08 194.473 690.08 195.46C690.08 196.433 690.353 197.213 690.9 197.8C691.46 198.373 692.167 198.66 693.02 198.66C693.9 198.66 694.607 198.38 695.14 197.82C695.673 197.247 695.94 196.46 695.94 195.46C695.94 194.46 695.673 193.673 695.14 193.1C694.607 192.527 693.9 192.24 693.02 192.24ZM703.616 192.04C704.029 191.333 704.576 190.78 705.256 190.38C705.936 189.967 706.696 189.76 707.536 189.76V192.78H706.716C704.649 192.78 703.616 193.74 703.616 195.66V201H700.796V189.92H703.616V192.04ZM714.216 189.78C715.296 189.78 716.263 190.007 717.116 190.46C717.983 190.913 718.663 191.573 719.156 192.44C719.65 193.293 719.896 194.3 719.896 195.46C719.896 196.62 719.65 197.627 719.156 198.48C718.663 199.333 717.983 199.993 717.116 200.46C716.263 200.913 715.296 201.14 714.216 201.14C713.136 201.14 712.163 200.913 711.296 200.46C710.443 199.993 709.77 199.333 709.276 198.48C708.783 197.627 708.536 196.62 708.536 195.46C708.536 194.3 708.783 193.293 709.276 192.44C709.77 191.573 710.443 190.913 711.296 190.46C712.163 190.007 713.136 189.78 714.216 189.78ZM714.216 192.22C713.43 192.22 712.763 192.5 712.216 193.06C711.67 193.607 711.396 194.407 711.396 195.46C711.396 196.513 711.67 197.32 712.216 197.88C712.763 198.427 713.43 198.7 714.216 198.7C715.003 198.7 715.67 198.427 716.216 197.88C716.763 197.32 717.036 196.513 717.036 195.46C717.036 194.407 716.763 193.607 716.216 193.06C715.67 192.5 715.003 192.22 714.216 192.22ZM726.229 189.78C727.163 189.78 727.956 190 728.609 190.44C729.276 190.88 729.756 191.473 730.049 192.22V186.2H732.849V201H730.049V198.68C729.756 199.427 729.276 200.027 728.609 200.48C727.956 200.92 727.163 201.14 726.229 201.14C725.296 201.14 724.456 200.913 723.709 200.46C722.963 200.007 722.376 199.353 721.949 198.5C721.536 197.633 721.329 196.62 721.329 195.46C721.329 194.3 721.536 193.293 721.949 192.44C722.376 191.573 722.963 190.913 723.709 190.46C724.456 190.007 725.296 189.78 726.229 189.78ZM727.109 192.24C726.229 192.24 725.523 192.527 724.989 193.1C724.456 193.673 724.189 194.46 724.189 195.46C724.189 196.46 724.456 197.247 724.989 197.82C725.523 198.38 726.229 198.66 727.109 198.66C727.963 198.66 728.663 198.373 729.209 197.8C729.769 197.213 730.049 196.433 730.049 195.46C730.049 194.473 729.769 193.693 729.209 193.12C728.663 192.533 727.963 192.24 727.109 192.24ZM746.005 189.92V201H743.185V198.76C742.892 199.507 742.405 200.093 741.725 200.52C741.058 200.933 740.285 201.14 739.405 201.14C738.125 201.14 737.105 200.72 736.345 199.88C735.585 199.04 735.205 197.867 735.205 196.36V189.92H738.005V196.04C738.005 196.92 738.232 197.607 738.685 198.1C739.138 198.58 739.752 198.82 740.525 198.82C741.338 198.82 741.985 198.56 742.465 198.04C742.945 197.52 743.185 196.773 743.185 195.8V189.92H746.005ZM753.549 189.78C754.976 189.78 756.162 190.167 757.109 190.94C758.069 191.713 758.669 192.767 758.909 194.1H755.929C755.809 193.513 755.536 193.053 755.109 192.72C754.682 192.373 754.142 192.2 753.489 192.2C752.742 192.2 752.116 192.48 751.609 193.04C751.116 193.587 750.869 194.393 750.869 195.46C750.869 196.527 751.116 197.34 751.609 197.9C752.116 198.447 752.742 198.72 753.489 198.72C754.142 198.72 754.682 198.553 755.109 198.22C755.536 197.873 755.809 197.407 755.929 196.82H758.909C758.669 198.153 758.069 199.207 757.109 199.98C756.162 200.753 754.976 201.14 753.549 201.14C752.469 201.14 751.509 200.913 750.669 200.46C749.829 199.993 749.176 199.333 748.709 198.48C748.242 197.627 748.009 196.62 748.009 195.46C748.009 194.3 748.242 193.293 748.709 192.44C749.176 191.573 749.829 190.913 750.669 190.46C751.509 190.007 752.469 189.78 753.549 189.78ZM766.833 198.58V201H765.353C764.113 201 763.159 200.7 762.493 200.1C761.839 199.5 761.513 198.5 761.513 197.1V192.3H759.973V189.92H761.513V187.18H764.333V189.92H766.813V192.3H764.333V197.14C764.333 197.673 764.439 198.047 764.653 198.26C764.866 198.473 765.226 198.58 765.733 198.58H766.833Z" fill="white"/>
<path d="M550.66 10.74C552.42 10.74 553.88 11.1933 555.04 12.1C556.2 13.0067 556.967 14.24 557.34 15.8H554.38C554.073 15.04 553.593 14.44 552.94 14C552.3 13.56 551.527 13.34 550.62 13.34C549.873 13.34 549.2 13.5267 548.6 13.9C548 14.2733 547.533 14.8067 547.2 15.5C546.867 16.1933 546.7 17.0067 546.7 17.94C546.7 18.86 546.867 19.6667 547.2 20.36C547.533 21.0533 548 21.5867 548.6 21.96C549.2 22.3333 549.873 22.52 550.62 22.52C551.527 22.52 552.3 22.3 552.94 21.86C553.593 21.42 554.073 20.82 554.38 20.06H557.34C556.967 21.62 556.2 22.8533 555.04 23.76C553.88 24.6667 552.42 25.12 550.66 25.12C549.313 25.12 548.12 24.82 547.08 24.22C546.053 23.6067 545.253 22.7533 544.68 21.66C544.12 20.5667 543.84 19.3267 543.84 17.94C543.84 16.54 544.12 15.2933 544.68 14.2C545.253 13.1067 546.053 12.26 547.08 11.66C548.107 11.0467 549.3 10.74 550.66 10.74ZM562.276 16.04C562.689 15.3333 563.236 14.78 563.916 14.38C564.596 13.9667 565.356 13.76 566.196 13.76V16.78H565.376C563.309 16.78 562.276 17.74 562.276 19.66V25H559.456V13.92H562.276V16.04ZM578.177 19.04C578.177 19.32 578.143 19.64 578.077 20H569.957C569.997 20.9867 570.263 21.7133 570.757 22.18C571.25 22.6467 571.863 22.88 572.597 22.88C573.25 22.88 573.79 22.72 574.217 22.4C574.657 22.08 574.937 21.6467 575.057 21.1H578.037C577.89 21.8733 577.577 22.5667 577.097 23.18C576.617 23.7933 575.997 24.2733 575.237 24.62C574.49 24.9667 573.657 25.14 572.737 25.14C571.657 25.14 570.697 24.9133 569.857 24.46C569.017 23.9933 568.363 23.3333 567.897 22.48C567.43 21.6267 567.197 20.62 567.197 19.46C567.197 18.3 567.43 17.2933 567.897 16.44C568.363 15.5733 569.017 14.9133 569.857 14.46C570.697 14.0067 571.657 13.78 572.737 13.78C573.83 13.78 574.783 14.0067 575.597 14.46C576.423 14.9133 577.057 15.54 577.497 16.34C577.95 17.1267 578.177 18.0267 578.177 19.04ZM575.337 18.76C575.377 17.8533 575.137 17.1667 574.617 16.7C574.11 16.2333 573.483 16 572.737 16C571.977 16 571.337 16.2333 570.817 16.7C570.297 17.1667 570.01 17.8533 569.957 18.76H575.337ZM584.518 13.78C585.452 13.78 586.252 14 586.918 14.44C587.585 14.88 588.058 15.4733 588.338 16.22V13.92H591.138V25H588.338V22.68C588.058 23.4267 587.585 24.0267 586.918 24.48C586.252 24.92 585.452 25.14 584.518 25.14C583.585 25.14 582.745 24.9133 581.998 24.46C581.252 24.0067 580.665 23.3533 580.238 22.5C579.825 21.6333 579.618 20.62 579.618 19.46C579.618 18.3 579.825 17.2933 580.238 16.44C580.665 15.5733 581.252 14.9133 581.998 14.46C582.745 14.0067 583.585 13.78 584.518 13.78ZM585.398 16.24C584.518 16.24 583.812 16.5267 583.278 17.1C582.745 17.6733 582.478 18.46 582.478 19.46C582.478 20.46 582.745 21.2467 583.278 21.82C583.812 22.38 584.518 22.66 585.398 22.66C586.252 22.66 586.952 22.3733 587.498 21.8C588.058 21.2133 588.338 20.4333 588.338 19.46C588.338 18.4733 588.058 17.6933 587.498 17.12C586.952 16.5333 586.252 16.24 585.398 16.24ZM599.614 22.58V25H598.134C596.894 25 595.941 24.7 595.274 24.1C594.621 23.5 594.294 22.5 594.294 21.1V16.3H592.754V13.92H594.294V11.18H597.114V13.92H599.594V16.3H597.114V21.14C597.114 21.6733 597.221 22.0467 597.434 22.26C597.647 22.4733 598.007 22.58 598.514 22.58H599.614ZM612.063 19.04C612.063 19.32 612.03 19.64 611.963 20H603.843C603.883 20.9867 604.15 21.7133 604.643 22.18C605.137 22.6467 605.75 22.88 606.483 22.88C607.137 22.88 607.677 22.72 608.103 22.4C608.543 22.08 608.823 21.6467 608.943 21.1H611.923C611.777 21.8733 611.463 22.5667 610.983 23.18C610.503 23.7933 609.883 24.2733 609.123 24.62C608.377 24.9667 607.543 25.14 606.623 25.14C605.543 25.14 604.583 24.9133 603.743 24.46C602.903 23.9933 602.25 23.3333 601.783 22.48C601.317 21.6267 601.083 20.62 601.083 19.46C601.083 18.3 601.317 17.2933 601.783 16.44C602.25 15.5733 602.903 14.9133 603.743 14.46C604.583 14.0067 605.543 13.78 606.623 13.78C607.717 13.78 608.67 14.0067 609.483 14.46C610.31 14.9133 610.943 15.54 611.383 16.34C611.837 17.1267 612.063 18.0267 612.063 19.04ZM609.223 18.76C609.263 17.8533 609.023 17.1667 608.503 16.7C607.997 16.2333 607.37 16 606.623 16C605.863 16 605.223 16.2333 604.703 16.7C604.183 17.1667 603.897 17.8533 603.843 18.76H609.223ZM622.761 13.78C623.694 13.78 624.494 14 625.161 14.44C625.827 14.88 626.301 15.4733 626.581 16.22V13.92H629.381V25H626.581V22.68C626.301 23.4267 625.827 24.0267 625.161 24.48C624.494 24.92 623.694 25.14 622.761 25.14C621.827 25.14 620.987 24.9133 620.241 24.46C619.494 24.0067 618.907 23.3533 618.481 22.5C618.067 21.6333 617.861 20.62 617.861 19.46C617.861 18.3 618.067 17.2933 618.481 16.44C618.907 15.5733 619.494 14.9133 620.241 14.46C620.987 14.0067 621.827 13.78 622.761 13.78ZM623.641 16.24C622.761 16.24 622.054 16.5267 621.521 17.1C620.987 17.6733 620.721 18.46 620.721 19.46C620.721 20.46 620.987 21.2467 621.521 21.82C622.054 22.38 622.761 22.66 623.641 22.66C624.494 22.66 625.194 22.3733 625.741 21.8C626.301 21.2133 626.581 20.4333 626.581 19.46C626.581 18.4733 626.301 17.6933 625.741 17.12C625.194 16.5333 624.494 16.24 623.641 16.24ZM547.1 40.04C547.513 39.3333 548.06 38.78 548.74 38.38C549.42 37.9667 550.18 37.76 551.02 37.76V40.78H550.2C548.133 40.78 547.1 41.74 547.1 43.66V49H544.28V37.92H547.1V40.04ZM557.701 37.78C558.781 37.78 559.747 38.0067 560.601 38.46C561.467 38.9133 562.147 39.5733 562.641 40.44C563.134 41.2933 563.381 42.3 563.381 43.46C563.381 44.62 563.134 45.6267 562.641 46.48C562.147 47.3333 561.467 47.9933 560.601 48.46C559.747 48.9133 558.781 49.14 557.701 49.14C556.621 49.14 555.647 48.9133 554.781 48.46C553.927 47.9933 553.254 47.3333 552.761 46.48C552.267 45.6267 552.021 44.62 552.021 43.46C552.021 42.3 552.267 41.2933 552.761 40.44C553.254 39.5733 553.927 38.9133 554.781 38.46C555.647 38.0067 556.621 37.78 557.701 37.78ZM557.701 40.22C556.914 40.22 556.247 40.5 555.701 41.06C555.154 41.6067 554.881 42.4067 554.881 43.46C554.881 44.5133 555.154 45.32 555.701 45.88C556.247 46.4267 556.914 46.7 557.701 46.7C558.487 46.7 559.154 46.4267 559.701 45.88C560.247 45.32 560.521 44.5133 560.521 43.46C560.521 42.4067 560.247 41.6067 559.701 41.06C559.154 40.5 558.487 40.22 557.701 40.22ZM569.714 37.78C570.647 37.78 571.447 38 572.114 38.44C572.78 38.88 573.254 39.4733 573.534 40.22V37.92H576.334V49H573.534V46.68C573.254 47.4267 572.78 48.0267 572.114 48.48C571.447 48.92 570.647 49.14 569.714 49.14C568.78 49.14 567.94 48.9133 567.194 48.46C566.447 48.0067 565.86 47.3533 565.434 46.5C565.02 45.6333 564.814 44.62 564.814 43.46C564.814 42.3 565.02 41.2933 565.434 40.44C565.86 39.5733 566.447 38.9133 567.194 38.46C567.94 38.0067 568.78 37.78 569.714 37.78ZM570.594 40.24C569.714 40.24 569.007 40.5267 568.474 41.1C567.94 41.6733 567.674 42.46 567.674 43.46C567.674 44.46 567.94 45.2467 568.474 45.82C569.007 46.38 569.714 46.66 570.594 46.66C571.447 46.66 572.147 46.3733 572.694 45.8C573.254 45.2133 573.534 44.4333 573.534 43.46C573.534 42.4733 573.254 41.6933 572.694 41.12C572.147 40.5333 571.447 40.24 570.594 40.24ZM583.229 37.78C584.163 37.78 584.956 38 585.609 38.44C586.276 38.88 586.756 39.4733 587.049 40.22V34.2H589.849V49H587.049V46.68C586.756 47.4267 586.276 48.0267 585.609 48.48C584.956 48.92 584.163 49.14 583.229 49.14C582.296 49.14 581.456 48.9133 580.709 48.46C579.963 48.0067 579.376 47.3533 578.949 46.5C578.536 45.6333 578.329 44.62 578.329 43.46C578.329 42.3 578.536 41.2933 578.949 40.44C579.376 39.5733 579.963 38.9133 580.709 38.46C581.456 38.0067 582.296 37.78 583.229 37.78ZM584.109 40.24C583.229 40.24 582.523 40.5267 581.989 41.1C581.456 41.6733 581.189 42.46 581.189 43.46C581.189 44.46 581.456 45.2467 581.989 45.82C582.523 46.38 583.229 46.66 584.109 46.66C584.963 46.66 585.663 46.3733 586.209 45.8C586.769 45.2133 587.049 44.4333 587.049 43.46C587.049 42.4733 586.769 41.6933 586.209 41.12C585.663 40.5333 584.963 40.24 584.109 40.24ZM606.505 37.76C607.852 37.76 608.912 38.18 609.685 39.02C610.472 39.8467 610.865 41.0267 610.865 42.56V49H608.065V42.88C608.065 42.0267 607.845 41.3733 607.405 40.92C606.978 40.4533 606.385 40.22 605.625 40.22C604.838 40.22 604.212 40.4667 603.745 40.96C603.278 41.4533 603.045 42.1733 603.045 43.12V49H600.245V42.88C600.245 42.0267 600.025 41.3733 599.585 40.92C599.158 40.4533 598.565 40.22 597.805 40.22C597.018 40.22 596.392 40.4667 595.925 40.96C595.458 41.4533 595.225 42.1733 595.225 43.12V49H592.405V37.92H595.225V40.02C595.518 39.3 595.978 38.7467 596.605 38.36C597.245 37.96 597.985 37.76 598.825 37.76C599.718 37.76 600.492 37.9733 601.145 38.4C601.812 38.8267 602.312 39.44 602.645 40.24C602.992 39.48 603.505 38.88 604.185 38.44C604.878 37.9867 605.652 37.76 606.505 37.76ZM617.683 37.78C618.616 37.78 619.416 38 620.083 38.44C620.749 38.88 621.223 39.4733 621.503 40.22V37.92H624.303V49H621.503V46.68C621.223 47.4267 620.749 48.0267 620.083 48.48C619.416 48.92 618.616 49.14 617.683 49.14C616.749 49.14 615.909 48.9133 615.163 48.46C614.416 48.0067 613.829 47.3533 613.403 46.5C612.989 45.6333 612.783 44.62 612.783 43.46C612.783 42.3 612.989 41.2933 613.403 40.44C613.829 39.5733 614.416 38.9133 615.163 38.46C615.909 38.0067 616.749 37.78 617.683 37.78ZM618.563 40.24C617.683 40.24 616.976 40.5267 616.443 41.1C615.909 41.6733 615.643 42.46 615.643 43.46C615.643 44.46 615.909 45.2467 616.443 45.82C616.976 46.38 617.683 46.66 618.563 46.66C619.416 46.66 620.116 46.3733 620.663 45.8C621.223 45.2133 621.503 44.4333 621.503 43.46C621.503 42.4733 621.223 41.6933 620.663 41.12C620.116 40.5333 619.416 40.24 618.563 40.24ZM633.478 37.78C634.411 37.78 635.251 38.0067 635.998 38.46C636.745 38.9133 637.325 39.5733 637.738 40.44C638.165 41.2933 638.378 42.3 638.378 43.46C638.378 44.62 638.165 45.6333 637.738 46.5C637.325 47.3533 636.745 48.0067 635.998 48.46C635.251 48.9133 634.411 49.14 633.478 49.14C632.545 49.14 631.745 48.92 631.078 48.48C630.425 48.0267 629.958 47.4267 629.678 46.68V54.28H626.858V37.92H629.678V40.22C629.958 39.4733 630.425 38.88 631.078 38.44C631.745 38 632.545 37.78 633.478 37.78ZM632.598 40.24C631.745 40.24 631.038 40.5333 630.478 41.12C629.931 41.6933 629.658 42.4733 629.658 43.46C629.658 44.4333 629.931 45.2133 630.478 45.8C631.038 46.3733 631.745 46.66 632.598 46.66C633.478 46.66 634.185 46.38 634.718 45.82C635.251 45.2467 635.518 44.46 635.518 43.46C635.518 42.46 635.251 41.6733 634.718 41.1C634.185 40.5267 633.478 40.24 632.598 40.24Z" fill="white"/>
<path d="M839.88 10.88V13.12H835.98V25H833.16V13.12H829.28V10.88H839.88ZM851.852 19.04C851.852 19.32 851.819 19.64 851.752 20H843.632C843.672 20.9867 843.939 21.7133 844.432 22.18C844.926 22.6467 845.539 22.88 846.272 22.88C846.926 22.88 847.466 22.72 847.892 22.4C848.332 22.08 848.612 21.6467 848.732 21.1H851.712C851.566 21.8733 851.252 22.5667 850.772 23.18C850.292 23.7933 849.672 24.2733 848.912 24.62C848.166 24.9667 847.332 25.14 846.412 25.14C845.332 25.14 844.372 24.9133 843.532 24.46C842.692 23.9933 842.039 23.3333 841.572 22.48C841.106 21.6267 840.872 20.62 840.872 19.46C840.872 18.3 841.106 17.2933 841.572 16.44C842.039 15.5733 842.692 14.9133 843.532 14.46C844.372 14.0067 845.332 13.78 846.412 13.78C847.506 13.78 848.459 14.0067 849.272 14.46C850.099 14.9133 850.732 15.54 851.172 16.34C851.626 17.1267 851.852 18.0267 851.852 19.04ZM849.012 18.76C849.052 17.8533 848.812 17.1667 848.292 16.7C847.786 16.2333 847.159 16 846.412 16C845.652 16 845.012 16.2333 844.492 16.7C843.972 17.1667 843.686 17.8533 843.632 18.76H849.012ZM858.194 13.78C859.128 13.78 859.928 14 860.594 14.44C861.261 14.88 861.734 15.4733 862.014 16.22V13.92H864.814V25H862.014V22.68C861.734 23.4267 861.261 24.0267 860.594 24.48C859.928 24.92 859.128 25.14 858.194 25.14C857.261 25.14 856.421 24.9133 855.674 24.46C854.928 24.0067 854.341 23.3533 853.914 22.5C853.501 21.6333 853.294 20.62 853.294 19.46C853.294 18.3 853.501 17.2933 853.914 16.44C854.341 15.5733 854.928 14.9133 855.674 14.46C856.421 14.0067 857.261 13.78 858.194 13.78ZM859.074 16.24C858.194 16.24 857.488 16.5267 856.954 17.1C856.421 17.6733 856.154 18.46 856.154 19.46C856.154 20.46 856.421 21.2467 856.954 21.82C857.488 22.38 858.194 22.66 859.074 22.66C859.928 22.66 860.628 22.3733 861.174 21.8C861.734 21.2133 862.014 20.4333 862.014 19.46C862.014 18.4733 861.734 17.6933 861.174 17.12C860.628 16.5333 859.928 16.24 859.074 16.24ZM872.35 13.78C873.777 13.78 874.963 14.1667 875.91 14.94C876.87 15.7133 877.47 16.7667 877.71 18.1H874.73C874.61 17.5133 874.337 17.0533 873.91 16.72C873.483 16.3733 872.943 16.2 872.29 16.2C871.543 16.2 870.917 16.48 870.41 17.04C869.917 17.5867 869.67 18.3933 869.67 19.46C869.67 20.5267 869.917 21.34 870.41 21.9C870.917 22.4467 871.543 22.72 872.29 22.72C872.943 22.72 873.483 22.5533 873.91 22.22C874.337 21.8733 874.61 21.4067 874.73 20.82H877.71C877.47 22.1533 876.87 23.2067 875.91 23.98C874.963 24.7533 873.777 25.14 872.35 25.14C871.27 25.14 870.31 24.9133 869.47 24.46C868.63 23.9933 867.977 23.3333 867.51 22.48C867.043 21.6267 866.81 20.62 866.81 19.46C866.81 18.3 867.043 17.2933 867.51 16.44C867.977 15.5733 868.63 14.9133 869.47 14.46C870.31 14.0067 871.27 13.78 872.35 13.78ZM886.314 13.76C887.594 13.76 888.614 14.18 889.374 15.02C890.134 15.86 890.514 17.04 890.514 18.56V25H887.714V18.88C887.714 18 887.487 17.32 887.034 16.84C886.58 16.3467 885.96 16.1 885.174 16.1C884.374 16.1 883.734 16.36 883.254 16.88C882.774 17.4 882.534 18.1467 882.534 19.12V25H879.714V10.2H882.534V16.14C882.827 15.3933 883.307 14.8133 883.974 14.4C884.654 13.9733 885.434 13.76 886.314 13.76ZM899.25 13.92L902.27 21.44L905.07 13.92H908.17L901.39 30.28H898.27L900.77 24.68L896.11 13.92H899.25ZM914.619 13.78C915.699 13.78 916.665 14.0067 917.519 14.46C918.385 14.9133 919.065 15.5733 919.559 16.44C920.052 17.2933 920.299 18.3 920.299 19.46C920.299 20.62 920.052 21.6267 919.559 22.48C919.065 23.3333 918.385 23.9933 917.519 24.46C916.665 24.9133 915.699 25.14 914.619 25.14C913.539 25.14 912.565 24.9133 911.699 24.46C910.845 23.9933 910.172 23.3333 909.679 22.48C909.185 21.6267 908.939 20.62 908.939 19.46C908.939 18.3 909.185 17.2933 909.679 16.44C910.172 15.5733 910.845 14.9133 911.699 14.46C912.565 14.0067 913.539 13.78 914.619 13.78ZM914.619 16.22C913.832 16.22 913.165 16.5 912.619 17.06C912.072 17.6067 911.799 18.4067 911.799 19.46C911.799 20.5133 912.072 21.32 912.619 21.88C913.165 22.4267 913.832 22.7 914.619 22.7C915.405 22.7 916.072 22.4267 916.619 21.88C917.165 21.32 917.439 20.5133 917.439 19.46C917.439 18.4067 917.165 17.6067 916.619 17.06C916.072 16.5 915.405 16.22 914.619 16.22ZM932.892 13.92V25H930.072V22.76C929.778 23.5067 929.292 24.0933 928.612 24.52C927.945 24.9333 927.172 25.14 926.292 25.14C925.012 25.14 923.992 24.72 923.232 23.88C922.472 23.04 922.092 21.8667 922.092 20.36V13.92H924.892V20.04C924.892 20.92 925.118 21.6067 925.572 22.1C926.025 22.58 926.638 22.82 927.412 22.82C928.225 22.82 928.872 22.56 929.352 22.04C929.832 21.52 930.072 20.7733 930.072 19.8V13.92H932.892ZM938.276 16.04C938.689 15.3333 939.236 14.78 939.916 14.38C940.596 13.9667 941.356 13.76 942.196 13.76V16.78H941.376C939.309 16.78 938.276 17.74 938.276 19.66V25H935.456V13.92H938.276V16.04ZM829.96 34.74C829.96 34.2867 830.12 33.92 830.44 33.64C830.76 33.3467 831.18 33.2 831.7 33.2C832.22 33.2 832.64 33.3467 832.96 33.64C833.28 33.92 833.44 34.2867 833.44 34.74C833.44 35.18 833.28 35.5467 832.96 35.84C832.64 36.12 832.22 36.26 831.7 36.26C831.18 36.26 830.76 36.12 830.44 35.84C830.12 35.5467 829.96 35.18 829.96 34.74ZM833.1 37.92V49H830.28V37.92H833.1ZM842.251 37.76C843.531 37.76 844.551 38.18 845.311 39.02C846.071 39.86 846.451 41.04 846.451 42.56V49H843.651V42.88C843.651 42 843.424 41.32 842.971 40.84C842.518 40.3467 841.898 40.1 841.111 40.1C840.311 40.1 839.671 40.36 839.191 40.88C838.711 41.4 838.471 42.1467 838.471 43.12V49H835.651V37.92H838.471V40.14C838.764 39.3933 839.244 38.8133 839.911 38.4C840.591 37.9733 841.371 37.76 842.251 37.76ZM854.852 46.58V49H853.372C852.132 49 851.179 48.7 850.512 48.1C849.859 47.5 849.532 46.5 849.532 45.1V40.3H847.992V37.92H849.532V35.18H852.352V37.92H854.832V40.3H852.352V45.14C852.352 45.6733 852.459 46.0467 852.672 46.26C852.886 46.4733 853.246 46.58 853.752 46.58H854.852ZM867.302 43.04C867.302 43.32 867.268 43.64 867.202 44H859.082C859.122 44.9867 859.388 45.7133 859.882 46.18C860.375 46.6467 860.988 46.88 861.722 46.88C862.375 46.88 862.915 46.72 863.342 46.4C863.782 46.08 864.062 45.6467 864.182 45.1H867.162C867.015 45.8733 866.702 46.5667 866.222 47.18C865.742 47.7933 865.122 48.2733 864.362 48.62C863.615 48.9667 862.782 49.14 861.862 49.14C860.782 49.14 859.822 48.9133 858.982 48.46C858.142 47.9933 857.488 47.3333 857.022 46.48C856.555 45.6267 856.322 44.62 856.322 43.46C856.322 42.3 856.555 41.2933 857.022 40.44C857.488 39.5733 858.142 38.9133 858.982 38.46C859.822 38.0067 860.782 37.78 861.862 37.78C862.955 37.78 863.908 38.0067 864.722 38.46C865.548 38.9133 866.182 39.54 866.622 40.34C867.075 41.1267 867.302 42.0267 867.302 43.04ZM864.462 42.76C864.502 41.8533 864.262 41.1667 863.742 40.7C863.235 40.2333 862.608 40 861.862 40C861.102 40 860.462 40.2333 859.942 40.7C859.422 41.1667 859.135 41.8533 859.082 42.76H864.462ZM872.123 40.04C872.537 39.3333 873.083 38.78 873.763 38.38C874.443 37.9667 875.203 37.76 876.043 37.76V40.78H875.223C873.157 40.78 872.123 41.74 872.123 43.66V49H869.303V37.92H872.123V40.04ZM884.204 37.76C885.484 37.76 886.504 38.18 887.264 39.02C888.024 39.86 888.404 41.04 888.404 42.56V49H885.604V42.88C885.604 42 885.378 41.32 884.924 40.84C884.471 40.3467 883.851 40.1 883.064 40.1C882.264 40.1 881.624 40.36 881.144 40.88C880.664 41.4 880.424 42.1467 880.424 43.12V49H877.604V37.92H880.424V40.14C880.718 39.3933 881.198 38.8133 881.864 38.4C882.544 37.9733 883.324 37.76 884.204 37.76ZM895.225 37.78C896.159 37.78 896.959 38 897.625 38.44C898.292 38.88 898.765 39.4733 899.045 40.22V37.92H901.845V49H899.045V46.68C898.765 47.4267 898.292 48.0267 897.625 48.48C896.959 48.92 896.159 49.14 895.225 49.14C894.292 49.14 893.452 48.9133 892.705 48.46C891.959 48.0067 891.372 47.3533 890.945 46.5C890.532 45.6333 890.325 44.62 890.325 43.46C890.325 42.3 890.532 41.2933 890.945 40.44C891.372 39.5733 891.959 38.9133 892.705 38.46C893.452 38.0067 894.292 37.78 895.225 37.78ZM896.105 40.24C895.225 40.24 894.519 40.5267 893.985 41.1C893.452 41.6733 893.185 42.46 893.185 43.46C893.185 44.46 893.452 45.2467 893.985 45.82C894.519 46.38 895.225 46.66 896.105 46.66C896.959 46.66 897.659 46.3733 898.205 45.8C898.765 45.2133 899.045 44.4333 899.045 43.46C899.045 42.4733 898.765 41.6933 898.205 41.12C897.659 40.5333 896.959 40.24 896.105 40.24ZM907.221 34.2V49H904.401V34.2H907.221ZM920.048 46.58V49H918.568C917.328 49 916.374 48.7 915.708 48.1C915.054 47.5 914.728 46.5 914.728 45.1V40.3H913.188V37.92H914.728V35.18H917.548V37.92H920.028V40.3H917.548V45.14C917.548 45.6733 917.654 46.0467 917.868 46.26C918.081 46.4733 918.441 46.58 918.948 46.58H920.048ZM932.497 43.04C932.497 43.32 932.464 43.64 932.397 44H924.277C924.317 44.9867 924.584 45.7133 925.077 46.18C925.57 46.6467 926.184 46.88 926.917 46.88C927.57 46.88 928.11 46.72 928.537 46.4C928.977 46.08 929.257 45.6467 929.377 45.1H932.357C932.21 45.8733 931.897 46.5667 931.417 47.18C930.937 47.7933 930.317 48.2733 929.557 48.62C928.81 48.9667 927.977 49.14 927.057 49.14C925.977 49.14 925.017 48.9133 924.177 48.46C923.337 47.9933 922.684 47.3333 922.217 46.48C921.75 45.6267 921.517 44.62 921.517 43.46C921.517 42.3 921.75 41.2933 922.217 40.44C922.684 39.5733 923.337 38.9133 924.177 38.46C925.017 38.0067 925.977 37.78 927.057 37.78C928.15 37.78 929.104 38.0067 929.917 38.46C930.744 38.9133 931.377 39.54 931.817 40.34C932.27 41.1267 932.497 42.0267 932.497 43.04ZM929.657 42.76C929.697 41.8533 929.457 41.1667 928.937 40.7C928.43 40.2333 927.804 40 927.057 40C926.297 40 925.657 40.2333 925.137 40.7C924.617 41.1667 924.33 41.8533 924.277 42.76H929.657ZM938.839 37.78C939.772 37.78 940.572 38 941.239 38.44C941.905 38.88 942.379 39.4733 942.659 40.22V37.92H945.459V49H942.659V46.68C942.379 47.4267 941.905 48.0267 941.239 48.48C940.572 48.92 939.772 49.14 938.839 49.14C937.905 49.14 937.065 48.9133 936.319 48.46C935.572 48.0067 934.985 47.3533 934.559 46.5C934.145 45.6333 933.939 44.62 933.939 43.46C933.939 42.3 934.145 41.2933 934.559 40.44C934.985 39.5733 935.572 38.9133 936.319 38.46C937.065 38.0067 937.905 37.78 938.839 37.78ZM939.719 40.24C938.839 40.24 938.132 40.5267 937.599 41.1C937.065 41.6733 936.799 42.46 936.799 43.46C936.799 44.46 937.065 45.2467 937.599 45.82C938.132 46.38 938.839 46.66 939.719 46.66C940.572 46.66 941.272 46.3733 941.819 45.8C942.379 45.2133 942.659 44.4333 942.659 43.46C942.659 42.4733 942.379 41.6933 941.819 41.12C941.272 40.5333 940.572 40.24 939.719 40.24ZM962.114 37.76C963.461 37.76 964.521 38.18 965.294 39.02C966.081 39.8467 966.474 41.0267 966.474 42.56V49H963.674V42.88C963.674 42.0267 963.454 41.3733 963.014 40.92C962.588 40.4533 961.994 40.22 961.234 40.22C960.448 40.22 959.821 40.4667 959.354 40.96C958.888 41.4533 958.654 42.1733 958.654 43.12V49H955.854V42.88C955.854 42.0267 955.634 41.3733 955.194 40.92C954.768 40.4533 954.174 40.22 953.414 40.22C952.628 40.22 952.001 40.4667 951.534 40.96C951.068 41.4533 950.834 42.1733 950.834 43.12V49H948.014V37.92H950.834V40.02C951.128 39.3 951.588 38.7467 952.214 38.36C952.854 37.96 953.594 37.76 954.434 37.76C955.328 37.76 956.101 37.9733 956.754 38.4C957.421 38.8267 957.921 39.44 958.254 40.24C958.601 39.48 959.114 38.88 959.794 38.44C960.488 37.9867 961.261 37.76 962.114 37.76Z" fill="white"/>
</svg>
