<svg width="380" height="733" viewBox="0 0 380 733" fill="none" xmlns="http://www.w3.org/2000/svg">
<circle cx="190" cy="528" r="8" transform="rotate(90 190 528)" fill="#0C42CD"/>
<circle cx="190" cy="624" r="8" transform="rotate(90 190 624)" fill="#0C42CD"/>
<line x1="189" y1="527.5" x2="380" y2="527.5" stroke="#0C42CD" stroke-dasharray="6.13 6.13"/>
<line x1="189" y1="624.5" x2="-4.37114e-08" y2="624.5" stroke="#0C42CD" stroke-dasharray="6.13 6.13"/>
<path d="M10.88 640.88V643.12H6.98V655H4.16V643.12H0.28V640.88H10.88ZM15.2523 646.04C15.6657 645.333 16.2123 644.78 16.8923 644.38C17.5723 643.967 18.3323 643.76 19.1723 643.76V646.78H18.3523C16.2857 646.78 15.2523 647.74 15.2523 649.66V655H12.4323V643.92H15.2523V646.04ZM25.0731 643.78C26.0065 643.78 26.8065 644 27.4731 644.44C28.1398 644.88 28.6131 645.473 28.8931 646.22V643.92H31.6931V655H28.8931V652.68C28.6131 653.427 28.1398 654.027 27.4731 654.48C26.8065 654.92 26.0065 655.14 25.0731 655.14C24.1398 655.14 23.2998 654.913 22.5531 654.46C21.8065 654.007 21.2198 653.353 20.7931 652.5C20.3798 651.633 20.1731 650.62 20.1731 649.46C20.1731 648.3 20.3798 647.293 20.7931 646.44C21.2198 645.573 21.8065 644.913 22.5531 644.46C23.2998 644.007 24.1398 643.78 25.0731 643.78ZM25.9531 646.24C25.0731 646.24 24.3665 646.527 23.8331 647.1C23.2998 647.673 23.0331 648.46 23.0331 649.46C23.0331 650.46 23.2998 651.247 23.8331 651.82C24.3665 652.38 25.0731 652.66 25.9531 652.66C26.8065 652.66 27.5065 652.373 28.0531 651.8C28.6131 651.213 28.8931 650.433 28.8931 649.46C28.8931 648.473 28.6131 647.693 28.0531 647.12C27.5065 646.533 26.8065 646.24 25.9531 646.24ZM40.8488 643.76C42.1288 643.76 43.1488 644.18 43.9088 645.02C44.6688 645.86 45.0488 647.04 45.0488 648.56V655H42.2488V648.88C42.2488 648 42.0221 647.32 41.5688 646.84C41.1154 646.347 40.4954 646.1 39.7088 646.1C38.9088 646.1 38.2688 646.36 37.7888 646.88C37.3088 647.4 37.0688 648.147 37.0688 649.12V655H34.2488V643.92H37.0688V646.14C37.3621 645.393 37.8421 644.813 38.5088 644.4C39.1888 643.973 39.9688 643.76 40.8488 643.76ZM51.35 643.78C52.6967 643.78 53.7767 644.12 54.59 644.8C55.4033 645.48 55.91 646.387 56.11 647.52H53.47C53.3633 646.987 53.1233 646.56 52.75 646.24C52.3767 645.92 51.89 645.76 51.29 645.76C50.81 645.76 50.4367 645.873 50.17 646.1C49.9033 646.327 49.77 646.633 49.77 647.02C49.77 647.327 49.8767 647.573 50.09 647.76C50.3033 647.947 50.57 648.093 50.89 648.2C51.21 648.307 51.67 648.433 52.27 648.58C53.11 648.767 53.79 648.967 54.31 649.18C54.8433 649.38 55.2967 649.707 55.67 650.16C56.0567 650.6 56.25 651.2 56.25 651.96C56.25 652.907 55.8767 653.673 55.13 654.26C54.3967 654.847 53.4033 655.14 52.15 655.14C50.71 655.14 49.5567 654.82 48.69 654.18C47.8233 653.527 47.2967 652.6 47.11 651.4H49.81C49.8767 651.947 50.1167 652.38 50.53 652.7C50.9433 653.007 51.4833 653.16 52.15 653.16C52.63 653.16 52.9967 653.047 53.25 652.82C53.5033 652.58 53.63 652.273 53.63 651.9C53.63 651.58 53.5167 651.32 53.29 651.12C53.0767 650.92 52.8033 650.767 52.47 650.66C52.15 650.553 51.69 650.427 51.09 650.28C50.2633 650.093 49.59 649.907 49.07 649.72C48.5633 649.52 48.1233 649.207 47.75 648.78C47.39 648.353 47.21 647.767 47.21 647.02C47.21 646.06 47.5767 645.28 48.31 644.68C49.0433 644.08 50.0567 643.78 51.35 643.78ZM63.8303 642C63.0036 641.947 62.4236 642.067 62.0903 642.36C61.757 642.653 61.5903 643.167 61.5903 643.9V643.92H63.8303V646.3H61.5903V655H58.7703V646.3H57.3503V643.92H58.7703V643.66C58.7703 642.34 59.1436 641.327 59.8903 640.62C60.6503 639.9 61.7703 639.54 63.2503 639.54C63.5036 639.54 63.697 639.547 63.8303 639.56V642ZM70.6383 643.78C71.7183 643.78 72.6849 644.007 73.5383 644.46C74.4049 644.913 75.0849 645.573 75.5783 646.44C76.0716 647.293 76.3183 648.3 76.3183 649.46C76.3183 650.62 76.0716 651.627 75.5783 652.48C75.0849 653.333 74.4049 653.993 73.5383 654.46C72.6849 654.913 71.7183 655.14 70.6383 655.14C69.5583 655.14 68.5849 654.913 67.7183 654.46C66.8649 653.993 66.1916 653.333 65.6983 652.48C65.2049 651.627 64.9583 650.62 64.9583 649.46C64.9583 648.3 65.2049 647.293 65.6983 646.44C66.1916 645.573 66.8649 644.913 67.7183 644.46C68.5849 644.007 69.5583 643.78 70.6383 643.78ZM70.6383 646.22C69.8516 646.22 69.1849 646.5 68.6383 647.06C68.0916 647.607 67.8183 648.407 67.8183 649.46C67.8183 650.513 68.0916 651.32 68.6383 651.88C69.1849 652.427 69.8516 652.7 70.6383 652.7C71.4249 652.7 72.0916 652.427 72.6383 651.88C73.1849 651.32 73.4583 650.513 73.4583 649.46C73.4583 648.407 73.1849 647.607 72.6383 647.06C72.0916 646.5 71.4249 646.22 70.6383 646.22ZM81.1313 646.04C81.5446 645.333 82.0913 644.78 82.7713 644.38C83.4513 643.967 84.2113 643.76 85.0513 643.76V646.78H84.2313C82.1646 646.78 81.1313 647.74 81.1313 649.66V655H78.3113V643.92H81.1313V646.04ZM100.712 643.76C102.059 643.76 103.119 644.18 103.892 645.02C104.679 645.847 105.072 647.027 105.072 648.56V655H102.272V648.88C102.272 648.027 102.052 647.373 101.612 646.92C101.185 646.453 100.592 646.22 99.832 646.22C99.0454 646.22 98.4187 646.467 97.952 646.96C97.4854 647.453 97.252 648.173 97.252 649.12V655H94.452V648.88C94.452 648.027 94.232 647.373 93.792 646.92C93.3654 646.453 92.772 646.22 92.012 646.22C91.2254 646.22 90.5987 646.467 90.132 646.96C89.6654 647.453 89.432 648.173 89.432 649.12V655H86.612V643.92H89.432V646.02C89.7254 645.3 90.1854 644.747 90.812 644.36C91.452 643.96 92.192 643.76 93.032 643.76C93.9254 643.76 94.6987 643.973 95.352 644.4C96.0187 644.827 96.5187 645.44 96.852 646.24C97.1987 645.48 97.712 644.88 98.392 644.44C99.0854 643.987 99.8587 643.76 100.712 643.76ZM7.2 676.58V679H5.72C4.48 679 3.52667 678.7 2.86 678.1C2.20667 677.5 1.88 676.5 1.88 675.1V670.3H0.34V667.92H1.88V665.18H4.7V667.92H7.18V670.3H4.7V675.14C4.7 675.673 4.80667 676.047 5.02 676.26C5.23333 676.473 5.59333 676.58 6.1 676.58H7.2ZM15.8292 667.76C17.1092 667.76 18.1292 668.18 18.8892 669.02C19.6492 669.86 20.0292 671.04 20.0292 672.56V679H17.2292V672.88C17.2292 672 17.0026 671.32 16.5492 670.84C16.0959 670.347 15.4759 670.1 14.6892 670.1C13.8892 670.1 13.2492 670.36 12.7692 670.88C12.2892 671.4 12.0492 672.147 12.0492 673.12V679H9.22922V664.2H12.0492V670.14C12.3426 669.393 12.8226 668.813 13.4892 668.4C14.1692 667.973 14.9492 667.76 15.8292 667.76ZM32.9305 673.04C32.9305 673.32 32.8971 673.64 32.8305 674H24.7105C24.7505 674.987 25.0171 675.713 25.5105 676.18C26.0038 676.647 26.6171 676.88 27.3505 676.88C28.0038 676.88 28.5438 676.72 28.9705 676.4C29.4105 676.08 29.6905 675.647 29.8105 675.1H32.7905C32.6438 675.873 32.3305 676.567 31.8505 677.18C31.3705 677.793 30.7505 678.273 29.9905 678.62C29.2438 678.967 28.4105 679.14 27.4905 679.14C26.4105 679.14 25.4505 678.913 24.6105 678.46C23.7705 677.993 23.1171 677.333 22.6505 676.48C22.1838 675.627 21.9505 674.62 21.9505 673.46C21.9505 672.3 22.1838 671.293 22.6505 670.44C23.1171 669.573 23.7705 668.913 24.6105 668.46C25.4505 668.007 26.4105 667.78 27.4905 667.78C28.5838 667.78 29.5371 668.007 30.3505 668.46C31.1771 668.913 31.8105 669.54 32.2505 670.34C32.7038 671.127 32.9305 672.027 32.9305 673.04ZM30.0905 672.76C30.1305 671.853 29.8905 671.167 29.3705 670.7C28.8638 670.233 28.2371 670 27.4905 670C26.7305 670 26.0905 670.233 25.5705 670.7C25.0505 671.167 24.7638 671.853 24.7105 672.76H30.0905ZM45.9078 667.78C46.8411 667.78 47.6811 668.007 48.4278 668.46C49.1745 668.913 49.7545 669.573 50.1678 670.44C50.5945 671.293 50.8078 672.3 50.8078 673.46C50.8078 674.62 50.5945 675.633 50.1678 676.5C49.7545 677.353 49.1745 678.007 48.4278 678.46C47.6811 678.913 46.8411 679.14 45.9078 679.14C44.9745 679.14 44.1745 678.92 43.5078 678.48C42.8545 678.027 42.3878 677.427 42.1078 676.68V684.28H39.2878V667.92H42.1078V670.22C42.3878 669.473 42.8545 668.88 43.5078 668.44C44.1745 668 44.9745 667.78 45.9078 667.78ZM45.0278 670.24C44.1745 670.24 43.4678 670.533 42.9078 671.12C42.3611 671.693 42.0878 672.473 42.0878 673.46C42.0878 674.433 42.3611 675.213 42.9078 675.8C43.4678 676.373 44.1745 676.66 45.0278 676.66C45.9078 676.66 46.6145 676.38 47.1478 675.82C47.6811 675.247 47.9478 674.46 47.9478 673.46C47.9478 672.46 47.6811 671.673 47.1478 671.1C46.6145 670.527 45.9078 670.24 45.0278 670.24ZM55.6234 670.04C56.0368 669.333 56.5834 668.78 57.2634 668.38C57.9434 667.967 58.7034 667.76 59.5434 667.76V670.78H58.7234C56.6568 670.78 55.6234 671.74 55.6234 673.66V679H52.8034V667.92H55.6234V670.04ZM66.2242 667.78C67.3042 667.78 68.2709 668.007 69.1242 668.46C69.9909 668.913 70.6709 669.573 71.1642 670.44C71.6576 671.293 71.9042 672.3 71.9042 673.46C71.9042 674.62 71.6576 675.627 71.1642 676.48C70.6709 677.333 69.9909 677.993 69.1242 678.46C68.2709 678.913 67.3042 679.14 66.2242 679.14C65.1442 679.14 64.1709 678.913 63.3042 678.46C62.4509 677.993 61.7776 677.333 61.2842 676.48C60.7909 675.627 60.5442 674.62 60.5442 673.46C60.5442 672.3 60.7909 671.293 61.2842 670.44C61.7776 669.573 62.4509 668.913 63.3042 668.46C64.1709 668.007 65.1442 667.78 66.2242 667.78ZM66.2242 670.22C65.4376 670.22 64.7709 670.5 64.2242 671.06C63.6776 671.607 63.4042 672.407 63.4042 673.46C63.4042 674.513 63.6776 675.32 64.2242 675.88C64.7709 676.427 65.4376 676.7 66.2242 676.7C67.0109 676.7 67.6776 676.427 68.2242 675.88C68.7709 675.32 69.0442 674.513 69.0442 673.46C69.0442 672.407 68.7709 671.607 68.2242 671.06C67.6776 670.5 67.0109 670.22 66.2242 670.22ZM78.8772 667.78C80.3039 667.78 81.4905 668.167 82.4372 668.94C83.3972 669.713 83.9972 670.767 84.2372 672.1H81.2572C81.1372 671.513 80.8639 671.053 80.4372 670.72C80.0105 670.373 79.4705 670.2 78.8172 670.2C78.0705 670.2 77.4439 670.48 76.9372 671.04C76.4439 671.587 76.1972 672.393 76.1972 673.46C76.1972 674.527 76.4439 675.34 76.9372 675.9C77.4439 676.447 78.0705 676.72 78.8172 676.72C79.4705 676.72 80.0105 676.553 80.4372 676.22C80.8639 675.873 81.1372 675.407 81.2572 674.82H84.2372C83.9972 676.153 83.3972 677.207 82.4372 677.98C81.4905 678.753 80.3039 679.14 78.8772 679.14C77.7972 679.14 76.8372 678.913 75.9972 678.46C75.1572 677.993 74.5039 677.333 74.0372 676.48C73.5705 675.627 73.3372 674.62 73.3372 673.46C73.3372 672.3 73.5705 671.293 74.0372 670.44C74.5039 669.573 75.1572 668.913 75.9972 668.46C76.8372 668.007 77.7972 667.78 78.8772 667.78ZM96.6609 673.04C96.6609 673.32 96.6276 673.64 96.5609 674H88.4409C88.4809 674.987 88.7476 675.713 89.2409 676.18C89.7343 676.647 90.3476 676.88 91.0809 676.88C91.7343 676.88 92.2743 676.72 92.7009 676.4C93.1409 676.08 93.4209 675.647 93.5409 675.1H96.5209C96.3743 675.873 96.0609 676.567 95.5809 677.18C95.1009 677.793 94.4809 678.273 93.7209 678.62C92.9743 678.967 92.1409 679.14 91.2209 679.14C90.1409 679.14 89.1809 678.913 88.3409 678.46C87.5009 677.993 86.8476 677.333 86.3809 676.48C85.9143 675.627 85.6809 674.62 85.6809 673.46C85.6809 672.3 85.9143 671.293 86.3809 670.44C86.8476 669.573 87.5009 668.913 88.3409 668.46C89.1809 668.007 90.1409 667.78 91.2209 667.78C92.3143 667.78 93.2676 668.007 94.0809 668.46C94.9076 668.913 95.5409 669.54 95.9809 670.34C96.4343 671.127 96.6609 672.027 96.6609 673.04ZM93.8209 672.76C93.8609 671.853 93.6209 671.167 93.1009 670.7C92.5943 670.233 91.9676 670 91.2209 670C90.4609 670 89.8209 670.233 89.3009 670.7C88.7809 671.167 88.4943 671.853 88.4409 672.76H93.8209ZM102.483 667.78C103.829 667.78 104.909 668.12 105.723 668.8C106.536 669.48 107.043 670.387 107.243 671.52H104.603C104.496 670.987 104.256 670.56 103.883 670.24C103.509 669.92 103.023 669.76 102.423 669.76C101.943 669.76 101.569 669.873 101.303 670.1C101.036 670.327 100.903 670.633 100.903 671.02C100.903 671.327 101.009 671.573 101.223 671.76C101.436 671.947 101.703 672.093 102.023 672.2C102.343 672.307 102.803 672.433 103.403 672.58C104.243 672.767 104.923 672.967 105.443 673.18C105.976 673.38 106.429 673.707 106.803 674.16C107.189 674.6 107.383 675.2 107.383 675.96C107.383 676.907 107.009 677.673 106.263 678.26C105.529 678.847 104.536 679.14 103.283 679.14C101.843 679.14 100.689 678.82 99.8228 678.18C98.9561 677.527 98.4295 676.6 98.2428 675.4H100.943C101.009 675.947 101.249 676.38 101.663 676.7C102.076 677.007 102.616 677.16 103.283 677.16C103.763 677.16 104.129 677.047 104.383 676.82C104.636 676.58 104.763 676.273 104.763 675.9C104.763 675.58 104.649 675.32 104.423 675.12C104.209 674.92 103.936 674.767 103.603 674.66C103.283 674.553 102.823 674.427 102.223 674.28C101.396 674.093 100.723 673.907 100.203 673.72C99.6961 673.52 99.2561 673.207 98.8828 672.78C98.5228 672.353 98.3428 671.767 98.3428 671.02C98.3428 670.06 98.7095 669.28 99.4428 668.68C100.176 668.08 101.189 667.78 102.483 667.78ZM113.303 667.78C114.65 667.78 115.73 668.12 116.543 668.8C117.356 669.48 117.863 670.387 118.063 671.52H115.423C115.316 670.987 115.076 670.56 114.703 670.24C114.33 669.92 113.843 669.76 113.243 669.76C112.763 669.76 112.39 669.873 112.123 670.1C111.856 670.327 111.723 670.633 111.723 671.02C111.723 671.327 111.83 671.573 112.043 671.76C112.256 671.947 112.523 672.093 112.843 672.2C113.163 672.307 113.623 672.433 114.223 672.58C115.063 672.767 115.743 672.967 116.263 673.18C116.796 673.38 117.25 673.707 117.623 674.16C118.01 674.6 118.203 675.2 118.203 675.96C118.203 676.907 117.83 677.673 117.083 678.26C116.35 678.847 115.356 679.14 114.103 679.14C112.663 679.14 111.51 678.82 110.643 678.18C109.776 677.527 109.25 676.6 109.063 675.4H111.763C111.83 675.947 112.07 676.38 112.483 676.7C112.896 677.007 113.436 677.16 114.103 677.16C114.583 677.16 114.95 677.047 115.203 676.82C115.456 676.58 115.583 676.273 115.583 675.9C115.583 675.58 115.47 675.32 115.243 675.12C115.03 674.92 114.756 674.767 114.423 674.66C114.103 674.553 113.643 674.427 113.043 674.28C112.216 674.093 111.543 673.907 111.023 673.72C110.516 673.52 110.076 673.207 109.703 672.78C109.343 672.353 109.163 671.767 109.163 671.02C109.163 670.06 109.53 669.28 110.263 668.68C110.996 668.08 112.01 667.78 113.303 667.78ZM6.4 691.78C7.48 691.78 8.44667 692.007 9.3 692.46C10.1667 692.913 10.8467 693.573 11.34 694.44C11.8333 695.293 12.08 696.3 12.08 697.46C12.08 698.62 11.8333 699.627 11.34 700.48C10.8467 701.333 10.1667 701.993 9.3 702.46C8.44667 702.913 7.48 703.14 6.4 703.14C5.32 703.14 4.34667 702.913 3.48 702.46C2.62667 701.993 1.95333 701.333 1.46 700.48C0.966667 699.627 0.72 698.62 0.72 697.46C0.72 696.3 0.966667 695.293 1.46 694.44C1.95333 693.573 2.62667 692.913 3.48 692.46C4.34667 692.007 5.32 691.78 6.4 691.78ZM6.4 694.22C5.61333 694.22 4.94667 694.5 4.4 695.06C3.85333 695.607 3.58 696.407 3.58 697.46C3.58 698.513 3.85333 699.32 4.4 699.88C4.94667 700.427 5.61333 700.7 6.4 700.7C7.18667 700.7 7.85333 700.427 8.4 699.88C8.94667 699.32 9.22 698.513 9.22 697.46C9.22 696.407 8.94667 695.607 8.4 695.06C7.85333 694.5 7.18667 694.22 6.4 694.22ZM29.933 691.92L26.953 703H23.833L21.453 694.94L19.013 703H15.893L12.933 691.92H15.753L17.553 700.48L20.013 691.92H22.993L25.473 700.48L27.293 691.92H29.933ZM37.9386 691.76C39.2186 691.76 40.2386 692.18 40.9986 693.02C41.7586 693.86 42.1386 695.04 42.1386 696.56V703H39.3386V696.88C39.3386 696 39.1119 695.32 38.6586 694.84C38.2053 694.347 37.5853 694.1 36.7986 694.1C35.9986 694.1 35.3586 694.36 34.8786 694.88C34.3986 695.4 34.1586 696.147 34.1586 697.12V703H31.3386V691.92H34.1586V694.14C34.4519 693.393 34.9319 692.813 35.5986 692.4C36.2786 691.973 37.0586 691.76 37.9386 691.76ZM55.0398 697.04C55.0398 697.32 55.0065 697.64 54.9398 698H46.8198C46.8598 698.987 47.1265 699.713 47.6198 700.18C48.1132 700.647 48.7265 700.88 49.4598 700.88C50.1132 700.88 50.6532 700.72 51.0798 700.4C51.5198 700.08 51.7998 699.647 51.9198 699.1H54.8998C54.7532 699.873 54.4398 700.567 53.9598 701.18C53.4798 701.793 52.8598 702.273 52.0998 702.62C51.3532 702.967 50.5198 703.14 49.5998 703.14C48.5198 703.14 47.5598 702.913 46.7198 702.46C45.8798 701.993 45.2265 701.333 44.7598 700.48C44.2932 699.627 44.0598 698.62 44.0598 697.46C44.0598 696.3 44.2932 695.293 44.7598 694.44C45.2265 693.573 45.8798 692.913 46.7198 692.46C47.5598 692.007 48.5198 691.78 49.5998 691.78C50.6932 691.78 51.6465 692.007 52.4598 692.46C53.2865 692.913 53.9198 693.54 54.3598 694.34C54.8132 695.127 55.0398 696.027 55.0398 697.04ZM52.1998 696.76C52.2398 695.853 51.9998 695.167 51.4798 694.7C50.9732 694.233 50.3465 694 49.5998 694C48.8398 694 48.1998 694.233 47.6798 694.7C47.1598 695.167 46.8732 695.853 46.8198 696.76H52.1998ZM59.8617 694.04C60.2751 693.333 60.8217 692.78 61.5017 692.38C62.1817 691.967 62.9417 691.76 63.7817 691.76V694.78H62.9617C60.8951 694.78 59.8617 695.74 59.8617 697.66V703H57.0417V691.92H59.8617V694.04ZM69.1625 691.78C70.5092 691.78 71.5892 692.12 72.4025 692.8C73.2158 693.48 73.7225 694.387 73.9225 695.52H71.2825C71.1758 694.987 70.9358 694.56 70.5625 694.24C70.1892 693.92 69.7025 693.76 69.1025 693.76C68.6225 693.76 68.2492 693.873 67.9825 694.1C67.7158 694.327 67.5825 694.633 67.5825 695.02C67.5825 695.327 67.6892 695.573 67.9025 695.76C68.1158 695.947 68.3825 696.093 68.7025 696.2C69.0225 696.307 69.4825 696.433 70.0825 696.58C70.9225 696.767 71.6025 696.967 72.1225 697.18C72.6558 697.38 73.1092 697.707 73.4825 698.16C73.8692 698.6 74.0625 699.2 74.0625 699.96C74.0625 700.907 73.6892 701.673 72.9425 702.26C72.2092 702.847 71.2158 703.14 69.9625 703.14C68.5225 703.14 67.3692 702.82 66.5025 702.18C65.6358 701.527 65.1092 700.6 64.9225 699.4H67.6225C67.6892 699.947 67.9292 700.38 68.3425 700.7C68.7558 701.007 69.2958 701.16 69.9625 701.16C70.4425 701.16 70.8092 701.047 71.0625 700.82C71.3158 700.58 71.4425 700.273 71.4425 699.9C71.4425 699.58 71.3292 699.32 71.1025 699.12C70.8892 698.92 70.6158 698.767 70.2825 698.66C69.9625 698.553 69.5025 698.427 68.9025 698.28C68.0758 698.093 67.4025 697.907 66.8825 697.72C66.3758 697.52 65.9358 697.207 65.5625 696.78C65.2025 696.353 65.0225 695.767 65.0225 695.02C65.0225 694.06 65.3892 693.28 66.1225 692.68C66.8558 692.08 67.8692 691.78 69.1625 691.78ZM82.7628 691.76C84.0428 691.76 85.0628 692.18 85.8228 693.02C86.5828 693.86 86.9628 695.04 86.9628 696.56V703H84.1628V696.88C84.1628 696 83.9361 695.32 83.4828 694.84C83.0295 694.347 82.4095 694.1 81.6228 694.1C80.8228 694.1 80.1828 694.36 79.7028 694.88C79.2228 695.4 78.9828 696.147 78.9828 697.12V703H76.1628V688.2H78.9828V694.14C79.2761 693.393 79.7561 692.813 80.4228 692.4C81.1028 691.973 81.8828 691.76 82.7628 691.76ZM89.1241 688.74C89.1241 688.287 89.2841 687.92 89.6041 687.64C89.9241 687.347 90.3441 687.2 90.8641 687.2C91.3841 687.2 91.8041 687.347 92.1241 687.64C92.4441 687.92 92.6041 688.287 92.6041 688.74C92.6041 689.18 92.4441 689.547 92.1241 689.84C91.8041 690.12 91.3841 690.26 90.8641 690.26C90.3441 690.26 89.9241 690.12 89.6041 689.84C89.2841 689.547 89.1241 689.18 89.1241 688.74ZM92.2641 691.92V703H89.4441V691.92H92.2641ZM101.435 691.78C102.368 691.78 103.208 692.007 103.955 692.46C104.702 692.913 105.282 693.573 105.695 694.44C106.122 695.293 106.335 696.3 106.335 697.46C106.335 698.62 106.122 699.633 105.695 700.5C105.282 701.353 104.702 702.007 103.955 702.46C103.208 702.913 102.368 703.14 101.435 703.14C100.502 703.14 99.7018 702.92 99.0352 702.48C98.3818 702.027 97.9152 701.427 97.6352 700.68V708.28H94.8152V691.92H97.6352V694.22C97.9152 693.473 98.3818 692.88 99.0352 692.44C99.7018 692 100.502 691.78 101.435 691.78ZM100.555 694.24C99.7018 694.24 98.9952 694.533 98.4352 695.12C97.8885 695.693 97.6152 696.473 97.6152 697.46C97.6152 698.433 97.8885 699.213 98.4352 699.8C98.9952 700.373 99.7018 700.66 100.555 700.66C101.435 700.66 102.142 700.38 102.675 699.82C103.208 699.247 103.475 698.46 103.475 697.46C103.475 696.46 103.208 695.673 102.675 695.1C102.142 694.527 101.435 694.24 100.555 694.24ZM7.2 724.58V727H5.72C4.48 727 3.52667 726.7 2.86 726.1C2.20667 725.5 1.88 724.5 1.88 723.1V718.3H0.34V715.92H1.88V713.18H4.7V715.92H7.18V718.3H4.7V723.14C4.7 723.673 4.80667 724.047 5.02 724.26C5.23333 724.473 5.59333 724.58 6.1 724.58H7.2ZM14.3492 715.78C15.4292 715.78 16.3959 716.007 17.2492 716.46C18.1159 716.913 18.7959 717.573 19.2892 718.44C19.7826 719.293 20.0292 720.3 20.0292 721.46C20.0292 722.62 19.7826 723.627 19.2892 724.48C18.7959 725.333 18.1159 725.993 17.2492 726.46C16.3959 726.913 15.4292 727.14 14.3492 727.14C13.2692 727.14 12.2959 726.913 11.4292 726.46C10.5759 725.993 9.90255 725.333 9.40922 724.48C8.91589 723.627 8.66922 722.62 8.66922 721.46C8.66922 720.3 8.91589 719.293 9.40922 718.44C9.90255 717.573 10.5759 716.913 11.4292 716.46C12.2959 716.007 13.2692 715.78 14.3492 715.78ZM14.3492 718.22C13.5626 718.22 12.8959 718.5 12.3492 719.06C11.8026 719.607 11.5292 720.407 11.5292 721.46C11.5292 722.513 11.8026 723.32 12.3492 723.88C12.8959 724.427 13.5626 724.7 14.3492 724.7C15.1359 724.7 15.8026 724.427 16.3492 723.88C16.8959 723.32 17.1692 722.513 17.1692 721.46C17.1692 720.407 16.8959 719.607 16.3492 719.06C15.8026 718.5 15.1359 718.22 14.3492 718.22ZM28.2777 715.92L31.2977 723.44L34.0977 715.92H37.1977L30.4177 732.28H27.2977L29.7977 726.68L25.1377 715.92H28.2777ZM43.6461 715.78C44.7261 715.78 45.6928 716.007 46.5461 716.46C47.4128 716.913 48.0928 717.573 48.5861 718.44C49.0794 719.293 49.3261 720.3 49.3261 721.46C49.3261 722.62 49.0794 723.627 48.5861 724.48C48.0928 725.333 47.4128 725.993 46.5461 726.46C45.6928 726.913 44.7261 727.14 43.6461 727.14C42.5661 727.14 41.5928 726.913 40.7261 726.46C39.8728 725.993 39.1994 725.333 38.7061 724.48C38.2128 723.627 37.9661 722.62 37.9661 721.46C37.9661 720.3 38.2128 719.293 38.7061 718.44C39.1994 717.573 39.8728 716.913 40.7261 716.46C41.5928 716.007 42.5661 715.78 43.6461 715.78ZM43.6461 718.22C42.8594 718.22 42.1928 718.5 41.6461 719.06C41.0994 719.607 40.8261 720.407 40.8261 721.46C40.8261 722.513 41.0994 723.32 41.6461 723.88C42.1928 724.427 42.8594 724.7 43.6461 724.7C44.4328 724.7 45.0994 724.427 45.6461 723.88C46.1928 723.32 46.4661 722.513 46.4661 721.46C46.4661 720.407 46.1928 719.607 45.6461 719.06C45.0994 718.5 44.4328 718.22 43.6461 718.22ZM61.9191 715.92V727H59.0991V724.76C58.8057 725.507 58.3191 726.093 57.6391 726.52C56.9724 726.933 56.1991 727.14 55.3191 727.14C54.0391 727.14 53.0191 726.72 52.2591 725.88C51.4991 725.04 51.1191 723.867 51.1191 722.36V715.92H53.9191V722.04C53.9191 722.92 54.1457 723.607 54.5991 724.1C55.0524 724.58 55.6657 724.82 56.4391 724.82C57.2524 724.82 57.8991 724.56 58.3791 724.04C58.8591 723.52 59.0991 722.773 59.0991 721.8V715.92H61.9191Z" fill="white"/>
<path d="M277.403 544.88V547.12H273.503V559H270.683V547.12H266.803V544.88H277.403ZM289.376 553.04C289.376 553.32 289.342 553.64 289.276 554H281.156C281.196 554.986 281.462 555.713 281.956 556.18C282.449 556.646 283.062 556.88 283.796 556.88C284.449 556.88 284.989 556.72 285.416 556.4C285.856 556.08 286.136 555.646 286.256 555.1H289.236C289.089 555.873 288.776 556.566 288.296 557.18C287.816 557.793 287.196 558.273 286.436 558.62C285.689 558.966 284.856 559.14 283.936 559.14C282.856 559.14 281.896 558.913 281.056 558.46C280.216 557.993 279.562 557.333 279.096 556.48C278.629 555.626 278.396 554.62 278.396 553.46C278.396 552.3 278.629 551.293 279.096 550.44C279.562 549.573 280.216 548.913 281.056 548.46C281.896 548.006 282.856 547.78 283.936 547.78C285.029 547.78 285.982 548.006 286.796 548.46C287.622 548.913 288.256 549.54 288.696 550.34C289.149 551.126 289.376 552.026 289.376 553.04ZM286.536 552.76C286.576 551.853 286.336 551.166 285.816 550.7C285.309 550.233 284.682 550 283.936 550C283.176 550 282.536 550.233 282.016 550.7C281.496 551.166 281.209 551.853 281.156 552.76H286.536ZM295.718 547.78C296.651 547.78 297.451 548 298.118 548.44C298.784 548.88 299.258 549.473 299.538 550.22V547.92H302.338V559H299.538V556.68C299.258 557.426 298.784 558.026 298.118 558.48C297.451 558.92 296.651 559.14 295.718 559.14C294.784 559.14 293.944 558.913 293.198 558.46C292.451 558.006 291.864 557.353 291.438 556.5C291.024 555.633 290.818 554.62 290.818 553.46C290.818 552.3 291.024 551.293 291.438 550.44C291.864 549.573 292.451 548.913 293.198 548.46C293.944 548.006 294.784 547.78 295.718 547.78ZM296.598 550.24C295.718 550.24 295.011 550.526 294.478 551.1C293.944 551.673 293.678 552.46 293.678 553.46C293.678 554.46 293.944 555.246 294.478 555.82C295.011 556.38 295.718 556.66 296.598 556.66C297.451 556.66 298.151 556.373 298.698 555.8C299.258 555.213 299.538 554.433 299.538 553.46C299.538 552.473 299.258 551.693 298.698 551.12C298.151 550.533 297.451 550.24 296.598 550.24ZM309.873 547.78C311.3 547.78 312.487 548.166 313.433 548.94C314.393 549.713 314.993 550.766 315.233 552.1H312.253C312.133 551.513 311.86 551.053 311.433 550.72C311.007 550.373 310.467 550.2 309.813 550.2C309.067 550.2 308.44 550.48 307.933 551.04C307.44 551.586 307.193 552.393 307.193 553.46C307.193 554.526 307.44 555.34 307.933 555.9C308.44 556.446 309.067 556.72 309.813 556.72C310.467 556.72 311.007 556.553 311.433 556.22C311.86 555.873 312.133 555.406 312.253 554.82H315.233C314.993 556.153 314.393 557.206 313.433 557.98C312.487 558.753 311.3 559.14 309.873 559.14C308.793 559.14 307.833 558.913 306.993 558.46C306.153 557.993 305.5 557.333 305.033 556.48C304.567 555.626 304.333 554.62 304.333 553.46C304.333 552.3 304.567 551.293 305.033 550.44C305.5 549.573 306.153 548.913 306.993 548.46C307.833 548.006 308.793 547.78 309.873 547.78ZM323.837 547.76C325.117 547.76 326.137 548.18 326.897 549.02C327.657 549.86 328.037 551.04 328.037 552.56V559H325.237V552.88C325.237 552 325.01 551.32 324.557 550.84C324.104 550.346 323.484 550.1 322.697 550.1C321.897 550.1 321.257 550.36 320.777 550.88C320.297 551.4 320.057 552.146 320.057 553.12V559H317.237V544.2H320.057V550.14C320.35 549.393 320.83 548.813 321.497 548.4C322.177 547.973 322.957 547.76 323.837 547.76ZM336.774 547.92L339.794 555.44L342.594 547.92H345.694L338.914 564.28H335.794L338.294 558.68L333.634 547.92H336.774ZM352.142 547.78C353.222 547.78 354.189 548.006 355.042 548.46C355.909 548.913 356.589 549.573 357.082 550.44C357.576 551.293 357.822 552.3 357.822 553.46C357.822 554.62 357.576 555.626 357.082 556.48C356.589 557.333 355.909 557.993 355.042 558.46C354.189 558.913 353.222 559.14 352.142 559.14C351.062 559.14 350.089 558.913 349.222 558.46C348.369 557.993 347.696 557.333 347.202 556.48C346.709 555.626 346.462 554.62 346.462 553.46C346.462 552.3 346.709 551.293 347.202 550.44C347.696 549.573 348.369 548.913 349.222 548.46C350.089 548.006 351.062 547.78 352.142 547.78ZM352.142 550.22C351.356 550.22 350.689 550.5 350.142 551.06C349.596 551.606 349.322 552.406 349.322 553.46C349.322 554.513 349.596 555.32 350.142 555.88C350.689 556.426 351.356 556.7 352.142 556.7C352.929 556.7 353.596 556.426 354.142 555.88C354.689 555.32 354.962 554.513 354.962 553.46C354.962 552.406 354.689 551.606 354.142 551.06C353.596 550.5 352.929 550.22 352.142 550.22ZM370.415 547.92V559H367.595V556.76C367.302 557.506 366.815 558.093 366.135 558.52C365.468 558.933 364.695 559.14 363.815 559.14C362.535 559.14 361.515 558.72 360.755 557.88C359.995 557.04 359.615 555.866 359.615 554.36V547.92H362.415V554.04C362.415 554.92 362.642 555.606 363.095 556.1C363.548 556.58 364.162 556.82 364.935 556.82C365.748 556.82 366.395 556.56 366.875 556.04C367.355 555.52 367.595 554.773 367.595 553.8V547.92H370.415ZM375.799 550.04C376.213 549.333 376.759 548.78 377.439 548.38C378.119 547.966 378.879 547.76 379.719 547.76V550.78H378.899C376.833 550.78 375.799 551.74 375.799 553.66V559H372.979V547.92H375.799V550.04ZM242.288 568.74C242.288 568.286 242.448 567.92 242.768 567.64C243.088 567.346 243.508 567.2 244.028 567.2C244.548 567.2 244.968 567.346 245.288 567.64C245.608 567.92 245.768 568.286 245.768 568.74C245.768 569.18 245.608 569.546 245.288 569.84C244.968 570.12 244.548 570.26 244.028 570.26C243.508 570.26 243.088 570.12 242.768 569.84C242.448 569.546 242.288 569.18 242.288 568.74ZM245.428 571.92V583H242.608V571.92H245.428ZM254.579 571.76C255.859 571.76 256.879 572.18 257.639 573.02C258.399 573.86 258.779 575.04 258.779 576.56V583H255.979V576.88C255.979 576 255.753 575.32 255.299 574.84C254.846 574.346 254.226 574.1 253.439 574.1C252.639 574.1 251.999 574.36 251.519 574.88C251.039 575.4 250.799 576.146 250.799 577.12V583H247.979V571.92H250.799V574.14C251.093 573.393 251.573 572.813 252.239 572.4C252.919 571.973 253.699 571.76 254.579 571.76ZM267.18 580.58V583H265.7C264.46 583 263.507 582.7 262.84 582.1C262.187 581.5 261.86 580.5 261.86 579.1V574.3H260.32V571.92H261.86V569.18H264.68V571.92H267.16V574.3H264.68V579.14C264.68 579.673 264.787 580.046 265 580.26C265.214 580.473 265.574 580.58 266.08 580.58H267.18ZM279.63 577.04C279.63 577.32 279.596 577.64 279.53 578H271.41C271.45 578.986 271.716 579.713 272.21 580.18C272.703 580.646 273.316 580.88 274.05 580.88C274.703 580.88 275.243 580.72 275.67 580.4C276.11 580.08 276.39 579.646 276.51 579.1H279.49C279.343 579.873 279.03 580.566 278.55 581.18C278.07 581.793 277.45 582.273 276.69 582.62C275.943 582.966 275.11 583.14 274.19 583.14C273.11 583.14 272.15 582.913 271.31 582.46C270.47 581.993 269.816 581.333 269.35 580.48C268.883 579.626 268.65 578.62 268.65 577.46C268.65 576.3 268.883 575.293 269.35 574.44C269.816 573.573 270.47 572.913 271.31 572.46C272.15 572.006 273.11 571.78 274.19 571.78C275.283 571.78 276.236 572.006 277.05 572.46C277.876 572.913 278.51 573.54 278.95 574.34C279.403 575.126 279.63 576.026 279.63 577.04ZM276.79 576.76C276.83 575.853 276.59 575.166 276.07 574.7C275.563 574.233 274.936 574 274.19 574C273.43 574 272.79 574.233 272.27 574.7C271.75 575.166 271.463 575.853 271.41 576.76H276.79ZM284.452 574.04C284.865 573.333 285.412 572.78 286.092 572.38C286.772 571.966 287.532 571.76 288.372 571.76V574.78H287.552C285.485 574.78 284.452 575.74 284.452 577.66V583H281.632V571.92H284.452V574.04ZM296.532 571.76C297.812 571.76 298.832 572.18 299.592 573.02C300.352 573.86 300.732 575.04 300.732 576.56V583H297.932V576.88C297.932 576 297.706 575.32 297.252 574.84C296.799 574.346 296.179 574.1 295.392 574.1C294.592 574.1 293.952 574.36 293.472 574.88C292.992 575.4 292.752 576.146 292.752 577.12V583H289.932V571.92H292.752V574.14C293.046 573.393 293.526 572.813 294.192 572.4C294.872 571.973 295.652 571.76 296.532 571.76ZM307.554 571.78C308.487 571.78 309.287 572 309.954 572.44C310.62 572.88 311.094 573.473 311.374 574.22V571.92H314.174V583H311.374V580.68C311.094 581.426 310.62 582.026 309.954 582.48C309.287 582.92 308.487 583.14 307.554 583.14C306.62 583.14 305.78 582.913 305.034 582.46C304.287 582.006 303.7 581.353 303.274 580.5C302.86 579.633 302.654 578.62 302.654 577.46C302.654 576.3 302.86 575.293 303.274 574.44C303.7 573.573 304.287 572.913 305.034 572.46C305.78 572.006 306.62 571.78 307.554 571.78ZM308.434 574.24C307.554 574.24 306.847 574.526 306.314 575.1C305.78 575.673 305.514 576.46 305.514 577.46C305.514 578.46 305.78 579.246 306.314 579.82C306.847 580.38 307.554 580.66 308.434 580.66C309.287 580.66 309.987 580.373 310.534 579.8C311.094 579.213 311.374 578.433 311.374 577.46C311.374 576.473 311.094 575.693 310.534 575.12C309.987 574.533 309.287 574.24 308.434 574.24ZM319.549 568.2V583H316.729V568.2H319.549ZM332.376 580.58V583H330.896C329.656 583 328.702 582.7 328.036 582.1C327.382 581.5 327.056 580.5 327.056 579.1V574.3H325.516V571.92H327.056V569.18H329.876V571.92H332.356V574.3H329.876V579.14C329.876 579.673 329.982 580.046 330.196 580.26C330.409 580.473 330.769 580.58 331.276 580.58H332.376ZM344.825 577.04C344.825 577.32 344.792 577.64 344.725 578H336.605C336.645 578.986 336.912 579.713 337.405 580.18C337.898 580.646 338.512 580.88 339.245 580.88C339.898 580.88 340.438 580.72 340.865 580.4C341.305 580.08 341.585 579.646 341.705 579.1H344.685C344.538 579.873 344.225 580.566 343.745 581.18C343.265 581.793 342.645 582.273 341.885 582.62C341.138 582.966 340.305 583.14 339.385 583.14C338.305 583.14 337.345 582.913 336.505 582.46C335.665 581.993 335.012 581.333 334.545 580.48C334.078 579.626 333.845 578.62 333.845 577.46C333.845 576.3 334.078 575.293 334.545 574.44C335.012 573.573 335.665 572.913 336.505 572.46C337.345 572.006 338.305 571.78 339.385 571.78C340.478 571.78 341.432 572.006 342.245 572.46C343.072 572.913 343.705 573.54 344.145 574.34C344.598 575.126 344.825 576.026 344.825 577.04ZM341.985 576.76C342.025 575.853 341.785 575.166 341.265 574.7C340.758 574.233 340.132 574 339.385 574C338.625 574 337.985 574.233 337.465 574.7C336.945 575.166 336.658 575.853 336.605 576.76H341.985ZM351.167 571.78C352.1 571.78 352.9 572 353.567 572.44C354.234 572.88 354.707 573.473 354.987 574.22V571.92H357.787V583H354.987V580.68C354.707 581.426 354.234 582.026 353.567 582.48C352.9 582.92 352.1 583.14 351.167 583.14C350.234 583.14 349.394 582.913 348.647 582.46C347.9 582.006 347.314 581.353 346.887 580.5C346.474 579.633 346.267 578.62 346.267 577.46C346.267 576.3 346.474 575.293 346.887 574.44C347.314 573.573 347.9 572.913 348.647 572.46C349.394 572.006 350.234 571.78 351.167 571.78ZM352.047 574.24C351.167 574.24 350.46 574.526 349.927 575.1C349.394 575.673 349.127 576.46 349.127 577.46C349.127 578.46 349.394 579.246 349.927 579.82C350.46 580.38 351.167 580.66 352.047 580.66C352.9 580.66 353.6 580.373 354.147 579.8C354.707 579.213 354.987 578.433 354.987 577.46C354.987 576.473 354.707 575.693 354.147 575.12C353.6 574.533 352.9 574.24 352.047 574.24ZM374.443 571.76C375.789 571.76 376.849 572.18 377.623 573.02C378.409 573.846 378.803 575.026 378.803 576.56V583H376.003V576.88C376.003 576.026 375.783 575.373 375.343 574.92C374.916 574.453 374.323 574.22 373.563 574.22C372.776 574.22 372.149 574.466 371.683 574.96C371.216 575.453 370.983 576.173 370.983 577.12V583H368.183V576.88C368.183 576.026 367.963 575.373 367.523 574.92C367.096 574.453 366.503 574.22 365.743 574.22C364.956 574.22 364.329 574.466 363.863 574.96C363.396 575.453 363.163 576.173 363.163 577.12V583H360.343V571.92H363.163V574.02C363.456 573.3 363.916 572.746 364.543 572.36C365.183 571.96 365.923 571.76 366.763 571.76C367.656 571.76 368.429 571.973 369.083 572.4C369.749 572.826 370.249 573.44 370.583 574.24C370.929 573.48 371.443 572.88 372.123 572.44C372.816 571.986 373.589 571.76 374.443 571.76Z" fill="white"/>
<circle cx="190" cy="432" r="8" transform="rotate(90 190 432)" fill="#0C42CD"/>
<line x1="189" y1="432.5" x2="28" y2="432.5" stroke="#0C42CD" stroke-dasharray="6.13 6.13"/>
<path d="M37.16 455.72C38.0133 455.893 38.6933 456.3 39.2 456.94C39.72 457.566 39.98 458.306 39.98 459.16C39.98 460.346 39.58 461.286 38.78 461.98C37.9933 462.66 36.8467 463 35.34 463H29.28V448.88H35.22C36.6467 448.88 37.74 449.193 38.5 449.82C39.2733 450.446 39.66 451.326 39.66 452.46C39.66 453.34 39.4267 454.06 38.96 454.62C38.5067 455.18 37.9067 455.546 37.16 455.72ZM32.1 454.8H34.64C35.3467 454.8 35.88 454.646 36.24 454.34C36.6133 454.02 36.8 453.566 36.8 452.98C36.8 452.393 36.62 451.94 36.26 451.62C35.9 451.3 35.3467 451.14 34.6 451.14H32.1V454.8ZM34.78 460.7C35.5267 460.7 36.1 460.54 36.5 460.22C36.9 459.886 37.1 459.406 37.1 458.78C37.1 458.153 36.8933 457.673 36.48 457.34C36.08 456.993 35.5067 456.82 34.76 456.82H32.1V460.7H34.78ZM52.5558 451.92V463H49.7358V460.76C49.4425 461.506 48.9558 462.093 48.2758 462.52C47.6091 462.933 46.8358 463.14 45.9558 463.14C44.6758 463.14 43.6558 462.72 42.8958 461.88C42.1358 461.04 41.7558 459.866 41.7558 458.36V451.92H44.5558V458.04C44.5558 458.92 44.7825 459.606 45.2358 460.1C45.6891 460.58 46.3025 460.82 47.0758 460.82C47.8891 460.82 48.5358 460.56 49.0158 460.04C49.4958 459.52 49.7358 458.773 49.7358 457.8V451.92H52.5558ZM54.7999 448.74C54.7999 448.286 54.9599 447.92 55.2799 447.64C55.5999 447.346 56.0199 447.2 56.5399 447.2C57.0599 447.2 57.4799 447.346 57.7999 447.64C58.1199 447.92 58.2799 448.286 58.2799 448.74C58.2799 449.18 58.1199 449.546 57.7999 449.84C57.4799 450.12 57.0599 450.26 56.5399 450.26C56.0199 450.26 55.5999 450.12 55.2799 449.84C54.9599 449.546 54.7999 449.18 54.7999 448.74ZM57.9399 451.92V463H55.1199V451.92H57.9399ZM63.3109 448.2V463H60.4909V448.2H63.3109ZM70.202 451.78C71.1354 451.78 71.9287 452 72.582 452.44C73.2487 452.88 73.7287 453.473 74.022 454.22V448.2H76.822V463H74.022V460.68C73.7287 461.426 73.2487 462.026 72.582 462.48C71.9287 462.92 71.1354 463.14 70.202 463.14C69.2687 463.14 68.4287 462.913 67.682 462.46C66.9354 462.006 66.3487 461.353 65.922 460.5C65.5087 459.633 65.302 458.62 65.302 457.46C65.302 456.3 65.5087 455.293 65.922 454.44C66.3487 453.573 66.9354 452.913 67.682 452.46C68.4287 452.006 69.2687 451.78 70.202 451.78ZM71.082 454.24C70.202 454.24 69.4954 454.526 68.962 455.1C68.4287 455.673 68.162 456.46 68.162 457.46C68.162 458.46 68.4287 459.246 68.962 459.82C69.4954 460.38 70.202 460.66 71.082 460.66C71.9354 460.66 72.6354 460.373 73.182 459.8C73.742 459.213 74.022 458.433 74.022 457.46C74.022 456.473 73.742 455.693 73.182 455.12C72.6354 454.533 71.9354 454.24 71.082 454.24ZM89.6531 460.58V463H88.1731C86.9331 463 85.9798 462.7 85.3131 462.1C84.6598 461.5 84.3331 460.5 84.3331 459.1V454.3H82.7931V451.92H84.3331V449.18H87.1531V451.92H89.6331V454.3H87.1531V459.14C87.1531 459.673 87.2598 460.046 87.4731 460.26C87.6865 460.473 88.0465 460.58 88.5531 460.58H89.6531ZM98.2824 451.76C99.5624 451.76 100.582 452.18 101.342 453.02C102.102 453.86 102.482 455.04 102.482 456.56V463H99.6824V456.88C99.6824 456 99.4557 455.32 99.0024 454.84C98.549 454.346 97.929 454.1 97.1424 454.1C96.3424 454.1 95.7024 454.36 95.2224 454.88C94.7424 455.4 94.5024 456.146 94.5024 457.12V463H91.6824V448.2H94.5024V454.14C94.7957 453.393 95.2757 452.813 95.9424 452.4C96.6224 451.973 97.4024 451.76 98.2824 451.76ZM115.384 457.04C115.384 457.32 115.35 457.64 115.284 458H107.164C107.204 458.986 107.47 459.713 107.964 460.18C108.457 460.646 109.07 460.88 109.804 460.88C110.457 460.88 110.997 460.72 111.424 460.4C111.864 460.08 112.144 459.646 112.264 459.1H115.244C115.097 459.873 114.784 460.566 114.304 461.18C113.824 461.793 113.204 462.273 112.444 462.62C111.697 462.966 110.864 463.14 109.944 463.14C108.864 463.14 107.904 462.913 107.064 462.46C106.224 461.993 105.57 461.333 105.104 460.48C104.637 459.626 104.404 458.62 104.404 457.46C104.404 456.3 104.637 455.293 105.104 454.44C105.57 453.573 106.224 452.913 107.064 452.46C107.904 452.006 108.864 451.78 109.944 451.78C111.037 451.78 111.99 452.006 112.804 452.46C113.63 452.913 114.264 453.54 114.704 454.34C115.157 455.126 115.384 456.026 115.384 457.04ZM112.544 456.76C112.584 455.853 112.344 455.166 111.824 454.7C111.317 454.233 110.69 454 109.944 454C109.184 454 108.544 454.233 108.024 454.7C107.504 455.166 107.217 455.853 107.164 456.76H112.544ZM35.9 475.78C36.8333 475.78 37.6733 476.006 38.42 476.46C39.1667 476.913 39.7467 477.573 40.16 478.44C40.5867 479.293 40.8 480.3 40.8 481.46C40.8 482.62 40.5867 483.633 40.16 484.5C39.7467 485.353 39.1667 486.006 38.42 486.46C37.6733 486.913 36.8333 487.14 35.9 487.14C34.9667 487.14 34.1667 486.92 33.5 486.48C32.8467 486.026 32.38 485.426 32.1 484.68V492.28H29.28V475.92H32.1V478.22C32.38 477.473 32.8467 476.88 33.5 476.44C34.1667 476 34.9667 475.78 35.9 475.78ZM35.02 478.24C34.1667 478.24 33.46 478.533 32.9 479.12C32.3533 479.693 32.08 480.473 32.08 481.46C32.08 482.433 32.3533 483.213 32.9 483.8C33.46 484.373 34.1667 484.66 35.02 484.66C35.9 484.66 36.6067 484.38 37.14 483.82C37.6733 483.246 37.94 482.46 37.94 481.46C37.94 480.46 37.6733 479.673 37.14 479.1C36.6067 478.526 35.9 478.24 35.02 478.24ZM45.6156 478.04C46.029 477.333 46.5756 476.78 47.2556 476.38C47.9356 475.966 48.6956 475.76 49.5356 475.76V478.78H48.7156C46.649 478.78 45.6156 479.74 45.6156 481.66V487H42.7956V475.92H45.6156V478.04ZM56.2164 475.78C57.2964 475.78 58.2631 476.006 59.1164 476.46C59.9831 476.913 60.6631 477.573 61.1564 478.44C61.6498 479.293 61.8964 480.3 61.8964 481.46C61.8964 482.62 61.6498 483.626 61.1564 484.48C60.6631 485.333 59.9831 485.993 59.1164 486.46C58.2631 486.913 57.2964 487.14 56.2164 487.14C55.1364 487.14 54.1631 486.913 53.2964 486.46C52.4431 485.993 51.7698 485.333 51.2764 484.48C50.7831 483.626 50.5364 482.62 50.5364 481.46C50.5364 480.3 50.7831 479.293 51.2764 478.44C51.7698 477.573 52.4431 476.913 53.2964 476.46C54.1631 476.006 55.1364 475.78 56.2164 475.78ZM56.2164 478.22C55.4298 478.22 54.7631 478.5 54.2164 479.06C53.6698 479.606 53.3964 480.406 53.3964 481.46C53.3964 482.513 53.6698 483.32 54.2164 483.88C54.7631 484.426 55.4298 484.7 56.2164 484.7C57.0031 484.7 57.6698 484.426 58.2164 483.88C58.7631 483.32 59.0364 482.513 59.0364 481.46C59.0364 480.406 58.7631 479.606 58.2164 479.06C57.6698 478.5 57.0031 478.22 56.2164 478.22ZM68.2294 475.78C69.1627 475.78 69.9561 476 70.6094 476.44C71.2761 476.88 71.7561 477.473 72.0494 478.22V472.2H74.8494V487H72.0494V484.68C71.7561 485.426 71.2761 486.026 70.6094 486.48C69.9561 486.92 69.1627 487.14 68.2294 487.14C67.2961 487.14 66.4561 486.913 65.7094 486.46C64.9627 486.006 64.3761 485.353 63.9494 484.5C63.5361 483.633 63.3294 482.62 63.3294 481.46C63.3294 480.3 63.5361 479.293 63.9494 478.44C64.3761 477.573 64.9627 476.913 65.7094 476.46C66.4561 476.006 67.2961 475.78 68.2294 475.78ZM69.1094 478.24C68.2294 478.24 67.5227 478.526 66.9894 479.1C66.4561 479.673 66.1894 480.46 66.1894 481.46C66.1894 482.46 66.4561 483.246 66.9894 483.82C67.5227 484.38 68.2294 484.66 69.1094 484.66C69.9627 484.66 70.6627 484.373 71.2094 483.8C71.7694 483.213 72.0494 482.433 72.0494 481.46C72.0494 480.473 71.7694 479.693 71.2094 479.12C70.6627 478.533 69.9627 478.24 69.1094 478.24ZM88.005 475.92V487H85.185V484.76C84.8917 485.506 84.405 486.093 83.725 486.52C83.0583 486.933 82.285 487.14 81.405 487.14C80.125 487.14 79.105 486.72 78.345 485.88C77.585 485.04 77.205 483.866 77.205 482.36V475.92H80.005V482.04C80.005 482.92 80.2317 483.606 80.685 484.1C81.1383 484.58 81.7517 484.82 82.525 484.82C83.3383 484.82 83.985 484.56 84.465 484.04C84.945 483.52 85.185 482.773 85.185 481.8V475.92H88.005ZM95.5491 475.78C96.9757 475.78 98.1624 476.166 99.1091 476.94C100.069 477.713 100.669 478.766 100.909 480.1H97.9291C97.8091 479.513 97.5357 479.053 97.1091 478.72C96.6824 478.373 96.1424 478.2 95.4891 478.2C94.7424 478.2 94.1157 478.48 93.6091 479.04C93.1157 479.586 92.8691 480.393 92.8691 481.46C92.8691 482.526 93.1157 483.34 93.6091 483.9C94.1157 484.446 94.7424 484.72 95.4891 484.72C96.1424 484.72 96.6824 484.553 97.1091 484.22C97.5357 483.873 97.8091 483.406 97.9291 482.82H100.909C100.669 484.153 100.069 485.206 99.1091 485.98C98.1624 486.753 96.9757 487.14 95.5491 487.14C94.4691 487.14 93.5091 486.913 92.6691 486.46C91.8291 485.993 91.1757 485.333 90.7091 484.48C90.2424 483.626 90.0091 482.62 90.0091 481.46C90.0091 480.3 90.2424 479.293 90.7091 478.44C91.1757 477.573 91.8291 476.913 92.6691 476.46C93.5091 476.006 94.4691 475.78 95.5491 475.78ZM108.833 484.58V487H107.353C106.113 487 105.159 486.7 104.493 486.1C103.839 485.5 103.513 484.5 103.513 483.1V478.3H101.973V475.92H103.513V473.18H106.333V475.92H108.813V478.3H106.333V483.14C106.333 483.673 106.439 484.046 106.653 484.26C106.866 484.473 107.226 484.58 107.733 484.58H108.833Z" fill="white"/>
<path d="M190 0L190 732" stroke="white" stroke-opacity="0.3"/>
<circle cx="190" cy="47.9999" r="8" transform="rotate(90 190 47.9999)" fill="#0C42CD"/>
<circle cx="190" cy="144" r="8" transform="rotate(90 190 144)" fill="#0C42CD"/>
<circle cx="190" cy="240" r="8" transform="rotate(90 190 240)" fill="#0C42CD"/>
<circle cx="190" cy="336" r="8" transform="rotate(90 190 336)" fill="#0C42CD"/>
<path d="M4.1 64.8795V78.9995H1.28V64.8795H4.1ZM10.9911 67.7795C11.9244 67.7795 12.7178 67.9995 13.3711 68.4395C14.0378 68.8795 14.5178 69.4728 14.8111 70.2195V64.1995H17.6111V78.9995H14.8111V76.6795C14.5178 77.4262 14.0378 78.0262 13.3711 78.4795C12.7178 78.9195 11.9244 79.1395 10.9911 79.1395C10.0578 79.1395 9.21776 78.9128 8.47109 78.4595C7.72443 78.0062 7.13776 77.3528 6.71109 76.4995C6.29776 75.6328 6.09109 74.6195 6.09109 73.4595C6.09109 72.2995 6.29776 71.2928 6.71109 70.4395C7.13776 69.5728 7.72443 68.9128 8.47109 68.4595C9.21776 68.0062 10.0578 67.7795 10.9911 67.7795ZM11.8711 70.2395C10.9911 70.2395 10.2844 70.5262 9.75109 71.0995C9.21776 71.6728 8.95109 72.4595 8.95109 73.4595C8.95109 74.4595 9.21776 75.2462 9.75109 75.8195C10.2844 76.3795 10.9911 76.6595 11.8711 76.6595C12.7244 76.6595 13.4244 76.3728 13.9711 75.7995C14.5311 75.2128 14.8111 74.4328 14.8111 73.4595C14.8111 72.4728 14.5311 71.6928 13.9711 71.1195C13.4244 70.5328 12.7244 70.2395 11.8711 70.2395ZM30.5867 73.0395C30.5867 73.3195 30.5534 73.6395 30.4867 73.9995H22.3667C22.4067 74.9862 22.6734 75.7128 23.1667 76.1795C23.6601 76.6462 24.2734 76.8795 25.0067 76.8795C25.6601 76.8795 26.2001 76.7195 26.6267 76.3995C27.0667 76.0795 27.3467 75.6462 27.4667 75.0995H30.4467C30.3001 75.8728 29.9867 76.5662 29.5067 77.1795C29.0267 77.7928 28.4067 78.2728 27.6467 78.6195C26.9001 78.9662 26.0667 79.1395 25.1467 79.1395C24.0667 79.1395 23.1067 78.9128 22.2667 78.4595C21.4267 77.9928 20.7734 77.3328 20.3067 76.4795C19.8401 75.6262 19.6067 74.6195 19.6067 73.4595C19.6067 72.2995 19.8401 71.2928 20.3067 70.4395C20.7734 69.5728 21.4267 68.9128 22.2667 68.4595C23.1067 68.0062 24.0667 67.7795 25.1467 67.7795C26.2401 67.7795 27.1934 68.0062 28.0067 68.4595C28.8334 68.9128 29.4667 69.5395 29.9067 70.3395C30.3601 71.1262 30.5867 72.0262 30.5867 73.0395ZM27.7467 72.7595C27.7867 71.8528 27.5467 71.1662 27.0267 70.6995C26.5201 70.2328 25.8934 69.9995 25.1467 69.9995C24.3867 69.9995 23.7467 70.2328 23.2267 70.6995C22.7067 71.1662 22.4201 71.8528 22.3667 72.7595H27.7467ZM39.1886 67.7595C40.4686 67.7595 41.4886 68.1795 42.2486 69.0195C43.0086 69.8595 43.3886 71.0395 43.3886 72.5595V78.9995H40.5886V72.8795C40.5886 71.9995 40.3619 71.3195 39.9086 70.8395C39.4553 70.3462 38.8353 70.0995 38.0486 70.0995C37.2486 70.0995 36.6086 70.3595 36.1286 70.8795C35.6486 71.3995 35.4086 72.1462 35.4086 73.1195V78.9995H32.5886V67.9195H35.4086V70.1395C35.7019 69.3928 36.1819 68.8128 36.8486 68.3995C37.5286 67.9728 38.3086 67.7595 39.1886 67.7595ZM51.7898 76.5795V78.9995H50.3098C49.0698 78.9995 48.1165 78.6995 47.4498 78.0995C46.7965 77.4995 46.4698 76.4995 46.4698 75.0995V70.2995H44.9298V67.9195H46.4698V65.1795H49.2898V67.9195H51.7698V70.2995H49.2898V75.1395C49.2898 75.6728 49.3965 76.0462 49.6098 76.2595C49.8232 76.4728 50.1832 76.5795 50.6898 76.5795H51.7898ZM53.4991 64.7395C53.4991 64.2862 53.6591 63.9195 53.9791 63.6395C54.2991 63.3462 54.7191 63.1995 55.2391 63.1995C55.7591 63.1995 56.1791 63.3462 56.4991 63.6395C56.8191 63.9195 56.9791 64.2862 56.9791 64.7395C56.9791 65.1795 56.8191 65.5462 56.4991 65.8395C56.1791 66.1195 55.7591 66.2595 55.2391 66.2595C54.7191 66.2595 54.2991 66.1195 53.9791 65.8395C53.6591 65.5462 53.4991 65.1795 53.4991 64.7395ZM56.6391 67.9195V78.9995H53.8191V67.9195H56.6391ZM64.6702 65.9995C63.8435 65.9462 63.2635 66.0662 62.9302 66.3595C62.5968 66.6528 62.4302 67.1662 62.4302 67.8995V67.9195H64.6702V70.2995H62.4302V78.9995H59.6102V70.2995H58.1902V67.9195H59.6102V67.6595C59.6102 66.3395 59.9835 65.3262 60.7302 64.6195C61.4902 63.8995 62.6102 63.5395 64.0902 63.5395C64.3435 63.5395 64.5368 63.5462 64.6702 63.5595V65.9995ZM68.2581 67.9195L71.2781 75.4395L74.0781 67.9195H77.1781L70.3981 84.2795H67.2781L69.7781 78.6795L65.1181 67.9195H68.2581ZM3.18 91.9195L6.2 99.4395L9 91.9195H12.1L5.32 108.28H2.2L4.7 102.68L0.04 91.9195H3.18ZM18.5484 91.7795C19.6284 91.7795 20.5951 92.0062 21.4484 92.4595C22.3151 92.9128 22.9951 93.5728 23.4884 94.4395C23.9818 95.2928 24.2284 96.2995 24.2284 97.4595C24.2284 98.6195 23.9818 99.6262 23.4884 100.48C22.9951 101.333 22.3151 101.993 21.4484 102.46C20.5951 102.913 19.6284 103.14 18.5484 103.14C17.4684 103.14 16.4951 102.913 15.6284 102.46C14.7751 101.993 14.1018 101.333 13.6084 100.48C13.1151 99.6262 12.8684 98.6195 12.8684 97.4595C12.8684 96.2995 13.1151 95.2928 13.6084 94.4395C14.1018 93.5728 14.7751 92.9128 15.6284 92.4595C16.4951 92.0062 17.4684 91.7795 18.5484 91.7795ZM18.5484 94.2195C17.7618 94.2195 17.0951 94.4995 16.5484 95.0595C16.0018 95.6062 15.7284 96.4062 15.7284 97.4595C15.7284 98.5128 16.0018 99.3195 16.5484 99.8795C17.0951 100.426 17.7618 100.7 18.5484 100.7C19.3351 100.7 20.0018 100.426 20.5484 99.8795C21.0951 99.3195 21.3684 98.5128 21.3684 97.4595C21.3684 96.4062 21.0951 95.6062 20.5484 95.0595C20.0018 94.4995 19.3351 94.2195 18.5484 94.2195ZM36.8214 91.9195V103H34.0014V100.76C33.7081 101.506 33.2214 102.093 32.5414 102.52C31.8747 102.933 31.1014 103.14 30.2214 103.14C28.9414 103.14 27.9214 102.72 27.1614 101.88C26.4014 101.04 26.0214 99.8662 26.0214 98.3595V91.9195H28.8214V98.0395C28.8214 98.9195 29.0481 99.6062 29.5014 100.1C29.9547 100.58 30.5681 100.82 31.3414 100.82C32.1547 100.82 32.8014 100.56 33.2814 100.04C33.7614 99.5195 34.0014 98.7728 34.0014 97.7995V91.9195H36.8214ZM42.2055 94.0395C42.6188 93.3328 43.1655 92.7795 43.8455 92.3795C44.5255 91.9662 45.2855 91.7595 46.1255 91.7595V94.7795H45.3055C43.2388 94.7795 42.2055 95.7395 42.2055 97.6595V103H39.3855V91.9195H42.2055V94.0395ZM58.6417 91.7595C59.9217 91.7595 60.9417 92.1795 61.7017 93.0195C62.4617 93.8595 62.8417 95.0395 62.8417 96.5595V103H60.0417V96.8795C60.0417 95.9995 59.8151 95.3195 59.3617 94.8395C58.9084 94.3462 58.2884 94.0995 57.5017 94.0995C56.7017 94.0995 56.0617 94.3595 55.5817 94.8795C55.1017 95.3995 54.8617 96.1462 54.8617 97.1195V103H52.0417V91.9195H54.8617V94.1395C55.1551 93.3928 55.6351 92.8128 56.3017 92.3995C56.9817 91.9728 57.7617 91.7595 58.6417 91.7595ZM75.743 97.0395C75.743 97.3195 75.7096 97.6395 75.643 97.9995H67.523C67.563 98.9862 67.8296 99.7128 68.323 100.18C68.8163 100.646 69.4296 100.88 70.163 100.88C70.8163 100.88 71.3563 100.72 71.783 100.4C72.223 100.08 72.503 99.6462 72.623 99.0995H75.603C75.4563 99.8728 75.143 100.566 74.663 101.18C74.183 101.793 73.563 102.273 72.803 102.62C72.0563 102.966 71.223 103.14 70.303 103.14C69.223 103.14 68.263 102.913 67.423 102.46C66.583 101.993 65.9296 101.333 65.463 100.48C64.9963 99.6262 64.763 98.6195 64.763 97.4595C64.763 96.2995 64.9963 95.2928 65.463 94.4395C65.9296 93.5728 66.583 92.9128 67.423 92.4595C68.263 92.0062 69.223 91.7795 70.303 91.7795C71.3963 91.7795 72.3496 92.0062 73.163 92.4595C73.9896 92.9128 74.623 93.5395 75.063 94.3395C75.5163 95.1262 75.743 96.0262 75.743 97.0395ZM72.903 96.7595C72.943 95.8528 72.703 95.1662 72.183 94.6995C71.6763 94.2328 71.0496 93.9995 70.303 93.9995C69.543 93.9995 68.903 94.2328 68.383 94.6995C67.863 95.1662 67.5763 95.8528 67.523 96.7595H72.903ZM88.1648 97.0395C88.1648 97.3195 88.1315 97.6395 88.0648 97.9995H79.9448C79.9848 98.9862 80.2515 99.7128 80.7448 100.18C81.2382 100.646 81.8515 100.88 82.5848 100.88C83.2382 100.88 83.7782 100.72 84.2048 100.4C84.6448 100.08 84.9248 99.6462 85.0448 99.0995H88.0248C87.8782 99.8728 87.5648 100.566 87.0848 101.18C86.6048 101.793 85.9848 102.273 85.2248 102.62C84.4782 102.966 83.6448 103.14 82.7248 103.14C81.6448 103.14 80.6848 102.913 79.8448 102.46C79.0048 101.993 78.3515 101.333 77.8848 100.48C77.4182 99.6262 77.1848 98.6195 77.1848 97.4595C77.1848 96.2995 77.4182 95.2928 77.8848 94.4395C78.3515 93.5728 79.0048 92.9128 79.8448 92.4595C80.6848 92.0062 81.6448 91.7795 82.7248 91.7795C83.8182 91.7795 84.7715 92.0062 85.5848 92.4595C86.4115 92.9128 87.0448 93.5395 87.4848 94.3395C87.9382 95.1262 88.1648 96.0262 88.1648 97.0395ZM85.3248 96.7595C85.3648 95.8528 85.1248 95.1662 84.6048 94.6995C84.0982 94.2328 83.4715 93.9995 82.7248 93.9995C81.9648 93.9995 81.3248 94.2328 80.8048 94.6995C80.2848 95.1662 79.9982 95.8528 79.9448 96.7595H85.3248ZM94.5067 91.7795C95.4401 91.7795 96.2334 91.9995 96.8867 92.4395C97.5534 92.8795 98.0334 93.4728 98.3267 94.2195V88.1995H101.127V103H98.3267V100.68C98.0334 101.426 97.5534 102.026 96.8867 102.48C96.2334 102.92 95.4401 103.14 94.5067 103.14C93.5734 103.14 92.7334 102.913 91.9867 102.46C91.2401 102.006 90.6534 101.353 90.2267 100.5C89.8134 99.6328 89.6067 98.6195 89.6067 97.4595C89.6067 96.2995 89.8134 95.2928 90.2267 94.4395C90.6534 93.5728 91.2401 92.9128 91.9867 92.4595C92.7334 92.0062 93.5734 91.7795 94.5067 91.7795ZM95.3867 94.2395C94.5067 94.2395 93.8001 94.5262 93.2667 95.0995C92.7334 95.6728 92.4667 96.4595 92.4667 97.4595C92.4667 98.4595 92.7334 99.2462 93.2667 99.8195C93.8001 100.38 94.5067 100.66 95.3867 100.66C96.2401 100.66 96.9401 100.373 97.4867 99.7995C98.0467 99.2128 98.3267 98.4328 98.3267 97.4595C98.3267 96.4728 98.0467 95.6928 97.4867 95.1195C96.9401 94.5328 96.2401 94.2395 95.3867 94.2395ZM107.502 91.7795C108.849 91.7795 109.929 92.1195 110.742 92.7995C111.556 93.4795 112.062 94.3862 112.262 95.5195H109.622C109.516 94.9862 109.276 94.5595 108.902 94.2395C108.529 93.9195 108.042 93.7595 107.442 93.7595C106.962 93.7595 106.589 93.8728 106.322 94.0995C106.056 94.3262 105.922 94.6328 105.922 95.0195C105.922 95.3262 106.029 95.5728 106.242 95.7595C106.456 95.9462 106.722 96.0928 107.042 96.1995C107.362 96.3062 107.822 96.4328 108.422 96.5795C109.262 96.7662 109.942 96.9662 110.462 97.1795C110.996 97.3795 111.449 97.7062 111.822 98.1595C112.209 98.5995 112.402 99.1995 112.402 99.9595C112.402 100.906 112.029 101.673 111.282 102.26C110.549 102.846 109.556 103.14 108.302 103.14C106.862 103.14 105.709 102.82 104.842 102.18C103.976 101.526 103.449 100.6 103.262 99.3995H105.962C106.029 99.9462 106.269 100.38 106.682 100.7C107.096 101.006 107.636 101.16 108.302 101.16C108.782 101.16 109.149 101.046 109.402 100.82C109.656 100.58 109.782 100.273 109.782 99.8995C109.782 99.5795 109.669 99.3195 109.442 99.1195C109.229 98.9195 108.956 98.7662 108.622 98.6595C108.302 98.5528 107.842 98.4262 107.242 98.2795C106.416 98.0928 105.742 97.9062 105.222 97.7195C104.716 97.5195 104.276 97.2062 103.902 96.7795C103.542 96.3528 103.362 95.7662 103.362 95.0195C103.362 94.0595 103.729 93.2795 104.462 92.6795C105.196 92.0795 106.209 91.7795 107.502 91.7795Z" fill="white"/>
<path d="M257.344 167.72C258.197 167.893 258.877 168.3 259.384 168.94C259.904 169.567 260.164 170.307 260.164 171.16C260.164 172.347 259.764 173.287 258.964 173.98C258.177 174.66 257.03 175 255.524 175H249.464V160.88H255.404C256.83 160.88 257.924 161.193 258.684 161.82C259.457 162.447 259.844 163.327 259.844 164.46C259.844 165.34 259.61 166.06 259.144 166.62C258.69 167.18 258.09 167.547 257.344 167.72ZM252.284 166.8H254.824C255.53 166.8 256.064 166.647 256.424 166.34C256.797 166.02 256.984 165.567 256.984 164.98C256.984 164.393 256.804 163.94 256.444 163.62C256.084 163.3 255.53 163.14 254.784 163.14H252.284V166.8ZM254.964 172.7C255.71 172.7 256.284 172.54 256.684 172.22C257.084 171.887 257.284 171.407 257.284 170.78C257.284 170.153 257.077 169.673 256.664 169.34C256.264 168.993 255.69 168.82 254.944 168.82H252.284V172.7H254.964ZM264.959 166.04C265.373 165.333 265.919 164.78 266.599 164.38C267.279 163.967 268.039 163.76 268.879 163.76V166.78H268.059C265.993 166.78 264.959 167.74 264.959 169.66V175H262.139V163.92H264.959V166.04ZM274.78 163.78C275.713 163.78 276.513 164 277.18 164.44C277.847 164.88 278.32 165.473 278.6 166.22V163.92H281.4V175H278.6V172.68C278.32 173.427 277.847 174.027 277.18 174.48C276.513 174.92 275.713 175.14 274.78 175.14C273.847 175.14 273.007 174.913 272.26 174.46C271.513 174.007 270.927 173.353 270.5 172.5C270.087 171.633 269.88 170.62 269.88 169.46C269.88 168.3 270.087 167.293 270.5 166.44C270.927 165.573 271.513 164.913 272.26 164.46C273.007 164.007 273.847 163.78 274.78 163.78ZM275.66 166.24C274.78 166.24 274.073 166.527 273.54 167.1C273.007 167.673 272.74 168.46 272.74 169.46C272.74 170.46 273.007 171.247 273.54 171.82C274.073 172.38 274.78 172.66 275.66 172.66C276.513 172.66 277.213 172.373 277.76 171.8C278.32 171.213 278.6 170.433 278.6 169.46C278.6 168.473 278.32 167.693 277.76 167.12C277.213 166.533 276.513 166.24 275.66 166.24ZM283.636 160.74C283.636 160.287 283.796 159.92 284.116 159.64C284.436 159.347 284.856 159.2 285.376 159.2C285.896 159.2 286.316 159.347 286.636 159.64C286.956 159.92 287.116 160.287 287.116 160.74C287.116 161.18 286.956 161.547 286.636 161.84C286.316 162.12 285.896 162.26 285.376 162.26C284.856 162.26 284.436 162.12 284.116 161.84C283.796 161.547 283.636 161.18 283.636 160.74ZM286.776 163.92V175H283.956V163.92H286.776ZM295.927 163.76C297.207 163.76 298.227 164.18 298.987 165.02C299.747 165.86 300.127 167.04 300.127 168.56V175H297.327V168.88C297.327 168 297.1 167.32 296.647 166.84C296.194 166.347 295.574 166.1 294.787 166.1C293.987 166.1 293.347 166.36 292.867 166.88C292.387 167.4 292.147 168.147 292.147 169.12V175H289.327V163.92H292.147V166.14C292.44 165.393 292.92 164.813 293.587 164.4C294.267 163.973 295.047 163.76 295.927 163.76ZM306.428 163.78C307.775 163.78 308.855 164.12 309.668 164.8C310.481 165.48 310.988 166.387 311.188 167.52H308.548C308.441 166.987 308.201 166.56 307.828 166.24C307.455 165.92 306.968 165.76 306.368 165.76C305.888 165.76 305.515 165.873 305.248 166.1C304.981 166.327 304.848 166.633 304.848 167.02C304.848 167.327 304.955 167.573 305.168 167.76C305.381 167.947 305.648 168.093 305.968 168.2C306.288 168.307 306.748 168.433 307.348 168.58C308.188 168.767 308.868 168.967 309.388 169.18C309.921 169.38 310.375 169.707 310.748 170.16C311.135 170.6 311.328 171.2 311.328 171.96C311.328 172.907 310.955 173.673 310.208 174.26C309.475 174.847 308.481 175.14 307.228 175.14C305.788 175.14 304.635 174.82 303.768 174.18C302.901 173.527 302.375 172.6 302.188 171.4H304.888C304.955 171.947 305.195 172.38 305.608 172.7C306.021 173.007 306.561 173.16 307.228 173.16C307.708 173.16 308.075 173.047 308.328 172.82C308.581 172.58 308.708 172.273 308.708 171.9C308.708 171.58 308.595 171.32 308.368 171.12C308.155 170.92 307.881 170.767 307.548 170.66C307.228 170.553 306.768 170.427 306.168 170.28C305.341 170.093 304.668 169.907 304.148 169.72C303.641 169.52 303.201 169.207 302.828 168.78C302.468 168.353 302.288 167.767 302.288 167.02C302.288 166.06 302.655 165.28 303.388 164.68C304.121 164.08 305.135 163.78 306.428 163.78ZM319.348 172.58V175H317.868C316.628 175 315.675 174.7 315.008 174.1C314.355 173.5 314.028 172.5 314.028 171.1V166.3H312.488V163.92H314.028V161.18H316.848V163.92H319.328V166.3H316.848V171.14C316.848 171.673 316.955 172.047 317.168 172.26C317.382 172.473 317.742 172.58 318.248 172.58H319.348ZM326.498 163.78C327.578 163.78 328.544 164.007 329.398 164.46C330.264 164.913 330.944 165.573 331.438 166.44C331.931 167.293 332.178 168.3 332.178 169.46C332.178 170.62 331.931 171.627 331.438 172.48C330.944 173.333 330.264 173.993 329.398 174.46C328.544 174.913 327.578 175.14 326.498 175.14C325.418 175.14 324.444 174.913 323.578 174.46C322.724 173.993 322.051 173.333 321.558 172.48C321.064 171.627 320.818 170.62 320.818 169.46C320.818 168.3 321.064 167.293 321.558 166.44C322.051 165.573 322.724 164.913 323.578 164.46C324.444 164.007 325.418 163.78 326.498 163.78ZM326.498 166.22C325.711 166.22 325.044 166.5 324.498 167.06C323.951 167.607 323.678 168.407 323.678 169.46C323.678 170.513 323.951 171.32 324.498 171.88C325.044 172.427 325.711 172.7 326.498 172.7C327.284 172.7 327.951 172.427 328.498 171.88C329.044 171.32 329.318 170.513 329.318 169.46C329.318 168.407 329.044 167.607 328.498 167.06C327.951 166.5 327.284 166.22 326.498 166.22ZM336.991 166.04C337.404 165.333 337.951 164.78 338.631 164.38C339.311 163.967 340.071 163.76 340.911 163.76V166.78H340.091C338.024 166.78 336.991 167.74 336.991 169.66V175H334.171V163.92H336.991V166.04ZM356.571 163.76C357.918 163.76 358.978 164.18 359.751 165.02C360.538 165.847 360.931 167.027 360.931 168.56V175H358.131V168.88C358.131 168.027 357.911 167.373 357.471 166.92C357.045 166.453 356.451 166.22 355.691 166.22C354.905 166.22 354.278 166.467 353.811 166.96C353.345 167.453 353.111 168.173 353.111 169.12V175H350.311V168.88C350.311 168.027 350.091 167.373 349.651 166.92C349.225 166.453 348.631 166.22 347.871 166.22C347.085 166.22 346.458 166.467 345.991 166.96C345.525 167.453 345.291 168.173 345.291 169.12V175H342.471V163.92H345.291V166.02C345.585 165.3 346.045 164.747 346.671 164.36C347.311 163.96 348.051 163.76 348.891 163.76C349.785 163.76 350.558 163.973 351.211 164.4C351.878 164.827 352.378 165.44 352.711 166.24C353.058 165.48 353.571 164.88 354.251 164.44C354.945 163.987 355.718 163.76 356.571 163.76ZM372.104 163.78C373.038 163.78 373.838 164 374.504 164.44C375.171 164.88 375.644 165.473 375.924 166.22V163.92H378.724V175H375.924V172.68C375.644 173.427 375.171 174.027 374.504 174.48C373.838 174.92 373.038 175.14 372.104 175.14C371.171 175.14 370.331 174.913 369.584 174.46C368.838 174.007 368.251 173.353 367.824 172.5C367.411 171.633 367.204 170.62 367.204 169.46C367.204 168.3 367.411 167.293 367.824 166.44C368.251 165.573 368.838 164.913 369.584 164.46C370.331 164.007 371.171 163.78 372.104 163.78ZM372.984 166.24C372.104 166.24 371.398 166.527 370.864 167.1C370.331 167.673 370.064 168.46 370.064 169.46C370.064 170.46 370.331 171.247 370.864 171.82C371.398 172.38 372.104 172.66 372.984 172.66C373.838 172.66 374.538 172.373 375.084 171.8C375.644 171.213 375.924 170.433 375.924 169.46C375.924 168.473 375.644 167.693 375.084 167.12C374.538 166.533 373.838 166.24 372.984 166.24ZM303.557 187.78C304.904 187.78 305.984 188.12 306.797 188.8C307.61 189.48 308.117 190.387 308.317 191.52H305.677C305.57 190.987 305.33 190.56 304.957 190.24C304.584 189.92 304.097 189.76 303.497 189.76C303.017 189.76 302.644 189.873 302.377 190.1C302.11 190.327 301.977 190.633 301.977 191.02C301.977 191.327 302.084 191.573 302.297 191.76C302.51 191.947 302.777 192.093 303.097 192.2C303.417 192.307 303.877 192.433 304.477 192.58C305.317 192.767 305.997 192.967 306.517 193.18C307.05 193.38 307.504 193.707 307.877 194.16C308.264 194.6 308.457 195.2 308.457 195.96C308.457 196.907 308.084 197.673 307.337 198.26C306.604 198.847 305.61 199.14 304.357 199.14C302.917 199.14 301.764 198.82 300.897 198.18C300.03 197.527 299.504 196.6 299.317 195.4H302.017C302.084 195.947 302.324 196.38 302.737 196.7C303.15 197.007 303.69 197.16 304.357 197.16C304.837 197.16 305.204 197.047 305.457 196.82C305.71 196.58 305.837 196.273 305.837 195.9C305.837 195.58 305.724 195.32 305.497 195.12C305.284 194.92 305.01 194.767 304.677 194.66C304.357 194.553 303.897 194.427 303.297 194.28C302.47 194.093 301.797 193.907 301.277 193.72C300.77 193.52 300.33 193.207 299.957 192.78C299.597 192.353 299.417 191.767 299.417 191.02C299.417 190.06 299.784 189.28 300.517 188.68C301.25 188.08 302.264 187.78 303.557 187.78ZM315.677 187.78C316.757 187.78 317.724 188.007 318.577 188.46C319.444 188.913 320.124 189.573 320.617 190.44C321.111 191.293 321.357 192.3 321.357 193.46C321.357 194.62 321.111 195.627 320.617 196.48C320.124 197.333 319.444 197.993 318.577 198.46C317.724 198.913 316.757 199.14 315.677 199.14C314.597 199.14 313.624 198.913 312.757 198.46C311.904 197.993 311.231 197.333 310.737 196.48C310.244 195.627 309.997 194.62 309.997 193.46C309.997 192.3 310.244 191.293 310.737 190.44C311.231 189.573 311.904 188.913 312.757 188.46C313.624 188.007 314.597 187.78 315.677 187.78ZM315.677 190.22C314.891 190.22 314.224 190.5 313.677 191.06C313.131 191.607 312.857 192.407 312.857 193.46C312.857 194.513 313.131 195.32 313.677 195.88C314.224 196.427 314.891 196.7 315.677 196.7C316.464 196.7 317.131 196.427 317.677 195.88C318.224 195.32 318.497 194.513 318.497 193.46C318.497 192.407 318.224 191.607 317.677 191.06C317.131 190.5 316.464 190.22 315.677 190.22ZM326.17 184.2V199H323.35V184.2H326.17ZM339.321 187.92V199H336.501V196.76C336.208 197.507 335.721 198.093 335.041 198.52C334.375 198.933 333.601 199.14 332.721 199.14C331.441 199.14 330.421 198.72 329.661 197.88C328.901 197.04 328.521 195.867 328.521 194.36V187.92H331.321V194.04C331.321 194.92 331.548 195.607 332.001 196.1C332.455 196.58 333.068 196.82 333.841 196.82C334.655 196.82 335.301 196.56 335.781 196.04C336.261 195.52 336.501 194.773 336.501 193.8V187.92H339.321ZM347.805 196.58V199H346.325C345.085 199 344.132 198.7 343.465 198.1C342.812 197.5 342.485 196.5 342.485 195.1V190.3H340.945V187.92H342.485V185.18H345.305V187.92H347.785V190.3H345.305V195.14C345.305 195.673 345.412 196.047 345.625 196.26C345.839 196.473 346.199 196.58 346.705 196.58H347.805ZM349.515 184.74C349.515 184.287 349.675 183.92 349.995 183.64C350.315 183.347 350.735 183.2 351.255 183.2C351.775 183.2 352.195 183.347 352.515 183.64C352.835 183.92 352.995 184.287 352.995 184.74C352.995 185.18 352.835 185.547 352.515 185.84C352.195 186.12 351.775 186.26 351.255 186.26C350.735 186.26 350.315 186.12 349.995 185.84C349.675 185.547 349.515 185.18 349.515 184.74ZM352.655 187.92V199H349.835V187.92H352.655ZM360.326 187.78C361.406 187.78 362.372 188.007 363.226 188.46C364.092 188.913 364.772 189.573 365.266 190.44C365.759 191.293 366.006 192.3 366.006 193.46C366.006 194.62 365.759 195.627 365.266 196.48C364.772 197.333 364.092 197.993 363.226 198.46C362.372 198.913 361.406 199.14 360.326 199.14C359.246 199.14 358.272 198.913 357.406 198.46C356.552 197.993 355.879 197.333 355.386 196.48C354.892 195.627 354.646 194.62 354.646 193.46C354.646 192.3 354.892 191.293 355.386 190.44C355.879 189.573 356.552 188.913 357.406 188.46C358.272 188.007 359.246 187.78 360.326 187.78ZM360.326 190.22C359.539 190.22 358.872 190.5 358.326 191.06C357.779 191.607 357.506 192.407 357.506 193.46C357.506 194.513 357.779 195.32 358.326 195.88C358.872 196.427 359.539 196.7 360.326 196.7C361.112 196.7 361.779 196.427 362.326 195.88C362.872 195.32 363.146 194.513 363.146 193.46C363.146 192.407 362.872 191.607 362.326 191.06C361.779 190.5 361.112 190.22 360.326 190.22ZM374.599 187.76C375.879 187.76 376.899 188.18 377.659 189.02C378.419 189.86 378.799 191.04 378.799 192.56V199H375.999V192.88C375.999 192 375.772 191.32 375.319 190.84C374.865 190.347 374.245 190.1 373.459 190.1C372.659 190.1 372.019 190.36 371.539 190.88C371.059 191.4 370.819 192.147 370.819 193.12V199H367.999V187.92H370.819V190.14C371.112 189.393 371.592 188.813 372.259 188.4C372.939 187.973 373.719 187.76 374.599 187.76Z" fill="white"/>
<line x1="189" y1="143.5" x2="380" y2="143.5" stroke="#0C42CD" stroke-dasharray="6.13 6.13"/>
<line x1="189" y1="335.5" x2="324" y2="335.5" stroke="#0C42CD" stroke-dasharray="6.13 6.13"/>
<line x1="189" y1="48.4999" x2="-3.05613e-05" y2="48.4999" stroke="#0C42CD" stroke-dasharray="6.13 6.13"/>
<line x1="189" y1="240.5" x2="56" y2="240.5" stroke="#0C42CD" stroke-dasharray="6.13 6.13"/>
<path d="M69.7 263.92C69.7 265.32 69.4067 266.553 68.82 267.62C68.2333 268.686 67.38 269.52 66.26 270.12C65.1533 270.706 63.8333 271 62.3 271H57.28V256.88H62.3C63.8333 256.88 65.1533 257.173 66.26 257.76C67.38 258.333 68.2333 259.153 68.82 260.22C69.4067 261.273 69.7 262.506 69.7 263.92ZM62.06 268.48C63.58 268.48 64.7533 268.08 65.58 267.28C66.42 266.48 66.84 265.36 66.84 263.92C66.84 262.466 66.42 261.34 65.58 260.54C64.7533 259.74 63.58 259.34 62.06 259.34H60.1V268.48H62.06ZM76.9312 259.78C78.0112 259.78 78.9779 260.006 79.8312 260.46C80.6979 260.913 81.3779 261.573 81.8712 262.44C82.3646 263.293 82.6112 264.3 82.6112 265.46C82.6112 266.62 82.3646 267.626 81.8712 268.48C81.3779 269.333 80.6979 269.993 79.8312 270.46C78.9779 270.913 78.0112 271.14 76.9312 271.14C75.8512 271.14 74.8779 270.913 74.0112 270.46C73.1579 269.993 72.4846 269.333 71.9912 268.48C71.4979 267.626 71.2512 266.62 71.2512 265.46C71.2512 264.3 71.4979 263.293 71.9912 262.44C72.4846 261.573 73.1579 260.913 74.0112 260.46C74.8779 260.006 75.8512 259.78 76.9312 259.78ZM76.9312 262.22C76.1446 262.22 75.4779 262.5 74.9312 263.06C74.3846 263.606 74.1112 264.406 74.1112 265.46C74.1112 266.513 74.3846 267.32 74.9312 267.88C75.4779 268.426 76.1446 268.7 76.9312 268.7C77.7179 268.7 78.3846 268.426 78.9312 267.88C79.4779 267.32 79.7512 266.513 79.7512 265.46C79.7512 264.406 79.4779 263.606 78.9312 263.06C78.3846 262.5 77.7179 262.22 76.9312 262.22ZM96.3197 271L93.0197 265.5H91.7797V271H88.9597V256.88H94.3397C95.9797 256.88 97.2263 257.28 98.0797 258.08C98.9463 258.88 99.3797 259.933 99.3797 261.24C99.3797 262.306 99.0797 263.2 98.4797 263.92C97.893 264.64 97.0397 265.12 95.9197 265.36L99.4397 271H96.3197ZM91.7797 263.56H94.0997C95.713 263.56 96.5197 262.846 96.5197 261.42C96.5197 260.74 96.3197 260.213 95.9197 259.84C95.533 259.453 94.9263 259.26 94.0997 259.26H91.7797V263.56ZM110.864 271L108.704 268.48C108.597 268.746 108.504 268.953 108.424 269.1C108.184 269.713 107.764 270.206 107.164 270.58C106.564 270.953 105.864 271.14 105.064 271.14C104.171 271.14 103.384 270.953 102.704 270.58C102.037 270.206 101.524 269.7 101.164 269.06C100.804 268.406 100.624 267.666 100.624 266.84C100.624 266.026 100.777 265.313 101.084 264.7C101.404 264.086 101.831 263.613 102.364 263.28C102.911 262.933 103.517 262.746 104.184 262.72L103.944 262.36C103.677 261.986 103.471 261.62 103.324 261.26C103.177 260.886 103.104 260.473 103.104 260.02C103.104 259.446 103.251 258.913 103.544 258.42C103.851 257.913 104.297 257.506 104.884 257.2C105.484 256.893 106.197 256.74 107.024 256.74C108.211 256.74 109.124 257.006 109.764 257.54C110.417 258.073 110.837 258.76 111.024 259.6C111.157 260 111.224 260.426 111.224 260.88L111.204 261.26H108.584C108.584 260.926 108.571 260.7 108.544 260.58C108.531 260.1 108.397 259.733 108.144 259.48C107.891 259.213 107.537 259.08 107.084 259.08C106.671 259.08 106.344 259.2 106.104 259.44C105.864 259.68 105.744 259.973 105.744 260.32C105.744 260.626 105.804 260.893 105.924 261.12C106.044 261.346 106.244 261.626 106.524 261.96L113.704 271H110.864ZM105.084 268.78C105.657 268.78 106.124 268.606 106.484 268.26C106.857 267.9 107.044 267.44 107.044 266.88C107.044 266.293 106.831 265.806 106.404 265.42C105.991 265.033 105.497 264.84 104.924 264.84C104.377 264.84 103.924 265.006 103.564 265.34C103.217 265.673 103.044 266.146 103.044 266.76C103.044 267.373 103.237 267.866 103.624 268.24C104.024 268.6 104.511 268.78 105.084 268.78ZM127.493 263.92C127.493 265.32 127.2 266.553 126.613 267.62C126.026 268.686 125.173 269.52 124.053 270.12C122.946 270.706 121.626 271 120.093 271H115.073V256.88H120.093C121.626 256.88 122.946 257.173 124.053 257.76C125.173 258.333 126.026 259.153 126.613 260.22C127.2 261.273 127.493 262.506 127.493 263.92ZM119.853 268.48C121.373 268.48 122.546 268.08 123.373 267.28C124.213 266.48 124.633 265.36 124.633 263.92C124.633 262.466 124.213 261.34 123.373 260.54C122.546 259.74 121.373 259.34 119.853 259.34H117.893V268.48H119.853Z" fill="white"/>
<path d="M244.004 352.74C245.764 352.74 247.224 353.193 248.384 354.1C249.544 355.006 250.31 356.24 250.684 357.8H247.724C247.417 357.04 246.937 356.44 246.284 356C245.644 355.56 244.87 355.34 243.964 355.34C243.217 355.34 242.544 355.526 241.944 355.9C241.344 356.273 240.877 356.806 240.544 357.5C240.21 358.193 240.044 359.006 240.044 359.94C240.044 360.86 240.21 361.666 240.544 362.36C240.877 363.053 241.344 363.586 241.944 363.96C242.544 364.333 243.217 364.52 243.964 364.52C244.87 364.52 245.644 364.3 246.284 363.86C246.937 363.42 247.417 362.82 247.724 362.06H250.684C250.31 363.62 249.544 364.853 248.384 365.76C247.224 366.666 245.764 367.12 244.004 367.12C242.657 367.12 241.464 366.82 240.424 366.22C239.397 365.606 238.597 364.753 238.024 363.66C237.464 362.566 237.184 361.326 237.184 359.94C237.184 358.54 237.464 357.293 238.024 356.2C238.597 355.106 239.397 354.26 240.424 353.66C241.45 353.046 242.644 352.74 244.004 352.74ZM255.62 358.04C256.033 357.333 256.58 356.78 257.26 356.38C257.94 355.966 258.7 355.76 259.54 355.76V358.78H258.72C256.653 358.78 255.62 359.74 255.62 361.66V367H252.8V355.92H255.62V358.04ZM271.52 361.04C271.52 361.32 271.487 361.64 271.42 362H263.3C263.34 362.986 263.607 363.713 264.1 364.18C264.594 364.646 265.207 364.88 265.94 364.88C266.594 364.88 267.134 364.72 267.56 364.4C268 364.08 268.28 363.646 268.4 363.1H271.38C271.234 363.873 270.92 364.566 270.44 365.18C269.96 365.793 269.34 366.273 268.58 366.62C267.834 366.966 267 367.14 266.08 367.14C265 367.14 264.04 366.913 263.2 366.46C262.36 365.993 261.707 365.333 261.24 364.48C260.774 363.626 260.54 362.62 260.54 361.46C260.54 360.3 260.774 359.293 261.24 358.44C261.707 357.573 262.36 356.913 263.2 356.46C264.04 356.006 265 355.78 266.08 355.78C267.174 355.78 268.127 356.006 268.94 356.46C269.767 356.913 270.4 357.54 270.84 358.34C271.294 359.126 271.52 360.026 271.52 361.04ZM268.68 360.76C268.72 359.853 268.48 359.166 267.96 358.7C267.454 358.233 266.827 358 266.08 358C265.32 358 264.68 358.233 264.16 358.7C263.64 359.166 263.354 359.853 263.3 360.76H268.68ZM277.862 355.78C278.796 355.78 279.596 356 280.262 356.44C280.929 356.88 281.402 357.473 281.682 358.22V355.92H284.482V367H281.682V364.68C281.402 365.426 280.929 366.026 280.262 366.48C279.596 366.92 278.796 367.14 277.862 367.14C276.929 367.14 276.089 366.913 275.342 366.46C274.596 366.006 274.009 365.353 273.582 364.5C273.169 363.633 272.962 362.62 272.962 361.46C272.962 360.3 273.169 359.293 273.582 358.44C274.009 357.573 274.596 356.913 275.342 356.46C276.089 356.006 276.929 355.78 277.862 355.78ZM278.742 358.24C277.862 358.24 277.156 358.526 276.622 359.1C276.089 359.673 275.822 360.46 275.822 361.46C275.822 362.46 276.089 363.246 276.622 363.82C277.156 364.38 277.862 364.66 278.742 364.66C279.596 364.66 280.296 364.373 280.842 363.8C281.402 363.213 281.682 362.433 281.682 361.46C281.682 360.473 281.402 359.693 280.842 359.12C280.296 358.533 279.596 358.24 278.742 358.24ZM292.958 364.58V367H291.478C290.238 367 289.284 366.7 288.618 366.1C287.964 365.5 287.638 364.5 287.638 363.1V358.3H286.098V355.92H287.638V353.18H290.458V355.92H292.938V358.3H290.458V363.14C290.458 363.673 290.564 364.046 290.778 364.26C290.991 364.473 291.351 364.58 291.858 364.58H292.958ZM305.407 361.04C305.407 361.32 305.374 361.64 305.307 362H297.187C297.227 362.986 297.494 363.713 297.987 364.18C298.48 364.646 299.094 364.88 299.827 364.88C300.48 364.88 301.02 364.72 301.447 364.4C301.887 364.08 302.167 363.646 302.287 363.1H305.267C305.12 363.873 304.807 364.566 304.327 365.18C303.847 365.793 303.227 366.273 302.467 366.62C301.72 366.966 300.887 367.14 299.967 367.14C298.887 367.14 297.927 366.913 297.087 366.46C296.247 365.993 295.594 365.333 295.127 364.48C294.66 363.626 294.427 362.62 294.427 361.46C294.427 360.3 294.66 359.293 295.127 358.44C295.594 357.573 296.247 356.913 297.087 356.46C297.927 356.006 298.887 355.78 299.967 355.78C301.06 355.78 302.014 356.006 302.827 356.46C303.654 356.913 304.287 357.54 304.727 358.34C305.18 359.126 305.407 360.026 305.407 361.04ZM302.567 360.76C302.607 359.853 302.367 359.166 301.847 358.7C301.34 358.233 300.714 358 299.967 358C299.207 358 298.567 358.233 298.047 358.7C297.527 359.166 297.24 359.853 297.187 360.76H302.567ZM316.104 355.78C317.038 355.78 317.838 356 318.504 356.44C319.171 356.88 319.644 357.473 319.924 358.22V355.92H322.724V367H319.924V364.68C319.644 365.426 319.171 366.026 318.504 366.48C317.838 366.92 317.038 367.14 316.104 367.14C315.171 367.14 314.331 366.913 313.584 366.46C312.838 366.006 312.251 365.353 311.824 364.5C311.411 363.633 311.204 362.62 311.204 361.46C311.204 360.3 311.411 359.293 311.824 358.44C312.251 357.573 312.838 356.913 313.584 356.46C314.331 356.006 315.171 355.78 316.104 355.78ZM316.984 358.24C316.104 358.24 315.398 358.526 314.864 359.1C314.331 359.673 314.064 360.46 314.064 361.46C314.064 362.46 314.331 363.246 314.864 363.82C315.398 364.38 316.104 364.66 316.984 364.66C317.838 364.66 318.538 364.373 319.084 363.8C319.644 363.213 319.924 362.433 319.924 361.46C319.924 360.473 319.644 359.693 319.084 359.12C318.538 358.533 317.838 358.24 316.984 358.24ZM232.006 382.04C232.42 381.333 232.966 380.78 233.646 380.38C234.326 379.966 235.086 379.76 235.926 379.76V382.78H235.106C233.04 382.78 232.006 383.74 232.006 385.66V391H229.186V379.92H232.006V382.04ZM242.607 379.78C243.687 379.78 244.654 380.006 245.507 380.46C246.374 380.913 247.054 381.573 247.547 382.44C248.04 383.293 248.287 384.3 248.287 385.46C248.287 386.62 248.04 387.626 247.547 388.48C247.054 389.333 246.374 389.993 245.507 390.46C244.654 390.913 243.687 391.14 242.607 391.14C241.527 391.14 240.554 390.913 239.687 390.46C238.834 389.993 238.16 389.333 237.667 388.48C237.174 387.626 236.927 386.62 236.927 385.46C236.927 384.3 237.174 383.293 237.667 382.44C238.16 381.573 238.834 380.913 239.687 380.46C240.554 380.006 241.527 379.78 242.607 379.78ZM242.607 382.22C241.82 382.22 241.154 382.5 240.607 383.06C240.06 383.606 239.787 384.406 239.787 385.46C239.787 386.513 240.06 387.32 240.607 387.88C241.154 388.426 241.82 388.7 242.607 388.7C243.394 388.7 244.06 388.426 244.607 387.88C245.154 387.32 245.427 386.513 245.427 385.46C245.427 384.406 245.154 383.606 244.607 383.06C244.06 382.5 243.394 382.22 242.607 382.22ZM254.62 379.78C255.553 379.78 256.353 380 257.02 380.44C257.687 380.88 258.16 381.473 258.44 382.22V379.92H261.24V391H258.44V388.68C258.16 389.426 257.687 390.026 257.02 390.48C256.353 390.92 255.553 391.14 254.62 391.14C253.687 391.14 252.847 390.913 252.1 390.46C251.353 390.006 250.767 389.353 250.34 388.5C249.927 387.633 249.72 386.62 249.72 385.46C249.72 384.3 249.927 383.293 250.34 382.44C250.767 381.573 251.353 380.913 252.1 380.46C252.847 380.006 253.687 379.78 254.62 379.78ZM255.5 382.24C254.62 382.24 253.913 382.526 253.38 383.1C252.847 383.673 252.58 384.46 252.58 385.46C252.58 386.46 252.847 387.246 253.38 387.82C253.913 388.38 254.62 388.66 255.5 388.66C256.353 388.66 257.053 388.373 257.6 387.8C258.16 387.213 258.44 386.433 258.44 385.46C258.44 384.473 258.16 383.693 257.6 383.12C257.053 382.533 256.353 382.24 255.5 382.24ZM268.136 379.78C269.069 379.78 269.862 380 270.516 380.44C271.182 380.88 271.662 381.473 271.956 382.22V376.2H274.756V391H271.956V388.68C271.662 389.426 271.182 390.026 270.516 390.48C269.862 390.92 269.069 391.14 268.136 391.14C267.202 391.14 266.362 390.913 265.616 390.46C264.869 390.006 264.282 389.353 263.856 388.5C263.442 387.633 263.236 386.62 263.236 385.46C263.236 384.3 263.442 383.293 263.856 382.44C264.282 381.573 264.869 380.913 265.616 380.46C266.362 380.006 267.202 379.78 268.136 379.78ZM269.016 382.24C268.136 382.24 267.429 382.526 266.896 383.1C266.362 383.673 266.096 384.46 266.096 385.46C266.096 386.46 266.362 387.246 266.896 387.82C267.429 388.38 268.136 388.66 269.016 388.66C269.869 388.66 270.569 388.373 271.116 387.8C271.676 387.213 271.956 386.433 271.956 385.46C271.956 384.473 271.676 383.693 271.116 383.12C270.569 382.533 269.869 382.24 269.016 382.24ZM291.411 379.76C292.758 379.76 293.818 380.18 294.591 381.02C295.378 381.846 295.771 383.026 295.771 384.56V391H292.971V384.88C292.971 384.026 292.751 383.373 292.311 382.92C291.885 382.453 291.291 382.22 290.531 382.22C289.745 382.22 289.118 382.466 288.651 382.96C288.185 383.453 287.951 384.173 287.951 385.12V391H285.151V384.88C285.151 384.026 284.931 383.373 284.491 382.92C284.065 382.453 283.471 382.22 282.711 382.22C281.925 382.22 281.298 382.466 280.831 382.96C280.365 383.453 280.131 384.173 280.131 385.12V391H277.311V379.92H280.131V382.02C280.425 381.3 280.885 380.746 281.511 380.36C282.151 379.96 282.891 379.76 283.731 379.76C284.625 379.76 285.398 379.973 286.051 380.4C286.718 380.826 287.218 381.44 287.551 382.24C287.898 381.48 288.411 380.88 289.091 380.44C289.785 379.986 290.558 379.76 291.411 379.76ZM302.589 379.78C303.522 379.78 304.322 380 304.989 380.44C305.655 380.88 306.129 381.473 306.409 382.22V379.92H309.209V391H306.409V388.68C306.129 389.426 305.655 390.026 304.989 390.48C304.322 390.92 303.522 391.14 302.589 391.14C301.655 391.14 300.815 390.913 300.069 390.46C299.322 390.006 298.735 389.353 298.309 388.5C297.895 387.633 297.689 386.62 297.689 385.46C297.689 384.3 297.895 383.293 298.309 382.44C298.735 381.573 299.322 380.913 300.069 380.46C300.815 380.006 301.655 379.78 302.589 379.78ZM303.469 382.24C302.589 382.24 301.882 382.526 301.349 383.1C300.815 383.673 300.549 384.46 300.549 385.46C300.549 386.46 300.815 387.246 301.349 387.82C301.882 388.38 302.589 388.66 303.469 388.66C304.322 388.66 305.022 388.373 305.569 387.8C306.129 387.213 306.409 386.433 306.409 385.46C306.409 384.473 306.129 383.693 305.569 383.12C305.022 382.533 304.322 382.24 303.469 382.24ZM318.384 379.78C319.318 379.78 320.158 380.006 320.904 380.46C321.651 380.913 322.231 381.573 322.644 382.44C323.071 383.293 323.284 384.3 323.284 385.46C323.284 386.62 323.071 387.633 322.644 388.5C322.231 389.353 321.651 390.006 320.904 390.46C320.158 390.913 319.318 391.14 318.384 391.14C317.451 391.14 316.651 390.92 315.984 390.48C315.331 390.026 314.864 389.426 314.584 388.68V396.28H311.764V379.92H314.584V382.22C314.864 381.473 315.331 380.88 315.984 380.44C316.651 380 317.451 379.78 318.384 379.78ZM317.504 382.24C316.651 382.24 315.944 382.533 315.384 383.12C314.838 383.693 314.564 384.473 314.564 385.46C314.564 386.433 314.838 387.213 315.384 387.8C315.944 388.373 316.651 388.66 317.504 388.66C318.384 388.66 319.091 388.38 319.624 387.82C320.158 387.246 320.424 386.46 320.424 385.46C320.424 384.46 320.158 383.673 319.624 383.1C319.091 382.526 318.384 382.24 317.504 382.24Z" fill="white"/>
</svg>
