<svg width="1200" height="224" viewBox="0 0 1200 224" fill="none" xmlns="http://www.w3.org/2000/svg">
<path d="M0 100.061L1200 100.062" stroke="white" stroke-opacity="0.3"/>
<circle cx="100" cy="100" r="12" fill="#0C42CD"/>
<circle cx="243" cy="100" r="12" fill="#0C42CD"/>
<circle cx="386" cy="100" r="12" fill="#0C42CD"/>
<circle cx="529" cy="100" r="12" fill="#0C42CD"/>
<circle cx="815" cy="100" r="12" fill="#0C42CD"/>
<circle cx="672" cy="100" r="12" fill="#0C42CD"/>
<circle cx="958" cy="100" r="12" fill="#0C42CD"/>
<path d="M116.1 156.88V171H113.28V156.88H116.1ZM122.991 159.78C123.924 159.78 124.718 160 125.371 160.44C126.038 160.88 126.518 161.473 126.811 162.22V156.2H129.611V171H126.811V168.68C126.518 169.427 126.038 170.027 125.371 170.48C124.718 170.92 123.924 171.14 122.991 171.14C122.058 171.14 121.218 170.913 120.471 170.46C119.724 170.007 119.138 169.353 118.711 168.5C118.298 167.633 118.091 166.62 118.091 165.46C118.091 164.3 118.298 163.293 118.711 162.44C119.138 161.573 119.724 160.913 120.471 160.46C121.218 160.007 122.058 159.78 122.991 159.78ZM123.871 162.24C122.991 162.24 122.284 162.527 121.751 163.1C121.218 163.673 120.951 164.46 120.951 165.46C120.951 166.46 121.218 167.247 121.751 167.82C122.284 168.38 122.991 168.66 123.871 168.66C124.724 168.66 125.424 168.373 125.971 167.8C126.531 167.213 126.811 166.433 126.811 165.46C126.811 164.473 126.531 163.693 125.971 163.12C125.424 162.533 124.724 162.24 123.871 162.24ZM142.587 165.04C142.587 165.32 142.553 165.64 142.487 166H134.367C134.407 166.987 134.673 167.713 135.167 168.18C135.66 168.647 136.273 168.88 137.007 168.88C137.66 168.88 138.2 168.72 138.627 168.4C139.067 168.08 139.347 167.647 139.467 167.1H142.447C142.3 167.873 141.987 168.567 141.507 169.18C141.027 169.793 140.407 170.273 139.647 170.62C138.9 170.967 138.067 171.14 137.147 171.14C136.067 171.14 135.107 170.913 134.267 170.46C133.427 169.993 132.773 169.333 132.307 168.48C131.84 167.627 131.607 166.62 131.607 165.46C131.607 164.3 131.84 163.293 132.307 162.44C132.773 161.573 133.427 160.913 134.267 160.46C135.107 160.007 136.067 159.78 137.147 159.78C138.24 159.78 139.193 160.007 140.007 160.46C140.833 160.913 141.467 161.54 141.907 162.34C142.36 163.127 142.587 164.027 142.587 165.04ZM139.747 164.76C139.787 163.853 139.547 163.167 139.027 162.7C138.52 162.233 137.893 162 137.147 162C136.387 162 135.747 162.233 135.227 162.7C134.707 163.167 134.42 163.853 134.367 164.76H139.747ZM151.189 159.76C152.469 159.76 153.489 160.18 154.249 161.02C155.009 161.86 155.389 163.04 155.389 164.56V171H152.589V164.88C152.589 164 152.362 163.32 151.909 162.84C151.455 162.347 150.835 162.1 150.049 162.1C149.249 162.1 148.609 162.36 148.129 162.88C147.649 163.4 147.409 164.147 147.409 165.12V171H144.589V159.92H147.409V162.14C147.702 161.393 148.182 160.813 148.849 160.4C149.529 159.973 150.309 159.76 151.189 159.76ZM163.79 168.58V171H162.31C161.07 171 160.117 170.7 159.45 170.1C158.797 169.5 158.47 168.5 158.47 167.1V162.3H156.93V159.92H158.47V157.18H161.29V159.92H163.77V162.3H161.29V167.14C161.29 167.673 161.397 168.047 161.61 168.26C161.823 168.473 162.183 168.58 162.69 168.58H163.79ZM165.499 156.74C165.499 156.287 165.659 155.92 165.979 155.64C166.299 155.347 166.719 155.2 167.239 155.2C167.759 155.2 168.179 155.347 168.499 155.64C168.819 155.92 168.979 156.287 168.979 156.74C168.979 157.18 168.819 157.547 168.499 157.84C168.179 158.12 167.759 158.26 167.239 158.26C166.719 158.26 166.299 158.12 165.979 157.84C165.659 157.547 165.499 157.18 165.499 156.74ZM168.639 159.92V171H165.819V159.92H168.639ZM176.67 158C175.843 157.947 175.263 158.067 174.93 158.36C174.597 158.653 174.43 159.167 174.43 159.9V159.92H176.67V162.3H174.43V171H171.61V162.3H170.19V159.92H171.61V159.66C171.61 158.34 171.983 157.327 172.73 156.62C173.49 155.9 174.61 155.54 176.09 155.54C176.343 155.54 176.537 155.547 176.67 155.56V158ZM180.258 159.92L183.278 167.44L186.078 159.92H189.178L182.398 176.28H179.278L181.778 170.68L177.118 159.92H180.258ZM115.18 183.92L118.2 191.44L121 183.92H124.1L117.32 200.28H114.2L116.7 194.68L112.04 183.92H115.18ZM130.548 183.78C131.628 183.78 132.595 184.007 133.448 184.46C134.315 184.913 134.995 185.573 135.488 186.44C135.982 187.293 136.228 188.3 136.228 189.46C136.228 190.62 135.982 191.627 135.488 192.48C134.995 193.333 134.315 193.993 133.448 194.46C132.595 194.913 131.628 195.14 130.548 195.14C129.468 195.14 128.495 194.913 127.628 194.46C126.775 193.993 126.102 193.333 125.608 192.48C125.115 191.627 124.868 190.62 124.868 189.46C124.868 188.3 125.115 187.293 125.608 186.44C126.102 185.573 126.775 184.913 127.628 184.46C128.495 184.007 129.468 183.78 130.548 183.78ZM130.548 186.22C129.762 186.22 129.095 186.5 128.548 187.06C128.002 187.607 127.728 188.407 127.728 189.46C127.728 190.513 128.002 191.32 128.548 191.88C129.095 192.427 129.762 192.7 130.548 192.7C131.335 192.7 132.002 192.427 132.548 191.88C133.095 191.32 133.368 190.513 133.368 189.46C133.368 188.407 133.095 187.607 132.548 187.06C132.002 186.5 131.335 186.22 130.548 186.22ZM148.821 183.92V195H146.001V192.76C145.708 193.507 145.221 194.093 144.541 194.52C143.875 194.933 143.101 195.14 142.221 195.14C140.941 195.14 139.921 194.72 139.161 193.88C138.401 193.04 138.021 191.867 138.021 190.36V183.92H140.821V190.04C140.821 190.92 141.048 191.607 141.501 192.1C141.955 192.58 142.568 192.82 143.341 192.82C144.155 192.82 144.801 192.56 145.281 192.04C145.761 191.52 146.001 190.773 146.001 189.8V183.92H148.821ZM154.205 186.04C154.619 185.333 155.165 184.78 155.845 184.38C156.525 183.967 157.285 183.76 158.125 183.76V186.78H157.305C155.239 186.78 154.205 187.74 154.205 189.66V195H151.385V183.92H154.205V186.04ZM170.642 183.76C171.922 183.76 172.942 184.18 173.702 185.02C174.462 185.86 174.842 187.04 174.842 188.56V195H172.042V188.88C172.042 188 171.815 187.32 171.362 186.84C170.908 186.347 170.288 186.1 169.502 186.1C168.702 186.1 168.062 186.36 167.582 186.88C167.102 187.4 166.862 188.147 166.862 189.12V195H164.042V183.92H166.862V186.14C167.155 185.393 167.635 184.813 168.302 184.4C168.982 183.973 169.762 183.76 170.642 183.76ZM187.743 189.04C187.743 189.32 187.71 189.64 187.643 190H179.523C179.563 190.987 179.83 191.713 180.323 192.18C180.816 192.647 181.43 192.88 182.163 192.88C182.816 192.88 183.356 192.72 183.783 192.4C184.223 192.08 184.503 191.647 184.623 191.1H187.603C187.456 191.873 187.143 192.567 186.663 193.18C186.183 193.793 185.563 194.273 184.803 194.62C184.056 194.967 183.223 195.14 182.303 195.14C181.223 195.14 180.263 194.913 179.423 194.46C178.583 193.993 177.93 193.333 177.463 192.48C176.996 191.627 176.763 190.62 176.763 189.46C176.763 188.3 176.996 187.293 177.463 186.44C177.93 185.573 178.583 184.913 179.423 184.46C180.263 184.007 181.223 183.78 182.303 183.78C183.396 183.78 184.35 184.007 185.163 184.46C185.99 184.913 186.623 185.54 187.063 186.34C187.516 187.127 187.743 188.027 187.743 189.04ZM184.903 188.76C184.943 187.853 184.703 187.167 184.183 186.7C183.676 186.233 183.05 186 182.303 186C181.543 186 180.903 186.233 180.383 186.7C179.863 187.167 179.576 187.853 179.523 188.76H184.903ZM200.165 189.04C200.165 189.32 200.132 189.64 200.065 190H191.945C191.985 190.987 192.252 191.713 192.745 192.18C193.238 192.647 193.852 192.88 194.585 192.88C195.238 192.88 195.778 192.72 196.205 192.4C196.645 192.08 196.925 191.647 197.045 191.1H200.025C199.878 191.873 199.565 192.567 199.085 193.18C198.605 193.793 197.985 194.273 197.225 194.62C196.478 194.967 195.645 195.14 194.725 195.14C193.645 195.14 192.685 194.913 191.845 194.46C191.005 193.993 190.352 193.333 189.885 192.48C189.418 191.627 189.185 190.62 189.185 189.46C189.185 188.3 189.418 187.293 189.885 186.44C190.352 185.573 191.005 184.913 191.845 184.46C192.685 184.007 193.645 183.78 194.725 183.78C195.818 183.78 196.772 184.007 197.585 184.46C198.412 184.913 199.045 185.54 199.485 186.34C199.938 187.127 200.165 188.027 200.165 189.04ZM197.325 188.76C197.365 187.853 197.125 187.167 196.605 186.7C196.098 186.233 195.472 186 194.725 186C193.965 186 193.325 186.233 192.805 186.7C192.285 187.167 191.998 187.853 191.945 188.76H197.325ZM206.507 183.78C207.44 183.78 208.233 184 208.887 184.44C209.553 184.88 210.033 185.473 210.327 186.22V180.2H213.127V195H210.327V192.68C210.033 193.427 209.553 194.027 208.887 194.48C208.233 194.92 207.44 195.14 206.507 195.14C205.573 195.14 204.733 194.913 203.987 194.46C203.24 194.007 202.653 193.353 202.227 192.5C201.813 191.633 201.607 190.62 201.607 189.46C201.607 188.3 201.813 187.293 202.227 186.44C202.653 185.573 203.24 184.913 203.987 184.46C204.733 184.007 205.573 183.78 206.507 183.78ZM207.387 186.24C206.507 186.24 205.8 186.527 205.267 187.1C204.733 187.673 204.467 188.46 204.467 189.46C204.467 190.46 204.733 191.247 205.267 191.82C205.8 192.38 206.507 192.66 207.387 192.66C208.24 192.66 208.94 192.373 209.487 191.8C210.047 191.213 210.327 190.433 210.327 189.46C210.327 188.473 210.047 187.693 209.487 187.12C208.94 186.533 208.24 186.24 207.387 186.24ZM219.502 183.78C220.849 183.78 221.929 184.12 222.742 184.8C223.556 185.48 224.062 186.387 224.262 187.52H221.622C221.516 186.987 221.276 186.56 220.902 186.24C220.529 185.92 220.042 185.76 219.442 185.76C218.962 185.76 218.589 185.873 218.322 186.1C218.056 186.327 217.922 186.633 217.922 187.02C217.922 187.327 218.029 187.573 218.242 187.76C218.456 187.947 218.722 188.093 219.042 188.2C219.362 188.307 219.822 188.433 220.422 188.58C221.262 188.767 221.942 188.967 222.462 189.18C222.996 189.38 223.449 189.707 223.822 190.16C224.209 190.6 224.402 191.2 224.402 191.96C224.402 192.907 224.029 193.673 223.282 194.26C222.549 194.847 221.556 195.14 220.302 195.14C218.862 195.14 217.709 194.82 216.842 194.18C215.976 193.527 215.449 192.6 215.262 191.4H217.962C218.029 191.947 218.269 192.38 218.682 192.7C219.096 193.007 219.636 193.16 220.302 193.16C220.782 193.16 221.149 193.047 221.402 192.82C221.656 192.58 221.782 192.273 221.782 191.9C221.782 191.58 221.669 191.32 221.442 191.12C221.229 190.92 220.956 190.767 220.622 190.66C220.302 190.553 219.842 190.427 219.242 190.28C218.416 190.093 217.742 189.907 217.222 189.72C216.716 189.52 216.276 189.207 215.902 188.78C215.542 188.353 215.362 187.767 215.362 187.02C215.362 186.06 215.729 185.28 216.462 184.68C217.196 184.08 218.209 183.78 219.502 183.78Z" fill="white"/>
<path d="M264.16 11.72C265.013 11.8933 265.693 12.3 266.2 12.94C266.72 13.5667 266.98 14.3067 266.98 15.16C266.98 16.3467 266.58 17.2867 265.78 17.98C264.993 18.66 263.847 19 262.34 19H256.28V4.88H262.22C263.647 4.88 264.74 5.19333 265.5 5.82C266.273 6.44667 266.66 7.32667 266.66 8.46C266.66 9.34 266.427 10.06 265.96 10.62C265.507 11.18 264.907 11.5467 264.16 11.72ZM259.1 10.8H261.64C262.347 10.8 262.88 10.6467 263.24 10.34C263.613 10.02 263.8 9.56667 263.8 8.98C263.8 8.39333 263.62 7.94 263.26 7.62C262.9 7.3 262.347 7.14 261.6 7.14H259.1V10.8ZM261.78 16.7C262.527 16.7 263.1 16.54 263.5 16.22C263.9 15.8867 264.1 15.4067 264.1 14.78C264.1 14.1533 263.893 13.6733 263.48 13.34C263.08 12.9933 262.507 12.82 261.76 12.82H259.1V16.7H261.78ZM271.776 10.04C272.189 9.33333 272.736 8.78 273.416 8.38C274.096 7.96667 274.856 7.76 275.696 7.76V10.78H274.876C272.809 10.78 271.776 11.74 271.776 13.66V19H268.956V7.92H271.776V10.04ZM281.597 7.78C282.53 7.78 283.33 8 283.997 8.44C284.663 8.88 285.137 9.47333 285.417 10.22V7.92H288.217V19H285.417V16.68C285.137 17.4267 284.663 18.0267 283.997 18.48C283.33 18.92 282.53 19.14 281.597 19.14C280.663 19.14 279.823 18.9133 279.077 18.46C278.33 18.0067 277.743 17.3533 277.317 16.5C276.903 15.6333 276.697 14.62 276.697 13.46C276.697 12.3 276.903 11.2933 277.317 10.44C277.743 9.57333 278.33 8.91333 279.077 8.46C279.823 8.00667 280.663 7.78 281.597 7.78ZM282.477 10.24C281.597 10.24 280.89 10.5267 280.357 11.1C279.823 11.6733 279.557 12.46 279.557 13.46C279.557 14.46 279.823 15.2467 280.357 15.82C280.89 16.38 281.597 16.66 282.477 16.66C283.33 16.66 284.03 16.3733 284.577 15.8C285.137 15.2133 285.417 14.4333 285.417 13.46C285.417 12.4733 285.137 11.6933 284.577 11.12C284.03 10.5333 283.33 10.24 282.477 10.24ZM290.452 4.74C290.452 4.28667 290.612 3.92 290.932 3.64C291.252 3.34667 291.672 3.2 292.192 3.2C292.712 3.2 293.132 3.34667 293.452 3.64C293.772 3.92 293.932 4.28667 293.932 4.74C293.932 5.18 293.772 5.54667 293.452 5.84C293.132 6.12 292.712 6.26 292.192 6.26C291.672 6.26 291.252 6.12 290.932 5.84C290.612 5.54667 290.452 5.18 290.452 4.74ZM293.592 7.92V19H290.772V7.92H293.592ZM302.743 7.76C304.023 7.76 305.043 8.18 305.803 9.02C306.563 9.86 306.943 11.04 306.943 12.56V19H304.143V12.88C304.143 12 303.917 11.32 303.463 10.84C303.01 10.3467 302.39 10.1 301.603 10.1C300.803 10.1 300.163 10.36 299.683 10.88C299.203 11.4 298.963 12.1467 298.963 13.12V19H296.143V7.92H298.963V10.14C299.257 9.39333 299.737 8.81333 300.403 8.4C301.083 7.97333 301.863 7.76 302.743 7.76ZM313.245 7.78C314.591 7.78 315.671 8.12 316.485 8.8C317.298 9.48 317.805 10.3867 318.005 11.52H315.365C315.258 10.9867 315.018 10.56 314.645 10.24C314.271 9.92 313.785 9.76 313.185 9.76C312.705 9.76 312.331 9.87333 312.065 10.1C311.798 10.3267 311.665 10.6333 311.665 11.02C311.665 11.3267 311.771 11.5733 311.985 11.76C312.198 11.9467 312.465 12.0933 312.785 12.2C313.105 12.3067 313.565 12.4333 314.165 12.58C315.005 12.7667 315.685 12.9667 316.205 13.18C316.738 13.38 317.191 13.7067 317.565 14.16C317.951 14.6 318.145 15.2 318.145 15.96C318.145 16.9067 317.771 17.6733 317.025 18.26C316.291 18.8467 315.298 19.14 314.045 19.14C312.605 19.14 311.451 18.82 310.585 18.18C309.718 17.5267 309.191 16.6 309.005 15.4H311.705C311.771 15.9467 312.011 16.38 312.425 16.7C312.838 17.0067 313.378 17.16 314.045 17.16C314.525 17.16 314.891 17.0467 315.145 16.82C315.398 16.58 315.525 16.2733 315.525 15.9C315.525 15.58 315.411 15.32 315.185 15.12C314.971 14.92 314.698 14.7667 314.365 14.66C314.045 14.5533 313.585 14.4267 312.985 14.28C312.158 14.0933 311.485 13.9067 310.965 13.72C310.458 13.52 310.018 13.2067 309.645 12.78C309.285 12.3533 309.105 11.7667 309.105 11.02C309.105 10.06 309.471 9.28 310.205 8.68C310.938 8.08 311.951 7.78 313.245 7.78ZM326.165 16.58V19H324.685C323.445 19 322.492 18.7 321.825 18.1C321.172 17.5 320.845 16.5 320.845 15.1V10.3H319.305V7.92H320.845V5.18H323.665V7.92H326.145V10.3H323.665V15.14C323.665 15.6733 323.772 16.0467 323.985 16.26C324.198 16.4733 324.558 16.58 325.065 16.58H326.165ZM333.314 7.78C334.394 7.78 335.361 8.00667 336.214 8.46C337.081 8.91333 337.761 9.57333 338.254 10.44C338.747 11.2933 338.994 12.3 338.994 13.46C338.994 14.62 338.747 15.6267 338.254 16.48C337.761 17.3333 337.081 17.9933 336.214 18.46C335.361 18.9133 334.394 19.14 333.314 19.14C332.234 19.14 331.261 18.9133 330.394 18.46C329.541 17.9933 328.867 17.3333 328.374 16.48C327.881 15.6267 327.634 14.62 327.634 13.46C327.634 12.3 327.881 11.2933 328.374 10.44C328.867 9.57333 329.541 8.91333 330.394 8.46C331.261 8.00667 332.234 7.78 333.314 7.78ZM333.314 10.22C332.527 10.22 331.861 10.5 331.314 11.06C330.767 11.6067 330.494 12.4067 330.494 13.46C330.494 14.5133 330.767 15.32 331.314 15.88C331.861 16.4267 332.527 16.7 333.314 16.7C334.101 16.7 334.767 16.4267 335.314 15.88C335.861 15.32 336.134 14.5133 336.134 13.46C336.134 12.4067 335.861 11.6067 335.314 11.06C334.767 10.5 334.101 10.22 333.314 10.22ZM343.807 10.04C344.22 9.33333 344.767 8.78 345.447 8.38C346.127 7.96667 346.887 7.76 347.727 7.76V10.78H346.907C344.84 10.78 343.807 11.74 343.807 13.66V19H340.987V7.92H343.807V10.04ZM363.388 7.76C364.734 7.76 365.794 8.18 366.568 9.02C367.354 9.84667 367.748 11.0267 367.748 12.56V19H364.948V12.88C364.948 12.0267 364.728 11.3733 364.288 10.92C363.861 10.4533 363.268 10.22 362.508 10.22C361.721 10.22 361.094 10.4667 360.628 10.96C360.161 11.4533 359.928 12.1733 359.928 13.12V19H357.128V12.88C357.128 12.0267 356.908 11.3733 356.468 10.92C356.041 10.4533 355.448 10.22 354.688 10.22C353.901 10.22 353.274 10.4667 352.808 10.96C352.341 11.4533 352.108 12.1733 352.108 13.12V19H349.288V7.92H352.108V10.02C352.401 9.3 352.861 8.74667 353.488 8.36C354.128 7.96 354.868 7.76 355.708 7.76C356.601 7.76 357.374 7.97333 358.028 8.4C358.694 8.82667 359.194 9.44 359.528 10.24C359.874 9.48 360.388 8.88 361.068 8.44C361.761 7.98667 362.534 7.76 363.388 7.76ZM378.921 7.78C379.854 7.78 380.654 8 381.321 8.44C381.987 8.88 382.461 9.47333 382.741 10.22V7.92H385.541V19H382.741V16.68C382.461 17.4267 381.987 18.0267 381.321 18.48C380.654 18.92 379.854 19.14 378.921 19.14C377.987 19.14 377.147 18.9133 376.401 18.46C375.654 18.0067 375.067 17.3533 374.641 16.5C374.227 15.6333 374.021 14.62 374.021 13.46C374.021 12.3 374.227 11.2933 374.641 10.44C375.067 9.57333 375.654 8.91333 376.401 8.46C377.147 8.00667 377.987 7.78 378.921 7.78ZM379.801 10.24C378.921 10.24 378.214 10.5267 377.681 11.1C377.147 11.6733 376.881 12.46 376.881 13.46C376.881 14.46 377.147 15.2467 377.681 15.82C378.214 16.38 378.921 16.66 379.801 16.66C380.654 16.66 381.354 16.3733 381.901 15.8C382.461 15.2133 382.741 14.4333 382.741 13.46C382.741 12.4733 382.461 11.6933 381.901 11.12C381.354 10.5333 380.654 10.24 379.801 10.24ZM260.1 31.78C261.447 31.78 262.527 32.12 263.34 32.8C264.153 33.48 264.66 34.3867 264.86 35.52H262.22C262.113 34.9867 261.873 34.56 261.5 34.24C261.127 33.92 260.64 33.76 260.04 33.76C259.56 33.76 259.187 33.8733 258.92 34.1C258.653 34.3267 258.52 34.6333 258.52 35.02C258.52 35.3267 258.627 35.5733 258.84 35.76C259.053 35.9467 259.32 36.0933 259.64 36.2C259.96 36.3067 260.42 36.4333 261.02 36.58C261.86 36.7667 262.54 36.9667 263.06 37.18C263.593 37.38 264.047 37.7067 264.42 38.16C264.807 38.6 265 39.2 265 39.96C265 40.9067 264.627 41.6733 263.88 42.26C263.147 42.8467 262.153 43.14 260.9 43.14C259.46 43.14 258.307 42.82 257.44 42.18C256.573 41.5267 256.047 40.6 255.86 39.4H258.56C258.627 39.9467 258.867 40.38 259.28 40.7C259.693 41.0067 260.233 41.16 260.9 41.16C261.38 41.16 261.747 41.0467 262 40.82C262.253 40.58 262.38 40.2733 262.38 39.9C262.38 39.58 262.267 39.32 262.04 39.12C261.827 38.92 261.553 38.7667 261.22 38.66C260.9 38.5533 260.44 38.4267 259.84 38.28C259.013 38.0933 258.34 37.9067 257.82 37.72C257.313 37.52 256.873 37.2067 256.5 36.78C256.14 36.3533 255.96 35.7667 255.96 35.02C255.96 34.06 256.327 33.28 257.06 32.68C257.793 32.08 258.807 31.78 260.1 31.78ZM272.22 31.78C273.3 31.78 274.267 32.0067 275.12 32.46C275.987 32.9133 276.667 33.5733 277.16 34.44C277.654 35.2933 277.9 36.3 277.9 37.46C277.9 38.62 277.654 39.6267 277.16 40.48C276.667 41.3333 275.987 41.9933 275.12 42.46C274.267 42.9133 273.3 43.14 272.22 43.14C271.14 43.14 270.167 42.9133 269.3 42.46C268.447 41.9933 267.774 41.3333 267.28 40.48C266.787 39.6267 266.54 38.62 266.54 37.46C266.54 36.3 266.787 35.2933 267.28 34.44C267.774 33.5733 268.447 32.9133 269.3 32.46C270.167 32.0067 271.14 31.78 272.22 31.78ZM272.22 34.22C271.434 34.22 270.767 34.5 270.22 35.06C269.674 35.6067 269.4 36.4067 269.4 37.46C269.4 38.5133 269.674 39.32 270.22 39.88C270.767 40.4267 271.434 40.7 272.22 40.7C273.007 40.7 273.674 40.4267 274.22 39.88C274.767 39.32 275.04 38.5133 275.04 37.46C275.04 36.4067 274.767 35.6067 274.22 35.06C273.674 34.5 273.007 34.22 272.22 34.22ZM282.713 28.2V43H279.893V28.2H282.713ZM295.864 31.92V43H293.044V40.76C292.751 41.5067 292.264 42.0933 291.584 42.52C290.918 42.9333 290.144 43.14 289.264 43.14C287.984 43.14 286.964 42.72 286.204 41.88C285.444 41.04 285.064 39.8667 285.064 38.36V31.92H287.864V38.04C287.864 38.92 288.091 39.6067 288.544 40.1C288.998 40.58 289.611 40.82 290.384 40.82C291.198 40.82 291.844 40.56 292.324 40.04C292.804 39.52 293.044 38.7733 293.044 37.8V31.92H295.864ZM304.348 40.58V43H302.868C301.628 43 300.675 42.7 300.008 42.1C299.355 41.5 299.028 40.5 299.028 39.1V34.3H297.488V31.92H299.028V29.18H301.848V31.92H304.328V34.3H301.848V39.14C301.848 39.6733 301.955 40.0467 302.168 40.26C302.382 40.4733 302.742 40.58 303.248 40.58H304.348ZM306.058 28.74C306.058 28.2867 306.218 27.92 306.538 27.64C306.858 27.3467 307.278 27.2 307.798 27.2C308.318 27.2 308.738 27.3467 309.058 27.64C309.378 27.92 309.538 28.2867 309.538 28.74C309.538 29.18 309.378 29.5467 309.058 29.84C308.738 30.12 308.318 30.26 307.798 30.26C307.278 30.26 306.858 30.12 306.538 29.84C306.218 29.5467 306.058 29.18 306.058 28.74ZM309.198 31.92V43H306.378V31.92H309.198ZM316.869 31.78C317.949 31.78 318.915 32.0067 319.769 32.46C320.635 32.9133 321.315 33.5733 321.809 34.44C322.302 35.2933 322.549 36.3 322.549 37.46C322.549 38.62 322.302 39.6267 321.809 40.48C321.315 41.3333 320.635 41.9933 319.769 42.46C318.915 42.9133 317.949 43.14 316.869 43.14C315.789 43.14 314.815 42.9133 313.949 42.46C313.095 41.9933 312.422 41.3333 311.929 40.48C311.435 39.6267 311.189 38.62 311.189 37.46C311.189 36.3 311.435 35.2933 311.929 34.44C312.422 33.5733 313.095 32.9133 313.949 32.46C314.815 32.0067 315.789 31.78 316.869 31.78ZM316.869 34.22C316.082 34.22 315.415 34.5 314.869 35.06C314.322 35.6067 314.049 36.4067 314.049 37.46C314.049 38.5133 314.322 39.32 314.869 39.88C315.415 40.4267 316.082 40.7 316.869 40.7C317.655 40.7 318.322 40.4267 318.869 39.88C319.415 39.32 319.689 38.5133 319.689 37.46C319.689 36.4067 319.415 35.6067 318.869 35.06C318.322 34.5 317.655 34.22 316.869 34.22ZM331.142 31.76C332.422 31.76 333.442 32.18 334.202 33.02C334.962 33.86 335.342 35.04 335.342 36.56V43H332.542V36.88C332.542 36 332.315 35.32 331.862 34.84C331.408 34.3467 330.788 34.1 330.002 34.1C329.202 34.1 328.562 34.36 328.082 34.88C327.602 35.4 327.362 36.1467 327.362 37.12V43H324.542V31.92H327.362V34.14C327.655 33.3933 328.135 32.8133 328.802 32.4C329.482 31.9733 330.262 31.76 331.142 31.76Z" fill="white"/>
<line x1="243.5" y1="-2.18557e-08" x2="243.5" y2="100" stroke="#0C42CD" stroke-dasharray="6.13 6.13"/>
<line x1="100.5" y1="100" x2="100.5" y2="199" stroke="#0C42CD" stroke-dasharray="6.13 6.13"/>
<line x1="386.5" y1="100" x2="386.5" y2="199" stroke="#0C42CD" stroke-dasharray="6.13 6.13"/>
<line x1="672.5" y1="100" x2="672.5" y2="200" stroke="#0C42CD" stroke-dasharray="6.13 6.13"/>
<line x1="958.5" y1="100" x2="958.5" y2="199" stroke="#0C42CD" stroke-dasharray="6.13 6.13"/>
<line x1="529.5" y1="-2.18557e-08" x2="529.5" y2="100" stroke="#0C42CD" stroke-dasharray="6.13 6.13"/>
<line x1="815.5" y1="-2.18557e-08" x2="815.5" y2="100" stroke="#0C42CD" stroke-dasharray="6.13 6.13"/>
<path d="M411.7 187.92C411.7 189.32 411.407 190.553 410.82 191.62C410.233 192.687 409.38 193.52 408.26 194.12C407.153 194.707 405.833 195 404.3 195H399.28V180.88H404.3C405.833 180.88 407.153 181.173 408.26 181.76C409.38 182.333 410.233 183.153 410.82 184.22C411.407 185.273 411.7 186.507 411.7 187.92ZM404.06 192.48C405.58 192.48 406.753 192.08 407.58 191.28C408.42 190.48 408.84 189.36 408.84 187.92C408.84 186.467 408.42 185.34 407.58 184.54C406.753 183.74 405.58 183.34 404.06 183.34H402.1V192.48H404.06ZM418.931 183.78C420.011 183.78 420.978 184.007 421.831 184.46C422.698 184.913 423.378 185.573 423.871 186.44C424.365 187.293 424.611 188.3 424.611 189.46C424.611 190.62 424.365 191.627 423.871 192.48C423.378 193.333 422.698 193.993 421.831 194.46C420.978 194.913 420.011 195.14 418.931 195.14C417.851 195.14 416.878 194.913 416.011 194.46C415.158 193.993 414.485 193.333 413.991 192.48C413.498 191.627 413.251 190.62 413.251 189.46C413.251 188.3 413.498 187.293 413.991 186.44C414.485 185.573 415.158 184.913 416.011 184.46C416.878 184.007 417.851 183.78 418.931 183.78ZM418.931 186.22C418.145 186.22 417.478 186.5 416.931 187.06C416.385 187.607 416.111 188.407 416.111 189.46C416.111 190.513 416.385 191.32 416.931 191.88C417.478 192.427 418.145 192.7 418.931 192.7C419.718 192.7 420.385 192.427 420.931 191.88C421.478 191.32 421.751 190.513 421.751 189.46C421.751 188.407 421.478 187.607 420.931 187.06C420.385 186.5 419.718 186.22 418.931 186.22ZM438.32 195L435.02 189.5H433.78V195H430.96V180.88H436.34C437.98 180.88 439.226 181.28 440.08 182.08C440.946 182.88 441.38 183.933 441.38 185.24C441.38 186.307 441.08 187.2 440.48 187.92C439.893 188.64 439.04 189.12 437.92 189.36L441.44 195H438.32ZM433.78 187.56H436.1C437.713 187.56 438.52 186.847 438.52 185.42C438.52 184.74 438.32 184.213 437.92 183.84C437.533 183.453 436.926 183.26 436.1 183.26H433.78V187.56ZM452.864 195L450.704 192.48C450.597 192.747 450.504 192.953 450.424 193.1C450.184 193.713 449.764 194.207 449.164 194.58C448.564 194.953 447.864 195.14 447.064 195.14C446.171 195.14 445.384 194.953 444.704 194.58C444.037 194.207 443.524 193.7 443.164 193.06C442.804 192.407 442.624 191.667 442.624 190.84C442.624 190.027 442.777 189.313 443.084 188.7C443.404 188.087 443.831 187.613 444.364 187.28C444.911 186.933 445.517 186.747 446.184 186.72L445.944 186.36C445.677 185.987 445.471 185.62 445.324 185.26C445.177 184.887 445.104 184.473 445.104 184.02C445.104 183.447 445.251 182.913 445.544 182.42C445.851 181.913 446.297 181.507 446.884 181.2C447.484 180.893 448.197 180.74 449.024 180.74C450.211 180.74 451.124 181.007 451.764 181.54C452.417 182.073 452.837 182.76 453.024 183.6C453.157 184 453.224 184.427 453.224 184.88L453.204 185.26H450.584C450.584 184.927 450.571 184.7 450.544 184.58C450.531 184.1 450.397 183.733 450.144 183.48C449.891 183.213 449.537 183.08 449.084 183.08C448.671 183.08 448.344 183.2 448.104 183.44C447.864 183.68 447.744 183.973 447.744 184.32C447.744 184.627 447.804 184.893 447.924 185.12C448.044 185.347 448.244 185.627 448.524 185.96L455.704 195H452.864ZM447.084 192.78C447.657 192.78 448.124 192.607 448.484 192.26C448.857 191.9 449.044 191.44 449.044 190.88C449.044 190.293 448.831 189.807 448.404 189.42C447.991 189.033 447.497 188.84 446.924 188.84C446.377 188.84 445.924 189.007 445.564 189.34C445.217 189.673 445.044 190.147 445.044 190.76C445.044 191.373 445.237 191.867 445.624 192.24C446.024 192.6 446.511 192.78 447.084 192.78ZM469.493 187.92C469.493 189.32 469.2 190.553 468.613 191.62C468.026 192.687 467.173 193.52 466.053 194.12C464.946 194.707 463.626 195 462.093 195H457.073V180.88H462.093C463.626 180.88 464.946 181.173 466.053 181.76C467.173 182.333 468.026 183.153 468.613 184.22C469.2 185.273 469.493 186.507 469.493 187.92ZM461.853 192.48C463.373 192.48 464.546 192.08 465.373 191.28C466.213 190.48 466.633 189.36 466.633 187.92C466.633 186.467 466.213 185.34 465.373 184.54C464.546 183.74 463.373 183.34 461.853 183.34H459.893V192.48H461.853Z" fill="white"/>
<path d="M980.88 156.88V159.12H976.98V171H974.16V159.12H970.28V156.88H980.88ZM985.252 162.04C985.666 161.333 986.212 160.78 986.892 160.38C987.572 159.967 988.332 159.76 989.172 159.76V162.78H988.352C986.286 162.78 985.252 163.74 985.252 165.66V171H982.432V159.92H985.252V162.04ZM995.073 159.78C996.006 159.78 996.806 160 997.473 160.44C998.14 160.88 998.613 161.473 998.893 162.22V159.92H1001.69V171H998.893V168.68C998.613 169.427 998.14 170.027 997.473 170.48C996.806 170.92 996.006 171.14 995.073 171.14C994.14 171.14 993.3 170.913 992.553 170.46C991.806 170.007 991.22 169.353 990.793 168.5C990.38 167.633 990.173 166.62 990.173 165.46C990.173 164.3 990.38 163.293 990.793 162.44C991.22 161.573 991.806 160.913 992.553 160.46C993.3 160.007 994.14 159.78 995.073 159.78ZM995.953 162.24C995.073 162.24 994.366 162.527 993.833 163.1C993.3 163.673 993.033 164.46 993.033 165.46C993.033 166.46 993.3 167.247 993.833 167.82C994.366 168.38 995.073 168.66 995.953 168.66C996.806 168.66 997.506 168.373 998.053 167.8C998.613 167.213 998.893 166.433 998.893 165.46C998.893 164.473 998.613 163.693 998.053 163.12C997.506 162.533 996.806 162.24 995.953 162.24ZM1010.85 159.76C1012.13 159.76 1013.15 160.18 1013.91 161.02C1014.67 161.86 1015.05 163.04 1015.05 164.56V171H1012.25V164.88C1012.25 164 1012.02 163.32 1011.57 162.84C1011.12 162.347 1010.5 162.1 1009.71 162.1C1008.91 162.1 1008.27 162.36 1007.79 162.88C1007.31 163.4 1007.07 164.147 1007.07 165.12V171H1004.25V159.92H1007.07V162.14C1007.36 161.393 1007.84 160.813 1008.51 160.4C1009.19 159.973 1009.97 159.76 1010.85 159.76ZM1021.35 159.78C1022.7 159.78 1023.78 160.12 1024.59 160.8C1025.4 161.48 1025.91 162.387 1026.11 163.52H1023.47C1023.36 162.987 1023.12 162.56 1022.75 162.24C1022.38 161.92 1021.89 161.76 1021.29 161.76C1020.81 161.76 1020.44 161.873 1020.17 162.1C1019.9 162.327 1019.77 162.633 1019.77 163.02C1019.77 163.327 1019.88 163.573 1020.09 163.76C1020.3 163.947 1020.57 164.093 1020.89 164.2C1021.21 164.307 1021.67 164.433 1022.27 164.58C1023.11 164.767 1023.79 164.967 1024.31 165.18C1024.84 165.38 1025.3 165.707 1025.67 166.16C1026.06 166.6 1026.25 167.2 1026.25 167.96C1026.25 168.907 1025.88 169.673 1025.13 170.26C1024.4 170.847 1023.4 171.14 1022.15 171.14C1020.71 171.14 1019.56 170.82 1018.69 170.18C1017.82 169.527 1017.3 168.6 1017.11 167.4H1019.81C1019.88 167.947 1020.12 168.38 1020.53 168.7C1020.94 169.007 1021.48 169.16 1022.15 169.16C1022.63 169.16 1023 169.047 1023.25 168.82C1023.5 168.58 1023.63 168.273 1023.63 167.9C1023.63 167.58 1023.52 167.32 1023.29 167.12C1023.08 166.92 1022.8 166.767 1022.47 166.66C1022.15 166.553 1021.69 166.427 1021.09 166.28C1020.26 166.093 1019.59 165.907 1019.07 165.72C1018.56 165.52 1018.12 165.207 1017.75 164.78C1017.39 164.353 1017.21 163.767 1017.21 163.02C1017.21 162.06 1017.58 161.28 1018.31 160.68C1019.04 160.08 1020.06 159.78 1021.35 159.78ZM1033.83 158C1033 157.947 1032.42 158.067 1032.09 158.36C1031.76 158.653 1031.59 159.167 1031.59 159.9V159.92H1033.83V162.3H1031.59V171H1028.77V162.3H1027.35V159.92H1028.77V159.66C1028.77 158.34 1029.14 157.327 1029.89 156.62C1030.65 155.9 1031.77 155.54 1033.25 155.54C1033.5 155.54 1033.7 155.547 1033.83 155.56V158ZM1045.94 165.04C1045.94 165.32 1045.9 165.64 1045.84 166H1037.72C1037.76 166.987 1038.02 167.713 1038.52 168.18C1039.01 168.647 1039.62 168.88 1040.36 168.88C1041.01 168.88 1041.55 168.72 1041.98 168.4C1042.42 168.08 1042.7 167.647 1042.82 167.1H1045.8C1045.65 167.873 1045.34 168.567 1044.86 169.18C1044.38 169.793 1043.76 170.273 1043 170.62C1042.25 170.967 1041.42 171.14 1040.5 171.14C1039.42 171.14 1038.46 170.913 1037.62 170.46C1036.78 169.993 1036.12 169.333 1035.66 168.48C1035.19 167.627 1034.96 166.62 1034.96 165.46C1034.96 164.3 1035.19 163.293 1035.66 162.44C1036.12 161.573 1036.78 160.913 1037.62 160.46C1038.46 160.007 1039.42 159.78 1040.5 159.78C1041.59 159.78 1042.54 160.007 1043.36 160.46C1044.18 160.913 1044.82 161.54 1045.26 162.34C1045.71 163.127 1045.94 164.027 1045.94 165.04ZM1043.1 164.76C1043.14 163.853 1042.9 163.167 1042.38 162.7C1041.87 162.233 1041.24 162 1040.5 162C1039.74 162 1039.1 162.233 1038.58 162.7C1038.06 163.167 1037.77 163.853 1037.72 164.76H1043.1ZM1050.76 162.04C1051.17 161.333 1051.72 160.78 1052.4 160.38C1053.08 159.967 1053.84 159.76 1054.68 159.76V162.78H1053.86C1051.79 162.78 1050.76 163.74 1050.76 165.66V171H1047.94V159.92H1050.76V162.04ZM1065.72 159.78C1066.8 159.78 1067.76 160.007 1068.62 160.46C1069.48 160.913 1070.16 161.573 1070.66 162.44C1071.15 163.293 1071.4 164.3 1071.4 165.46C1071.4 166.62 1071.15 167.627 1070.66 168.48C1070.16 169.333 1069.48 169.993 1068.62 170.46C1067.76 170.913 1066.8 171.14 1065.72 171.14C1064.64 171.14 1063.66 170.913 1062.8 170.46C1061.94 169.993 1061.27 169.333 1060.78 168.48C1060.28 167.627 1060.04 166.62 1060.04 165.46C1060.04 164.3 1060.28 163.293 1060.78 162.44C1061.27 161.573 1061.94 160.913 1062.8 160.46C1063.66 160.007 1064.64 159.78 1065.72 159.78ZM1065.72 162.22C1064.93 162.22 1064.26 162.5 1063.72 163.06C1063.17 163.607 1062.9 164.407 1062.9 165.46C1062.9 166.513 1063.17 167.32 1063.72 167.88C1064.26 168.427 1064.93 168.7 1065.72 168.7C1066.5 168.7 1067.17 168.427 1067.72 167.88C1068.26 167.32 1068.54 166.513 1068.54 165.46C1068.54 164.407 1068.26 163.607 1067.72 163.06C1067.17 162.5 1066.5 162.22 1065.72 162.22ZM1089.25 159.92L1086.27 171H1083.15L1080.77 162.94L1078.33 171H1075.21L1072.25 159.92H1075.07L1076.87 168.48L1079.33 159.92H1082.31L1084.79 168.48L1086.61 159.92H1089.25ZM1097.26 159.76C1098.54 159.76 1099.56 160.18 1100.32 161.02C1101.08 161.86 1101.46 163.04 1101.46 164.56V171H1098.66V164.88C1098.66 164 1098.43 163.32 1097.98 162.84C1097.52 162.347 1096.9 162.1 1096.12 162.1C1095.32 162.1 1094.68 162.36 1094.2 162.88C1093.72 163.4 1093.48 164.147 1093.48 165.12V171H1090.66V159.92H1093.48V162.14C1093.77 161.393 1094.25 160.813 1094.92 160.4C1095.6 159.973 1096.38 159.76 1097.26 159.76ZM1114.36 165.04C1114.36 165.32 1114.32 165.64 1114.26 166H1106.14C1106.18 166.987 1106.44 167.713 1106.94 168.18C1107.43 168.647 1108.04 168.88 1108.78 168.88C1109.43 168.88 1109.97 168.72 1110.4 168.4C1110.84 168.08 1111.12 167.647 1111.24 167.1H1114.22C1114.07 167.873 1113.76 168.567 1113.28 169.18C1112.8 169.793 1112.18 170.273 1111.42 170.62C1110.67 170.967 1109.84 171.14 1108.92 171.14C1107.84 171.14 1106.88 170.913 1106.04 170.46C1105.2 169.993 1104.54 169.333 1104.08 168.48C1103.61 167.627 1103.38 166.62 1103.38 165.46C1103.38 164.3 1103.61 163.293 1104.08 162.44C1104.54 161.573 1105.2 160.913 1106.04 160.46C1106.88 160.007 1107.84 159.78 1108.92 159.78C1110.01 159.78 1110.96 160.007 1111.78 160.46C1112.6 160.913 1113.24 161.54 1113.68 162.34C1114.13 163.127 1114.36 164.027 1114.36 165.04ZM1111.52 164.76C1111.56 163.853 1111.32 163.167 1110.8 162.7C1110.29 162.233 1109.66 162 1108.92 162C1108.16 162 1107.52 162.233 1107 162.7C1106.48 163.167 1106.19 163.853 1106.14 164.76H1111.52ZM1119.18 162.04C1119.59 161.333 1120.14 160.78 1120.82 160.38C1121.5 159.967 1122.26 159.76 1123.1 159.76V162.78H1122.28C1120.21 162.78 1119.18 163.74 1119.18 165.66V171H1116.36V159.92H1119.18V162.04ZM1128.48 159.78C1129.83 159.78 1130.91 160.12 1131.72 160.8C1132.53 161.48 1133.04 162.387 1133.24 163.52H1130.6C1130.49 162.987 1130.25 162.56 1129.88 162.24C1129.51 161.92 1129.02 161.76 1128.42 161.76C1127.94 161.76 1127.57 161.873 1127.3 162.1C1127.03 162.327 1126.9 162.633 1126.9 163.02C1126.9 163.327 1127.01 163.573 1127.22 163.76C1127.43 163.947 1127.7 164.093 1128.02 164.2C1128.34 164.307 1128.8 164.433 1129.4 164.58C1130.24 164.767 1130.92 164.967 1131.44 165.18C1131.97 165.38 1132.43 165.707 1132.8 166.16C1133.19 166.6 1133.38 167.2 1133.38 167.96C1133.38 168.907 1133.01 169.673 1132.26 170.26C1131.53 170.847 1130.53 171.14 1129.28 171.14C1127.84 171.14 1126.69 170.82 1125.82 170.18C1124.95 169.527 1124.43 168.6 1124.24 167.4H1126.94C1127.01 167.947 1127.25 168.38 1127.66 168.7C1128.07 169.007 1128.61 169.16 1129.28 169.16C1129.76 169.16 1130.13 169.047 1130.38 168.82C1130.63 168.58 1130.76 168.273 1130.76 167.9C1130.76 167.58 1130.65 167.32 1130.42 167.12C1130.21 166.92 1129.93 166.767 1129.6 166.66C1129.28 166.553 1128.82 166.427 1128.22 166.28C1127.39 166.093 1126.72 165.907 1126.2 165.72C1125.69 165.52 1125.25 165.207 1124.88 164.78C1124.52 164.353 1124.34 163.767 1124.34 163.02C1124.34 162.06 1124.71 161.28 1125.44 160.68C1126.17 160.08 1127.19 159.78 1128.48 159.78ZM1142.08 159.76C1143.36 159.76 1144.38 160.18 1145.14 161.02C1145.9 161.86 1146.28 163.04 1146.28 164.56V171H1143.48V164.88C1143.48 164 1143.25 163.32 1142.8 162.84C1142.35 162.347 1141.73 162.1 1140.94 162.1C1140.14 162.1 1139.5 162.36 1139.02 162.88C1138.54 163.4 1138.3 164.147 1138.3 165.12V171H1135.48V156.2H1138.3V162.14C1138.59 161.393 1139.07 160.813 1139.74 160.4C1140.42 159.973 1141.2 159.76 1142.08 159.76ZM1148.44 156.74C1148.44 156.287 1148.6 155.92 1148.92 155.64C1149.24 155.347 1149.66 155.2 1150.18 155.2C1150.7 155.2 1151.12 155.347 1151.44 155.64C1151.76 155.92 1151.92 156.287 1151.92 156.74C1151.92 157.18 1151.76 157.547 1151.44 157.84C1151.12 158.12 1150.7 158.26 1150.18 158.26C1149.66 158.26 1149.24 158.12 1148.92 157.84C1148.6 157.547 1148.44 157.18 1148.44 156.74ZM1151.58 159.92V171H1148.76V159.92H1151.58ZM1160.75 159.78C1161.68 159.78 1162.52 160.007 1163.27 160.46C1164.02 160.913 1164.6 161.573 1165.01 162.44C1165.44 163.293 1165.65 164.3 1165.65 165.46C1165.65 166.62 1165.44 167.633 1165.01 168.5C1164.6 169.353 1164.02 170.007 1163.27 170.46C1162.52 170.913 1161.68 171.14 1160.75 171.14C1159.82 171.14 1159.02 170.92 1158.35 170.48C1157.7 170.027 1157.23 169.427 1156.95 168.68V176.28H1154.13V159.92H1156.95V162.22C1157.23 161.473 1157.7 160.88 1158.35 160.44C1159.02 160 1159.82 159.78 1160.75 159.78ZM1159.87 162.24C1159.02 162.24 1158.31 162.533 1157.75 163.12C1157.2 163.693 1156.93 164.473 1156.93 165.46C1156.93 166.433 1157.2 167.213 1157.75 167.8C1158.31 168.373 1159.02 168.66 1159.87 168.66C1160.75 168.66 1161.46 168.38 1161.99 167.82C1162.52 167.247 1162.79 166.46 1162.79 165.46C1162.79 164.46 1162.52 163.673 1161.99 163.1C1161.46 162.527 1160.75 162.24 1159.87 162.24ZM1177.92 168.58V171H1176.44C1175.2 171 1174.25 170.7 1173.58 170.1C1172.93 169.5 1172.6 168.5 1172.6 167.1V162.3H1171.06V159.92H1172.6V157.18H1175.42V159.92H1177.9V162.3H1175.42V167.14C1175.42 167.673 1175.53 168.047 1175.74 168.26C1175.96 168.473 1176.32 168.58 1176.82 168.58H1177.92ZM1185.07 159.78C1186.15 159.78 1187.12 160.007 1187.97 160.46C1188.84 160.913 1189.52 161.573 1190.01 162.44C1190.51 163.293 1190.75 164.3 1190.75 165.46C1190.75 166.62 1190.51 167.627 1190.01 168.48C1189.52 169.333 1188.84 169.993 1187.97 170.46C1187.12 170.913 1186.15 171.14 1185.07 171.14C1183.99 171.14 1183.02 170.913 1182.15 170.46C1181.3 169.993 1180.63 169.333 1180.13 168.48C1179.64 167.627 1179.39 166.62 1179.39 165.46C1179.39 164.3 1179.64 163.293 1180.13 162.44C1180.63 161.573 1181.3 160.913 1182.15 160.46C1183.02 160.007 1183.99 159.78 1185.07 159.78ZM1185.07 162.22C1184.29 162.22 1183.62 162.5 1183.07 163.06C1182.53 163.607 1182.25 164.407 1182.25 165.46C1182.25 166.513 1182.53 167.32 1183.07 167.88C1183.62 168.427 1184.29 168.7 1185.07 168.7C1185.86 168.7 1186.53 168.427 1187.07 167.88C1187.62 167.32 1187.89 166.513 1187.89 165.46C1187.89 164.407 1187.62 163.607 1187.07 163.06C1186.53 162.5 1185.86 162.22 1185.07 162.22ZM973.18 183.92L976.2 191.44L979 183.92H982.1L975.32 200.28H972.2L974.7 194.68L970.04 183.92H973.18ZM988.548 183.78C989.628 183.78 990.595 184.007 991.448 184.46C992.315 184.913 992.995 185.573 993.488 186.44C993.982 187.293 994.228 188.3 994.228 189.46C994.228 190.62 993.982 191.627 993.488 192.48C992.995 193.333 992.315 193.993 991.448 194.46C990.595 194.913 989.628 195.14 988.548 195.14C987.468 195.14 986.495 194.913 985.628 194.46C984.775 193.993 984.102 193.333 983.608 192.48C983.115 191.627 982.868 190.62 982.868 189.46C982.868 188.3 983.115 187.293 983.608 186.44C984.102 185.573 984.775 184.913 985.628 184.46C986.495 184.007 987.468 183.78 988.548 183.78ZM988.548 186.22C987.762 186.22 987.095 186.5 986.548 187.06C986.002 187.607 985.728 188.407 985.728 189.46C985.728 190.513 986.002 191.32 986.548 191.88C987.095 192.427 987.762 192.7 988.548 192.7C989.335 192.7 990.002 192.427 990.548 191.88C991.095 191.32 991.368 190.513 991.368 189.46C991.368 188.407 991.095 187.607 990.548 187.06C990.002 186.5 989.335 186.22 988.548 186.22ZM1006.82 183.92V195H1004V192.76C1003.71 193.507 1003.22 194.093 1002.54 194.52C1001.87 194.933 1001.1 195.14 1000.22 195.14C998.941 195.14 997.921 194.72 997.161 193.88C996.401 193.04 996.021 191.867 996.021 190.36V183.92H998.821V190.04C998.821 190.92 999.048 191.607 999.501 192.1C999.955 192.58 1000.57 192.82 1001.34 192.82C1002.15 192.82 1002.8 192.56 1003.28 192.04C1003.76 191.52 1004 190.773 1004 189.8V183.92H1006.82ZM1020.4 176.06L1014.98 198.62H1012.26L1017.68 176.06H1020.4ZM1029.57 183.78C1030.92 183.78 1032 184.12 1032.81 184.8C1033.63 185.48 1034.13 186.387 1034.33 187.52H1031.69C1031.59 186.987 1031.35 186.56 1030.97 186.24C1030.6 185.92 1030.11 185.76 1029.51 185.76C1029.03 185.76 1028.66 185.873 1028.39 186.1C1028.13 186.327 1027.99 186.633 1027.99 187.02C1027.99 187.327 1028.1 187.573 1028.31 187.76C1028.53 187.947 1028.79 188.093 1029.11 188.2C1029.43 188.307 1029.89 188.433 1030.49 188.58C1031.33 188.767 1032.01 188.967 1032.53 189.18C1033.07 189.38 1033.52 189.707 1033.89 190.16C1034.28 190.6 1034.47 191.2 1034.47 191.96C1034.47 192.907 1034.1 193.673 1033.35 194.26C1032.62 194.847 1031.63 195.14 1030.37 195.14C1028.93 195.14 1027.78 194.82 1026.91 194.18C1026.05 193.527 1025.52 192.6 1025.33 191.4H1028.03C1028.1 191.947 1028.34 192.38 1028.75 192.7C1029.17 193.007 1029.71 193.16 1030.37 193.16C1030.85 193.16 1031.22 193.047 1031.47 192.82C1031.73 192.58 1031.85 192.273 1031.85 191.9C1031.85 191.58 1031.74 191.32 1031.51 191.12C1031.3 190.92 1031.03 190.767 1030.69 190.66C1030.37 190.553 1029.91 190.427 1029.31 190.28C1028.49 190.093 1027.81 189.907 1027.29 189.72C1026.79 189.52 1026.35 189.207 1025.97 188.78C1025.61 188.353 1025.43 187.767 1025.43 187.02C1025.43 186.06 1025.8 185.28 1026.53 184.68C1027.27 184.08 1028.28 183.78 1029.57 183.78ZM1042.49 192.58V195H1041.01C1039.77 195 1038.82 194.7 1038.15 194.1C1037.5 193.5 1037.17 192.5 1037.17 191.1V186.3H1035.63V183.92H1037.17V181.18H1039.99V183.92H1042.47V186.3H1039.99V191.14C1039.99 191.673 1040.1 192.047 1040.31 192.26C1040.53 192.473 1040.89 192.58 1041.39 192.58H1042.49ZM1048.86 183.78C1049.8 183.78 1050.6 184 1051.26 184.44C1051.93 184.88 1052.4 185.473 1052.68 186.22V183.92H1055.48V195H1052.68V192.68C1052.4 193.427 1051.93 194.027 1051.26 194.48C1050.6 194.92 1049.8 195.14 1048.86 195.14C1047.93 195.14 1047.09 194.913 1046.34 194.46C1045.6 194.007 1045.01 193.353 1044.58 192.5C1044.17 191.633 1043.96 190.62 1043.96 189.46C1043.96 188.3 1044.17 187.293 1044.58 186.44C1045.01 185.573 1045.6 184.913 1046.34 184.46C1047.09 184.007 1047.93 183.78 1048.86 183.78ZM1049.74 186.24C1048.86 186.24 1048.16 186.527 1047.62 187.1C1047.09 187.673 1046.82 188.46 1046.82 189.46C1046.82 190.46 1047.09 191.247 1047.62 191.82C1048.16 192.38 1048.86 192.66 1049.74 192.66C1050.6 192.66 1051.3 192.373 1051.84 191.8C1052.4 191.213 1052.68 190.433 1052.68 189.46C1052.68 188.473 1052.4 187.693 1051.84 187.12C1051.3 186.533 1050.6 186.24 1049.74 186.24ZM1059.94 183.92L1062.96 191.44L1065.76 183.92H1068.86L1062.08 200.28H1058.96L1061.46 194.68L1056.8 183.92H1059.94ZM1078.88 183.78C1079.82 183.78 1080.62 184 1081.28 184.44C1081.95 184.88 1082.42 185.473 1082.7 186.22V183.92H1085.5V195H1082.7V192.68C1082.42 193.427 1081.95 194.027 1081.28 194.48C1080.62 194.92 1079.82 195.14 1078.88 195.14C1077.95 195.14 1077.11 194.913 1076.36 194.46C1075.62 194.007 1075.03 193.353 1074.6 192.5C1074.19 191.633 1073.98 190.62 1073.98 189.46C1073.98 188.3 1074.19 187.293 1074.6 186.44C1075.03 185.573 1075.62 184.913 1076.36 184.46C1077.11 184.007 1077.95 183.78 1078.88 183.78ZM1079.76 186.24C1078.88 186.24 1078.18 186.527 1077.64 187.1C1077.11 187.673 1076.84 188.46 1076.84 189.46C1076.84 190.46 1077.11 191.247 1077.64 191.82C1078.18 192.38 1078.88 192.66 1079.76 192.66C1080.62 192.66 1081.32 192.373 1081.86 191.8C1082.42 191.213 1082.7 190.433 1082.7 189.46C1082.7 188.473 1082.42 187.693 1081.86 187.12C1081.32 186.533 1080.62 186.24 1079.76 186.24ZM1091.88 183.78C1093.22 183.78 1094.3 184.12 1095.12 184.8C1095.93 185.48 1096.44 186.387 1096.64 187.52H1094C1093.89 186.987 1093.65 186.56 1093.28 186.24C1092.9 185.92 1092.42 185.76 1091.82 185.76C1091.34 185.76 1090.96 185.873 1090.7 186.1C1090.43 186.327 1090.3 186.633 1090.3 187.02C1090.3 187.327 1090.4 187.573 1090.62 187.76C1090.83 187.947 1091.1 188.093 1091.42 188.2C1091.74 188.307 1092.2 188.433 1092.8 188.58C1093.64 188.767 1094.32 188.967 1094.84 189.18C1095.37 189.38 1095.82 189.707 1096.2 190.16C1096.58 190.6 1096.78 191.2 1096.78 191.96C1096.78 192.907 1096.4 193.673 1095.66 194.26C1094.92 194.847 1093.93 195.14 1092.68 195.14C1091.24 195.14 1090.08 194.82 1089.22 194.18C1088.35 193.527 1087.82 192.6 1087.64 191.4H1090.34C1090.4 191.947 1090.64 192.38 1091.06 192.7C1091.47 193.007 1092.01 193.16 1092.68 193.16C1093.16 193.16 1093.52 193.047 1093.78 192.82C1094.03 192.58 1094.16 192.273 1094.16 191.9C1094.16 191.58 1094.04 191.32 1093.82 191.12C1093.6 190.92 1093.33 190.767 1093 190.66C1092.68 190.553 1092.22 190.427 1091.62 190.28C1090.79 190.093 1090.12 189.907 1089.6 189.72C1089.09 189.52 1088.65 189.207 1088.28 188.78C1087.92 188.353 1087.74 187.767 1087.74 187.02C1087.74 186.06 1088.1 185.28 1088.84 184.68C1089.57 184.08 1090.58 183.78 1091.88 183.78ZM1109.15 192.58V195H1107.67C1106.43 195 1105.48 194.7 1104.81 194.1C1104.16 193.5 1103.83 192.5 1103.83 191.1V186.3H1102.29V183.92H1103.83V181.18H1106.65V183.92H1109.13V186.3H1106.65V191.14C1106.65 191.673 1106.76 192.047 1106.97 192.26C1107.19 192.473 1107.55 192.58 1108.05 192.58H1109.15ZM1121.6 189.04C1121.6 189.32 1121.57 189.64 1121.5 190H1113.38C1113.42 190.987 1113.69 191.713 1114.18 192.18C1114.68 192.647 1115.29 192.88 1116.02 192.88C1116.68 192.88 1117.22 192.72 1117.64 192.4C1118.08 192.08 1118.36 191.647 1118.48 191.1H1121.46C1121.32 191.873 1121 192.567 1120.52 193.18C1120.04 193.793 1119.42 194.273 1118.66 194.62C1117.92 194.967 1117.08 195.14 1116.16 195.14C1115.08 195.14 1114.12 194.913 1113.28 194.46C1112.44 193.993 1111.79 193.333 1111.32 192.48C1110.86 191.627 1110.62 190.62 1110.62 189.46C1110.62 188.3 1110.86 187.293 1111.32 186.44C1111.79 185.573 1112.44 184.913 1113.28 184.46C1114.12 184.007 1115.08 183.78 1116.16 183.78C1117.26 183.78 1118.21 184.007 1119.02 184.46C1119.85 184.913 1120.48 185.54 1120.92 186.34C1121.38 187.127 1121.6 188.027 1121.6 189.04ZM1118.76 188.76C1118.8 187.853 1118.56 187.167 1118.04 186.7C1117.54 186.233 1116.91 186 1116.16 186C1115.4 186 1114.76 186.233 1114.24 186.7C1113.72 187.167 1113.44 187.853 1113.38 188.76H1118.76ZM1128.58 183.78C1130.01 183.78 1131.2 184.167 1132.14 184.94C1133.1 185.713 1133.7 186.767 1133.94 188.1H1130.96C1130.84 187.513 1130.57 187.053 1130.14 186.72C1129.72 186.373 1129.18 186.2 1128.52 186.2C1127.78 186.2 1127.15 186.48 1126.64 187.04C1126.15 187.587 1125.9 188.393 1125.9 189.46C1125.9 190.527 1126.15 191.34 1126.64 191.9C1127.15 192.447 1127.78 192.72 1128.52 192.72C1129.18 192.72 1129.72 192.553 1130.14 192.22C1130.57 191.873 1130.84 191.407 1130.96 190.82H1133.94C1133.7 192.153 1133.1 193.207 1132.14 193.98C1131.2 194.753 1130.01 195.14 1128.58 195.14C1127.5 195.14 1126.54 194.913 1125.7 194.46C1124.86 193.993 1124.21 193.333 1123.74 192.48C1123.28 191.627 1123.04 190.62 1123.04 189.46C1123.04 188.3 1123.28 187.293 1123.74 186.44C1124.21 185.573 1124.86 184.913 1125.7 184.46C1126.54 184.007 1127.5 183.78 1128.58 183.78ZM1142.55 183.76C1143.83 183.76 1144.85 184.18 1145.61 185.02C1146.37 185.86 1146.75 187.04 1146.75 188.56V195H1143.95V188.88C1143.95 188 1143.72 187.32 1143.27 186.84C1142.81 186.347 1142.19 186.1 1141.41 186.1C1140.61 186.1 1139.97 186.36 1139.49 186.88C1139.01 187.4 1138.77 188.147 1138.77 189.12V195H1135.95V180.2H1138.77V186.14C1139.06 185.393 1139.54 184.813 1140.21 184.4C1140.89 183.973 1141.67 183.76 1142.55 183.76ZM975.62 207.78C976.553 207.78 977.353 208 978.02 208.44C978.687 208.88 979.16 209.473 979.44 210.22V207.92H982.24V219H979.44V216.68C979.16 217.427 978.687 218.027 978.02 218.48C977.353 218.92 976.553 219.14 975.62 219.14C974.687 219.14 973.847 218.913 973.1 218.46C972.353 218.007 971.767 217.353 971.34 216.5C970.927 215.633 970.72 214.62 970.72 213.46C970.72 212.3 970.927 211.293 971.34 210.44C971.767 209.573 972.353 208.913 973.1 208.46C973.847 208.007 974.687 207.78 975.62 207.78ZM976.5 210.24C975.62 210.24 974.913 210.527 974.38 211.1C973.847 211.673 973.58 212.46 973.58 213.46C973.58 214.46 973.847 215.247 974.38 215.82C974.913 216.38 975.62 216.66 976.5 216.66C977.353 216.66 978.053 216.373 978.6 215.8C979.16 215.213 979.44 214.433 979.44 213.46C979.44 212.473 979.16 211.693 978.6 211.12C978.053 210.533 977.353 210.24 976.5 210.24ZM989.136 207.78C990.069 207.78 990.862 208 991.516 208.44C992.182 208.88 992.662 209.473 992.956 210.22V204.2H995.756V219H992.956V216.68C992.662 217.427 992.182 218.027 991.516 218.48C990.862 218.92 990.069 219.14 989.136 219.14C988.202 219.14 987.362 218.913 986.616 218.46C985.869 218.007 985.282 217.353 984.856 216.5C984.442 215.633 984.236 214.62 984.236 213.46C984.236 212.3 984.442 211.293 984.856 210.44C985.282 209.573 985.869 208.913 986.616 208.46C987.362 208.007 988.202 207.78 989.136 207.78ZM990.016 210.24C989.136 210.24 988.429 210.527 987.896 211.1C987.362 211.673 987.096 212.46 987.096 213.46C987.096 214.46 987.362 215.247 987.896 215.82C988.429 216.38 989.136 216.66 990.016 216.66C990.869 216.66 991.569 216.373 992.116 215.8C992.676 215.213 992.956 214.433 992.956 213.46C992.956 212.473 992.676 211.693 992.116 211.12C991.569 210.533 990.869 210.24 990.016 210.24ZM1003.13 216.18L1005.93 207.92H1008.93L1004.83 219H1001.39L997.291 207.92H1000.31L1003.13 216.18ZM1010.18 204.74C1010.18 204.287 1010.34 203.92 1010.66 203.64C1010.98 203.347 1011.4 203.2 1011.92 203.2C1012.44 203.2 1012.86 203.347 1013.18 203.64C1013.5 203.92 1013.66 204.287 1013.66 204.74C1013.66 205.18 1013.5 205.547 1013.18 205.84C1012.86 206.12 1012.44 206.26 1011.92 206.26C1011.4 206.26 1010.98 206.12 1010.66 205.84C1010.34 205.547 1010.18 205.18 1010.18 204.74ZM1013.32 207.92V219H1010.5V207.92H1013.32ZM1019.69 207.78C1021.04 207.78 1022.12 208.12 1022.93 208.8C1023.74 209.48 1024.25 210.387 1024.45 211.52H1021.81C1021.7 210.987 1021.46 210.56 1021.09 210.24C1020.72 209.92 1020.23 209.76 1019.63 209.76C1019.15 209.76 1018.78 209.873 1018.51 210.1C1018.24 210.327 1018.11 210.633 1018.11 211.02C1018.11 211.327 1018.22 211.573 1018.43 211.76C1018.64 211.947 1018.91 212.093 1019.23 212.2C1019.55 212.307 1020.01 212.433 1020.61 212.58C1021.45 212.767 1022.13 212.967 1022.65 213.18C1023.18 213.38 1023.64 213.707 1024.01 214.16C1024.4 214.6 1024.59 215.2 1024.59 215.96C1024.59 216.907 1024.22 217.673 1023.47 218.26C1022.74 218.847 1021.74 219.14 1020.49 219.14C1019.05 219.14 1017.9 218.82 1017.03 218.18C1016.16 217.527 1015.64 216.6 1015.45 215.4H1018.15C1018.22 215.947 1018.46 216.38 1018.87 216.7C1019.28 217.007 1019.82 217.16 1020.49 217.16C1020.97 217.16 1021.34 217.047 1021.59 216.82C1021.84 216.58 1021.97 216.273 1021.97 215.9C1021.97 215.58 1021.86 215.32 1021.63 215.12C1021.42 214.92 1021.14 214.767 1020.81 214.66C1020.49 214.553 1020.03 214.427 1019.43 214.28C1018.6 214.093 1017.93 213.907 1017.41 213.72C1016.9 213.52 1016.46 213.207 1016.09 212.78C1015.73 212.353 1015.55 211.767 1015.55 211.02C1015.55 210.06 1015.92 209.28 1016.65 208.68C1017.38 208.08 1018.4 207.78 1019.69 207.78ZM1031.81 207.78C1032.89 207.78 1033.86 208.007 1034.71 208.46C1035.58 208.913 1036.26 209.573 1036.75 210.44C1037.24 211.293 1037.49 212.3 1037.49 213.46C1037.49 214.62 1037.24 215.627 1036.75 216.48C1036.26 217.333 1035.58 217.993 1034.71 218.46C1033.86 218.913 1032.89 219.14 1031.81 219.14C1030.73 219.14 1029.76 218.913 1028.89 218.46C1028.04 217.993 1027.36 217.333 1026.87 216.48C1026.38 215.627 1026.13 214.62 1026.13 213.46C1026.13 212.3 1026.38 211.293 1026.87 210.44C1027.36 209.573 1028.04 208.913 1028.89 208.46C1029.76 208.007 1030.73 207.78 1031.81 207.78ZM1031.81 210.22C1031.02 210.22 1030.36 210.5 1029.81 211.06C1029.26 211.607 1028.99 212.407 1028.99 213.46C1028.99 214.513 1029.26 215.32 1029.81 215.88C1030.36 216.427 1031.02 216.7 1031.81 216.7C1032.6 216.7 1033.26 216.427 1033.81 215.88C1034.36 215.32 1034.63 214.513 1034.63 213.46C1034.63 212.407 1034.36 211.607 1033.81 211.06C1033.26 210.5 1032.6 210.22 1031.81 210.22ZM1042.3 210.04C1042.72 209.333 1043.26 208.78 1043.94 208.38C1044.62 207.967 1045.38 207.76 1046.22 207.76V210.78H1045.4C1043.34 210.78 1042.3 211.74 1042.3 213.66V219H1039.48V207.92H1042.3V210.04Z" fill="white"/>
<path d="M693.16 163.72C694.013 163.893 694.693 164.3 695.2 164.94C695.72 165.567 695.98 166.307 695.98 167.16C695.98 168.347 695.58 169.287 694.78 169.98C693.993 170.66 692.847 171 691.34 171H685.28V156.88H691.22C692.647 156.88 693.74 157.193 694.5 157.82C695.273 158.447 695.66 159.327 695.66 160.46C695.66 161.34 695.427 162.06 694.96 162.62C694.507 163.18 693.907 163.547 693.16 163.72ZM688.1 162.8H690.64C691.347 162.8 691.88 162.647 692.24 162.34C692.613 162.02 692.8 161.567 692.8 160.98C692.8 160.393 692.62 159.94 692.26 159.62C691.9 159.3 691.347 159.14 690.6 159.14H688.1V162.8ZM690.78 168.7C691.527 168.7 692.1 168.54 692.5 168.22C692.9 167.887 693.1 167.407 693.1 166.78C693.1 166.153 692.893 165.673 692.48 165.34C692.08 164.993 691.507 164.82 690.76 164.82H688.1V168.7H690.78ZM708.556 159.92V171H705.736V168.76C705.442 169.507 704.956 170.093 704.276 170.52C703.609 170.933 702.836 171.14 701.956 171.14C700.676 171.14 699.656 170.72 698.896 169.88C698.136 169.04 697.756 167.867 697.756 166.36V159.92H700.556V166.04C700.556 166.92 700.782 167.607 701.236 168.1C701.689 168.58 702.302 168.82 703.076 168.82C703.889 168.82 704.536 168.56 705.016 168.04C705.496 167.52 705.736 166.773 705.736 165.8V159.92H708.556ZM710.8 156.74C710.8 156.287 710.96 155.92 711.28 155.64C711.6 155.347 712.02 155.2 712.54 155.2C713.06 155.2 713.48 155.347 713.8 155.64C714.12 155.92 714.28 156.287 714.28 156.74C714.28 157.18 714.12 157.547 713.8 157.84C713.48 158.12 713.06 158.26 712.54 158.26C712.02 158.26 711.6 158.12 711.28 157.84C710.96 157.547 710.8 157.18 710.8 156.74ZM713.94 159.92V171H711.12V159.92H713.94ZM719.311 156.2V171H716.491V156.2H719.311ZM726.202 159.78C727.135 159.78 727.929 160 728.582 160.44C729.249 160.88 729.729 161.473 730.022 162.22V156.2H732.822V171H730.022V168.68C729.729 169.427 729.249 170.027 728.582 170.48C727.929 170.92 727.135 171.14 726.202 171.14C725.269 171.14 724.429 170.913 723.682 170.46C722.935 170.007 722.349 169.353 721.922 168.5C721.509 167.633 721.302 166.62 721.302 165.46C721.302 164.3 721.509 163.293 721.922 162.44C722.349 161.573 722.935 160.913 723.682 160.46C724.429 160.007 725.269 159.78 726.202 159.78ZM727.082 162.24C726.202 162.24 725.495 162.527 724.962 163.1C724.429 163.673 724.162 164.46 724.162 165.46C724.162 166.46 724.429 167.247 724.962 167.82C725.495 168.38 726.202 168.66 727.082 168.66C727.935 168.66 728.635 168.373 729.182 167.8C729.742 167.213 730.022 166.433 730.022 165.46C730.022 164.473 729.742 163.693 729.182 163.12C728.635 162.533 727.935 162.24 727.082 162.24ZM745.653 168.58V171H744.173C742.933 171 741.98 170.7 741.313 170.1C740.66 169.5 740.333 168.5 740.333 167.1V162.3H738.793V159.92H740.333V157.18H743.153V159.92H745.633V162.3H743.153V167.14C743.153 167.673 743.26 168.047 743.473 168.26C743.686 168.473 744.046 168.58 744.553 168.58H745.653ZM754.282 159.76C755.562 159.76 756.582 160.18 757.342 161.02C758.102 161.86 758.482 163.04 758.482 164.56V171H755.682V164.88C755.682 164 755.456 163.32 755.002 162.84C754.549 162.347 753.929 162.1 753.142 162.1C752.342 162.1 751.702 162.36 751.222 162.88C750.742 163.4 750.502 164.147 750.502 165.12V171H747.682V156.2H750.502V162.14C750.796 161.393 751.276 160.813 751.942 160.4C752.622 159.973 753.402 159.76 754.282 159.76ZM771.384 165.04C771.384 165.32 771.35 165.64 771.284 166H763.164C763.204 166.987 763.47 167.713 763.964 168.18C764.457 168.647 765.07 168.88 765.804 168.88C766.457 168.88 766.997 168.72 767.424 168.4C767.864 168.08 768.144 167.647 768.264 167.1H771.244C771.097 167.873 770.784 168.567 770.304 169.18C769.824 169.793 769.204 170.273 768.444 170.62C767.697 170.967 766.864 171.14 765.944 171.14C764.864 171.14 763.904 170.913 763.064 170.46C762.224 169.993 761.57 169.333 761.104 168.48C760.637 167.627 760.404 166.62 760.404 165.46C760.404 164.3 760.637 163.293 761.104 162.44C761.57 161.573 762.224 160.913 763.064 160.46C763.904 160.007 764.864 159.78 765.944 159.78C767.037 159.78 767.99 160.007 768.804 160.46C769.63 160.913 770.264 161.54 770.704 162.34C771.157 163.127 771.384 164.027 771.384 165.04ZM768.544 164.76C768.584 163.853 768.344 163.167 767.824 162.7C767.317 162.233 766.69 162 765.944 162C765.184 162 764.544 162.233 764.024 162.7C763.504 163.167 763.217 163.853 763.164 164.76H768.544ZM691.9 183.78C692.833 183.78 693.673 184.007 694.42 184.46C695.167 184.913 695.747 185.573 696.16 186.44C696.587 187.293 696.8 188.3 696.8 189.46C696.8 190.62 696.587 191.633 696.16 192.5C695.747 193.353 695.167 194.007 694.42 194.46C693.673 194.913 692.833 195.14 691.9 195.14C690.967 195.14 690.167 194.92 689.5 194.48C688.847 194.027 688.38 193.427 688.1 192.68V200.28H685.28V183.92H688.1V186.22C688.38 185.473 688.847 184.88 689.5 184.44C690.167 184 690.967 183.78 691.9 183.78ZM691.02 186.24C690.167 186.24 689.46 186.533 688.9 187.12C688.353 187.693 688.08 188.473 688.08 189.46C688.08 190.433 688.353 191.213 688.9 191.8C689.46 192.373 690.167 192.66 691.02 192.66C691.9 192.66 692.607 192.38 693.14 191.82C693.673 191.247 693.94 190.46 693.94 189.46C693.94 188.46 693.673 187.673 693.14 187.1C692.607 186.527 691.9 186.24 691.02 186.24ZM701.616 186.04C702.029 185.333 702.576 184.78 703.256 184.38C703.936 183.967 704.696 183.76 705.536 183.76V186.78H704.716C702.649 186.78 701.616 187.74 701.616 189.66V195H698.796V183.92H701.616V186.04ZM712.216 183.78C713.296 183.78 714.263 184.007 715.116 184.46C715.983 184.913 716.663 185.573 717.156 186.44C717.65 187.293 717.896 188.3 717.896 189.46C717.896 190.62 717.65 191.627 717.156 192.48C716.663 193.333 715.983 193.993 715.116 194.46C714.263 194.913 713.296 195.14 712.216 195.14C711.136 195.14 710.163 194.913 709.296 194.46C708.443 193.993 707.77 193.333 707.276 192.48C706.783 191.627 706.536 190.62 706.536 189.46C706.536 188.3 706.783 187.293 707.276 186.44C707.77 185.573 708.443 184.913 709.296 184.46C710.163 184.007 711.136 183.78 712.216 183.78ZM712.216 186.22C711.43 186.22 710.763 186.5 710.216 187.06C709.67 187.607 709.396 188.407 709.396 189.46C709.396 190.513 709.67 191.32 710.216 191.88C710.763 192.427 711.43 192.7 712.216 192.7C713.003 192.7 713.67 192.427 714.216 191.88C714.763 191.32 715.036 190.513 715.036 189.46C715.036 188.407 714.763 187.607 714.216 187.06C713.67 186.5 713.003 186.22 712.216 186.22ZM724.229 183.78C725.163 183.78 725.956 184 726.609 184.44C727.276 184.88 727.756 185.473 728.049 186.22V180.2H730.849V195H728.049V192.68C727.756 193.427 727.276 194.027 726.609 194.48C725.956 194.92 725.163 195.14 724.229 195.14C723.296 195.14 722.456 194.913 721.709 194.46C720.963 194.007 720.376 193.353 719.949 192.5C719.536 191.633 719.329 190.62 719.329 189.46C719.329 188.3 719.536 187.293 719.949 186.44C720.376 185.573 720.963 184.913 721.709 184.46C722.456 184.007 723.296 183.78 724.229 183.78ZM725.109 186.24C724.229 186.24 723.523 186.527 722.989 187.1C722.456 187.673 722.189 188.46 722.189 189.46C722.189 190.46 722.456 191.247 722.989 191.82C723.523 192.38 724.229 192.66 725.109 192.66C725.963 192.66 726.663 192.373 727.209 191.8C727.769 191.213 728.049 190.433 728.049 189.46C728.049 188.473 727.769 187.693 727.209 187.12C726.663 186.533 725.963 186.24 725.109 186.24ZM744.005 183.92V195H741.185V192.76C740.892 193.507 740.405 194.093 739.725 194.52C739.058 194.933 738.285 195.14 737.405 195.14C736.125 195.14 735.105 194.72 734.345 193.88C733.585 193.04 733.205 191.867 733.205 190.36V183.92H736.005V190.04C736.005 190.92 736.232 191.607 736.685 192.1C737.138 192.58 737.752 192.82 738.525 192.82C739.338 192.82 739.985 192.56 740.465 192.04C740.945 191.52 741.185 190.773 741.185 189.8V183.92H744.005ZM751.549 183.78C752.976 183.78 754.162 184.167 755.109 184.94C756.069 185.713 756.669 186.767 756.909 188.1H753.929C753.809 187.513 753.536 187.053 753.109 186.72C752.682 186.373 752.142 186.2 751.489 186.2C750.742 186.2 750.116 186.48 749.609 187.04C749.116 187.587 748.869 188.393 748.869 189.46C748.869 190.527 749.116 191.34 749.609 191.9C750.116 192.447 750.742 192.72 751.489 192.72C752.142 192.72 752.682 192.553 753.109 192.22C753.536 191.873 753.809 191.407 753.929 190.82H756.909C756.669 192.153 756.069 193.207 755.109 193.98C754.162 194.753 752.976 195.14 751.549 195.14C750.469 195.14 749.509 194.913 748.669 194.46C747.829 193.993 747.176 193.333 746.709 192.48C746.242 191.627 746.009 190.62 746.009 189.46C746.009 188.3 746.242 187.293 746.709 186.44C747.176 185.573 747.829 184.913 748.669 184.46C749.509 184.007 750.469 183.78 751.549 183.78ZM764.833 192.58V195H763.353C762.113 195 761.159 194.7 760.493 194.1C759.839 193.5 759.513 192.5 759.513 191.1V186.3H757.973V183.92H759.513V181.18H762.333V183.92H764.813V186.3H762.333V191.14C762.333 191.673 762.439 192.047 762.653 192.26C762.866 192.473 763.226 192.58 763.733 192.58H764.833Z" fill="white"/>
<path d="M548.66 4.74C550.42 4.74 551.88 5.19333 553.04 6.1C554.2 7.00667 554.967 8.24 555.34 9.8H552.38C552.073 9.04 551.593 8.44 550.94 8C550.3 7.56 549.527 7.34 548.62 7.34C547.873 7.34 547.2 7.52667 546.6 7.9C546 8.27333 545.533 8.80667 545.2 9.5C544.867 10.1933 544.7 11.0067 544.7 11.94C544.7 12.86 544.867 13.6667 545.2 14.36C545.533 15.0533 546 15.5867 546.6 15.96C547.2 16.3333 547.873 16.52 548.62 16.52C549.527 16.52 550.3 16.3 550.94 15.86C551.593 15.42 552.073 14.82 552.38 14.06H555.34C554.967 15.62 554.2 16.8533 553.04 17.76C551.88 18.6667 550.42 19.12 548.66 19.12C547.313 19.12 546.12 18.82 545.08 18.22C544.053 17.6067 543.253 16.7533 542.68 15.66C542.12 14.5667 541.84 13.3267 541.84 11.94C541.84 10.54 542.12 9.29333 542.68 8.2C543.253 7.10667 544.053 6.26 545.08 5.66C546.107 5.04667 547.3 4.74 548.66 4.74ZM560.276 10.04C560.689 9.33333 561.236 8.78 561.916 8.38C562.596 7.96667 563.356 7.76 564.196 7.76V10.78H563.376C561.309 10.78 560.276 11.74 560.276 13.66V19H557.456V7.92H560.276V10.04ZM576.177 13.04C576.177 13.32 576.143 13.64 576.077 14H567.957C567.997 14.9867 568.263 15.7133 568.757 16.18C569.25 16.6467 569.863 16.88 570.597 16.88C571.25 16.88 571.79 16.72 572.217 16.4C572.657 16.08 572.937 15.6467 573.057 15.1H576.037C575.89 15.8733 575.577 16.5667 575.097 17.18C574.617 17.7933 573.997 18.2733 573.237 18.62C572.49 18.9667 571.657 19.14 570.737 19.14C569.657 19.14 568.697 18.9133 567.857 18.46C567.017 17.9933 566.363 17.3333 565.897 16.48C565.43 15.6267 565.197 14.62 565.197 13.46C565.197 12.3 565.43 11.2933 565.897 10.44C566.363 9.57333 567.017 8.91333 567.857 8.46C568.697 8.00667 569.657 7.78 570.737 7.78C571.83 7.78 572.783 8.00667 573.597 8.46C574.423 8.91333 575.057 9.54 575.497 10.34C575.95 11.1267 576.177 12.0267 576.177 13.04ZM573.337 12.76C573.377 11.8533 573.137 11.1667 572.617 10.7C572.11 10.2333 571.483 10 570.737 10C569.977 10 569.337 10.2333 568.817 10.7C568.297 11.1667 568.01 11.8533 567.957 12.76H573.337ZM582.518 7.78C583.452 7.78 584.252 8 584.918 8.44C585.585 8.88 586.058 9.47333 586.338 10.22V7.92H589.138V19H586.338V16.68C586.058 17.4267 585.585 18.0267 584.918 18.48C584.252 18.92 583.452 19.14 582.518 19.14C581.585 19.14 580.745 18.9133 579.998 18.46C579.252 18.0067 578.665 17.3533 578.238 16.5C577.825 15.6333 577.618 14.62 577.618 13.46C577.618 12.3 577.825 11.2933 578.238 10.44C578.665 9.57333 579.252 8.91333 579.998 8.46C580.745 8.00667 581.585 7.78 582.518 7.78ZM583.398 10.24C582.518 10.24 581.812 10.5267 581.278 11.1C580.745 11.6733 580.478 12.46 580.478 13.46C580.478 14.46 580.745 15.2467 581.278 15.82C581.812 16.38 582.518 16.66 583.398 16.66C584.252 16.66 584.952 16.3733 585.498 15.8C586.058 15.2133 586.338 14.4333 586.338 13.46C586.338 12.4733 586.058 11.6933 585.498 11.12C584.952 10.5333 584.252 10.24 583.398 10.24ZM597.614 16.58V19H596.134C594.894 19 593.941 18.7 593.274 18.1C592.621 17.5 592.294 16.5 592.294 15.1V10.3H590.754V7.92H592.294V5.18H595.114V7.92H597.594V10.3H595.114V15.14C595.114 15.6733 595.221 16.0467 595.434 16.26C595.647 16.4733 596.007 16.58 596.514 16.58H597.614ZM610.063 13.04C610.063 13.32 610.03 13.64 609.963 14H601.843C601.883 14.9867 602.15 15.7133 602.643 16.18C603.137 16.6467 603.75 16.88 604.483 16.88C605.137 16.88 605.677 16.72 606.103 16.4C606.543 16.08 606.823 15.6467 606.943 15.1H609.923C609.777 15.8733 609.463 16.5667 608.983 17.18C608.503 17.7933 607.883 18.2733 607.123 18.62C606.377 18.9667 605.543 19.14 604.623 19.14C603.543 19.14 602.583 18.9133 601.743 18.46C600.903 17.9933 600.25 17.3333 599.783 16.48C599.317 15.6267 599.083 14.62 599.083 13.46C599.083 12.3 599.317 11.2933 599.783 10.44C600.25 9.57333 600.903 8.91333 601.743 8.46C602.583 8.00667 603.543 7.78 604.623 7.78C605.717 7.78 606.67 8.00667 607.483 8.46C608.31 8.91333 608.943 9.54 609.383 10.34C609.837 11.1267 610.063 12.0267 610.063 13.04ZM607.223 12.76C607.263 11.8533 607.023 11.1667 606.503 10.7C605.997 10.2333 605.37 10 604.623 10C603.863 10 603.223 10.2333 602.703 10.7C602.183 11.1667 601.897 11.8533 601.843 12.76H607.223ZM620.761 7.78C621.694 7.78 622.494 8 623.161 8.44C623.827 8.88 624.301 9.47333 624.581 10.22V7.92H627.381V19H624.581V16.68C624.301 17.4267 623.827 18.0267 623.161 18.48C622.494 18.92 621.694 19.14 620.761 19.14C619.827 19.14 618.987 18.9133 618.241 18.46C617.494 18.0067 616.907 17.3533 616.481 16.5C616.067 15.6333 615.861 14.62 615.861 13.46C615.861 12.3 616.067 11.2933 616.481 10.44C616.907 9.57333 617.494 8.91333 618.241 8.46C618.987 8.00667 619.827 7.78 620.761 7.78ZM621.641 10.24C620.761 10.24 620.054 10.5267 619.521 11.1C618.987 11.6733 618.721 12.46 618.721 13.46C618.721 14.46 618.987 15.2467 619.521 15.82C620.054 16.38 620.761 16.66 621.641 16.66C622.494 16.66 623.194 16.3733 623.741 15.8C624.301 15.2133 624.581 14.4333 624.581 13.46C624.581 12.4733 624.301 11.6933 623.741 11.12C623.194 10.5333 622.494 10.24 621.641 10.24ZM545.1 34.04C545.513 33.3333 546.06 32.78 546.74 32.38C547.42 31.9667 548.18 31.76 549.02 31.76V34.78H548.2C546.133 34.78 545.1 35.74 545.1 37.66V43H542.28V31.92H545.1V34.04ZM555.701 31.78C556.781 31.78 557.747 32.0067 558.601 32.46C559.467 32.9133 560.147 33.5733 560.641 34.44C561.134 35.2933 561.381 36.3 561.381 37.46C561.381 38.62 561.134 39.6267 560.641 40.48C560.147 41.3333 559.467 41.9933 558.601 42.46C557.747 42.9133 556.781 43.14 555.701 43.14C554.621 43.14 553.647 42.9133 552.781 42.46C551.927 41.9933 551.254 41.3333 550.761 40.48C550.267 39.6267 550.021 38.62 550.021 37.46C550.021 36.3 550.267 35.2933 550.761 34.44C551.254 33.5733 551.927 32.9133 552.781 32.46C553.647 32.0067 554.621 31.78 555.701 31.78ZM555.701 34.22C554.914 34.22 554.247 34.5 553.701 35.06C553.154 35.6067 552.881 36.4067 552.881 37.46C552.881 38.5133 553.154 39.32 553.701 39.88C554.247 40.4267 554.914 40.7 555.701 40.7C556.487 40.7 557.154 40.4267 557.701 39.88C558.247 39.32 558.521 38.5133 558.521 37.46C558.521 36.4067 558.247 35.6067 557.701 35.06C557.154 34.5 556.487 34.22 555.701 34.22ZM567.714 31.78C568.647 31.78 569.447 32 570.114 32.44C570.78 32.88 571.254 33.4733 571.534 34.22V31.92H574.334V43H571.534V40.68C571.254 41.4267 570.78 42.0267 570.114 42.48C569.447 42.92 568.647 43.14 567.714 43.14C566.78 43.14 565.94 42.9133 565.194 42.46C564.447 42.0067 563.86 41.3533 563.434 40.5C563.02 39.6333 562.814 38.62 562.814 37.46C562.814 36.3 563.02 35.2933 563.434 34.44C563.86 33.5733 564.447 32.9133 565.194 32.46C565.94 32.0067 566.78 31.78 567.714 31.78ZM568.594 34.24C567.714 34.24 567.007 34.5267 566.474 35.1C565.94 35.6733 565.674 36.46 565.674 37.46C565.674 38.46 565.94 39.2467 566.474 39.82C567.007 40.38 567.714 40.66 568.594 40.66C569.447 40.66 570.147 40.3733 570.694 39.8C571.254 39.2133 571.534 38.4333 571.534 37.46C571.534 36.4733 571.254 35.6933 570.694 35.12C570.147 34.5333 569.447 34.24 568.594 34.24ZM581.229 31.78C582.163 31.78 582.956 32 583.609 32.44C584.276 32.88 584.756 33.4733 585.049 34.22V28.2H587.849V43H585.049V40.68C584.756 41.4267 584.276 42.0267 583.609 42.48C582.956 42.92 582.163 43.14 581.229 43.14C580.296 43.14 579.456 42.9133 578.709 42.46C577.963 42.0067 577.376 41.3533 576.949 40.5C576.536 39.6333 576.329 38.62 576.329 37.46C576.329 36.3 576.536 35.2933 576.949 34.44C577.376 33.5733 577.963 32.9133 578.709 32.46C579.456 32.0067 580.296 31.78 581.229 31.78ZM582.109 34.24C581.229 34.24 580.523 34.5267 579.989 35.1C579.456 35.6733 579.189 36.46 579.189 37.46C579.189 38.46 579.456 39.2467 579.989 39.82C580.523 40.38 581.229 40.66 582.109 40.66C582.963 40.66 583.663 40.3733 584.209 39.8C584.769 39.2133 585.049 38.4333 585.049 37.46C585.049 36.4733 584.769 35.6933 584.209 35.12C583.663 34.5333 582.963 34.24 582.109 34.24ZM604.505 31.76C605.852 31.76 606.912 32.18 607.685 33.02C608.472 33.8467 608.865 35.0267 608.865 36.56V43H606.065V36.88C606.065 36.0267 605.845 35.3733 605.405 34.92C604.978 34.4533 604.385 34.22 603.625 34.22C602.838 34.22 602.212 34.4667 601.745 34.96C601.278 35.4533 601.045 36.1733 601.045 37.12V43H598.245V36.88C598.245 36.0267 598.025 35.3733 597.585 34.92C597.158 34.4533 596.565 34.22 595.805 34.22C595.018 34.22 594.392 34.4667 593.925 34.96C593.458 35.4533 593.225 36.1733 593.225 37.12V43H590.405V31.92H593.225V34.02C593.518 33.3 593.978 32.7467 594.605 32.36C595.245 31.96 595.985 31.76 596.825 31.76C597.718 31.76 598.492 31.9733 599.145 32.4C599.812 32.8267 600.312 33.44 600.645 34.24C600.992 33.48 601.505 32.88 602.185 32.44C602.878 31.9867 603.652 31.76 604.505 31.76ZM615.683 31.78C616.616 31.78 617.416 32 618.083 32.44C618.749 32.88 619.223 33.4733 619.503 34.22V31.92H622.303V43H619.503V40.68C619.223 41.4267 618.749 42.0267 618.083 42.48C617.416 42.92 616.616 43.14 615.683 43.14C614.749 43.14 613.909 42.9133 613.163 42.46C612.416 42.0067 611.829 41.3533 611.403 40.5C610.989 39.6333 610.783 38.62 610.783 37.46C610.783 36.3 610.989 35.2933 611.403 34.44C611.829 33.5733 612.416 32.9133 613.163 32.46C613.909 32.0067 614.749 31.78 615.683 31.78ZM616.563 34.24C615.683 34.24 614.976 34.5267 614.443 35.1C613.909 35.6733 613.643 36.46 613.643 37.46C613.643 38.46 613.909 39.2467 614.443 39.82C614.976 40.38 615.683 40.66 616.563 40.66C617.416 40.66 618.116 40.3733 618.663 39.8C619.223 39.2133 619.503 38.4333 619.503 37.46C619.503 36.4733 619.223 35.6933 618.663 35.12C618.116 34.5333 617.416 34.24 616.563 34.24ZM631.478 31.78C632.411 31.78 633.251 32.0067 633.998 32.46C634.745 32.9133 635.325 33.5733 635.738 34.44C636.165 35.2933 636.378 36.3 636.378 37.46C636.378 38.62 636.165 39.6333 635.738 40.5C635.325 41.3533 634.745 42.0067 633.998 42.46C633.251 42.9133 632.411 43.14 631.478 43.14C630.545 43.14 629.745 42.92 629.078 42.48C628.425 42.0267 627.958 41.4267 627.678 40.68V48.28H624.858V31.92H627.678V34.22C627.958 33.4733 628.425 32.88 629.078 32.44C629.745 32 630.545 31.78 631.478 31.78ZM630.598 34.24C629.745 34.24 629.038 34.5333 628.478 35.12C627.931 35.6933 627.658 36.4733 627.658 37.46C627.658 38.4333 627.931 39.2133 628.478 39.8C629.038 40.3733 629.745 40.66 630.598 40.66C631.478 40.66 632.185 40.38 632.718 39.82C633.251 39.2467 633.518 38.46 633.518 37.46C633.518 36.46 633.251 35.6733 632.718 35.1C632.185 34.5267 631.478 34.24 630.598 34.24Z" fill="white"/>
<path d="M837.88 4.88V7.12H833.98V19H831.16V7.12H827.28V4.88H837.88ZM849.852 13.04C849.852 13.32 849.819 13.64 849.752 14H841.632C841.672 14.9867 841.939 15.7133 842.432 16.18C842.926 16.6467 843.539 16.88 844.272 16.88C844.926 16.88 845.466 16.72 845.892 16.4C846.332 16.08 846.612 15.6467 846.732 15.1H849.712C849.566 15.8733 849.252 16.5667 848.772 17.18C848.292 17.7933 847.672 18.2733 846.912 18.62C846.166 18.9667 845.332 19.14 844.412 19.14C843.332 19.14 842.372 18.9133 841.532 18.46C840.692 17.9933 840.039 17.3333 839.572 16.48C839.106 15.6267 838.872 14.62 838.872 13.46C838.872 12.3 839.106 11.2933 839.572 10.44C840.039 9.57333 840.692 8.91333 841.532 8.46C842.372 8.00667 843.332 7.78 844.412 7.78C845.506 7.78 846.459 8.00667 847.272 8.46C848.099 8.91333 848.732 9.54 849.172 10.34C849.626 11.1267 849.852 12.0267 849.852 13.04ZM847.012 12.76C847.052 11.8533 846.812 11.1667 846.292 10.7C845.786 10.2333 845.159 10 844.412 10C843.652 10 843.012 10.2333 842.492 10.7C841.972 11.1667 841.686 11.8533 841.632 12.76H847.012ZM856.194 7.78C857.128 7.78 857.928 8 858.594 8.44C859.261 8.88 859.734 9.47333 860.014 10.22V7.92H862.814V19H860.014V16.68C859.734 17.4267 859.261 18.0267 858.594 18.48C857.928 18.92 857.128 19.14 856.194 19.14C855.261 19.14 854.421 18.9133 853.674 18.46C852.928 18.0067 852.341 17.3533 851.914 16.5C851.501 15.6333 851.294 14.62 851.294 13.46C851.294 12.3 851.501 11.2933 851.914 10.44C852.341 9.57333 852.928 8.91333 853.674 8.46C854.421 8.00667 855.261 7.78 856.194 7.78ZM857.074 10.24C856.194 10.24 855.488 10.5267 854.954 11.1C854.421 11.6733 854.154 12.46 854.154 13.46C854.154 14.46 854.421 15.2467 854.954 15.82C855.488 16.38 856.194 16.66 857.074 16.66C857.928 16.66 858.628 16.3733 859.174 15.8C859.734 15.2133 860.014 14.4333 860.014 13.46C860.014 12.4733 859.734 11.6933 859.174 11.12C858.628 10.5333 857.928 10.24 857.074 10.24ZM870.35 7.78C871.777 7.78 872.963 8.16667 873.91 8.94C874.87 9.71333 875.47 10.7667 875.71 12.1H872.73C872.61 11.5133 872.337 11.0533 871.91 10.72C871.483 10.3733 870.943 10.2 870.29 10.2C869.543 10.2 868.917 10.48 868.41 11.04C867.917 11.5867 867.67 12.3933 867.67 13.46C867.67 14.5267 867.917 15.34 868.41 15.9C868.917 16.4467 869.543 16.72 870.29 16.72C870.943 16.72 871.483 16.5533 871.91 16.22C872.337 15.8733 872.61 15.4067 872.73 14.82H875.71C875.47 16.1533 874.87 17.2067 873.91 17.98C872.963 18.7533 871.777 19.14 870.35 19.14C869.27 19.14 868.31 18.9133 867.47 18.46C866.63 17.9933 865.977 17.3333 865.51 16.48C865.043 15.6267 864.81 14.62 864.81 13.46C864.81 12.3 865.043 11.2933 865.51 10.44C865.977 9.57333 866.63 8.91333 867.47 8.46C868.31 8.00667 869.27 7.78 870.35 7.78ZM884.314 7.76C885.594 7.76 886.614 8.18 887.374 9.02C888.134 9.86 888.514 11.04 888.514 12.56V19H885.714V12.88C885.714 12 885.487 11.32 885.034 10.84C884.58 10.3467 883.96 10.1 883.174 10.1C882.374 10.1 881.734 10.36 881.254 10.88C880.774 11.4 880.534 12.1467 880.534 13.12V19H877.714V4.2H880.534V10.14C880.827 9.39333 881.307 8.81333 881.974 8.4C882.654 7.97333 883.434 7.76 884.314 7.76ZM897.25 7.92L900.27 15.44L903.07 7.92H906.17L899.39 24.28H896.27L898.77 18.68L894.11 7.92H897.25ZM912.619 7.78C913.699 7.78 914.665 8.00667 915.519 8.46C916.385 8.91333 917.065 9.57333 917.559 10.44C918.052 11.2933 918.299 12.3 918.299 13.46C918.299 14.62 918.052 15.6267 917.559 16.48C917.065 17.3333 916.385 17.9933 915.519 18.46C914.665 18.9133 913.699 19.14 912.619 19.14C911.539 19.14 910.565 18.9133 909.699 18.46C908.845 17.9933 908.172 17.3333 907.679 16.48C907.185 15.6267 906.939 14.62 906.939 13.46C906.939 12.3 907.185 11.2933 907.679 10.44C908.172 9.57333 908.845 8.91333 909.699 8.46C910.565 8.00667 911.539 7.78 912.619 7.78ZM912.619 10.22C911.832 10.22 911.165 10.5 910.619 11.06C910.072 11.6067 909.799 12.4067 909.799 13.46C909.799 14.5133 910.072 15.32 910.619 15.88C911.165 16.4267 911.832 16.7 912.619 16.7C913.405 16.7 914.072 16.4267 914.619 15.88C915.165 15.32 915.439 14.5133 915.439 13.46C915.439 12.4067 915.165 11.6067 914.619 11.06C914.072 10.5 913.405 10.22 912.619 10.22ZM930.892 7.92V19H928.072V16.76C927.778 17.5067 927.292 18.0933 926.612 18.52C925.945 18.9333 925.172 19.14 924.292 19.14C923.012 19.14 921.992 18.72 921.232 17.88C920.472 17.04 920.092 15.8667 920.092 14.36V7.92H922.892V14.04C922.892 14.92 923.118 15.6067 923.572 16.1C924.025 16.58 924.638 16.82 925.412 16.82C926.225 16.82 926.872 16.56 927.352 16.04C927.832 15.52 928.072 14.7733 928.072 13.8V7.92H930.892ZM936.276 10.04C936.689 9.33333 937.236 8.78 937.916 8.38C938.596 7.96667 939.356 7.76 940.196 7.76V10.78H939.376C937.309 10.78 936.276 11.74 936.276 13.66V19H933.456V7.92H936.276V10.04ZM827.96 28.74C827.96 28.2867 828.12 27.92 828.44 27.64C828.76 27.3467 829.18 27.2 829.7 27.2C830.22 27.2 830.64 27.3467 830.96 27.64C831.28 27.92 831.44 28.2867 831.44 28.74C831.44 29.18 831.28 29.5467 830.96 29.84C830.64 30.12 830.22 30.26 829.7 30.26C829.18 30.26 828.76 30.12 828.44 29.84C828.12 29.5467 827.96 29.18 827.96 28.74ZM831.1 31.92V43H828.28V31.92H831.1ZM840.251 31.76C841.531 31.76 842.551 32.18 843.311 33.02C844.071 33.86 844.451 35.04 844.451 36.56V43H841.651V36.88C841.651 36 841.424 35.32 840.971 34.84C840.518 34.3467 839.898 34.1 839.111 34.1C838.311 34.1 837.671 34.36 837.191 34.88C836.711 35.4 836.471 36.1467 836.471 37.12V43H833.651V31.92H836.471V34.14C836.764 33.3933 837.244 32.8133 837.911 32.4C838.591 31.9733 839.371 31.76 840.251 31.76ZM852.852 40.58V43H851.372C850.132 43 849.179 42.7 848.512 42.1C847.859 41.5 847.532 40.5 847.532 39.1V34.3H845.992V31.92H847.532V29.18H850.352V31.92H852.832V34.3H850.352V39.14C850.352 39.6733 850.459 40.0467 850.672 40.26C850.886 40.4733 851.246 40.58 851.752 40.58H852.852ZM865.302 37.04C865.302 37.32 865.268 37.64 865.202 38H857.082C857.122 38.9867 857.388 39.7133 857.882 40.18C858.375 40.6467 858.988 40.88 859.722 40.88C860.375 40.88 860.915 40.72 861.342 40.4C861.782 40.08 862.062 39.6467 862.182 39.1H865.162C865.015 39.8733 864.702 40.5667 864.222 41.18C863.742 41.7933 863.122 42.2733 862.362 42.62C861.615 42.9667 860.782 43.14 859.862 43.14C858.782 43.14 857.822 42.9133 856.982 42.46C856.142 41.9933 855.488 41.3333 855.022 40.48C854.555 39.6267 854.322 38.62 854.322 37.46C854.322 36.3 854.555 35.2933 855.022 34.44C855.488 33.5733 856.142 32.9133 856.982 32.46C857.822 32.0067 858.782 31.78 859.862 31.78C860.955 31.78 861.908 32.0067 862.722 32.46C863.548 32.9133 864.182 33.54 864.622 34.34C865.075 35.1267 865.302 36.0267 865.302 37.04ZM862.462 36.76C862.502 35.8533 862.262 35.1667 861.742 34.7C861.235 34.2333 860.608 34 859.862 34C859.102 34 858.462 34.2333 857.942 34.7C857.422 35.1667 857.135 35.8533 857.082 36.76H862.462ZM870.123 34.04C870.537 33.3333 871.083 32.78 871.763 32.38C872.443 31.9667 873.203 31.76 874.043 31.76V34.78H873.223C871.157 34.78 870.123 35.74 870.123 37.66V43H867.303V31.92H870.123V34.04ZM882.204 31.76C883.484 31.76 884.504 32.18 885.264 33.02C886.024 33.86 886.404 35.04 886.404 36.56V43H883.604V36.88C883.604 36 883.378 35.32 882.924 34.84C882.471 34.3467 881.851 34.1 881.064 34.1C880.264 34.1 879.624 34.36 879.144 34.88C878.664 35.4 878.424 36.1467 878.424 37.12V43H875.604V31.92H878.424V34.14C878.718 33.3933 879.198 32.8133 879.864 32.4C880.544 31.9733 881.324 31.76 882.204 31.76ZM893.225 31.78C894.159 31.78 894.959 32 895.625 32.44C896.292 32.88 896.765 33.4733 897.045 34.22V31.92H899.845V43H897.045V40.68C896.765 41.4267 896.292 42.0267 895.625 42.48C894.959 42.92 894.159 43.14 893.225 43.14C892.292 43.14 891.452 42.9133 890.705 42.46C889.959 42.0067 889.372 41.3533 888.945 40.5C888.532 39.6333 888.325 38.62 888.325 37.46C888.325 36.3 888.532 35.2933 888.945 34.44C889.372 33.5733 889.959 32.9133 890.705 32.46C891.452 32.0067 892.292 31.78 893.225 31.78ZM894.105 34.24C893.225 34.24 892.519 34.5267 891.985 35.1C891.452 35.6733 891.185 36.46 891.185 37.46C891.185 38.46 891.452 39.2467 891.985 39.82C892.519 40.38 893.225 40.66 894.105 40.66C894.959 40.66 895.659 40.3733 896.205 39.8C896.765 39.2133 897.045 38.4333 897.045 37.46C897.045 36.4733 896.765 35.6933 896.205 35.12C895.659 34.5333 894.959 34.24 894.105 34.24ZM905.221 28.2V43H902.401V28.2H905.221ZM918.048 40.58V43H916.568C915.328 43 914.374 42.7 913.708 42.1C913.054 41.5 912.728 40.5 912.728 39.1V34.3H911.188V31.92H912.728V29.18H915.548V31.92H918.028V34.3H915.548V39.14C915.548 39.6733 915.654 40.0467 915.868 40.26C916.081 40.4733 916.441 40.58 916.948 40.58H918.048ZM930.497 37.04C930.497 37.32 930.464 37.64 930.397 38H922.277C922.317 38.9867 922.584 39.7133 923.077 40.18C923.57 40.6467 924.184 40.88 924.917 40.88C925.57 40.88 926.11 40.72 926.537 40.4C926.977 40.08 927.257 39.6467 927.377 39.1H930.357C930.21 39.8733 929.897 40.5667 929.417 41.18C928.937 41.7933 928.317 42.2733 927.557 42.62C926.81 42.9667 925.977 43.14 925.057 43.14C923.977 43.14 923.017 42.9133 922.177 42.46C921.337 41.9933 920.684 41.3333 920.217 40.48C919.75 39.6267 919.517 38.62 919.517 37.46C919.517 36.3 919.75 35.2933 920.217 34.44C920.684 33.5733 921.337 32.9133 922.177 32.46C923.017 32.0067 923.977 31.78 925.057 31.78C926.15 31.78 927.104 32.0067 927.917 32.46C928.744 32.9133 929.377 33.54 929.817 34.34C930.27 35.1267 930.497 36.0267 930.497 37.04ZM927.657 36.76C927.697 35.8533 927.457 35.1667 926.937 34.7C926.43 34.2333 925.804 34 925.057 34C924.297 34 923.657 34.2333 923.137 34.7C922.617 35.1667 922.33 35.8533 922.277 36.76H927.657ZM936.839 31.78C937.772 31.78 938.572 32 939.239 32.44C939.905 32.88 940.379 33.4733 940.659 34.22V31.92H943.459V43H940.659V40.68C940.379 41.4267 939.905 42.0267 939.239 42.48C938.572 42.92 937.772 43.14 936.839 43.14C935.905 43.14 935.065 42.9133 934.319 42.46C933.572 42.0067 932.985 41.3533 932.559 40.5C932.145 39.6333 931.939 38.62 931.939 37.46C931.939 36.3 932.145 35.2933 932.559 34.44C932.985 33.5733 933.572 32.9133 934.319 32.46C935.065 32.0067 935.905 31.78 936.839 31.78ZM937.719 34.24C936.839 34.24 936.132 34.5267 935.599 35.1C935.065 35.6733 934.799 36.46 934.799 37.46C934.799 38.46 935.065 39.2467 935.599 39.82C936.132 40.38 936.839 40.66 937.719 40.66C938.572 40.66 939.272 40.3733 939.819 39.8C940.379 39.2133 940.659 38.4333 940.659 37.46C940.659 36.4733 940.379 35.6933 939.819 35.12C939.272 34.5333 938.572 34.24 937.719 34.24ZM960.114 31.76C961.461 31.76 962.521 32.18 963.294 33.02C964.081 33.8467 964.474 35.0267 964.474 36.56V43H961.674V36.88C961.674 36.0267 961.454 35.3733 961.014 34.92C960.588 34.4533 959.994 34.22 959.234 34.22C958.448 34.22 957.821 34.4667 957.354 34.96C956.888 35.4533 956.654 36.1733 956.654 37.12V43H953.854V36.88C953.854 36.0267 953.634 35.3733 953.194 34.92C952.768 34.4533 952.174 34.22 951.414 34.22C950.628 34.22 950.001 34.4667 949.534 34.96C949.068 35.4533 948.834 36.1733 948.834 37.12V43H946.014V31.92H948.834V34.02C949.128 33.3 949.588 32.7467 950.214 32.36C950.854 31.96 951.594 31.76 952.434 31.76C953.328 31.76 954.101 31.9733 954.754 32.4C955.421 32.8267 955.921 33.44 956.254 34.24C956.601 33.48 957.114 32.88 957.794 32.44C958.488 31.9867 959.261 31.76 960.114 31.76Z" fill="white"/>
</svg>
