<svg width="48" height="36" viewBox="0 0 48 36" fill="none" xmlns="http://www.w3.org/2000/svg">
<path d="M3.90393 35.6659H11.3155V17.6663L0.727539 9.72534V32.4895C0.727539 34.2471 2.15162 35.6659 3.90393 35.6659Z" fill="white"/>
<path d="M36.7266 35.6659H44.1381C45.8957 35.6659 47.3145 34.2418 47.3145 32.4895V9.72534L36.7266 17.6663" fill="white"/>
<path d="M36.7266 3.9022V17.6665L47.3145 9.72558V5.49039C47.3145 1.56226 42.8305 -0.677098 39.6912 1.67872" fill="white"/>
<path d="M11.3154 17.6662V3.90186L24.021 13.431L36.7265 3.90186V17.6662L24.021 27.1954" fill="white"/>
<path d="M0.727539 5.49039V9.72558L11.3155 17.6665V3.9022L8.35087 1.67872C5.20625 -0.677098 0.727539 1.56226 0.727539 5.49039Z" fill="white"/>
</svg>
