<svg width="42" height="34" viewBox="0 0 42 34" fill="none" xmlns="http://www.w3.org/2000/svg">
<path d="M41.2356 4.21288C39.9147 4.78135 38.526 5.17721 37.1039 5.39066C37.7687 5.27668 38.7471 4.0799 39.1365 3.59549C39.7281 2.8648 40.179 2.03067 40.4662 1.13545C40.4662 1.06896 40.5327 0.973977 40.4662 0.926486C40.4327 0.908196 40.3952 0.898612 40.357 0.898612C40.3188 0.898612 40.2813 0.908196 40.2478 0.926486C38.7035 1.76273 37.0601 2.40098 35.3562 2.82613C35.2968 2.84427 35.2336 2.8459 35.1734 2.83084C35.1131 2.81578 35.0581 2.7846 35.0142 2.74065C34.8816 2.58272 34.7388 2.4336 34.5868 2.29423C33.8919 1.67157 33.1034 1.16196 32.2503 0.784012C31.0986 0.311548 29.8547 0.106934 28.6124 0.185623C27.407 0.26175 26.2302 0.58506 25.1551 1.13545C24.0964 1.71572 23.1659 2.50403 22.4196 3.45302C21.6345 4.42977 21.0678 5.56331 20.7574 6.7774C20.5015 7.93225 20.4724 9.12583 20.6719 10.2917C20.6719 10.4912 20.6719 10.5197 20.5009 10.4912C13.7287 9.4939 8.17224 7.09084 3.63208 1.9333C3.43262 1.70534 3.32814 1.70534 3.16667 1.9333C1.19103 4.93474 2.15036 9.68386 4.6199 12.0299C4.95233 12.3434 5.29427 12.6473 5.6552 12.9323C4.52293 12.8519 3.41832 12.545 2.40681 12.0299C2.21684 11.9064 2.11236 11.9729 2.10286 12.2009C2.07594 12.5169 2.07594 12.8347 2.10286 13.1507C2.30105 14.6653 2.89794 16.1001 3.83249 17.3083C4.76705 18.5166 6.00573 19.4549 7.42188 20.0274C7.7671 20.1753 8.12681 20.2867 8.49518 20.3599C7.44697 20.5662 6.37191 20.5983 5.31327 20.4549C5.08531 20.4074 4.99983 20.5308 5.08531 20.7493C6.48155 24.5486 9.51149 25.7074 11.7341 26.3533C12.038 26.4008 12.342 26.4008 12.6839 26.4767C12.6839 26.4767 12.6839 26.4767 12.6269 26.5337C11.9715 27.7305 9.32152 28.5379 8.10575 28.9558C5.88665 29.7529 3.52068 30.0575 1.17204 29.8486C0.801606 29.7916 0.716122 29.8011 0.621139 29.8486C0.526157 29.8961 0.621139 30.0006 0.72562 30.0956C1.20053 30.409 1.67544 30.6845 2.16935 30.9504C3.63972 31.7524 5.1942 32.3895 6.80449 32.8501C15.1439 35.1486 24.5282 33.458 30.7875 27.2366C35.7076 22.3545 37.4363 15.6203 37.4363 8.87651C37.4363 8.62006 37.7497 8.46809 37.9302 8.33511C39.175 7.36524 40.2724 6.21985 41.1881 4.93474C41.3467 4.74318 41.428 4.49928 41.4161 4.25087C41.4161 4.1084 41.4161 4.13689 41.2356 4.21288Z" fill="white"/>
</svg>
