<svg width="240" height="23" viewBox="0 0 240 23" fill="none" xmlns="http://www.w3.org/2000/svg">
<path d="M34.888 19.0033V1.17088C34.888 1.08592 34.8528 1.00444 34.7902 0.944365C34.7277 0.884287 34.6429 0.85054 34.5546 0.85054H31.888C31.7996 0.85054 31.7148 0.884287 31.6523 0.944365C31.5898 1.00444 31.5547 1.08592 31.5547 1.17088V21.8864C31.5547 21.9714 31.5898 22.0528 31.6523 22.1129C31.7148 22.173 31.7996 22.2067 31.888 22.2067H45.6655C45.7538 22.2067 45.8386 22.173 45.9011 22.1129C45.9637 22.0528 45.9986 21.9714 45.9986 21.8864V19.3236C45.9986 19.2387 45.9637 19.1572 45.9011 19.0972C45.8386 19.0371 45.7538 19.0033 45.6655 19.0033H34.888Z" fill="#9097AA"/>
<path d="M69.3328 0.850494H53.3331C53.1491 0.850494 53 0.993916 53 1.17084V3.73358C53 3.9105 53.1491 4.05391 53.3331 4.05391H69.3328C69.5167 4.05391 69.6658 3.9105 69.6658 3.73358V1.17084C69.6658 0.993916 69.5167 0.850494 69.3328 0.850494Z" fill="#9097AA"/>
<path d="M69.3328 19.0033H53.3331C53.1491 19.0033 53 19.1468 53 19.3237V21.8864C53 22.0634 53.1491 22.2068 53.3331 22.2068H69.3328C69.5167 22.2068 69.6658 22.0634 69.6658 21.8864V19.3237C69.6658 19.1468 69.5167 19.0033 69.3328 19.0033Z" fill="#9097AA"/>
<path d="M69.3328 9.91409H53.3331C53.1491 9.91409 53 10.0575 53 10.2344V12.7972C53 12.9741 53.1491 13.1175 53.3331 13.1175H69.3328C69.5167 13.1175 69.6658 12.9741 69.6658 12.7972V10.2344C69.6658 10.0575 69.5167 9.91409 69.3328 9.91409Z" fill="#9097AA"/>
<path d="M186.641 0.850494H170.642C170.458 0.850494 170.309 0.993916 170.309 1.17084V3.73358C170.309 3.9105 170.458 4.05391 170.642 4.05391H186.641C186.825 4.05391 186.975 3.9105 186.975 3.73358V1.17084C186.975 0.993916 186.825 0.850494 186.641 0.850494Z" fill="#9097AA"/>
<path d="M186.641 19.0033H170.642C170.458 19.0033 170.309 19.1468 170.309 19.3237V21.8864C170.309 22.0634 170.458 22.2068 170.642 22.2068H186.641C186.825 22.2068 186.975 22.0634 186.975 21.8864V19.3237C186.975 19.1468 186.825 19.0033 186.641 19.0033Z" fill="#9097AA"/>
<path d="M186.641 9.91409H170.642C170.458 9.91409 170.309 10.0575 170.309 10.2344V12.7972C170.309 12.9741 170.458 13.1175 170.642 13.1175H186.641C186.825 13.1175 186.975 12.9741 186.975 12.7972V10.2344C186.975 10.0575 186.825 9.91409 186.641 9.91409Z" fill="#9097AA"/>
<path d="M122.329 0.850494H119.663C119.479 0.850494 119.33 0.993916 119.33 1.17084V21.8863C119.33 22.0633 119.479 22.2067 119.663 22.2067H122.329C122.514 22.2067 122.663 22.0633 122.663 21.8863V1.17084C122.663 0.993916 122.514 0.850494 122.329 0.850494Z" fill="#9097AA"/>
<path d="M115.663 9.93123H107.108V1.17517C107.108 1.09021 107.073 1.00873 107.01 0.948652C106.948 0.888575 106.863 0.854828 106.775 0.854828H104.108C104.02 0.854828 103.935 0.888575 103.872 0.948652C103.81 1.00873 103.775 1.09021 103.775 1.17517V9.93123H100.775C100.687 9.9312 100.603 9.96439 100.541 10.0235C100.478 10.0827 100.442 10.1631 100.441 10.2473V12.81C100.441 12.895 100.477 12.9765 100.539 13.0365C100.601 13.0966 100.686 13.1304 100.775 13.1304H103.775V21.8864C103.775 21.9714 103.81 22.0529 103.872 22.1129C103.935 22.173 104.02 22.2068 104.108 22.2068H106.775C106.863 22.2068 106.948 22.173 107.01 22.1129C107.073 22.0529 107.108 21.9714 107.108 21.8864V13.1304H115.663C115.751 13.1304 115.836 13.0966 115.899 13.0365C115.961 12.9765 115.997 12.895 115.997 12.81V10.2473C115.995 10.1631 115.96 10.0827 115.897 10.0235C115.835 9.96439 115.751 9.9312 115.663 9.93123Z" fill="#9097AA"/>
<path d="M19.3018 13.1197H22.9994C23.086 13.1197 23.1691 13.0875 23.2313 13.0297C23.2935 12.9719 23.3299 12.8931 23.3328 12.81V10.2473C23.3328 10.1623 23.2977 10.0808 23.2351 10.0208C23.1726 9.96069 23.0879 9.92694 22.9994 9.92694H17.8174L13.7353 1.10468C13.7007 1.02967 13.6444 0.965814 13.5731 0.920746C13.5018 0.875677 13.4184 0.851306 13.3331 0.85054H9.99986C9.91413 0.850895 9.83032 0.875076 9.75858 0.920167C9.68681 0.965262 9.63015 1.02934 9.59544 1.10468L5.51556 9.91626H0.333508C0.288785 9.91623 0.244513 9.92484 0.203331 9.94163C0.162149 9.95839 0.124898 9.98294 0.0937968 10.0138C0.062695 10.0447 0.0383784 10.0813 0.0222962 10.1214C0.00621394 10.1615 -0.00130554 10.2043 0.000185247 10.2473V12.81C0.000185247 12.895 0.0353029 12.9764 0.097813 13.0365C0.160323 13.0966 0.245105 13.1303 0.333508 13.1303H4.03117L0.0312952 21.7668C0.0111433 21.8149 0.00343891 21.867 0.00884266 21.9186C0.0142464 21.9702 0.0325965 22.0197 0.0623188 22.063C0.0920409 22.1062 0.132246 22.1419 0.179482 22.167C0.226718 22.192 0.279573 22.2057 0.333508 22.2067H3.30897C3.39509 22.2068 3.47937 22.1828 3.55155 22.1377C3.62374 22.0926 3.68074 22.0283 3.71562 21.9526L11.6665 4.79075L19.6173 21.9526C19.6522 22.0283 19.7092 22.0926 19.7814 22.1377C19.8536 22.1828 19.9379 22.2068 20.024 22.2067H22.9994C23.055 22.2067 23.1097 22.1934 23.1585 22.1679C23.2073 22.1424 23.2487 22.1056 23.279 22.0609C23.3092 22.0161 23.3273 21.9648 23.3317 21.9115C23.336 21.8583 23.3265 21.8049 23.3039 21.7561L19.3018 13.1197Z" fill="#9097AA"/>
<path d="M94.9486 5.57881C94.331 4.17742 93.298 2.98173 91.9781 2.14089C90.6582 1.30006 89.1098 0.85128 87.5266 0.85054H78.1377C78.0495 0.85054 77.9647 0.884287 77.9021 0.944365C77.8396 1.00444 77.8047 1.08592 77.8047 1.17088V3.73363C77.8047 3.81859 77.8396 3.90006 77.9021 3.96013C77.9647 4.02021 78.0495 4.05396 78.1377 4.05396H87.5266C88.1578 4.05215 88.7829 4.17348 89.3642 4.41062C90.2075 4.75417 90.9293 5.32537 91.4419 6.05506C91.9709 6.80323 92.252 7.68764 92.2486 8.59217C92.2492 9.19885 92.1231 9.7995 91.8775 10.3583C91.5185 11.1693 90.9235 11.8634 90.164 12.3573C89.3858 12.8636 88.4666 13.133 87.5266 13.1303H78.1377C78.0495 13.1303 77.9647 13.1641 77.9021 13.2242C77.8396 13.2842 77.8047 13.3657 77.8047 13.4507V21.8864C77.8047 21.9714 77.8396 22.0528 77.9021 22.1129C77.9647 22.173 78.0495 22.2067 78.1377 22.2067H80.8046C80.8928 22.2067 80.9776 22.173 81.0402 22.1129C81.1028 22.0528 81.1376 21.9714 81.1376 21.8864V16.3338H87.5266C89.6627 16.3332 91.7113 15.5174 93.2217 14.0657C94.7325 12.614 95.5812 10.6452 95.5819 8.59217C95.5819 7.55717 95.3668 6.5326 94.9486 5.57881Z" fill="#9097AA"/>
<path d="M211.525 12.9211C212.423 11.6428 212.903 10.1349 212.9 8.59217C212.901 7.57545 212.692 6.56862 212.287 5.62926C211.883 4.68986 211.29 3.8363 210.541 3.11738C209.793 2.39845 208.905 1.82822 207.928 1.43927C206.95 1.05031 205.903 0.850258 204.845 0.85054H195.456C195.368 0.85054 195.283 0.884288 195.22 0.944365C195.158 1.00444 195.123 1.08592 195.123 1.17088V3.73363C195.123 3.81859 195.158 3.90006 195.22 3.96013C195.283 4.02021 195.368 4.05396 195.456 4.05396H204.845C205.476 4.05215 206.101 4.17348 206.683 4.41062C207.539 4.75654 208.27 5.33799 208.784 6.08191C209.298 6.82587 209.572 7.69918 209.571 8.59217C209.573 9.19873 209.448 9.79937 209.202 10.3583C208.843 11.1688 208.248 11.8627 207.489 12.3573C206.71 12.8637 205.79 13.133 204.849 13.1304H195.456C195.368 13.1304 195.283 13.1641 195.22 13.2242C195.158 13.2842 195.123 13.3657 195.123 13.4507V21.8864C195.123 21.9714 195.158 22.0528 195.22 22.1129C195.283 22.173 195.368 22.2067 195.456 22.2067H198.123C198.211 22.2067 198.296 22.173 198.359 22.1129C198.421 22.0528 198.456 21.9714 198.456 21.8864V16.3338H204.845C205.403 16.334 205.959 16.2781 206.505 16.1672L209.216 22.0167C209.242 22.0734 209.284 22.1216 209.338 22.1554C209.393 22.1892 209.456 22.207 209.52 22.2067H212.567C212.622 22.2067 212.677 22.1934 212.726 22.1679C212.775 22.1424 212.816 22.1056 212.846 22.0609C212.877 22.0161 212.895 21.9648 212.899 21.9115C212.903 21.8583 212.894 21.8049 212.871 21.7561L209.649 14.8026C210.379 14.2806 211.013 13.6446 211.525 12.9211Z" fill="#9097AA"/>
<path d="M162.985 0.85055H146.985C146.897 0.85055 146.812 0.884301 146.75 0.944375C146.687 1.00445 146.652 1.08593 146.652 1.17089V3.73364C146.652 3.8186 146.687 3.90007 146.75 3.96015C146.812 4.02022 146.897 4.05397 146.985 4.05397H158.363L153.939 9.48274C153.906 9.52336 153.885 9.57207 153.879 9.62333C153.873 9.6746 153.882 9.72642 153.905 9.77299C153.929 9.81956 153.965 9.85903 154.01 9.88696C154.055 9.91493 154.107 9.93024 154.161 9.93119H157.53C157.631 9.93116 157.73 9.90901 157.821 9.86649C157.912 9.82393 157.992 9.76208 158.054 9.68561L163.165 3.40262C163.265 3.29277 163.323 3.15338 163.329 3.00753V1.17089C163.329 1.12791 163.321 1.08536 163.303 1.04578C163.286 1.00621 163.26 0.970406 163.228 0.940517C163.196 0.910624 163.158 0.887255 163.116 0.8718C163.074 0.856344 163.03 0.849118 162.985 0.85055Z" fill="#9097AA"/>
<path d="M162.983 19.0033H150.455L154.883 13.583C154.916 13.5424 154.937 13.4937 154.943 13.4424C154.949 13.3912 154.94 13.3394 154.917 13.2928C154.893 13.2462 154.857 13.2068 154.812 13.1788C154.767 13.1509 154.715 13.1355 154.661 13.1346H151.283C151.182 13.1343 151.082 13.1563 150.99 13.1988C150.899 13.2414 150.819 13.3034 150.757 13.3802L145.681 19.6055C145.589 19.7182 145.539 19.8573 145.539 20.0006V21.8864C145.539 21.9713 145.574 22.0528 145.637 22.1128C145.699 22.1729 145.784 22.2067 145.872 22.2067H162.983C163.071 22.2067 163.156 22.1729 163.219 22.1128C163.281 22.0528 163.316 21.9713 163.316 21.8864V19.3236C163.316 19.2815 163.308 19.2399 163.291 19.201C163.274 19.1621 163.25 19.1268 163.219 19.0971C163.188 19.0673 163.151 19.0437 163.111 19.0276C163.07 19.0115 163.027 19.0033 162.983 19.0033Z" fill="#9097AA"/>
<path d="M236.955 13.1111C236.876 13.1115 236.8 13.1384 236.74 13.1872C236.68 13.236 236.639 13.3036 236.626 13.3781C236.532 13.878 236.392 14.369 236.208 14.8452C235.713 16.1723 234.802 17.3196 233.602 18.1298C232.417 18.9049 231.013 19.3118 229.58 19.2958C228.614 19.3012 227.656 19.1212 226.764 18.7662C225.46 18.2378 224.362 17.3295 223.624 16.1693C223.082 15.3129 222.713 14.366 222.535 13.3781C222.522 13.3036 222.481 13.236 222.421 13.1872C222.361 13.1384 222.285 13.1115 222.207 13.1111H219.502C219.455 13.111 219.407 13.1207 219.364 13.1395C219.321 13.1584 219.282 13.1859 219.251 13.2203C219.219 13.2547 219.196 13.2952 219.182 13.3389C219.168 13.3827 219.165 13.4288 219.171 13.4742C219.3 14.3268 219.523 15.1638 219.838 15.9707C220.552 17.8998 221.876 19.5662 223.624 20.7367C225.373 21.9072 227.458 22.5235 229.589 22.4993C230.997 22.5039 232.392 22.2389 233.693 21.7198C235.633 20.9325 237.27 19.5826 238.375 17.8586C239.225 16.5205 239.777 15.0276 239.997 13.4742C240.003 13.4288 239.999 13.3827 239.986 13.3389C239.972 13.2952 239.948 13.2547 239.917 13.2203C239.886 13.1859 239.847 13.1584 239.804 13.1395C239.76 13.1207 239.714 13.111 239.666 13.1111H236.955Z" fill="#9097AA"/>
<path d="M222.2 9.90774C222.279 9.90778 222.355 9.88099 222.415 9.83213C222.476 9.78326 222.516 9.71546 222.529 9.64076C222.623 9.13148 222.763 8.63121 222.949 8.14585C223.445 6.82402 224.353 5.68104 225.549 4.87195C226.735 4.09809 228.139 3.69124 229.573 3.70589C230.538 3.70051 231.495 3.8806 232.386 4.23552C233.692 4.76268 234.793 5.6702 235.535 6.8303C236.079 7.69237 236.449 8.64507 236.626 9.63863C236.64 9.71313 236.68 9.78069 236.74 9.8295C236.8 9.87827 236.876 9.90521 236.955 9.90561H239.657C239.705 9.90564 239.752 9.89595 239.795 9.87715C239.839 9.85832 239.878 9.83081 239.909 9.79647C239.941 9.76213 239.964 9.72171 239.978 9.67793C239.992 9.63413 239.997 9.58799 239.99 9.54254C239.863 8.68408 239.639 7.84134 239.324 7.02893C238.587 5.09003 237.248 3.41558 235.488 2.23231C233.746 1.08918 231.682 0.484876 229.573 0.500319C228.166 0.494833 226.772 0.759112 225.473 1.27768C223.531 2.06467 221.895 3.41645 220.793 5.14317C219.939 6.48586 219.386 7.98492 219.169 9.54467C219.163 9.58999 219.166 9.6361 219.18 9.6799C219.194 9.72368 219.217 9.76413 219.249 9.79854C219.28 9.83292 219.319 9.86049 219.362 9.87932C219.406 9.89815 219.452 9.90784 219.5 9.90774H222.2Z" fill="#9097AA"/>
</svg>
