<svg width="182" height="22" viewBox="0 0 182 22" fill="none" xmlns="http://www.w3.org/2000/svg">
<path d="M0.748047 19.1105V22H5.51854L21.0662 6.69943V14.3489H15.184L11.3278 18.1638H21.0662V22H25.8732V0.0131226H20.1121L0.748047 19.1105Z" fill="#9097AA"/>
<path d="M27.834 0.0131226V22H32.6692V4.79116L27.834 0.0131226Z" fill="#9097AA"/>
<path d="M29.7773 0.0131226L34.5694 4.75179H43.3073L39.4096 8.60605H34.5843V13.3726H36.5423L45.2586 21.9967H51.0264V19.1187L43.7536 11.9271L51.043 4.75179V0.0131226H29.7773Z" fill="#9097AA"/>
<path d="M131.355 0.0131226V22H136.191V4.79116L131.355 0.0131226Z" fill="#9097AA"/>
<path d="M133.299 0.0131226L138.091 4.75179H146.829L142.931 8.60605H138.106V13.3726H140.064L148.78 21.9967H154.548V19.1187L147.275 11.9271L154.564 4.75179V0.0131226H133.299Z" fill="#9097AA"/>
<path d="M52.957 0.0131226V4.75179H61.6966V21.9967H66.6114V4.75179H73.3299L75.2514 2.85009V0.0131226H52.957Z" fill="#9097AA"/>
<path d="M77.2148 0.0131226V4.75179H91.6956L77.2148 19.1105V21.9967H82.0069L102.362 1.87873V0.0131226H77.2148Z" fill="#9097AA"/>
<path d="M88.8012 17.2581L85.8809 20.0786V21.9967H102.378V17.2581H88.8012Z" fill="#9097AA"/>
<path d="M105.24 0.0131265V2.80743L113.059 10.4372L105.262 18.1457V21.9967H129.473V19.1187L127.442 17.2581L114.02 17.2121L117.876 13.3989H126.521V7.61172H117.839L110.142 0L105.24 0.0131265Z" fill="#9097AA"/>
<path d="M112.104 0.0131265L116.861 4.71569H127.54L129.422 2.85501V0L112.104 0.0131265Z" fill="#9097AA"/>
<path d="M157.555 1.91647V21.0254L162.322 16.2867V4.75179H175.855L180.702 0.0147705H159.523L157.555 1.91647Z" fill="#9097AA"/>
<path d="M181.748 20.095V0.927063L176.899 5.74449V17.2581H163.364L158.572 21.9967H179.781L181.748 20.095Z" fill="#9097AA"/>
</svg>
