<svg width="156" height="45" viewBox="0 0 156 45" fill="none" xmlns="http://www.w3.org/2000/svg">
<path d="M45.0098 20.9672C44.1695 8.57319 33.3986 -0.78688 20.9784 0.0522943C14.8011 0.471886 9.36742 3.34445 5.58319 7.66944C5.55082 7.70175 5.51852 7.73398 5.51852 7.76629C1.7666 12.0913 -0.368054 17.8687 0.0524328 24.0334C0.0847285 24.6144 0.149401 25.1953 0.246449 25.7763C0.246449 25.8086 0.246449 25.8408 0.246449 25.8408C0.311121 26.2282 0.375873 26.5832 0.440544 26.9705C0.440544 26.9705 0.440544 26.9705 0.440544 27.0028C0.505216 27.3256 0.569887 27.6806 0.666935 28.0033C3.25445 38.3639 12.9899 45.6906 24.0514 44.9483C36.4715 44.1091 45.851 33.3612 45.0098 20.9672ZM40.1261 21.3222C40.2233 22.8392 40.1261 24.3562 39.8674 25.7763V25.7441C38.2181 21.7741 35.0158 18.8692 32.1695 17.2877C32.7519 10.542 30.4559 7.70175 27.8353 7.21761C27.771 7.21761 27.7059 7.1853 27.6095 7.1853C25.5392 6.92707 23.6633 8.3795 23.4046 10.4452C23.146 12.5109 24.6017 14.3828 26.6712 14.6411C26.8656 14.6734 27.0271 14.6734 27.2215 14.6734C27.2215 14.8993 27.2536 15.1575 27.2536 15.3834C24.8604 14.8024 22.5956 14.6734 20.5583 14.867C19.7821 14.9315 19.0381 15.0284 18.2619 15.1575C18.5207 12.8659 19.3616 10.3161 21.0435 8.44404C22.6607 6.63662 25.054 5.60379 27.6416 5.86202C28.1269 5.92656 28.6764 6.0234 29.1295 6.18478C29.1616 6.18478 29.1616 6.18478 29.1938 6.21701C35.1773 8.67004 39.6409 14.3828 40.1261 21.3222ZM24.4073 24.7435C23.8577 25.5181 23.2102 26.2927 22.4663 27.035C21.3343 25.8408 20.4289 24.5498 19.7497 23.2265C19.7174 23.162 19.685 23.0974 19.6527 23.0006C19.2645 22.1614 18.9088 21.2254 18.65 20.1926C20.2672 19.8053 21.8196 19.6761 23.3074 19.7406C23.3725 19.7406 23.4689 19.7406 23.534 19.7406C24.4715 19.8053 25.442 19.9989 26.4776 20.2571C25.9923 21.8386 25.3448 23.2588 24.5366 24.5175C24.4715 24.6144 24.4394 24.6789 24.4073 24.7435ZM16.7094 5.92656C16.6771 5.92656 16.7094 5.92656 16.7094 5.92656C14.0572 9.34779 13.1839 13.5759 13.2163 16.8359C7.07096 19.7084 5.74491 23.1297 6.65048 25.6149C6.68285 25.6794 6.71523 25.7441 6.71523 25.8086C7.52382 27.7129 9.72315 28.6166 11.6315 27.8097C13.5398 27.0028 14.4453 24.808 13.6368 22.9037C13.572 22.7424 13.4751 22.581 13.378 22.4196C13.572 22.2905 13.7661 22.1614 13.9925 22.0323C14.6718 24.4207 15.7068 26.4218 16.8711 28.1002C17.2916 28.7457 17.7768 29.3589 18.2619 29.9399C16.1596 30.8436 13.5074 31.3923 11.0493 30.9082C8.68816 30.424 6.58581 28.8748 5.51852 26.4864C5.32443 26.0345 5.1627 25.5181 5.06566 25.0339C5.00098 24.6144 4.96861 24.1625 4.93632 23.743C4.38649 15.6417 9.39971 8.47635 16.7094 5.92656ZM23.7276 40.0423C18.9411 40.3651 14.4453 38.7512 11.0493 35.8465C15.3187 36.4274 19.4262 35.0718 22.2405 33.4257C27.8031 37.2988 31.4255 36.7501 33.1399 34.7168C33.1721 34.6522 33.2372 34.6199 33.2693 34.5554C34.5306 32.9093 34.2076 30.5532 32.5575 29.2944C30.9082 28.0356 28.547 28.3584 27.2857 30.0044C27.1885 30.1336 27.0921 30.295 26.9949 30.4563C26.8005 30.3595 26.574 30.2304 26.3482 30.1013C28.0618 28.3261 29.291 26.4218 30.1642 24.5821C30.488 23.9043 30.811 23.1942 31.0696 22.4519C32.9134 23.8075 34.725 25.8408 35.5011 28.197C36.2771 30.4886 35.9863 33.0707 34.4334 35.2009C34.1426 35.5882 33.7867 36.0078 33.3986 36.3306C33.3986 36.3306 33.3986 36.3306 33.3665 36.3306C30.7146 38.4608 27.383 39.8164 23.7276 40.0423Z" fill="#9097AA"/>
<path d="M123.668 14.5688L120.32 23.8543L123.668 14.6355V14.5688Z" fill="#9097AA"/>
<path d="M64.2303 14.5686L60.8828 23.8541L64.2303 14.5686Z" fill="#9097AA"/>
<path d="M65.0361 16.8408L67.5798 23.8546H62.4924L61.2207 27.3947H68.8515L70.9935 33.3398H75.8129L67.0442 11.3635L65.0361 16.8408Z" fill="#9097AA"/>
<path d="M60.8815 23.8504L64.2284 14.5656L65.6341 10.6914H61.9526L52.916 33.3356H57.4678L60.8815 23.8504Z" fill="#9097AA"/>
<path d="M90.4005 21.649C89.3294 20.981 87.8568 20.3799 86.0495 19.8455C85.0455 19.5115 84.1752 19.1775 83.6397 18.9104C83.0373 18.6431 82.6358 18.3091 82.435 17.9084C82.2341 17.5076 82.1003 17.1069 82.1003 16.6392C82.1003 15.7709 82.435 15.103 83.1043 14.6354C83.7737 14.1677 84.7108 13.9006 85.9157 13.9006C86.9198 13.9006 87.9238 14.0342 89.0617 14.3681C90.1326 14.6354 91.1367 15.103 91.9401 15.5705L92.5424 11.8967C91.6722 11.3623 90.6681 10.9616 89.3964 10.6276C88.1915 10.2936 86.9197 10.1599 85.7148 10.1599C84.0414 10.1599 82.6358 10.4272 81.4309 10.9616C80.226 11.4958 79.2889 12.2975 78.6196 13.2326C77.9502 14.2346 77.6155 15.3701 77.6155 16.7729C77.6155 17.9084 77.8164 18.9104 78.2849 19.7786C78.7534 20.647 79.4896 21.3819 80.4937 21.983C81.4978 22.5843 82.8365 23.1854 84.5099 23.6529C85.7148 23.9869 86.6519 24.3209 87.3213 24.6549C87.9906 24.9889 88.4593 25.3228 88.727 25.7237C88.9947 26.1244 89.1287 26.5919 89.1287 27.1263C89.1287 28.0616 88.727 28.7963 87.9906 29.3307C87.2544 29.8651 86.1834 30.1322 84.7778 30.1322C83.5729 30.1322 82.368 29.9318 81.0962 29.5978C79.8243 29.1971 78.6864 28.7296 77.7493 28.1952L77.3477 32.0026C77.8832 32.4033 78.6196 32.7373 79.4228 33.0045C80.293 33.2717 81.1631 33.4721 82.1003 33.6725C83.0373 33.8061 84.0414 33.9396 84.9785 33.9396C87.656 33.9396 89.7979 33.3385 91.3375 32.1362C92.8771 30.9338 93.6135 29.1971 93.6135 27.0596C93.6135 25.924 93.3456 24.9222 92.8771 24.0538C92.2747 23.0518 91.4714 22.317 90.4005 21.649Z" fill="#9097AA"/>
<path d="M114.235 10.6916H95.0234V14.3655H114.235V10.6916Z" fill="#9097AA"/>
<path d="M106.865 15.8969H102.312V33.331H106.865V15.8969Z" fill="#9097AA"/>
<path d="M120.323 23.8507L123.67 14.5659V14.6327L125.075 10.6916H121.394L112.357 33.3359H116.91L119.051 27.391L120.323 23.8507Z" fill="#9097AA"/>
<path d="M124.478 16.908L127.022 23.8548H122L120.729 27.3949H128.293L130.435 33.34H135.255L126.486 11.3637L124.478 16.908Z" fill="#9097AA"/>
<path d="M150.043 24.1178C151.114 23.5167 152.052 22.6483 152.72 21.6463C153.39 20.5777 153.792 19.3753 153.792 17.9725C153.792 16.4362 153.457 15.167 152.788 14.0983C152.118 13.0295 151.114 12.1611 149.909 11.56C148.638 10.9589 147.165 10.6916 145.424 10.6916H143.818V14.0983H144.823C147.834 14.0983 149.373 15.3674 149.373 17.9725C149.373 20.5777 147.834 21.8467 144.688 21.8467H143.818V25.2535H145.692C145.827 25.2535 145.96 25.2535 146.161 25.2535L150.913 33.3359H156L150.043 24.1178Z" fill="#9097AA"/>
<path d="M142.277 10.6914H137.926V33.3356H142.277V10.6914Z" fill="#9097AA"/>
</svg>
