<svg width="320" height="53" viewBox="0 0 320 53" fill="none" xmlns="http://www.w3.org/2000/svg">
<path d="M217.984 23.8645V40.1946H224.411V12.564H217.984V23.8645Z" fill="white"/>
<path d="M203.408 12.5637H196.982V40.1944H203.408V28.8939H212.846L217.984 23.8642H203.408V12.5637Z" fill="white"/>
<path d="M235.711 17.5841H253.184V12.5637H234.751H229.284V40.1944H235.711V28.8939H250.992V23.8642H235.711V17.5841Z" fill="white"/>
<path d="M155.534 35.174H141.156V12.5637H134.729V35.174L141.156 40.1944H155.534L161.96 35.174V12.5637H155.534V35.174Z" fill="white"/>
<path d="M172.584 12.5637H171.427H166.157V27.6342H171.078H172.584H186.256V35.174H172.584V40.1944H186.256H188.279H192.683V22.6137H188.279H186.256H172.584V17.5841H186.256V12.5637H172.584Z" fill="white"/>
<path d="M186.257 20.0946H192.684V12.564L186.257 17.5844V20.0946Z" fill="white"/>
<path d="M166.157 30.7698V40.1945L172.584 35.1741V30.7698H166.157Z" fill="white"/>
<path d="M109.954 12.5637H103.527V40.1944H109.954V32.0293H119.26L124.096 40.1944H130.523L125.687 32.0293H130.627V12.5637H109.963H109.954ZM124.191 27.0089H109.954V17.5933H124.191V27.0089Z" fill="white"/>
<path d="M270.534 12.5637H264.107L253.183 40.1944H259.609L261.35 35.7992H269.254L274.392 30.7788H263.335L268.031 18.9082H269.828L278.249 40.2036H284.676L273.752 12.5729H270.543L270.534 12.5637Z" fill="white"/>
<path d="M316.763 12.5637H311.24L304.493 32.0293H303.844L297.097 12.5637H288.347V40.1944H294.802V23.8642H295.451L301.162 40.1944H307.73L312.896 23.8642H313.545V40.1944H320V12.5637H316.773H316.763Z" fill="white"/>
<path d="M72.2588 13.189V17.5841V35.174V38.3094V40.1944H98.9911V38.3094V35.174V28.2594H92.3104V35.174H78.9395V28.2594H92.3104V23.239H78.9395V17.5841H92.3104V23.239H98.9911V17.5841V13.189V12.5637H72.2588V13.189Z" fill="white"/>
<path d="M54.4328 21.2V10.6L43.5462 0H21.7731L10.8866 10.6V0L0 10.6V53H10.8866H43.5462L54.4328 42.4V31.8L48.9885 26.501L54.4328 21.2ZM43.5462 10.6V21.2H21.7731V31.8H43.5462L32.6597 42.4H21.7731L10.8866 53V10.6H43.5462Z" fill="white"/>
</svg>
