<svg width="167" height="36" viewBox="0 0 167 36" fill="none" xmlns="http://www.w3.org/2000/svg">
<path d="M53.429 5.72162C51.513 5.72162 49.6665 5.96236 48.9145 6.16587C47.82 6.47362 47.547 6.95261 47.341 7.94535L42.9978 27.9862C42.9283 28.3957 42.8613 28.7382 42.8613 29.0807C42.8613 30.0734 43.5116 30.7212 44.5713 30.7212C45.7353 30.7212 46.2143 29.9692 46.4525 28.8052L47.6835 23.0945C48.5373 23.1962 49.6665 23.3005 51.2748 23.3005C58.3554 23.3005 62.7657 19.471 62.7657 13.6908C62.7657 8.62785 59.2415 5.72162 53.429 5.72162ZM51.1035 20.017C50.009 20.017 49.1528 19.9823 48.3685 19.8805L50.6593 9.24335C51.3765 9.14159 52.4387 9.00261 53.5332 9.00261C57.2957 9.00261 59.2117 10.7821 59.2117 13.7231C59.2092 17.4855 56.4717 20.017 51.1035 20.017Z" fill="#9097AA"/>
<path d="M164.852 24.12C164.271 24.12 163.894 24.4625 163.177 25.2493C161.911 26.5497 161.124 27.267 160.134 27.267C159.245 27.267 158.766 26.5497 158.766 25.3858C158.766 24.7355 158.903 23.9488 159.074 23.095L160.34 17.1436H164.137C165.333 17.1436 166.053 16.4586 166.053 15.2276C166.053 14.5426 165.609 14.0314 164.584 14.0314H161.022L161.638 11.2616C161.707 10.8521 161.774 10.4749 161.774 10.1324C161.774 9.1744 161.124 8.48941 160.064 8.48941C158.935 8.48941 158.424 9.24141 158.183 10.4054L157.396 14.0314H155.788C154.557 14.0314 153.84 14.7163 153.84 15.9473C153.84 16.6323 154.319 17.1436 155.344 17.1436H156.746L155.48 23.0255C155.344 23.6758 155.173 24.7355 155.173 25.83C155.173 28.5997 156.61 30.6175 159.687 30.6175C161.467 30.6175 163.038 29.729 164.236 28.6668C165.4 27.6418 166.254 26.376 166.254 25.5545C166.254 24.7703 165.638 24.12 164.852 24.12Z" fill="#9097AA"/>
<path d="M86.192 7.73941C86.192 6.74668 85.507 6.09644 84.4473 6.09644C83.3181 6.09644 82.8068 6.84843 82.5661 8.01241L78.2923 27.882C78.1906 28.2915 78.1211 28.634 78.1211 28.9765C78.1211 29.9692 78.8061 30.617 79.8311 30.617C80.9951 30.617 81.5063 29.865 81.7471 28.701L86.0208 8.8339C86.0903 8.42192 86.192 8.08191 86.192 7.73941Z" fill="#9097AA"/>
<path d="M147.237 13.6885C141.765 13.6885 138.037 19.1262 138.037 24.2909C138.037 24.3877 138.04 24.4845 138.042 24.5788C137.184 25.8818 136.087 27.2319 135.335 27.2319C134.789 27.2319 134.583 26.7181 134.583 25.9314C134.583 24.9734 134.856 23.3652 135.163 21.9629L138.003 8.82905C138.072 8.41955 138.139 8.07705 138.139 7.73456C138.139 6.74182 137.489 6.09158 136.429 6.09158C135.265 6.09158 134.789 6.84358 134.548 8.00756L133.009 15.1205C132.188 14.2668 130.989 13.6835 129.177 13.6835C125.544 13.6835 121.888 16.4806 120.463 20.7717C118.895 24.827 117.493 27.2269 116.386 27.2269C115.976 27.2269 115.736 26.8844 115.736 26.3037C115.736 24.5937 116.694 20.4217 117.103 18.404C117.24 17.652 117.309 17.3442 117.309 16.9C117.309 15.396 114.812 13.6165 111.564 13.6165C107.806 13.6165 104.403 15.9966 102.698 19.5307C100.164 24.008 97.839 27.2269 96.6874 27.2269C96.1737 27.2269 96.0024 26.5767 95.8659 25.9612L95.0146 21.2482L100.246 16.9744C100.725 16.5649 101.341 15.9817 101.341 15.2297C101.341 14.3065 100.725 13.691 99.8021 13.691C99.1171 13.691 98.5364 14.1005 97.9556 14.5795L90.0907 21.0769L92.7239 8.83401C92.7934 8.42451 92.8952 8.08202 92.8952 7.73952C92.8952 6.74679 92.2102 6.09655 91.1504 6.09655C90.0212 6.09655 89.5099 6.84854 89.2692 8.01253L84.9955 27.8821C84.8937 28.2916 84.8242 28.6341 84.8242 28.9766C84.8242 29.9693 85.5092 30.6171 86.5342 30.6171C87.6982 30.6171 88.2094 29.8651 88.4502 28.7011L88.9987 26.1374L92.2127 23.5389L92.9994 27.5049C93.3071 29.0784 94.1286 30.6171 96.2481 30.6171C98.3577 30.6171 100.018 28.6912 101.681 26.0878C102.185 28.8153 104.125 30.6171 106.818 30.6171C109.521 30.6171 111.367 29.0089 112.564 26.8546V26.9241C112.564 29.1479 113.693 30.6171 115.676 30.6171C117.47 30.6171 118.959 29.535 120.29 27.2368C121.044 29.2397 122.732 30.6171 125.08 30.6171C127.849 30.6171 129.832 28.9419 131.098 26.6164V26.8224C131.098 29.2844 132.329 30.6196 134.347 30.6196C136.129 30.6196 137.643 29.5847 138.936 27.902C139.919 29.5847 141.681 30.6196 144.061 30.6196C149.533 30.6196 153.261 25.1819 153.261 19.9824C153.258 16.3217 151.035 13.6885 147.237 13.6885ZM113.142 20.6327C112.149 24.9064 110.03 27.3361 107.635 27.3361C106.027 27.3361 105.138 26.1051 105.138 24.2586C105.138 20.6327 107.771 16.7337 111.293 16.7337C112.353 16.7337 113.174 17.0415 113.892 17.4857L113.142 20.6327ZM132.19 18.8209C131.096 23.8491 128.599 27.3361 125.864 27.3361C124.36 27.3361 123.469 26.1721 123.469 24.2586C123.469 20.6004 126 16.8032 129.386 16.8032C130.686 16.8032 131.676 17.2474 132.396 17.8282L132.19 18.8209ZM144.468 27.3361C142.485 27.3361 141.663 25.8991 141.663 24.0874C141.663 20.7692 143.954 16.9744 146.828 16.9744C148.811 16.9744 149.632 18.4114 149.632 20.2232C149.632 23.5737 147.342 27.3361 144.468 27.3361Z" fill="#9097AA"/>
<path d="M71.2822 13.6889C65.8098 13.6889 62.082 19.1266 62.082 24.2913C62.082 27.9843 64.3058 30.6175 68.1005 30.6175C73.5729 30.6175 77.3007 25.1798 77.3007 19.9804C77.3007 16.3222 75.0769 13.6889 71.2822 13.6889ZM68.5125 27.3366C66.5295 27.3366 65.708 25.8996 65.708 24.0878C65.708 20.7696 67.9987 16.9749 70.8727 16.9749C72.8557 16.9749 73.6772 18.4119 73.6772 20.2236C73.6747 23.5741 71.384 27.3366 68.5125 27.3366Z" fill="#9097AA"/>
<path d="M19.0613 7.84128C22.547 7.84128 25.3726 6.19788 25.3726 4.17064C25.3726 2.1434 22.547 0.5 19.0613 0.5C15.5757 0.5 12.75 2.1434 12.75 4.17064C12.75 6.19788 15.5757 7.84128 19.0613 7.84128Z" fill="#9097AA"/>
<path d="M19.0613 35.4999C22.547 35.4999 25.3726 33.8565 25.3726 31.8293C25.3726 29.8021 22.547 28.1587 19.0613 28.1587C15.5757 28.1587 12.75 29.8021 12.75 31.8293C12.75 33.8565 15.5757 35.4999 19.0613 35.4999Z" fill="#9097AA"/>
<path d="M10.2654 12.9228C12.0082 9.90425 11.9968 6.63492 10.2401 5.62059C8.48333 4.60626 5.6464 6.23103 3.90362 9.24962C2.16085 12.2682 2.17218 15.5375 3.92894 16.5519C5.6857 17.5662 8.52263 15.9414 10.2654 12.9228Z" fill="#9097AA"/>
<path d="M34.2142 26.7502C35.957 23.7316 35.9466 20.4629 34.1911 19.4492C32.4355 18.4356 29.5995 20.0609 27.8567 23.0795C26.114 26.0981 26.1243 29.3669 27.8799 30.3805C29.6355 31.3941 32.4715 29.7688 34.2142 26.7502Z" fill="#9097AA"/>
<path d="M10.2401 30.3797C11.9968 29.3654 12.0082 26.0961 10.2654 23.0775C8.52263 20.0589 5.6857 18.4341 3.92894 19.4484C2.17218 20.4628 2.16085 23.7321 3.90362 26.7507C5.6464 29.7693 8.48333 31.394 10.2401 30.3797Z" fill="#9097AA"/>
<path d="M34.1932 16.5521C35.9488 15.5385 35.9591 12.2698 34.2163 9.2512C32.4735 6.23263 29.6375 4.6073 27.8819 5.62092C26.1263 6.63454 26.116 9.90327 27.8588 12.9218C29.6016 15.9404 32.4376 17.5657 34.1932 16.5521Z" fill="#9097AA"/>
</svg>
