<svg width="161" height="68" viewBox="0 0 161 68" fill="none" xmlns="http://www.w3.org/2000/svg">
<mask id="mask0_2093_3971" style="mask-type:luminance" maskUnits="userSpaceOnUse" x="0" y="0" width="161" height="68">
<path d="M160.748 0H0.748047V68H160.748V0Z" fill="white"/>
</mask>
<g mask="url(#mask0_2093_3971)">
<path d="M34.7479 22.0354V17.0086C34.7479 15.1838 33.6445 13.5656 31.9548 12.8425L0.748047 0V2.78886L28.5755 14.2542C29.5411 14.6329 29.5411 16.0101 28.5755 16.3889L0.748047 27.8542V39.044L17.5066 32.1235L28.5411 36.6684C29.5066 37.0471 29.5066 38.4243 28.5411 38.803L0.748047 50.2684V68L31.9548 55.1575C33.6445 54.4689 34.7479 52.8162 34.7479 50.9914V39.4572C34.7479 37.6324 33.6445 36.0142 31.9548 35.2911L20.8859 30.7463L31.9548 26.2015C33.6445 25.5129 34.7479 23.8603 34.7479 22.0354Z" fill="#9097AA"/>
<path d="M59.6113 17.0087L62.094 26.6836L64.8871 17.0087H67.5423L70.1629 26.6836L72.7491 17.0087H74.7147L71.3698 28.6806H68.8871L66.1285 18.6269L63.2664 28.6806H60.7492L57.5078 17.0087H59.6113Z" fill="#9097AA"/>
<path d="M77.7128 23.4127C77.7818 24.3767 77.8852 24.8587 78.1956 25.4785C78.7818 26.5803 80.0921 27.3033 81.4025 27.3033C82.9887 27.3033 84.0231 26.5458 84.4714 25.0653H86.6438C86.0921 27.5787 84.1955 28.9904 81.368 28.9904C77.8507 28.9904 75.6094 26.5803 75.6094 22.7929C75.6094 19.1089 77.8507 16.6299 81.1956 16.6299C84.7473 16.6299 86.6783 19.04 86.6783 23.3782H77.7128V23.4127ZM83.9887 19.8319C83.4369 18.9023 82.3335 18.3514 81.1956 18.3514C79.23 18.3514 77.9887 19.5909 77.7473 21.8289H84.5404C84.4369 20.796 84.299 20.3139 83.9887 19.8319Z" fill="#9097AA"/>
<path d="M88.6445 12.5673H90.6445V18.7647C91.4721 17.3875 92.61 16.7333 94.2652 16.7333C97.1618 16.7333 99.2307 19.2468 99.2307 22.8619C99.2307 26.4771 97.2652 28.9217 94.2997 28.9217C92.679 28.9217 91.61 28.2675 90.5756 26.7526V28.6807H88.6445V12.5673ZM90.679 22.7931C90.679 25.3409 92.1273 27.2346 94.0238 27.2346C95.8514 27.2346 97.0583 25.5131 97.0583 22.8619C97.0583 20.0731 95.8514 18.3516 93.9549 18.3516C92.0583 18.3516 90.679 20.1764 90.679 22.7931Z" fill="#9097AA"/>
<path d="M102.852 23.7569C102.817 25.8227 104.128 27.1655 106.197 27.1655C108.059 27.1655 109.404 25.9949 109.404 24.3767C109.404 22.724 108.128 21.7255 106.059 21.7255C105.852 21.7255 105.679 21.7255 105.369 21.76V19.9696C105.61 19.9696 105.748 19.9696 105.886 19.9696C108.024 19.9696 109.266 19.04 109.266 17.3873C109.266 15.8379 108.059 14.8395 106.231 14.8395C104.266 14.8395 103.128 16.0101 103.059 18.0759H100.921C101.059 14.8739 103.024 13.0146 106.266 13.0146C109.266 13.0146 111.369 14.7362 111.369 17.2152C111.369 18.8678 110.197 20.3827 108.61 20.7959C110.541 21.2779 111.576 22.5863 111.576 24.5144C111.576 27.1311 109.335 28.9903 106.162 28.9903C102.852 28.9903 100.61 26.8557 100.645 23.7569H102.852Z" fill="#9097AA"/>
<path d="M59.7128 41.0754H57.6094V39.4572H59.7128C59.7473 37.5291 59.7818 37.1159 60.0576 36.4273C60.4714 35.3256 61.5404 34.7402 63.1266 34.7402C63.4369 34.7402 63.7128 34.7747 64.23 34.8091V36.5995C63.7473 36.4618 63.5404 36.4618 63.2301 36.4618C62.5404 36.4618 62.0232 36.8061 61.8507 37.4258C61.7128 37.839 61.7128 38.1488 61.7128 39.4228H64.23V41.041H61.7128V51.0947H59.7128V41.0754Z" fill="#9097AA"/>
<path d="M75.99 45.2758C75.99 49.0287 73.7486 51.4733 70.3004 51.4733C66.9211 51.4733 64.6797 48.9599 64.6797 45.2414C64.6797 41.5573 66.9555 39.1128 70.3693 39.1128C73.7141 39.1472 75.99 41.6262 75.99 45.2758ZM66.8521 45.1725C66.8521 48.0303 68.128 49.7862 70.2659 49.7862C72.4038 49.7862 73.8176 48.0303 73.8176 45.3103C73.8176 42.5558 72.4383 40.7999 70.3004 40.7999C68.1624 40.7999 66.8521 42.487 66.8521 45.1725Z" fill="#9097AA"/>
<path d="M85.7131 49.752C85.1269 50.7849 83.782 51.4046 82.1958 51.4046C80.5752 51.4046 79.2993 50.7504 78.6096 49.6142C78.1614 48.8568 78.0234 48.0649 78.0234 46.1023V39.4573H80.0234V46.4811C80.0234 48.6846 80.851 49.7175 82.5407 49.7175C83.6441 49.7175 84.6096 49.2011 85.1613 48.3403C85.5062 47.7894 85.5751 47.1352 85.5751 45.0694V39.4917H87.5751V51.1636H85.6441V49.752H85.7131Z" fill="#9097AA"/>
<path d="M91.9551 40.869C92.8517 39.6983 93.9206 39.2163 95.5068 39.2163C97.1275 39.2163 98.4034 39.8705 99.0931 41.0067C99.5413 41.7642 99.6793 42.5561 99.6793 44.5186V51.1637H97.6448V44.1399C97.6448 41.9019 96.8172 40.9034 95.1275 40.9034C93.9896 40.9034 93.0586 41.4199 92.5069 42.315C92.162 42.8659 92.0931 43.4857 92.0931 45.5859V51.1637H90.0586V39.4918H91.9551V40.869Z" fill="#9097AA"/>
<path d="M110.335 51.1291V49.201C109.3 50.7504 108.197 51.3701 106.611 51.3701C103.68 51.3701 101.68 48.9256 101.68 45.3448C101.68 41.6952 103.714 39.1818 106.645 39.1818C108.3 39.1818 109.438 39.8359 110.266 41.2132V35.0157H112.266V51.0947H110.335V51.1291ZM103.852 45.3448C103.852 47.9959 105.024 49.7175 106.887 49.7175C108.783 49.7175 110.231 47.8238 110.231 45.2759C110.231 42.6592 108.887 40.8344 106.99 40.8344C105.093 40.8344 103.852 42.5559 103.852 45.3448Z" fill="#9097AA"/>
<path d="M122.403 51.1291C122.299 50.5093 122.265 50.3027 122.196 49.683C121.196 50.888 120.058 51.4045 118.437 51.4045C115.92 51.4045 114.23 49.9584 114.23 47.8582C114.23 46.3088 115.093 45.2415 116.817 44.725C117.368 44.5528 118.265 44.3807 119.299 44.243C119.955 44.1397 120.713 44.0364 122.024 43.9331C121.989 42.4182 121.92 41.9706 121.506 41.523C121.093 41.0754 120.368 40.7999 119.472 40.7999C117.748 40.7999 116.886 41.5574 116.782 43.1412H114.679C114.886 41.6951 115.161 40.9721 115.92 40.3179C116.748 39.5604 118.058 39.1129 119.472 39.1129C121.23 39.1129 122.61 39.6982 123.368 40.8344C123.989 41.6951 124.093 42.5559 124.058 46.2744C124.024 48.6156 124.127 49.8551 124.437 51.1291H122.403ZM116.403 47.927C116.403 49.0977 117.299 49.7863 118.748 49.7863C119.989 49.7863 120.955 49.3387 121.541 48.4435C121.886 47.927 122.024 47.2384 122.024 45.9301V45.5169C117.851 45.7923 116.403 46.4121 116.403 47.927Z" fill="#9097AA"/>
<path d="M129.333 39.4916H131.954V41.1099H129.333V47.3418C129.333 48.6501 129.368 48.8911 129.575 49.1666C129.782 49.442 130.264 49.6142 130.816 49.6142C131.23 49.6142 131.609 49.5453 131.954 49.442V51.1635C131.023 51.3357 130.678 51.3701 130.195 51.3701C129.126 51.3701 128.195 50.8881 127.713 50.0962C127.437 49.5797 127.333 49.0977 127.333 47.9615V47.204V41.0754H125.195V39.4572H127.333V36.6339H129.333V39.4916Z" fill="#9097AA"/>
<path d="M133.748 35.0502H135.748V37.3914H133.748V35.0502ZM135.783 39.4917V51.1636H133.783V39.4917H135.783Z" fill="#9097AA"/>
<path d="M149.092 45.2759C149.092 49.0288 146.85 51.4734 143.402 51.4734C140.023 51.4734 137.781 48.9599 137.781 45.2415C137.781 41.5574 140.057 39.1129 143.471 39.1129C146.816 39.1473 149.092 41.6263 149.092 45.2759ZM139.954 45.1726C139.954 48.0303 141.23 49.7863 143.367 49.7863C145.505 49.7863 146.919 48.0303 146.919 45.3103C146.919 42.5559 145.54 40.7999 143.402 40.7999C141.264 40.7999 139.954 42.487 139.954 45.1726Z" fill="#9097AA"/>
<path d="M153.023 40.869C153.919 39.6983 154.988 39.2163 156.575 39.2163C158.195 39.2163 159.471 39.8705 160.161 41.0067C160.609 41.7642 160.747 42.5561 160.747 44.5186V51.1637H158.747V44.1399C158.747 41.9019 157.919 40.9034 156.23 40.9034C155.092 40.9034 154.161 41.4199 153.609 42.315C153.264 42.8659 153.195 43.4857 153.195 45.5859V51.1637H151.195V39.4918H153.092V40.869H153.023Z" fill="#9097AA"/>
</g>
</svg>
