<?xml version="1.0" encoding="utf-8"?>
<!-- Generator: Adobe Illustrator 27.2.0, SVG Export Plug-In . SVG Version: 6.00 Build 0)  -->
<svg version="1.1" id="Layer_1" xmlns="http://www.w3.org/2000/svg" xmlns:xlink="http://www.w3.org/1999/xlink" x="0px" y="0px"
	 viewBox="0 0 363 42" style="enable-background:new 0 0 363 42;" xml:space="preserve">
<style type="text/css">
	.st0{fill:#FFFFFF;}
</style>
<path class="st0" d="M24.4,5.2L4.2,41.3H10L30.9,3.7l-0.4-3.3H0v4.8H24.4z"/>
<path class="st0" d="M40.7,11.8c0-2.6,1.1-4.4,3.4-5.6C46.3,5,49,4.4,52,4.4c3.1,0.1,5.6,0.8,7.8,1.9c2.1,1.2,3.2,3.2,3.2,5.9
	c0,1.4-0.4,2.6-1.1,3.6c-0.7,1.1-1.7,1.8-2.9,2.3c-1.2,0.5-2.4,0.9-3.6,1.1c-1.2,0.2-2.4,0.3-3.6,0.3c-2.1,0-4.2,0.2-5.9,0.6
	c-1.8,0.4-3.6,1.1-5.2,1.9c-1.7,0.8-2.9,2-3.9,3.6c-1,1.6-1.4,3.5-1.4,5.7v9.9h32.6v-4.8H40.5v-5c0-4.6,3.7-6.9,11.3-7.1
	c2.1,0,4.1-0.2,5.9-0.6c1.8-0.4,3.6-1.1,5.2-2c1.5-0.9,2.8-2.2,3.7-3.8c1-1.6,1.4-3.6,1.4-5.8c0-2.2-0.5-4.1-1.4-5.7
	c-1-1.6-2.2-2.9-3.7-3.8c-1.6-0.9-3.3-1.6-5.1-2C56,0.2,54,0,52,0c-2.1,0-4,0.2-5.8,0.6c-1.8,0.4-3.5,1.1-5.1,1.9
	c-1.7,0.9-3,2.1-3.9,3.7c-1,1.6-1.5,3.5-1.6,5.7H40.7z"/>
<path class="st0" d="M97.8,5.2L77.5,41.3h5.9l20.8-37.6l-0.4-3.3H73.4v4.8H97.8z"/>
<path class="st0" d="M106.1,38.7c0,1.3,0.5,2.3,1.6,2.8c1.1,0.6,2.1,0.6,3.2,0.1c1.1-0.5,1.6-1.5,1.6-2.8c0-1.3-0.5-2.2-1.6-2.8
	c-1.1-0.5-2.1-0.5-3.2,0C106.7,36.5,106.1,37.4,106.1,38.7z"/>
<path class="st0" d="M115.7,12.5l12.4,28.9h5.4l12.4-28.9h-5.3l-4.8,11.3l-4.9,12.4l-5-12.5l-4.8-11.3H115.7z"/>
<path class="st0" d="M176.9,36.7l-3.3-2.9c-1,1.2-2.3,2-4.1,2.7c-1.8,0.6-3.5,0.9-5.2,0.9c-2.9,0-5.3-0.8-7.3-2.3
	c-2-1.6-3.1-3.7-3.4-6.3h25c0.5-5.5-0.6-9.6-3.4-12.5c-2.8-2.9-6.5-4.4-11.3-4.4c-4.5,0-8.1,1.4-10.9,4.2c-2.9,2.8-4.3,6.4-4.3,10.7
	c0,4.5,1.4,8.2,4.3,11c2.9,2.7,6.5,4.1,11.2,4.1c2.4,0,4.8-0.4,7.1-1.3C173.5,39.7,175.4,38.4,176.9,36.7L176.9,36.7z M174,24.7
	h-20.3c0.4-2.7,1.5-4.8,3.5-6.3c1.9-1.5,4.2-2.3,6.9-2.3c2.9,0,5.3,0.8,7.1,2.3C172.9,19.9,173.9,22.1,174,24.7L174,24.7z"/>
<path class="st0" d="M185.4,41.3h4.8V25.8c0-2.6,0.8-4.8,2.5-6.7c1.7-1.8,3.9-2.7,6.5-2.7c2.7,0,4.9,0.8,6.5,2.4
	c1.5,1.6,2.4,3.8,2.4,6.6v15.9h4.9V25.4c0-4.1-1.2-7.3-3.6-9.7c-2.4-2.4-5.5-3.6-9.3-3.6c-4.2,0-7.6,1.7-10,5l-0.2-4.6h-4.5V41.3z"
	/>
<path class="st0" d="M229.1,4.1l-4.9,0.5v7.9h-5.9v4.1h5.9v15.2c0,6.7,3.1,10,9.3,9.9c1.8,0,3.7-0.5,5.7-1.4l-1.4-4
	c-1.4,0.7-2.8,1-4.1,1c-3.1,0-4.6-1.8-4.6-5.5V16.6h9.2v-4.1h-9.1V4.1z"/>
<path class="st0" d="M267.2,41.3h4.5V12.5h-4.9v15.5c0,2.7-0.9,4.9-2.6,6.7c-1.7,1.8-3.9,2.7-6.5,2.7c-2.8,0-5-0.8-6.5-2.4
	c-1.6-1.6-2.4-3.8-2.4-6.6V12.5H244v15.9c0,4.1,1.1,7.4,3.5,9.8c2.4,2.4,5.5,3.6,9.3,3.6c4.3-0.1,7.7-1.8,10.2-5.1L267.2,41.3
	L267.2,41.3z"/>
<path class="st0" d="M285.2,12.5h-4.5v28.8h4.9v-16c0-2.6,0.8-4.6,2.5-6.2c1.7-1.6,3.7-2.4,6.1-2.4c1.8,0,3.6,0.5,5.1,1.6l2.2-4.1
	c-2-1.5-4.3-2.2-6.8-2.2c-4.3,0-7.3,1.6-9,4.8L285.2,12.5L285.2,12.5z"/>
<path class="st0" d="M331.5,36.7l-3.3-2.9c-1,1.2-2.3,2-4.1,2.7c-1.8,0.6-3.5,0.9-5.2,0.9c-2.9,0-5.3-0.8-7.3-2.3
	c-2-1.6-3.2-3.7-3.4-6.3h25c0.5-5.5-0.6-9.6-3.4-12.5c-2.8-2.9-6.5-4.4-11.3-4.4c-4.5,0-8.1,1.4-10.9,4.2c-2.9,2.8-4.3,6.4-4.3,10.7
	c0,4.5,1.4,8.2,4.3,11c2.9,2.7,6.5,4.1,11.2,4.1c2.4,0,4.8-0.4,7.1-1.3C328.1,39.7,330,38.4,331.5,36.7L331.5,36.7z M328.6,24.7
	h-20.3c0.4-2.7,1.5-4.8,3.5-6.3c1.9-1.5,4.2-2.3,6.9-2.3c2.9,0,5.3,0.8,7.1,2.3C327.5,19.9,328.5,22.1,328.6,24.7L328.6,24.7z"/>
<path class="st0" d="M358.9,18.8l2.8-3.2c-2.9-2.6-6.7-3.9-11.2-3.9c-2,0-3.9,0.2-5.6,0.8c-1.7,0.6-3.2,1.5-4.4,2.8
	c-1.2,1.3-1.8,3-1.8,4.9c0,1.5,0.3,2.7,1,3.8c0.7,1,1.6,1.8,2.9,2.4c1.2,0.6,2.4,1,3.6,1.3c1.2,0.4,2.6,0.6,4.3,0.8
	c2.6,0.3,4.5,0.8,5.9,1.5c1.4,0.7,2,1.8,2,3.2c-0.1,1.6-0.8,2.7-2.3,3.4c-1.5,0.7-3.2,1-5.1,1c-4.5,0-8-1.5-10.5-4.4l-2.8,3.3
	c2.9,3.6,7.3,5.4,13.1,5.4c3.4,0,6.4-0.7,8.7-2.2c2.3-1.5,3.5-3.6,3.6-6.4c0-1.3-0.2-2.5-0.8-3.6c-0.6-1-1.2-1.9-2-2.4
	c-0.7-0.6-1.7-1.1-3-1.5c-1.3-0.4-2.4-0.7-3.3-0.9c-0.9-0.1-2-0.3-3.4-0.5c-4.9-0.5-7.3-1.9-7.3-4.3c-0.1-1.3,0.6-2.4,2-3.2
	c1.4-0.7,3.2-1.1,5.3-1.1C354,16.1,356.7,17,358.9,18.8L358.9,18.8z"/>
</svg>
