<svg width="181" height="22" viewBox="0 0 181 22" fill="none" xmlns="http://www.w3.org/2000/svg">
<path d="M0.000488281 19.1106V22.0001H4.77098L20.3186 6.69949V14.349H14.4364L10.5802 18.1638H20.3186V22.0001H25.1256V0.0131836H19.3645L0.000488281 19.1106Z" fill="white"/>
<path d="M27.0869 0.0131836V22.0001H31.9221V4.79123L27.0869 0.0131836Z" fill="white"/>
<path d="M29.03 0.0131836L33.8221 4.75185H42.56L38.6623 8.60611H33.837V13.3727H35.795L44.5113 21.9968H50.2791V19.1188L43.0063 11.9271L50.2956 4.75185V0.0131836H29.03Z" fill="white"/>
<path d="M130.607 0.0131836V22.0001H135.443V4.79123L130.607 0.0131836Z" fill="white"/>
<path d="M132.551 0.0131836L137.343 4.75185H146.08L142.183 8.60611H137.358V13.3727H139.316L148.032 21.9968H153.8V19.1188L146.527 11.9271L153.816 4.75185V0.0131836H132.551Z" fill="white"/>
<path d="M52.2104 0.0131836V4.75185H60.95V21.9968H65.8649V4.75185H72.5834L74.5048 2.85015V0.0131836H52.2104Z" fill="white"/>
<path d="M76.4678 0.0131836V4.75185H90.9485L76.4678 19.1106V21.9968H81.2598L101.615 1.87879V0.0131836H76.4678Z" fill="white"/>
<path d="M88.0529 17.2581L85.1326 20.0786V21.9967H101.629V17.2581H88.0529Z" fill="white"/>
<path d="M104.492 0.0131265V2.80743L112.31 10.4372L104.513 18.1457V21.9967H128.724V19.1187L126.693 17.2581L113.271 17.2121L117.127 13.3989H125.772V7.61172H117.091L109.393 0L104.492 0.0131265Z" fill="white"/>
<path d="M111.356 0.0131265L116.113 4.71569H126.793L128.674 2.85501V0L111.356 0.0131265Z" fill="white"/>
<path d="M156.808 1.91647V21.0254L161.575 16.2867V4.75179H175.108L179.955 0.0147705H158.776L156.808 1.91647Z" fill="white"/>
<path d="M181 20.095V0.927002L176.152 5.74442V17.258H162.617L157.825 21.9967H179.034L181 20.095Z" fill="white"/>
</svg>
