<svg width="90" height="15" viewBox="0 0 90 15" fill="none" xmlns="http://www.w3.org/2000/svg">
<path d="M60.6289 6.78367V11.4258H62.4163V3.57129H60.6289V6.78367Z" fill="white"/>
<path d="M56.5726 3.57129H54.7852V11.4258H56.5726V8.21343H59.1975L60.6264 6.78367H56.5726V3.57129Z" fill="white"/>
<path d="M65.5589 4.99843H70.4187V3.57129H65.292H63.7715V11.4258H65.5589V8.21343H69.809V6.78367H65.5589V4.99843Z" fill="white"/>
<path d="M43.2589 9.99867H39.2601V3.57129H37.4727V9.99867L39.2601 11.4258H43.2589L45.0463 9.99867V3.57129H43.2589V9.99867Z" fill="white"/>
<path d="M48.0003 3.57129H47.6784H46.2129V7.85534H47.5816H48.0003H51.8029V9.99867H48.0003V11.4258H51.8029H52.3655H53.5903V6.42819H52.3655H51.8029H48.0003V4.99843H51.8029V3.57129H48.0003Z" fill="white"/>
<path d="M51.8027 5.71201H53.5902V3.57129L51.8027 4.99843V5.71201Z" fill="white"/>
<path d="M46.2129 8.74646V11.4256L48.0003 9.99848V8.74646H46.2129Z" fill="white"/>
<path d="M30.5824 3.57129H28.7949V11.4258H30.5824V9.10475H33.1706L34.5157 11.4258H36.3032L34.958 9.10475H36.332V3.57129H30.585H30.5824ZM34.5419 7.6776H30.5824V5.00105H34.5419V7.6776Z" fill="white"/>
<path d="M75.2418 3.57129H73.4544L70.416 11.4258H72.2034L72.6876 10.1764H74.8859L76.3148 8.74927H73.2398L74.5457 5.37483H75.0455L77.3878 11.4284H79.1752L76.1368 3.5739H75.2444L75.2418 3.57129Z" fill="white"/>
<path d="M88.1026 3.57129H86.5664L84.69 9.10475H84.5095L82.6331 3.57129H80.1992V11.4258H81.9945V6.78367H82.1751L83.7636 11.4258H85.5903L87.027 6.78367H87.2076V11.4258H89.0029V3.57129H88.1053H88.1026Z" fill="white"/>
<path d="M20.0977 3.74903V4.99843V9.99867V10.89V11.4258H27.5326V10.89V9.99867V8.03308H25.6745V9.99867H21.9557V8.03308H25.6745V6.60593H21.9557V4.99843H25.6745V6.60593H27.5326V4.99843V3.74903V3.57129H20.0977V3.74903Z" fill="white"/>
<path d="M14.3549 5.78746V3.21101C14.3549 3.07594 14.3037 2.94597 14.211 2.85168L11.6259 0.150357C11.5332 0.0535169 11.4113 0 11.282 0H5.94341C5.81416 0 5.68978 0.0535169 5.59954 0.150357L3.70457 2.13048C3.39728 2.45158 2.87293 2.22477 2.87293 1.77115V0.616718C2.87293 0.389909 2.60954 0.275229 2.4559 0.43578L0.143891 2.85168C0.0512153 2.94852 0 3.07594 0 3.21101V14.4903C0 14.7706 0.219494 15 0.487765 15H2.8705H11.282C11.4113 15 11.5356 14.9465 11.6259 14.8496L14.211 12.1483C14.3037 12.0515 14.3549 11.9241 14.3549 11.789V9.21254C14.3549 9.07747 14.3037 8.9475 14.211 8.85321L13.5696 8.18298C13.4769 8.08614 13.4257 7.95872 13.4257 7.82365V7.184C13.4257 7.04893 13.4769 6.91896 13.5696 6.82467L14.211 6.15443C14.3037 6.05759 14.3549 5.93017 14.3549 5.79511V5.78746ZM11.4844 3.50917V5.4893C11.4844 5.76962 11.2649 5.99898 10.9967 5.99898H6.23119C5.96292 5.99898 5.74343 6.22834 5.74343 6.50866V8.48879C5.74343 8.76911 5.96292 8.99847 6.23119 8.99847H10.3089C10.743 8.99847 10.9601 9.54638 10.6528 9.86748L8.75782 11.8476C8.66514 11.9444 8.5432 11.998 8.41394 11.998H5.94829C5.81903 11.998 5.69465 12.0515 5.60442 12.1483L3.29241 14.5642C3.13877 14.7248 2.87537 14.6101 2.87537 14.3833V3.50917C2.87537 3.22885 3.09487 2.99949 3.36314 2.99949H11.0015C11.2698 2.99949 11.4893 3.22885 11.4893 3.50917H11.4844Z" fill="white"/>
</svg>
