<svg width="161" height="46" viewBox="0 0 161 46" fill="none" xmlns="http://www.w3.org/2000/svg">
<path d="M64.8341 11.7438C65.6947 11.7438 66.3141 11.5384 66.6922 11.1277C67.0703 10.717 67.2594 10.1433 67.2594 9.40655C67.2594 9.08057 67.2105 8.78393 67.1127 8.51663C67.0149 8.24933 66.865 8.02115 66.6628 7.83209C66.4673 7.6365 66.2163 7.48655 65.9098 7.38224C65.6099 7.27793 65.2514 7.22577 64.8341 7.22577H63.113V11.7438H64.8341ZM64.8341 4.75162C65.8381 4.75162 66.6987 4.87223 67.4158 5.11345C68.1395 5.34815 68.7328 5.67413 69.1957 6.09138C69.6651 6.50863 70.0106 7.00085 70.2323 7.56805C70.4539 8.13524 70.5648 8.74808 70.5648 9.40655C70.5648 10.1172 70.4507 10.7691 70.2225 11.3624C69.9943 11.9557 69.6455 12.4642 69.1761 12.888C68.7067 13.3117 68.1102 13.6442 67.3865 13.8854C66.6694 14.1201 65.8186 14.2375 64.8341 14.2375H63.113V19H59.8076V4.75162H64.8341ZM84.681 4.75162V19H81.356V12.976H75.5667V19H72.2418V4.75162H75.5667V10.7072H81.356V4.75162H84.681ZM94.9755 13.553L93.6553 9.65103C93.5575 9.40329 93.4532 9.11317 93.3423 8.78067C93.2315 8.44166 93.1207 8.07657 93.0099 7.6854C92.9121 8.08309 92.8077 8.45144 92.6969 8.79045C92.5861 9.12947 92.4818 9.42285 92.384 9.67059L91.0736 13.553H94.9755ZM100.227 19H97.6648C97.3779 19 97.1465 18.9348 96.9705 18.8044C96.7944 18.6675 96.6608 18.4947 96.5695 18.2861L95.7285 15.8022H90.3108L89.4698 18.2861C89.398 18.4687 89.2677 18.6349 89.0786 18.7849C88.896 18.9283 88.6679 19 88.394 19H85.8123L91.3278 4.75162H94.7114L100.227 19ZM109.937 16.3596V19H101.35V4.75162H104.656V16.3596H109.937ZM119.156 13.553L117.836 9.65103C117.738 9.40329 117.634 9.11317 117.523 8.78067C117.412 8.44166 117.301 8.07657 117.191 7.6854C117.093 8.08309 116.988 8.45144 116.878 8.79045C116.767 9.12947 116.663 9.42285 116.565 9.67059L115.254 13.553H119.156ZM124.408 19H121.846C121.559 19 121.327 18.9348 121.151 18.8044C120.975 18.6675 120.842 18.4947 120.75 18.2861L119.909 15.8022H114.492L113.651 18.2861C113.579 18.4687 113.448 18.6349 113.259 18.7849C113.077 18.9283 112.849 19 112.575 19H109.993L115.509 4.75162H118.892L124.408 19ZM72.2468 27.7516V42H70.5257C70.2714 42 70.0563 41.9609 69.8802 41.8826C69.7107 41.7979 69.5412 41.6545 69.3717 41.4524L62.6534 32.9542C62.6794 33.2084 62.6957 33.4562 62.7022 33.6974C62.7153 33.9321 62.7218 34.1538 62.7218 34.3624V42H59.8076V27.7516H61.5483C61.6917 27.7516 61.8123 27.7581 61.9101 27.7712C62.0079 27.7842 62.0959 27.8103 62.1742 27.8494C62.2524 27.882 62.3274 27.9309 62.3991 27.9961C62.4708 28.0613 62.5523 28.1493 62.6436 28.2601L69.4206 36.817C69.388 36.5432 69.3652 36.2791 69.3521 36.0249C69.3391 35.7641 69.3326 35.5196 69.3326 35.2914V27.7516H72.2468ZM78.3362 30.2942V33.6192H82.8151V36.064H78.3362V39.4574H84.1842V42H75.0113V27.7516H84.1842V30.2942H78.3362ZM96.4619 30.3725H92.4524V42H89.147V30.3725H85.1375V27.7516H96.4619V30.3725ZM117.553 27.7516L113.153 42H110.16L107.481 33.1693C107.429 33.0324 107.38 32.8825 107.334 32.7195C107.288 32.55 107.243 32.3739 107.197 32.1914C107.151 32.3739 107.106 32.55 107.06 32.7195C107.015 32.8825 106.966 33.0324 106.914 33.1693L104.195 42H101.202L96.8018 27.7516H99.5791C99.8659 27.7516 100.104 27.8168 100.293 27.9472C100.489 28.0776 100.616 28.2504 100.674 28.4655L102.63 35.8977C102.689 36.1324 102.748 36.39 102.806 36.6703C102.865 36.9441 102.924 37.231 102.982 37.5309C103.1 36.918 103.243 36.3737 103.413 35.8977L105.72 28.4655C105.779 28.283 105.903 28.12 106.092 27.9765C106.288 27.8266 106.522 27.7516 106.796 27.7516H107.774C108.061 27.7516 108.292 27.8201 108.468 27.957C108.644 28.0874 108.778 28.2569 108.869 28.4655L111.158 35.8977C111.327 36.3541 111.471 36.8724 111.588 37.4526C111.64 37.1593 111.692 36.8854 111.744 36.6312C111.803 36.3704 111.862 36.1259 111.92 35.8977L113.876 28.4655C113.929 28.2764 114.052 28.1102 114.248 27.9668C114.444 27.8233 114.678 27.7516 114.952 27.7516H117.553ZM132.601 34.8709C132.601 35.901 132.422 36.8594 132.063 37.746C131.711 38.6327 131.213 39.4052 130.567 40.0637C129.922 40.7157 129.143 41.2274 128.23 41.5991C127.324 41.9707 126.316 42.1565 125.208 42.1565C124.1 42.1565 123.089 41.9707 122.176 41.5991C121.264 41.2274 120.481 40.7157 119.829 40.0637C119.184 39.4052 118.682 38.6327 118.323 37.746C117.971 36.8594 117.795 35.901 117.795 34.8709C117.795 33.8408 117.971 32.8825 118.323 31.9958C118.682 31.1092 119.184 30.3399 119.829 29.6879C120.481 29.036 121.264 28.5242 122.176 28.1526C123.089 27.781 124.1 27.5952 125.208 27.5952C126.316 27.5952 127.324 27.7842 128.23 28.1623C129.143 28.534 129.922 29.0457 130.567 29.6977C131.213 30.3496 131.711 31.1189 132.063 32.0056C132.422 32.8922 132.601 33.8474 132.601 34.8709ZM129.218 34.8709C129.218 34.1668 129.126 33.5344 128.944 32.9737C128.761 32.4065 128.497 31.9274 128.152 31.5362C127.813 31.145 127.395 30.8451 126.9 30.6365C126.404 30.4279 125.84 30.3236 125.208 30.3236C124.569 30.3236 123.999 30.4279 123.497 30.6365C123.001 30.8451 122.581 31.145 122.235 31.5362C121.896 31.9274 121.635 32.4065 121.453 32.9737C121.27 33.5344 121.179 34.1668 121.179 34.8709C121.179 35.5815 121.27 36.2205 121.453 36.7877C121.635 37.3483 121.896 37.8243 122.235 38.2154C122.581 38.6066 123.001 38.9065 123.497 39.1151C123.999 39.3172 124.569 39.4183 125.208 39.4183C125.84 39.4183 126.404 39.3172 126.9 39.1151C127.395 38.9065 127.813 38.6066 128.152 38.2154C128.497 37.8243 128.761 37.3483 128.944 36.7877C129.126 36.2205 129.218 35.5815 129.218 34.8709ZM139.182 34.4504C139.632 34.4504 140.013 34.395 140.326 34.2842C140.645 34.1668 140.906 34.0071 141.108 33.805C141.31 33.6029 141.457 33.3682 141.548 33.1009C141.64 32.8271 141.685 32.5337 141.685 32.2207C141.685 31.5949 141.48 31.1059 141.069 30.7539C140.665 30.4018 140.036 30.2258 139.182 30.2258H137.852V34.4504H139.182ZM146.203 42H143.211C142.657 42 142.259 41.7914 142.018 41.3741L139.651 37.2375C139.54 37.0615 139.416 36.9343 139.279 36.8561C139.143 36.7714 138.947 36.729 138.693 36.729H137.852V42H134.546V27.7516H139.182C140.212 27.7516 141.089 27.8592 141.812 28.0743C142.543 28.283 143.136 28.5763 143.592 28.9545C144.055 29.3326 144.391 29.7792 144.599 30.2942C144.808 30.8093 144.912 31.3699 144.912 31.9763C144.912 32.4391 144.85 32.876 144.727 33.2867C144.603 33.6974 144.42 34.0788 144.179 34.4309C143.938 34.7764 143.638 35.0861 143.279 35.3599C142.927 35.6337 142.52 35.8586 142.057 36.0347C142.272 36.1455 142.474 36.2857 142.663 36.4552C142.852 36.6181 143.022 36.8137 143.172 37.0419L146.203 42ZM150.706 33.5214H151.234C151.723 33.5214 152.075 33.3682 152.29 33.0618L155.498 28.4068C155.687 28.1591 155.889 27.9896 156.104 27.8983C156.326 27.8005 156.6 27.7516 156.926 27.7516H159.801L155.576 33.5116C155.276 33.9093 154.954 34.1962 154.608 34.3722C154.856 34.4635 155.081 34.5906 155.283 34.7536C155.485 34.9166 155.674 35.1284 155.85 35.3892L160.153 42H157.2C157.01 42 156.847 41.987 156.711 41.9609C156.58 41.9348 156.466 41.8957 156.368 41.8435C156.27 41.7914 156.186 41.7294 156.114 41.6577C156.042 41.5795 155.974 41.4915 155.909 41.3937L152.682 36.4356C152.564 36.2531 152.414 36.1259 152.232 36.0542C152.056 35.976 151.814 35.9369 151.508 35.9369H150.706V42H147.401V27.7516H150.706V33.5214Z" fill="white"/>
<path d="M35.9983 22.5H9.00098V31.5004H35.9983V22.5Z" fill="white"/>
<path d="M45.0004 9.00024H36V22.4999H45.0004V9.00024Z" fill="white"/>
<path d="M9.00236 31.5004H0V33.751V36.0015V45H9.0004V36.0015L9.00236 31.5004Z" fill="white"/>
<path d="M35.9996 0H9.00236H7.70847H0V18.0008V20.8747V22.4999H9.00236V20.8747V18.0008V9.0004H35.9996V0Z" fill="white"/>
<path d="M35.9983 22.5H9.00098V31.5004H35.9983V22.5Z" fill="white"/>
</svg>
