<svg width="450" height="210" viewBox="0 0 450 210" fill="none" xmlns="http://www.w3.org/2000/svg">
<path d="M67.4346 89.25L47.1616 125.3H53.0473L73.8554 87.7333L73.4392 84.4667H43V89.25H67.4346Z" fill="white"/>
<path d="M83.6974 95.7833C83.6974 93.2167 84.827 91.35 87.0862 90.1833C89.3453 89.0167 91.9612 88.4333 94.9932 88.4333C98.0847 88.55 100.641 89.1917 102.781 90.3583C104.862 91.5833 105.932 93.5667 105.932 96.25C105.932 97.65 105.516 98.875 104.803 99.8667C104.089 100.917 103.138 101.675 101.949 102.2C100.76 102.725 99.5116 103.075 98.3225 103.308C97.1335 103.542 95.885 103.658 94.696 103.658C92.5557 103.658 90.5344 103.892 88.7508 104.242C86.9078 104.65 85.1837 105.292 83.5191 106.108C81.8544 106.925 80.6059 108.15 79.6547 109.725C78.7035 111.358 78.2279 113.225 78.2279 115.442V125.3H110.867V120.458H83.4596V115.442C83.4596 110.833 87.2051 108.5 94.7554 108.383C96.8957 108.383 98.8576 108.208 100.701 107.8C102.544 107.392 104.268 106.75 105.873 105.817C107.419 104.883 108.667 103.6 109.618 101.967C110.57 100.333 111.045 98.4083 111.045 96.1917C111.045 94.0333 110.57 92.1083 109.618 90.475C108.667 88.8417 107.419 87.6167 105.873 86.6833C104.268 85.75 102.544 85.1083 100.76 84.6417C98.9765 84.2333 97.0146 84 94.9932 84C92.9124 84 90.9505 84.2333 89.167 84.5833C87.3834 84.9917 85.6593 85.6333 84.0541 86.45C82.3895 87.325 81.0816 88.55 80.1303 90.125C79.1197 91.7583 78.5846 93.625 78.5251 95.7833H83.6974Z" fill="white"/>
<path d="M140.82 89.25L120.547 125.3H126.433L147.241 87.7333L146.825 84.4667H116.386V89.25H140.82Z" fill="white"/>
<path d="M149.12 122.675C149.12 124.017 149.655 124.95 150.725 125.475C151.795 126.058 152.865 126.058 153.935 125.533C155.005 125.008 155.541 124.075 155.541 122.733C155.541 121.45 155.005 120.517 153.935 119.933C152.865 119.408 151.795 119.408 150.725 119.933C149.655 120.458 149.12 121.392 149.12 122.675Z" fill="white"/>
<path d="M158.704 96.4833L171.13 125.358H176.481L188.846 96.4833H183.496L178.74 107.8L173.805 120.225L168.811 107.742L164.055 96.4833H158.704Z" fill="white"/>
<path d="M219.885 120.692L216.615 117.775C215.664 118.942 214.297 119.817 212.513 120.458C210.73 121.1 209.006 121.392 207.282 121.392C204.428 121.392 201.99 120.633 200.028 119.058C198.007 117.483 196.878 115.383 196.64 112.758H221.609C222.144 107.275 221.015 103.133 218.221 100.217C215.426 97.3 211.681 95.8417 206.925 95.8417C202.466 95.8417 198.839 97.2417 195.986 100.042C193.132 102.842 191.705 106.458 191.705 110.775C191.705 115.325 193.132 119 195.986 121.742C198.839 124.483 202.525 125.825 207.163 125.825C209.541 125.825 211.919 125.417 214.237 124.542C216.497 123.667 218.399 122.383 219.826 120.692H219.885ZM216.972 108.733H196.64C196.996 106.05 198.185 103.95 200.147 102.433C202.05 100.917 204.368 100.158 207.044 100.158C209.957 100.158 212.335 100.917 214.118 102.433C215.902 103.95 216.853 106.05 216.972 108.792V108.733Z" fill="white"/>
<path d="M228.383 125.3H233.199V109.842C233.199 107.217 234.031 105 235.696 103.192C237.36 101.442 239.56 100.508 242.235 100.45C244.97 100.45 247.17 101.267 248.775 102.842C250.321 104.475 251.153 106.633 251.153 109.433V125.3H256.028V109.375C256.028 105.292 254.78 102.025 252.402 99.6333C250.024 97.2417 246.932 96.0167 243.127 96.0167C238.906 96.0167 235.577 97.7083 233.08 101.033L232.842 96.425H228.383V125.3Z" fill="white"/>
<path d="M272.062 88.0833L267.187 88.6083V96.5417H261.302V100.625H267.187V115.85C267.187 122.558 270.279 125.825 276.462 125.708C278.245 125.708 280.148 125.242 282.169 124.308L280.742 120.342C279.316 121.042 277.948 121.392 276.64 121.392C273.549 121.392 272.003 119.583 272.003 115.85V100.625H281.159V96.5417H272.062V88.0833Z" fill="white"/>
<path d="M310.198 125.3H314.717V96.4833H309.842V111.942C309.842 114.625 308.95 116.842 307.285 118.592C305.621 120.4 303.421 121.333 300.805 121.333C298.011 121.333 295.811 120.575 294.265 118.942C292.66 117.367 291.887 115.15 291.887 112.35V96.4833H287.012V112.408C287.012 116.55 288.142 119.817 290.52 122.208C292.898 124.6 295.989 125.767 299.794 125.767C304.075 125.708 307.523 124.017 310.02 120.692L310.258 125.3H310.198Z" fill="white"/>
<path d="M328.175 96.4833H323.657V125.3H328.532V109.258C328.532 106.692 329.364 104.65 331.029 103.075C332.693 101.5 334.715 100.683 337.152 100.625C338.995 100.625 340.719 101.15 342.265 102.2L344.465 98.1167C342.443 96.6 340.184 95.9 337.628 95.9583C333.347 95.9583 330.315 97.5917 328.591 100.742L328.234 96.425L328.175 96.4833Z" fill="white"/>
<path d="M374.494 120.692L371.225 117.775C370.273 118.942 368.906 119.817 367.122 120.458C365.339 121.1 363.615 121.392 361.891 121.392C359.037 121.392 356.599 120.633 354.638 119.058C352.616 117.483 351.487 115.383 351.249 112.758H376.218C376.754 107.275 375.624 103.133 372.83 100.217C370.036 97.3 366.29 95.8417 361.534 95.8417C357.075 95.8417 353.448 97.2417 350.595 100.042C347.741 102.842 346.314 106.458 346.314 110.775C346.314 115.325 347.741 119 350.595 121.742C353.448 124.483 357.135 125.825 361.772 125.825C364.15 125.825 366.528 125.417 368.846 124.542C371.106 123.667 373.008 122.383 374.435 120.692H374.494ZM371.581 108.733H351.249C351.606 106.05 352.795 103.95 354.756 102.433C356.659 100.917 358.978 100.158 361.653 100.158C364.566 100.158 366.944 100.917 368.728 102.433C370.511 103.95 371.462 106.05 371.581 108.792V108.733Z" fill="white"/>
<path d="M401.898 102.842L404.692 99.6917C401.779 97.125 398.034 95.8417 393.515 95.8417C391.494 95.8417 389.591 96.075 387.867 96.6C386.143 97.1833 384.657 98.1167 383.468 99.4C382.219 100.742 381.625 102.375 381.625 104.3C381.625 105.817 381.922 107.042 382.576 108.092C383.23 109.142 384.181 109.9 385.43 110.483C386.619 111.067 387.867 111.533 389.056 111.825C390.245 112.175 391.672 112.408 393.337 112.583C395.893 112.933 397.855 113.4 399.223 114.042C400.59 114.742 401.244 115.792 401.244 117.192C401.184 118.825 400.412 119.933 398.925 120.633C397.439 121.333 395.715 121.683 393.812 121.683C389.294 121.683 385.786 120.225 383.349 117.25L380.555 120.575C383.468 124.192 387.867 126 393.694 126C397.142 126 400.055 125.3 402.433 123.783C404.752 122.267 405.941 120.167 406 117.367C406 116.025 405.762 114.858 405.227 113.808C404.633 112.758 403.979 111.942 403.265 111.358C402.552 110.775 401.541 110.308 400.293 109.9C398.985 109.492 397.915 109.2 397.023 109.025C396.131 108.908 395.001 108.733 393.634 108.558C388.759 108.033 386.322 106.633 386.322 104.3C386.262 102.958 386.916 101.908 388.283 101.15C389.651 100.45 391.434 100.1 393.575 100.1C396.963 100.1 399.698 101.033 401.838 102.9L401.898 102.842Z" fill="white"/>
</svg>
