<svg width="240" height="22" viewBox="0 0 240 22" fill="none" xmlns="http://www.w3.org/2000/svg">
<path d="M34.888 18.5033V0.670805C34.888 0.585847 34.8528 0.504366 34.7902 0.444288C34.7277 0.384211 34.6429 0.350464 34.5546 0.350464H31.888C31.7996 0.350464 31.7148 0.384211 31.6523 0.444288C31.5898 0.504366 31.5547 0.585847 31.5547 0.670805V21.3863C31.5547 21.4713 31.5898 21.5528 31.6523 21.6128C31.7148 21.6729 31.7996 21.7067 31.888 21.7067H45.6655C45.7538 21.7067 45.8386 21.6729 45.9011 21.6128C45.9637 21.5528 45.9986 21.4713 45.9986 21.3863V18.8236C45.9986 18.7386 45.9637 18.6572 45.9011 18.5971C45.8386 18.537 45.7538 18.5033 45.6655 18.5033H34.888Z" fill="white"/>
<path d="M69.3318 0.350464H53.3321C53.1481 0.350464 52.999 0.493885 52.999 0.670805V3.23355C52.999 3.41047 53.1481 3.55388 53.3321 3.55388H69.3318C69.5158 3.55388 69.6649 3.41047 69.6649 3.23355V0.670805C69.6649 0.493885 69.5158 0.350464 69.3318 0.350464Z" fill="white"/>
<path d="M69.3318 18.5033H53.3321C53.1481 18.5033 52.999 18.6467 52.999 18.8236V21.3864C52.999 21.5633 53.1481 21.7067 53.3321 21.7067H69.3318C69.5158 21.7067 69.6649 21.5633 69.6649 21.3864V18.8236C69.6649 18.6467 69.5158 18.5033 69.3318 18.5033Z" fill="white"/>
<path d="M69.3318 9.41406H53.3321C53.1481 9.41406 52.999 9.55748 52.999 9.73441V12.2972C52.999 12.4741 53.1481 12.6175 53.3321 12.6175H69.3318C69.5158 12.6175 69.6649 12.4741 69.6649 12.2972V9.73441C69.6649 9.55748 69.5158 9.41406 69.3318 9.41406Z" fill="white"/>
<path d="M186.641 0.350464H170.642C170.458 0.350464 170.309 0.493885 170.309 0.670805V3.23355C170.309 3.41047 170.458 3.55388 170.642 3.55388H186.641C186.825 3.55388 186.975 3.41047 186.975 3.23355V0.670805C186.975 0.493885 186.825 0.350464 186.641 0.350464Z" fill="white"/>
<path d="M186.641 18.5033H170.642C170.458 18.5033 170.309 18.6467 170.309 18.8236V21.3864C170.309 21.5633 170.458 21.7067 170.642 21.7067H186.641C186.825 21.7067 186.975 21.5633 186.975 21.3864V18.8236C186.975 18.6467 186.825 18.5033 186.641 18.5033Z" fill="white"/>
<path d="M186.641 9.41406H170.642C170.458 9.41406 170.309 9.55748 170.309 9.73441V12.2972C170.309 12.4741 170.458 12.6175 170.642 12.6175H186.641C186.825 12.6175 186.975 12.4741 186.975 12.2972V9.73441C186.975 9.55748 186.825 9.41406 186.641 9.41406Z" fill="white"/>
<path d="M122.329 0.350464H119.663C119.479 0.350464 119.33 0.493885 119.33 0.670805V21.3863C119.33 21.5632 119.479 21.7067 119.663 21.7067H122.329C122.514 21.7067 122.663 21.5632 122.663 21.3863V0.670805C122.663 0.493885 122.514 0.350464 122.329 0.350464Z" fill="white"/>
<path d="M115.663 9.43114H107.108V0.675077C107.108 0.590119 107.073 0.508638 107.01 0.448561C106.948 0.388484 106.863 0.354736 106.775 0.354736H104.108C104.02 0.354736 103.935 0.388484 103.872 0.448561C103.81 0.508638 103.775 0.590119 103.775 0.675077V9.43114H100.775C100.687 9.4311 100.603 9.4643 100.541 9.52345C100.478 9.5826 100.442 9.66299 100.441 9.74718V12.31C100.441 12.3949 100.477 12.4764 100.539 12.5364C100.601 12.5965 100.686 12.6303 100.775 12.6303H103.775V21.3863C103.775 21.4713 103.81 21.5528 103.872 21.6128C103.935 21.6729 104.02 21.7067 104.108 21.7067H106.775C106.863 21.7067 106.948 21.6729 107.01 21.6128C107.073 21.5528 107.108 21.4713 107.108 21.3863V12.6303H115.663C115.751 12.6303 115.836 12.5965 115.899 12.5364C115.961 12.4764 115.997 12.3949 115.997 12.31V9.74718C115.995 9.66299 115.96 9.5826 115.897 9.52345C115.835 9.4643 115.751 9.4311 115.663 9.43114Z" fill="white"/>
<path d="M19.3018 12.6196H22.9994C23.086 12.6197 23.1691 12.5874 23.2313 12.5296C23.2935 12.4718 23.3299 12.393 23.3328 12.31V9.74718C23.3328 9.66223 23.2977 9.58076 23.2351 9.52069C23.1726 9.46061 23.0879 9.42686 22.9994 9.42686H17.8174L13.7353 0.604602C13.7007 0.529591 13.6444 0.465738 13.5731 0.42067C13.5018 0.375601 13.4184 0.35123 13.3331 0.350464H9.99986C9.91413 0.350819 9.83032 0.375 9.75858 0.420091C9.68681 0.465186 9.63015 0.529263 9.59544 0.604602L5.51556 9.41618H0.333508C0.288785 9.41615 0.244513 9.42476 0.203331 9.44155C0.162149 9.45831 0.124898 9.48286 0.0937968 9.51375C0.062695 9.54461 0.0383784 9.58122 0.0222962 9.62131C0.00621394 9.66144 -0.00130554 9.70423 0.000185247 9.74718V12.31C0.000185247 12.3949 0.0353029 12.4764 0.097813 12.5364C0.160323 12.5965 0.245105 12.6303 0.333508 12.6303H4.03117L0.0312952 21.2667C0.0111433 21.3148 0.00343891 21.3669 0.00884266 21.4185C0.0142464 21.4701 0.0325965 21.5196 0.0623188 21.5629C0.0920409 21.6062 0.132246 21.6419 0.179482 21.6669C0.226718 21.6919 0.279573 21.7056 0.333508 21.7067H3.30897C3.39509 21.7067 3.47937 21.6827 3.55155 21.6376C3.62374 21.5925 3.68074 21.5282 3.71562 21.4525L11.6665 4.29067L19.6173 21.4525C19.6522 21.5282 19.7092 21.5925 19.7814 21.6376C19.8536 21.6827 19.9379 21.7067 20.024 21.7067H22.9994C23.055 21.7067 23.1097 21.6933 23.1585 21.6678C23.2073 21.6423 23.2487 21.6055 23.279 21.5608C23.3092 21.516 23.3273 21.4647 23.3317 21.4114C23.336 21.3582 23.3265 21.3048 23.3039 21.256L19.3018 12.6196Z" fill="white"/>
<path d="M94.9486 5.07873C94.331 3.67735 93.298 2.48165 91.9781 1.64081C90.6582 0.79998 89.1098 0.351203 87.5266 0.350464H78.1377C78.0495 0.350464 77.9647 0.384211 77.9021 0.444288C77.8396 0.504366 77.8047 0.585847 77.8047 0.670805V3.23355C77.8047 3.31851 77.8396 3.39998 77.9021 3.46006C77.9647 3.52013 78.0495 3.55388 78.1377 3.55388H87.5266C88.1578 3.55207 88.7829 3.6734 89.3642 3.91054C90.2075 4.2541 90.9293 4.82529 91.4419 5.55499C91.9709 6.30315 92.252 7.18756 92.2486 8.09209C92.2492 8.69878 92.1231 9.29942 91.8775 9.85826C91.5185 10.6692 90.9235 11.3633 90.164 11.8572C89.3858 12.3635 88.4666 12.6329 87.5266 12.6303H78.1377C78.0495 12.6303 77.9647 12.664 77.9021 12.7241C77.8396 12.7842 77.8047 12.8657 77.8047 12.9506V21.3863C77.8047 21.4713 77.8396 21.5528 77.9021 21.6128C77.9647 21.6729 78.0495 21.7067 78.1377 21.7067H80.8046C80.8928 21.7067 80.9776 21.6729 81.0402 21.6128C81.1028 21.5528 81.1376 21.4713 81.1376 21.3863V15.8337H87.5266C89.6627 15.8332 91.7113 15.0173 93.2217 13.5656C94.7325 12.1139 95.5812 10.1451 95.5819 8.09209C95.5819 7.0571 95.3668 6.03252 94.9486 5.07873Z" fill="white"/>
<path d="M211.525 12.421C212.423 11.1427 212.903 9.63479 212.9 8.09209C212.901 7.07537 212.692 6.06854 212.287 5.12918C211.883 4.18978 211.29 3.33623 210.541 2.61731C209.793 1.89837 208.905 1.32814 207.928 0.939189C206.95 0.550233 205.903 0.350182 204.845 0.350464H195.456C195.368 0.350464 195.283 0.384211 195.22 0.444289C195.158 0.504366 195.123 0.585847 195.123 0.670805V3.23355C195.123 3.31852 195.158 3.39998 195.22 3.46006C195.283 3.52013 195.368 3.55388 195.456 3.55388H204.845C205.476 3.55207 206.101 3.6734 206.683 3.91055C207.539 4.25646 208.27 4.83791 208.784 5.58184C209.298 6.32579 209.572 7.1991 209.571 8.09209C209.573 8.69865 209.448 9.29929 209.202 9.85826C208.843 10.6687 208.248 11.3627 207.489 11.8572C206.71 12.3636 205.79 12.6329 204.849 12.6303H195.456C195.368 12.6303 195.283 12.664 195.22 12.7241C195.158 12.7842 195.123 12.8657 195.123 12.9506V21.3863C195.123 21.4713 195.158 21.5528 195.22 21.6128C195.283 21.6729 195.368 21.7067 195.456 21.7067H198.123C198.211 21.7067 198.296 21.6729 198.359 21.6128C198.421 21.5528 198.456 21.4713 198.456 21.3863V15.8337H204.845C205.403 15.8339 205.959 15.778 206.505 15.6671L209.216 21.5166C209.242 21.5733 209.284 21.6215 209.338 21.6553C209.393 21.6891 209.456 21.7069 209.52 21.7067H212.567C212.622 21.7067 212.677 21.6933 212.726 21.6678C212.775 21.6424 212.816 21.6055 212.846 21.5608C212.877 21.516 212.895 21.4647 212.899 21.4115C212.903 21.3582 212.894 21.3048 212.871 21.256L209.649 14.3025C210.379 13.7806 211.013 13.1445 211.525 12.421Z" fill="white"/>
<path d="M162.984 0.35052H146.984C146.896 0.35052 146.811 0.38427 146.749 0.444344C146.686 0.504422 146.651 0.585903 146.651 0.670861V3.23361C146.651 3.31857 146.686 3.40004 146.749 3.46012C146.811 3.52019 146.896 3.55394 146.984 3.55394H158.362L153.938 8.98271C153.905 9.02333 153.884 9.07203 153.878 9.1233C153.872 9.17457 153.882 9.22639 153.904 9.27296C153.928 9.31953 153.964 9.359 154.009 9.38693C154.054 9.4149 154.106 9.43021 154.16 9.43116H157.529C157.63 9.43113 157.729 9.40898 157.82 9.36646C157.911 9.3239 157.991 9.26205 158.053 9.18558L163.164 2.90259C163.264 2.79274 163.322 2.65335 163.328 2.5075V0.670861C163.328 0.627879 163.32 0.585334 163.302 0.545754C163.285 0.506176 163.259 0.470375 163.227 0.440486C163.195 0.410594 163.157 0.387225 163.115 0.371769C163.073 0.356314 163.029 0.349087 162.984 0.35052Z" fill="white"/>
<path d="M162.984 18.5032H150.456L154.884 13.083C154.917 13.0424 154.938 12.9937 154.944 12.9424C154.95 12.8912 154.941 12.8393 154.918 12.7928C154.894 12.7462 154.858 12.7067 154.813 12.6788C154.768 12.6508 154.716 12.6355 154.662 12.6345H151.284C151.183 12.6343 151.083 12.6562 150.991 12.6988C150.9 12.7414 150.82 12.8034 150.758 12.8801L145.682 19.1055C145.59 19.2182 145.54 19.3573 145.54 19.5006V21.3863C145.54 21.4713 145.575 21.5527 145.638 21.6128C145.7 21.6729 145.785 21.7066 145.873 21.7066H162.984C163.072 21.7066 163.157 21.6729 163.22 21.6128C163.282 21.5527 163.317 21.4713 163.317 21.3863V18.8236C163.317 18.7815 163.309 18.7398 163.292 18.701C163.275 18.6621 163.251 18.6268 163.22 18.5971C163.189 18.5673 163.152 18.5437 163.112 18.5276C163.071 18.5115 163.028 18.5032 162.984 18.5032Z" fill="white"/>
<path d="M236.955 12.6111C236.876 12.6114 236.8 12.6384 236.74 12.6872C236.68 12.736 236.639 12.8035 236.626 12.878C236.532 13.378 236.392 13.869 236.208 14.3452C235.713 15.6723 234.802 16.8195 233.602 17.6298C232.417 18.4048 231.013 18.8118 229.58 18.7958C228.614 18.8012 227.656 18.6211 226.764 18.2662C225.46 17.7378 224.362 16.8295 223.624 15.6693C223.082 14.8129 222.713 13.8659 222.535 12.878C222.522 12.8035 222.481 12.736 222.421 12.6872C222.361 12.6384 222.285 12.6114 222.207 12.6111H219.502C219.455 12.611 219.407 12.6206 219.364 12.6395C219.321 12.6583 219.282 12.6859 219.251 12.7203C219.219 12.7547 219.196 12.7951 219.182 12.8389C219.168 12.8827 219.165 12.9288 219.171 12.9741C219.3 13.8268 219.523 14.6637 219.838 15.4707C220.552 17.3998 221.876 19.0661 223.624 20.2367C225.373 21.4072 227.458 22.0235 229.589 21.9992C230.997 22.0039 232.392 21.7389 233.693 21.2198C235.633 20.4324 237.27 19.0826 238.375 17.3585C239.225 16.0204 239.777 14.5276 239.997 12.9741C240.003 12.9288 239.999 12.8827 239.986 12.8389C239.972 12.7951 239.948 12.7547 239.917 12.7203C239.886 12.6859 239.847 12.6583 239.804 12.6395C239.76 12.6206 239.714 12.611 239.666 12.6111H236.955Z" fill="white"/>
<path d="M222.2 9.40771C222.279 9.40775 222.355 9.38096 222.415 9.3321C222.476 9.28323 222.516 9.21543 222.529 9.14073C222.623 8.63145 222.763 8.13118 222.949 7.64582C223.445 6.32399 224.353 5.18101 225.549 4.37192C226.735 3.59806 228.139 3.19121 229.573 3.20586C230.538 3.20048 231.495 3.38057 232.386 3.73549C233.692 4.26265 234.793 5.17017 235.535 6.33027C236.079 7.19234 236.449 8.14504 236.626 9.1386C236.64 9.2131 236.68 9.28066 236.74 9.32947C236.8 9.37823 236.876 9.40518 236.955 9.40558H239.657C239.705 9.40561 239.752 9.39592 239.795 9.37712C239.839 9.35829 239.878 9.33078 239.909 9.29644C239.941 9.2621 239.964 9.22167 239.978 9.1779C239.992 9.1341 239.997 9.08795 239.99 9.04251C239.863 8.18405 239.639 7.34131 239.324 6.5289C238.587 4.59 237.248 2.91555 235.488 1.73228C233.746 0.58915 231.682 -0.0151541 229.573 0.000288759C228.166 -0.0051973 226.772 0.259081 225.473 0.777654C223.531 1.56464 221.895 2.91641 220.793 4.64314C219.939 5.98583 219.386 7.48489 219.169 9.04464C219.163 9.08996 219.166 9.13607 219.18 9.17987C219.194 9.22365 219.217 9.2641 219.249 9.29851C219.28 9.33288 219.319 9.36046 219.362 9.37929C219.406 9.39812 219.452 9.40781 219.5 9.40771H222.2Z" fill="white"/>
</svg>
