<svg width="148" height="30" viewBox="0 0 148 30" fill="none" xmlns="http://www.w3.org/2000/svg">
<path d="M38.1536 26.1648C35.87 26.1648 33.9645 25.4274 32.4373 23.9525C30.9244 22.4635 30.168 20.6129 30.168 18.4005C30.168 16.1883 30.9244 14.3447 32.4373 12.8698C33.9645 11.3807 35.87 10.6362 38.1536 10.6362C39.6523 10.6362 41.0081 10.9766 42.2213 11.6573C43.4488 12.3238 44.405 13.2527 45.0902 14.4439C45.7752 15.621 46.1178 16.9398 46.1178 18.4005C46.1178 20.627 45.3614 22.4777 43.8484 23.9525C42.3355 25.4274 40.4372 26.1648 38.1536 26.1648ZM38.1536 23.123C39.0385 23.123 39.8378 22.9244 40.5514 22.5273C41.2651 22.116 41.8217 21.5488 42.2213 20.8255C42.6352 20.1023 42.8422 19.2939 42.8422 18.4005C42.8422 17.0533 42.3926 15.933 41.4934 15.0396C40.6085 14.1319 39.4953 13.6782 38.1536 13.6782C36.8262 13.6782 35.7058 14.1319 34.7924 15.0396C33.8932 15.933 33.4436 17.0533 33.4436 18.4005C33.4436 19.7478 33.8932 20.8752 34.7924 21.7828C35.7058 22.6762 36.8262 23.123 38.1536 23.123Z" fill="white"/>
<path d="M54.6672 14.0396C56.4087 14.0396 57.8498 14.6139 58.9917 15.7626C60.1483 16.9113 60.7263 18.3578 60.7263 20.1021C60.7263 21.8464 60.1483 23.3 58.9917 24.4629C57.8358 25.6115 56.3941 26.1859 54.6672 26.1859C53.4826 26.1859 52.4193 25.8668 51.4773 25.2287V29.9936H48.3516V14.3586H50.4283L50.9635 15.401C51.9911 14.4934 53.2257 14.0396 54.6672 14.0396ZM52.141 22.3569C52.7405 22.9526 53.4898 23.2503 54.3891 23.2503C55.3026 23.2503 56.0592 22.9526 56.6582 22.3569C57.2578 21.7613 57.5577 21.0097 57.5577 20.1021C57.5577 19.5065 57.4218 18.9676 57.1507 18.4854C56.8795 18.0032 56.5012 17.6275 56.0158 17.358C55.545 17.0886 55.0098 16.9538 54.4101 16.9538C53.8111 16.9538 53.2685 17.0886 52.7833 17.358C52.298 17.6275 51.9198 18.0032 51.6486 18.4854C51.3917 18.9676 51.2632 19.5065 51.2632 20.1021C51.2632 21.0097 51.5558 21.7613 52.141 22.3569Z" fill="white"/>
<path d="M74.1629 20.0596C74.1629 20.3573 74.1418 20.6622 74.0991 20.9742H65.3639C65.4928 21.7542 65.7996 22.3569 66.2844 22.7823C66.7839 23.1936 67.4193 23.3993 68.1899 23.3993C68.7181 23.3993 69.196 23.2858 69.6246 23.0589C70.0527 22.8178 70.3882 22.4917 70.6307 22.0804H73.9275C73.4994 23.3283 72.7716 24.321 71.7439 25.0585C70.7161 25.7959 69.5315 26.1646 68.1899 26.1646C66.4771 26.1646 65.05 25.5832 63.9082 24.4203C62.7663 23.2574 62.1953 21.818 62.1953 20.1021C62.1953 19.4214 62.2884 18.7691 62.4741 18.1451C62.6738 17.5211 62.9519 16.9609 63.3085 16.4646C63.6798 15.9682 64.1078 15.5428 64.5933 15.1882C65.0788 14.8195 65.628 14.5359 66.2417 14.3374C66.8554 14.1388 67.5048 14.0396 68.1899 14.0396C69.3459 14.0396 70.3806 14.309 71.2941 14.8479C72.2223 15.3868 72.9285 16.1171 73.4139 17.0389C73.9134 17.9607 74.1629 18.9676 74.1629 20.0596ZM68.1899 16.6773C67.4908 16.6773 66.8981 16.8687 66.4133 17.2516C65.9419 17.6346 65.621 18.1663 65.4494 18.8471H71.0377C70.8948 18.3791 70.6881 17.9891 70.4163 17.6771C70.1452 17.3509 69.8173 17.1027 69.432 16.9326C69.0607 16.7624 68.6467 16.6773 68.1899 16.6773Z" fill="white"/>
<path d="M82.9829 14.082C84.2958 14.082 85.3305 14.5216 86.0871 15.4009C86.8577 16.266 87.2431 17.4288 87.2431 18.8895V25.8454H84.1178V19.3787C84.1178 17.6628 83.4467 16.8048 82.1052 16.8048C81.577 16.8048 81.1132 16.9254 80.7138 17.1665C80.3279 17.4075 80.0287 17.755 79.8144 18.2088C79.6147 18.6626 79.5145 19.1944 79.5145 19.8042V25.8454H76.3887V14.3585H78.5296L79.1509 15.7838C79.3646 15.5143 79.6077 15.2804 79.8788 15.0818C80.1639 14.869 80.4708 14.6918 80.7993 14.55C81.1272 14.394 81.4698 14.2805 81.827 14.2096C82.1977 14.1245 82.5836 14.082 82.9829 14.082Z" fill="white"/>
<path d="M99.1435 17.996C99.8006 18.3363 100.307 18.8185 100.664 19.4425C101.035 20.0523 101.221 20.7543 101.221 21.5484C101.221 22.7397 100.757 23.7536 99.8287 24.5904C98.9158 25.427 97.8096 25.8454 96.5108 25.8454H90.1309V10.955H96.3392C97.624 10.955 98.6944 11.3237 99.5505 12.0611C100.407 12.7844 100.835 13.692 100.835 14.7839C100.835 15.4221 100.685 16.0248 100.386 16.5921C100.086 17.1593 99.6717 17.6273 99.1435 17.996ZM97.6878 15.2945C97.6878 15.0534 97.645 14.8406 97.5595 14.6563C97.4881 14.4577 97.3809 14.2876 97.2387 14.1458C97.0958 14.004 96.9172 13.8976 96.7034 13.8267C96.5031 13.7416 96.2748 13.6991 96.0183 13.6991H93.3205V16.8686H96.0183C96.5319 16.8686 96.9388 16.7267 97.2387 16.4431C97.5379 16.1453 97.6878 15.7625 97.6878 15.2945ZM96.1893 22.8886C96.7175 22.8886 97.1455 22.7326 97.4741 22.4206C97.802 22.1086 97.9665 21.7044 97.9665 21.2081C97.9665 20.7259 97.802 20.3288 97.4741 20.0168C97.1455 19.7048 96.7175 19.5488 96.1893 19.5488H93.3205V22.8886H96.1893Z" fill="white"/>
<path d="M109.54 14.2947H110.568V17.2303H109.219C108.335 17.2303 107.699 17.4359 107.314 17.8471C106.943 18.2584 106.757 18.932 106.757 19.868V25.8454H103.632V14.3585H105.644L106.201 15.7625C106.985 14.7839 108.099 14.2947 109.54 14.2947Z" fill="white"/>
<path d="M121.555 24.7606C120.57 25.6965 119.257 26.1645 117.616 26.1645C115.989 26.1645 114.676 25.6894 113.677 24.7393C112.692 23.7891 112.199 22.5412 112.199 20.9954V14.3585H115.325V20.6338C115.325 21.4563 115.525 22.1016 115.925 22.5696C116.339 23.0233 116.902 23.2502 117.616 23.2502C118.344 23.2502 118.908 23.0233 119.307 22.5696C119.721 22.1016 119.928 21.4563 119.928 20.6338V14.3585H123.054V20.9954C123.054 22.5554 122.554 23.8104 121.555 24.7606Z" fill="white"/>
<path d="M130.007 26.1646C129.051 26.1646 128.202 25.9944 127.46 25.6541C126.731 25.3138 126.161 24.8316 125.747 24.2076C125.347 23.5836 125.147 22.8674 125.147 22.0591H128.188C128.202 22.3995 128.287 22.6902 128.444 22.9313C128.616 23.1582 128.844 23.3283 129.129 23.4418C129.415 23.5411 129.743 23.5907 130.114 23.5907C130.414 23.5907 130.685 23.5482 130.928 23.4631C131.171 23.378 131.37 23.2503 131.527 23.0802C131.684 22.8958 131.763 22.6831 131.763 22.442C131.763 22.0875 131.577 21.8252 131.207 21.6549C130.835 21.4848 130.278 21.3358 129.536 21.2082C129.066 21.1373 128.673 21.0664 128.359 20.9955C128.059 20.9246 127.695 20.8041 127.267 20.6339C126.853 20.4496 126.518 20.2439 126.261 20.017C126.018 19.7901 125.804 19.4781 125.618 19.0811C125.433 18.684 125.34 18.2231 125.34 17.6983C125.34 16.6206 125.768 15.7413 126.625 15.0606C127.481 14.3799 128.601 14.0396 129.986 14.0396C131.385 14.0396 132.505 14.3941 133.347 15.1031C134.204 15.7981 134.632 16.7198 134.632 17.8686H131.656C131.656 16.9609 131.078 16.5071 129.922 16.5071C129.436 16.5071 129.058 16.6064 128.787 16.8049C128.516 17.0035 128.38 17.2729 128.38 17.6132C128.38 17.7551 128.416 17.8898 128.487 18.0174C128.573 18.1309 128.666 18.2231 128.766 18.294C128.88 18.3649 129.051 18.4358 129.279 18.5067C129.508 18.5634 129.7 18.606 129.857 18.6343C130.014 18.6627 130.25 18.7052 130.564 18.762C130.835 18.8187 131.028 18.8612 131.142 18.8896C131.256 18.9037 131.449 18.9392 131.72 18.996C131.991 19.0527 132.191 19.1094 132.32 19.1661C132.462 19.2087 132.648 19.2725 132.876 19.3576C133.119 19.4427 133.297 19.5348 133.411 19.6341C133.54 19.7192 133.69 19.8256 133.861 19.9532C134.047 20.0808 134.189 20.2227 134.289 20.3787C134.389 20.5347 134.489 20.7048 134.589 20.8892C134.689 21.0735 134.753 21.2862 134.781 21.5273C134.824 21.7684 134.846 22.0237 134.846 22.2931C134.846 23.4702 134.403 24.4133 133.518 25.1223C132.634 25.8172 131.463 26.1646 130.007 26.1646Z" fill="white"/>
<path d="M143.761 14.0821C145.074 14.0821 146.108 14.5146 146.865 15.3797C147.622 16.2447 148 17.4076 148 18.8683V25.8455H144.874V19.3788C144.874 18.5138 144.71 17.8685 144.382 17.443C144.068 17.0176 143.561 16.8049 142.861 16.8049C142.077 16.8049 141.449 17.0744 140.978 17.6132C140.507 18.1521 140.271 18.8825 140.271 19.8043V25.8455H137.146V10.2106H140.271V15.4222C141.213 14.5288 142.377 14.0821 143.761 14.0821Z" fill="white"/>
<path d="M0 7.99438V20.2617C0.230994 23.0393 2.12533 29.0572 9.70253 29.983C13.3987 30.2145 19.8671 28.1313 20.7911 20.2617C21.2289 16.5332 19.174 8.94423 9.70253 8.94423V13.6557C11.3196 13.318 16.1709 13.9533 16.1709 19.3359C16.1709 21.882 14.0917 25.3539 9.70253 24.6595C8.16244 24.428 5.08226 23.0393 5.08226 19.3359V10.5405V7.99438H0Z" fill="white"/>
<path d="M5.08226 5.55503H0V0.0425854C3.53547 -0.340903 4.86128 1.95996 5.08226 3.1583V5.55503Z" fill="white"/>
</svg>
