<svg width="148" height="32" viewBox="0 0 148 32" fill="none" xmlns="http://www.w3.org/2000/svg">
<path d="M97.3683 22.3505C95.6319 22.3505 94.0831 22.4988 92.7229 22.7953C90.5682 23.2584 89.4903 24.0366 89.4903 25.1296H103.613V27.9088H86.3525V25.1296C86.3525 23.1473 87.7118 21.665 90.4322 20.6831C92.4405 19.942 94.7426 19.5715 97.3367 19.5715C98.1944 19.5715 98.9267 19.3028 99.5336 18.7655C100.162 18.2097 100.475 17.552 100.475 16.7924C100.475 16.0327 100.162 15.3843 99.5336 14.8469C98.9267 14.2911 98.1944 14.0133 97.3367 14.0133H92.6291C91.7714 14.0133 91.0286 14.2911 90.4007 14.8469C89.7938 15.3843 89.4903 16.0327 89.4903 16.7924H86.3525C86.3525 15.2361 86.9594 13.9206 88.1722 12.846C89.386 11.7714 90.8716 11.2341 92.6291 11.2341H97.3367C99.0942 11.2341 100.58 11.7714 101.794 12.846C103.006 13.9206 103.613 15.2361 103.613 16.7924C103.613 18.3487 103.006 19.6641 101.794 20.7386C100.58 21.8133 99.1047 22.3505 97.3683 22.3505Z" fill="white"/>
<path d="M39.5 22.6976H42.6149V23.442C42.6149 23.8588 42.7602 24.2162 43.0509 24.514C43.3624 24.7918 43.7362 24.9308 44.1723 24.9308H52.7383C53.1121 24.9308 53.4754 24.6429 53.8285 24.0673C54.14 23.5512 54.2957 23.0945 54.2957 22.6976C54.2957 22.3006 54.1295 21.8341 53.7973 21.2981C53.465 20.7423 53.1121 20.4644 52.7383 20.4644H44.1723C42.6564 20.4644 41.4831 19.9483 40.6525 18.916C39.8841 17.9631 39.5 16.7423 39.5 15.2535C39.5 13.8838 39.9153 12.6928 40.7459 11.6804C41.6182 10.5886 42.7602 10.0427 44.1723 10.0427H52.7383C54.0258 10.0427 55.1264 10.4795 56.04 11.3528C56.9537 12.2263 57.4106 13.2784 57.4106 14.5091V15.2535H54.2957V14.5091C54.2957 14.0923 54.14 13.7449 53.8285 13.467C53.5378 13.1692 53.1743 13.0203 52.7383 13.0203H44.1723C43.757 13.0203 43.3936 13.2883 43.0821 13.8243C42.7707 14.3404 42.6149 14.8169 42.6149 15.2535C42.6149 15.6705 42.7707 16.127 43.0821 16.6232C43.4144 17.1989 43.7778 17.4867 44.1723 17.4867H52.7383C54.2542 17.4867 55.4274 18.0028 56.2581 19.0351C57.0264 19.988 57.4106 21.2088 57.4106 22.6976C57.4106 24.0673 56.9953 25.2584 56.1646 26.2707C55.2925 27.3625 54.1503 27.9084 52.7383 27.9084H44.1723C42.8849 27.9084 41.7842 27.4717 40.8706 26.5983C39.9569 25.7248 39.5 24.6727 39.5 23.442V22.6976Z" fill="white"/>
<path d="M77.6717 18.9756C77.6717 21.4768 76.7684 23.5909 74.9617 25.3178C73.1552 27.0449 70.9436 27.9084 68.3271 27.9084C65.7106 27.9084 63.499 27.0449 61.6923 25.3178C59.8858 23.5909 58.9824 21.4768 58.9824 18.9756C58.9824 16.4743 59.8858 14.3602 61.6923 12.6333C63.499 10.9062 65.7106 10.0427 68.3271 10.0427C70.9436 10.0427 73.1552 10.9062 74.9617 12.6333C76.7684 14.3602 77.6717 16.4743 77.6717 18.9756ZM74.5568 18.9756C74.5568 17.2882 73.9546 15.8788 72.7502 14.7474C71.5665 13.596 70.0922 13.0203 68.3271 13.0203C66.562 13.0203 65.0772 13.596 63.8728 14.7474C62.6891 15.8788 62.0973 17.2882 62.0973 18.9756C62.0973 20.6629 62.6891 22.0822 63.8728 23.2335C65.0772 24.3651 66.562 24.9308 68.3271 24.9308C70.0922 24.9308 71.5665 24.3651 72.7502 23.2335C73.9546 22.0822 74.5568 20.6629 74.5568 18.9756Z" fill="white"/>
<path d="M79.2334 4.08789H82.3483V27.9088H79.2334V4.08789Z" fill="white"/>
<path d="M107.513 24.9312H110.628V27.9087H107.513V24.9312Z" fill="white"/>
<path d="M121.52 13.0203C119.755 13.0203 118.27 13.596 117.066 14.7474C115.882 15.8788 115.291 17.2882 115.291 18.9756V27.9084H112.176V18.9756C112.176 16.4743 113.079 14.3602 114.886 12.6333C116.693 10.9062 118.904 10.0427 121.52 10.0427C124.137 10.0427 126.349 10.9062 128.155 12.6333C129.962 14.3602 130.866 16.4743 130.866 18.9756V27.9084H127.75V18.9756C127.75 17.2882 127.148 15.8788 125.944 14.7474C124.76 13.596 123.285 13.0203 121.52 13.0203Z" fill="white"/>
<path d="M148 26.42V27.9088H144.885V26.42C144.885 24.7327 144.283 23.3233 143.079 22.1917C141.895 21.0404 140.421 20.4648 138.655 20.4648H135.541V27.9088H132.426V4.08789H135.541V17.4871H138.655C140.421 17.4871 141.895 16.9213 143.079 15.7899C144.283 14.6386 144.885 13.2192 144.885 11.5319V10.0431H148V11.5319C148 14.7278 146.609 17.2092 143.826 18.976C146.609 20.7426 148 23.224 148 26.42Z" fill="white"/>
<path d="M107.513 4.08789H110.628V23.4424L107.513 18.3804V4.08789Z" fill="white"/>
<path d="M15.0264 21.0699C15.215 21.161 15.4366 21.1549 15.6199 21.0534C16.0741 20.8022 16.0566 20.1469 15.5898 19.9199L5.51506 15.0206C4.22222 14.392 4.24625 12.5514 5.55516 11.9563L4.00149 11.24L1.79 12.2387C1.3089 12.4561 1 12.933 1 13.4584C1 13.9714 1.29454 14.4393 1.7586 14.6634L15.0264 21.0699Z" fill="url(#paint0_linear_1_204)"/>
<path d="M14.6112 7.52894C15.4084 7.13923 16.3421 7.13837 17.1399 7.52647L26.852 12.2509C28.6511 13.1261 30.75 11.8235 30.75 9.83182C30.75 8.81669 30.1761 7.88791 29.2655 7.42928L17.1126 1.30817C16.3308 0.914358 15.4109 0.897127 14.6148 1.26143L2.08205 6.99568C1.42252 7.29744 1 7.9534 1 8.67533C1 9.39527 1.42032 10.0498 2.07717 10.3527L4.00149 11.2397L5.55516 11.956L24.6334 20.7511L26.1306 20.0246L6.98708 11.256L5.42364 10.5399L2.64902 9.26895C2.42263 9.16519 2.27761 8.93997 2.27761 8.69209C2.27761 8.44335 2.42359 8.21756 2.65112 8.11428L14.6286 2.68064C15.417 2.323 16.3256 2.33842 17.1012 2.72281L28.4895 8.36568C28.9799 8.6086 29.2899 9.10665 29.2899 9.65162C29.2899 10.7156 28.1675 11.4104 27.2074 10.9407L17.1464 6.01863C16.345 5.62653 15.4056 5.62768 14.6051 6.02158L5.42364 10.5399L6.98708 11.256L14.6112 7.52894Z" fill="url(#paint1_linear_1_204)"/>
<path d="M28.884 22.7107C29.1315 22.8248 29.2899 23.0715 29.2899 23.3429C29.2899 23.6143 29.1314 23.861 28.8837 23.9751L17.1266 29.3893C16.3355 29.7536 15.4207 29.7407 14.6402 29.3543L3.08188 23.6325C2.5891 23.3887 2.27761 22.8883 2.27761 22.341C2.27761 21.2759 3.39834 20.578 4.36179 21.043L14.6088 25.9889C15.4075 26.3743 16.3406 26.3708 17.1364 25.9792L26.2478 21.4954L27.7392 20.7615L29.9922 19.6529C30.4563 19.4244 30.75 18.954 30.75 18.4389C30.75 17.9234 30.4557 17.4526 29.9909 17.2244L17.062 10.877C16.8332 10.7648 16.5635 10.7724 16.3416 10.8975C15.7993 11.203 15.8277 11.9891 16.3905 12.2552L26.2069 16.8966C27.4832 17.5 27.5251 19.2911 26.2784 19.953L26.1306 20.0247L24.6334 20.7512L17.1138 24.4002C16.3307 24.7802 15.4164 24.7861 14.6284 24.4162L4.84902 19.8248C3.05967 18.9847 1 20.2827 1 22.2504C1 23.2661 1.57673 24.1946 2.49002 24.6492L14.6419 30.698C15.4214 31.086 16.3359 31.101 17.1277 30.7387L29.6694 25.0003C30.3281 24.699 30.75 24.044 30.75 23.323C30.75 22.6023 30.3283 21.9475 29.6701 21.646L27.7392 20.7615L26.2478 21.4954L28.884 22.7107Z" fill="url(#paint2_linear_1_204)"/>
<path d="M6.98708 11.256L14.6112 7.52894C15.4084 7.13923 16.3421 7.13837 17.1399 7.52647L26.852 12.2509C28.6511 13.1261 30.75 11.8235 30.75 9.83182C30.75 8.81669 30.1761 7.88791 29.2655 7.42928L17.1126 1.30817C16.3308 0.914358 15.4109 0.897127 14.6148 1.26143L2.08205 6.99568C1.42252 7.29744 1 7.9534 1 8.67534C1 9.39527 1.42032 10.0498 2.07717 10.3527L4.00149 11.2397M6.98708 11.256L5.42364 10.5399M6.98708 11.256L26.1306 20.0246M4.00149 11.2397L1.79 12.2385C1.3089 12.4558 1 12.9327 1 13.4581C1 13.9711 1.29454 14.439 1.7586 14.6631L15.0264 21.0696C15.215 21.1607 15.4366 21.1546 15.6199 21.0531C16.0741 20.8019 16.0566 20.1466 15.5898 19.9196L5.51506 15.0203C4.22222 14.3917 4.24625 12.5511 5.55516 11.956M4.00149 11.2397L5.55516 11.956M5.55516 11.956L24.6334 20.7511M24.6334 20.7511L26.1306 20.0246M24.6334 20.7511L17.1138 24.4C16.3307 24.7801 15.4164 24.786 14.6284 24.416L4.84902 19.8247C3.05967 18.9846 1 20.2826 1 22.2503C1 23.266 1.57673 24.1945 2.49002 24.6491L14.6419 30.6979C15.4214 31.0859 16.3359 31.1009 17.1277 30.7386L29.6694 25.0001C30.3281 24.6989 30.75 24.0438 30.75 23.3229C30.75 22.6022 30.3283 21.9473 29.6701 21.6459L27.7392 20.7613M26.1306 20.0246L26.2784 19.9529C27.5251 19.291 27.4832 17.4999 26.2069 16.8965L16.3905 12.2551C15.8277 11.989 15.7993 11.2029 16.3416 10.8974C16.5635 10.7723 16.8332 10.7647 17.062 10.8769L29.9909 17.2243C30.4557 17.4525 30.75 17.9233 30.75 18.4388C30.75 18.9538 30.4563 19.4243 29.9922 19.6527L27.7392 20.7613M27.7392 20.7613L26.2478 21.4953M5.42364 10.5399L2.64902 9.26895C2.42263 9.16519 2.27761 8.93997 2.27761 8.69209C2.27761 8.44335 2.42359 8.21756 2.65112 8.11428L14.6286 2.68064C15.417 2.323 16.3256 2.33842 17.1012 2.72281L28.4895 8.36568C28.9799 8.60861 29.2899 9.10665 29.2899 9.65162C29.2899 10.7156 28.1675 11.4104 27.2074 10.9407L17.1464 6.01863C16.345 5.62653 15.4056 5.62768 14.6051 6.02158L5.42364 10.5399ZM26.2478 21.4953L17.1364 25.9791C16.3406 26.3707 15.4075 26.3742 14.6088 25.9888L4.36179 21.0429C3.39834 20.5779 2.27761 21.2758 2.27761 22.3409C2.27761 22.8882 2.5891 23.3884 3.08188 23.6324L14.6402 29.3542C15.4207 29.7406 16.3355 29.7534 17.1266 29.3891L28.8837 23.975C29.1314 23.8609 29.2899 23.6141 29.2899 23.3428C29.2899 23.0714 29.1315 22.8247 28.884 22.7106L26.2478 21.4953Z" stroke="url(#paint3_linear_1_204)" stroke-width="0.4"/>
<defs>
<linearGradient id="paint0_linear_1_204" x1="1" y1="9.19261" x2="30.4413" y2="23.4423" gradientUnits="userSpaceOnUse">
<stop stop-color="#ECF251"/>
<stop offset="1" stop-color="#A9F04F"/>
</linearGradient>
<linearGradient id="paint1_linear_1_204" x1="1" y1="9.19232" x2="30.4413" y2="23.4421" gradientUnits="userSpaceOnUse">
<stop stop-color="#ECF251"/>
<stop offset="1" stop-color="#A9F04F"/>
</linearGradient>
<linearGradient id="paint2_linear_1_204" x1="1" y1="9.19244" x2="30.4413" y2="23.4422" gradientUnits="userSpaceOnUse">
<stop stop-color="#ECF251"/>
<stop offset="1" stop-color="#A9F04F"/>
</linearGradient>
<linearGradient id="paint3_linear_1_204" x1="1" y1="9.19232" x2="30.4413" y2="23.4421" gradientUnits="userSpaceOnUse">
<stop stop-color="#ECF251"/>
<stop offset="1" stop-color="#A9F04F"/>
</linearGradient>
</defs>
</svg>
