<svg width="180" height="30" viewBox="0 0 180 30" fill="none" xmlns="http://www.w3.org/2000/svg">
<path d="M23.8407 13.9188H0.000750524C-0.002637 13.8259 0.00545189 13.7331 0.0248324 13.6423C0.54979 12.0409 1.0892 10.4443 1.60453 8.84058C1.63309 8.70592 1.71262 8.58722 1.82681 8.50884C1.94099 8.43035 2.08116 8.39822 2.21859 8.41871C6.70001 8.41871 11.1862 8.3496 15.6677 8.45924C19.2509 8.54981 21.9118 10.3228 23.6842 13.3992C23.7518 13.52 23.8114 13.6449 23.8624 13.7733C23.8648 13.8044 23.8479 13.8496 23.8407 13.9188Z" fill="white"/>
<path d="M32.5534 15.1481C32.1344 16.4157 31.7395 17.6358 31.3277 18.8536C31.1326 19.4303 31.0628 20.2143 30.6462 20.5098C30.2296 20.8052 29.459 20.6289 28.8402 20.6313C24.9391 20.6313 21.038 20.6742 17.1369 20.6313C13.4743 20.5813 10.7291 18.8989 8.86756 15.789C8.78809 15.6532 8.71827 15.5102 8.65085 15.3673C8.63011 15.2999 8.61719 15.2302 8.6123 15.1599L32.5534 15.1481Z" fill="white"/>
<path d="M8.55664 7.20798C9.44652 5.29625 10.9583 3.73491 12.8502 2.77323C14.1113 2.10942 15.5156 1.75623 16.944 1.74383C21.0834 1.72475 25.2229 1.74383 29.3624 1.74383C29.511 1.75224 29.6589 1.76895 29.8055 1.79386C29.7884 1.93595 29.7619 2.07686 29.7261 2.21562C29.2252 3.73836 28.7123 5.25873 28.2162 6.78622C28.115 7.10319 27.9875 7.27946 27.6021 7.27946C21.3812 7.26997 15.1612 7.26997 8.94197 7.27946C8.81233 7.26286 8.68367 7.23892 8.55664 7.20798Z" fill="white"/>
<path d="M23.9204 21.8445C23.1865 23.442 22.0134 24.8031 20.5349 25.7724C19.0564 26.7415 17.3324 27.2797 15.5596 27.3253C11.3985 27.3635 7.23723 27.3253 3.07609 27.3253C2.96051 27.3253 2.83528 27.3039 2.64746 27.2824C2.70284 27.0703 2.74138 26.8845 2.80157 26.7057C3.28319 25.2378 3.78407 23.7746 4.24644 22.3044C4.35718 21.9564 4.5017 21.7872 4.90863 21.7896C11.1102 21.8007 17.311 21.8007 23.511 21.7896C23.6194 21.8015 23.7157 21.823 23.9204 21.8445Z" fill="white"/>
<path d="M46.9436 23.3941C45.4 23.3941 44.2755 23.0397 43.5699 22.3307C42.8863 21.6004 42.6879 20.58 42.9745 19.2695L45.1905 8.99023H41.6846L42.1476 6.96023H45.6205L46.5135 2.86777L49.0604 2.25562L48.0351 6.96023H52.8641L52.401 8.99023H47.572L45.4221 18.7539C45.2237 19.6777 45.3118 20.3436 45.6867 20.7518C46.0615 21.1385 46.7892 21.3318 47.8696 21.3318C48.1784 21.3318 48.476 21.3104 48.7628 21.2674C49.0494 21.2029 49.3912 21.117 49.788 21.0096L49.3581 23.1041C49.0052 23.1901 48.6084 23.2545 48.1673 23.2975C47.7483 23.3619 47.3404 23.3941 46.9436 23.3941Z" fill="white"/>
<path d="M51.7782 29.9999C51.4695 29.9999 51.1608 29.9784 50.8521 29.9355C50.5433 29.8924 50.2457 29.8281 49.959 29.7421L50.4221 27.6153C50.5985 27.6798 50.819 27.7227 51.0836 27.7443C51.3262 27.7872 51.5797 27.8087 51.8444 27.8087C52.5499 27.8087 53.2004 27.6153 53.7958 27.2287C54.3911 26.842 54.9534 26.2512 55.4826 25.4564L57.0703 23.0719L53.895 6.96021H56.4419L58.9225 20.3328L67.4559 6.96021H70.1351L57.8641 25.9397C56.9379 27.379 56.0008 28.4102 55.0527 29.0332C54.1045 29.6777 53.013 29.9999 51.7782 29.9999Z" fill="white"/>
<path d="M67.4219 29.6777L72.3832 6.96027H74.7646L74.5 8.12023C75.9333 7.19649 77.4547 6.73462 79.0644 6.73462C80.4756 6.73462 81.7215 7.05687 82.8019 7.70137C83.9045 8.34588 84.7754 9.22659 85.4148 10.3436C86.0543 11.4608 86.374 12.7282 86.374 14.1461C86.374 15.4135 86.1314 16.6058 85.6464 17.7229C85.1834 18.8399 84.5329 19.8281 83.6949 20.6874C82.8791 21.5252 81.9199 22.1911 80.8174 22.6852C79.7149 23.1579 78.5351 23.3941 77.2783 23.3941C76.1538 23.3941 75.1063 23.1901 74.1361 22.782C73.1879 22.3738 72.3721 21.7937 71.6885 21.0419L69.8032 29.6777H67.4219ZM77.2122 21.2674C78.4911 21.2674 79.6377 20.9559 80.652 20.3329C81.6883 19.7099 82.5042 18.8721 83.0996 17.8196C83.717 16.7669 84.0257 15.6068 84.0257 14.3394C84.0257 13.2652 83.7942 12.3201 83.3311 11.5037C82.868 10.6659 82.2175 10.0107 81.3797 9.53806C80.5638 9.06552 79.6266 8.8292 78.5682 8.8292C77.7083 8.8292 76.8814 8.9796 76.0876 9.28029C75.3158 9.55963 74.6212 9.97848 74.0039 10.5371L72.2177 18.6574C72.6587 19.4522 73.3313 20.0859 74.2354 20.5585C75.1395 21.0311 76.1317 21.2674 77.2122 21.2674Z" fill="white"/>
<path d="M96.9301 23.394C95.3865 23.394 94.0084 23.0719 92.7956 22.4274C91.5828 21.7829 90.6347 20.8914 89.9512 19.7529C89.2676 18.5928 88.9258 17.2823 88.9258 15.8216C88.9258 14.5756 89.1463 13.4048 89.5873 12.3092C90.0504 11.1921 90.6788 10.2147 91.4726 9.3769C92.2884 8.53909 93.2146 7.88391 94.2509 7.41126C95.3094 6.93861 96.4339 6.70239 97.6247 6.70239C98.9697 6.70239 100.171 7.03532 101.23 7.70128C102.289 8.36723 103.126 9.26951 103.744 10.408C104.361 11.5466 104.67 12.8463 104.67 14.307C104.67 14.5219 104.659 14.7582 104.637 15.016C104.637 15.2522 104.614 15.4993 104.571 15.7571H91.3073C91.3293 16.8313 91.5939 17.7872 92.101 18.625C92.6082 19.4629 93.2918 20.1288 94.1517 20.6228C95.0117 21.0955 95.9709 21.3318 97.0292 21.3318C97.8452 21.3318 98.639 21.2136 99.4107 20.9773C100.182 20.741 100.877 20.4187 101.494 20.0107L102.751 21.654C101.847 22.2555 100.921 22.6959 99.973 22.9752C99.0248 23.2544 98.0105 23.394 96.9301 23.394ZM91.5387 13.856H102.387C102.321 12.8678 102.068 11.9977 101.627 11.2458C101.186 10.4939 100.601 9.90324 99.8738 9.4736C99.1461 9.02241 98.3192 8.79686 97.3931 8.79686C96.467 8.79686 95.5961 9.02241 94.7801 9.4736C93.9863 9.90324 93.3027 10.5047 92.7295 11.2781C92.1782 12.0299 91.7813 12.8892 91.5387 13.856Z" fill="white"/>
<path d="M114.518 23.394C113.106 23.394 111.838 23.0826 110.713 22.4596C109.589 21.8151 108.707 20.9451 108.067 19.8495C107.428 18.7324 107.108 17.465 107.108 16.0471C107.108 14.7797 107.351 13.5874 107.836 12.4704C108.321 11.3318 108.982 10.3329 109.821 9.4736C110.68 8.61423 111.662 7.9376 112.764 7.4435C113.867 6.94939 115.046 6.70239 116.304 6.70239C117.538 6.70239 118.729 6.98163 119.876 7.5402C121.022 8.09867 121.937 8.83988 122.62 9.76362L120.868 11.3425C120.272 10.5262 119.566 9.91391 118.751 9.50573C117.957 9.0761 117.086 8.86134 116.137 8.86134C115.256 8.86134 114.407 9.05464 113.591 9.44137C112.798 9.80653 112.092 10.3221 111.474 10.988C110.856 11.6325 110.372 12.3844 110.019 13.2437C109.666 14.0815 109.489 14.9838 109.489 15.9504C109.489 16.9386 109.721 17.8409 110.184 18.6573C110.67 19.4735 111.309 20.118 112.103 20.5907C112.918 21.0632 113.823 21.2995 114.815 21.2995C115.609 21.2995 116.392 21.1491 117.163 20.8485C117.957 20.5477 118.74 20.118 119.512 19.5595L120.669 21.2351C118.773 22.6744 116.723 23.394 114.518 23.394Z" fill="white"/>
<path d="M122.818 23.1041L127.747 0.547795L130.227 0L128.375 8.57141C129.808 7.30397 131.473 6.67024 133.37 6.67024C134.67 6.67024 135.763 6.96026 136.644 7.54029C137.549 8.12021 138.188 8.91511 138.563 9.92478C138.937 10.9344 138.982 12.0837 138.695 13.3727L136.578 23.1041H134.197L136.247 13.6627C136.578 12.1804 136.402 10.9881 135.718 10.0859C135.057 9.18368 134.009 8.73248 132.576 8.73248C131.672 8.73248 130.812 8.9259 129.996 9.31251C129.203 9.69924 128.486 10.2577 127.846 10.9881L125.2 23.1041H122.818Z" fill="white"/>
<path d="M146.503 23.3298C144.805 23.3298 143.438 22.9216 142.401 22.1052C141.366 21.2889 140.848 20.1933 140.848 18.8185C140.848 17.7658 141.123 16.8528 141.674 16.0795C142.225 15.2846 143.008 14.6724 144.022 14.2427C145.036 13.7916 146.228 13.5661 147.594 13.5661C148.565 13.5661 149.502 13.6949 150.407 13.9527C151.333 14.189 152.159 14.522 152.886 14.9517L153.316 13.0505C153.626 11.5897 153.449 10.4941 152.788 9.76375C152.148 9.03332 151.012 8.66816 149.381 8.66816C148.675 8.66816 147.926 8.77554 147.132 8.9903C146.36 9.18372 145.456 9.49519 144.42 9.92482L143.757 8.02366C144.904 7.55101 145.973 7.2073 146.966 6.99254C147.958 6.77767 148.895 6.67029 149.778 6.67029C151.277 6.67029 152.512 6.91729 153.482 7.41139C154.452 7.9055 155.125 8.62514 155.5 9.57033C155.896 10.4941 155.951 11.6004 155.665 12.8893L153.449 23.1041H151.1L151.398 21.783C150.649 22.2986 149.866 22.6853 149.05 22.9431C148.256 23.2008 147.408 23.3298 146.503 23.3298ZM147.132 21.493C147.992 21.493 148.807 21.3641 149.579 21.1064C150.373 20.827 151.123 20.4082 151.828 19.8496L152.49 16.8206C151.233 15.8109 149.59 15.3062 147.562 15.3062C146.283 15.3062 145.224 15.6176 144.386 16.2406C143.548 16.8636 143.13 17.6476 143.13 18.5929C143.13 19.4951 143.483 20.2041 144.187 20.7196C144.893 21.2352 145.875 21.493 147.132 21.493Z" fill="white"/>
<path d="M157.38 23.1045L160.886 6.96064H163.268L159.761 23.1045H157.38ZM162.903 3.86718C162.485 3.86718 162.132 3.72756 161.846 3.44822C161.581 3.16899 161.448 2.82528 161.448 2.4171C161.448 2.09485 161.525 1.80484 161.679 1.54706C161.856 1.26782 162.088 1.05295 162.374 0.902554C162.661 0.730701 162.958 0.644775 163.268 0.644775C163.686 0.644775 164.028 0.7845 164.293 1.06373C164.579 1.32151 164.723 1.65444 164.723 2.06262C164.723 2.38487 164.635 2.68566 164.458 2.9649C164.304 3.22268 164.083 3.43755 163.797 3.6094C163.532 3.78125 163.234 3.86718 162.903 3.86718Z" fill="white"/>
<path d="M163.937 23.1041L167.442 6.9603H169.825L169.461 8.57145C170.937 7.30401 172.614 6.67029 174.488 6.67029C175.789 6.67029 176.88 6.9603 177.762 7.54033C178.666 8.12026 179.305 8.91516 179.681 9.92482C180.055 10.9345 180.1 12.0838 179.813 13.3728L177.696 23.1041H175.315L177.365 13.6628C177.696 12.1805 177.519 10.9882 176.836 10.0859C176.175 9.18372 175.127 8.73252 173.694 8.73252C172.79 8.73252 171.93 8.92594 171.114 9.31256C170.321 9.69928 169.604 10.2577 168.965 10.9882L166.319 23.1041H163.937Z" fill="white"/>
</svg>
