<svg width="160" height="69" viewBox="0 0 160 69" fill="none" xmlns="http://www.w3.org/2000/svg">
<mask id="mask0_253_383" style="mask-type:luminance" maskUnits="userSpaceOnUse" x="0" y="0" width="160" height="69">
<path d="M160 0.0870361H0.000488281V68.087H160V0.0870361Z" fill="white"/>
</mask>
<g mask="url(#mask0_253_383)">
<path d="M34.0004 22.1225V17.0956C34.0004 15.2708 32.8969 13.6526 31.2073 12.9296L0.000488281 0.0870361V2.8759L27.828 14.3412C28.7935 14.7199 28.7935 16.0972 27.828 16.4759L0.000488281 27.9412V39.1311L16.7591 32.2106L27.7935 36.7554C28.759 37.1341 28.759 38.5113 27.7935 38.8901L0.000488281 50.3554V68.087L31.2073 55.2445C32.8969 54.5559 34.0004 52.9032 34.0004 51.0784V39.5443C34.0004 37.7194 32.8969 36.1012 31.2073 35.3782L20.1384 30.8334L31.2073 26.2886C32.8969 25.5999 34.0004 23.9473 34.0004 22.1225Z" fill="white"/>
<path d="M58.8624 17.0957L61.3451 26.7706L64.1382 17.0957H66.7934L69.414 26.7706L72.0002 17.0957H73.9658L70.6209 28.7676H68.1382L65.3796 18.7139L62.5175 28.7676H60.0003L56.7589 17.0957H58.8624Z" fill="white"/>
<path d="M76.9657 23.4997C77.0347 24.4638 77.1382 24.9458 77.4485 25.5655C78.0347 26.6673 79.345 27.3903 80.6554 27.3903C82.2416 27.3903 83.2761 26.6329 83.7243 25.1524H85.8968C85.345 27.6658 83.4485 29.0774 80.6209 29.0774C77.1037 29.0774 74.8623 26.6673 74.8623 22.88C74.8623 19.1959 77.1037 16.7169 80.4485 16.7169C84.0002 16.7169 85.9312 19.127 85.9312 23.4653H76.9657V23.4997ZM83.2416 19.9189C82.6899 18.9893 81.5864 18.4384 80.4485 18.4384C78.483 18.4384 77.2416 19.6779 77.0002 21.9159H83.7933C83.6899 20.883 83.5519 20.401 83.2416 19.9189Z" fill="white"/>
<path d="M87.8967 12.6543H89.8967V18.8518C90.7243 17.4745 91.8622 16.8204 93.5174 16.8204C96.4139 16.8204 98.4829 19.3338 98.4829 22.949C98.4829 26.5642 96.5174 29.0087 93.5519 29.0087C91.9312 29.0087 90.8622 28.3545 89.8278 26.8396V28.7677H87.8967V12.6543ZM89.9312 22.8801C89.9312 25.428 91.3795 27.3216 93.276 27.3216C95.1036 27.3216 96.3105 25.6001 96.3105 22.949C96.3105 20.1601 95.1036 18.4386 93.2071 18.4386C91.3105 18.4386 89.9312 20.2634 89.9312 22.8801Z" fill="white"/>
<path d="M102.104 23.844C102.069 25.9098 103.379 27.2526 105.448 27.2526C107.311 27.2526 108.655 26.0819 108.655 24.4637C108.655 22.8111 107.379 21.8126 105.311 21.8126C105.104 21.8126 104.931 21.8126 104.621 21.847V20.0566C104.862 20.0566 105 20.0566 105.138 20.0566C107.276 20.0566 108.517 19.127 108.517 17.4743C108.517 15.925 107.311 14.9265 105.483 14.9265C103.517 14.9265 102.38 16.0971 102.311 18.1629H100.173C100.311 14.9609 102.276 13.1017 105.517 13.1017C108.517 13.1017 110.621 14.8232 110.621 17.3022C110.621 18.9548 109.448 20.4698 107.862 20.883C109.793 21.365 110.828 22.6733 110.828 24.6014C110.828 27.2181 108.586 29.0774 105.414 29.0774C102.104 29.0774 99.8623 26.9427 99.8968 23.844H102.104Z" fill="white"/>
<path d="M58.9657 41.1625H56.8623V39.5442H58.9657C59.0002 37.6161 59.0347 37.203 59.3106 36.5144C59.7244 35.4126 60.7933 34.8273 62.3795 34.8273C62.6899 34.8273 62.9657 34.8617 63.483 34.8961V36.6865C63.0002 36.5488 62.7933 36.5488 62.483 36.5488C61.7933 36.5488 61.2761 36.8931 61.1037 37.5128C60.9657 37.926 60.9657 38.2359 60.9657 39.5098H63.483V41.128H60.9657V51.1817H58.9657V41.1625Z" fill="white"/>
<path d="M75.2417 45.3629C75.2417 49.1158 73.0003 51.5603 69.5521 51.5603C66.1728 51.5603 63.9314 49.0469 63.9314 45.3284C63.9314 41.6444 66.2073 39.1998 69.621 39.1998C72.9659 39.2343 75.2417 41.7132 75.2417 45.3629ZM66.1038 45.2596C66.1038 48.1173 67.3797 49.8732 69.5176 49.8732C71.6555 49.8732 73.0693 48.1173 73.0693 45.3973C73.0693 42.6429 71.69 40.8869 69.5521 40.8869C67.4142 40.8869 66.1038 42.574 66.1038 45.2596Z" fill="white"/>
<path d="M84.9658 49.839C84.3795 50.8719 83.0347 51.4917 81.4485 51.4917C79.8278 51.4917 78.552 50.8375 77.8623 49.7013C77.414 48.9438 77.2761 48.1519 77.2761 46.1894V39.5443H79.2761V46.5681C79.2761 48.7717 80.1037 49.8046 81.7934 49.8046C82.8968 49.8046 83.8623 49.2881 84.414 48.4273C84.7589 47.8765 84.8278 47.2223 84.8278 45.1565V39.5787H86.8278V51.2506H84.8968V49.839H84.9658Z" fill="white"/>
<path d="M91.207 40.956C92.1035 39.7854 93.1725 39.3033 94.7587 39.3033C96.3794 39.3033 97.6552 39.9575 98.3449 41.0937C98.7932 41.8512 98.9311 42.6431 98.9311 44.6056V51.2507H96.8966V44.2269C96.8966 41.9889 96.069 40.9904 94.3794 40.9904C93.2415 40.9904 92.3104 41.5069 91.7587 42.4021C91.4139 42.953 91.3449 43.5727 91.3449 45.673V51.2507H89.3104V39.5788H91.207V40.956Z" fill="white"/>
<path d="M109.586 51.2162V49.2881C108.552 50.8375 107.448 51.4572 105.862 51.4572C102.931 51.4572 100.931 49.0127 100.931 45.4319C100.931 41.7823 102.966 39.2689 105.897 39.2689C107.552 39.2689 108.69 39.923 109.517 41.3003V35.1028H111.517V51.1818H109.586V51.2162ZM103.104 45.4319C103.104 48.083 104.276 49.8046 106.138 49.8046C108.035 49.8046 109.483 47.9109 109.483 45.363C109.483 42.7463 108.138 40.9215 106.241 40.9215C104.345 40.9215 103.104 42.643 103.104 45.4319Z" fill="white"/>
<path d="M121.655 51.216C121.552 50.5963 121.517 50.3897 121.448 49.77C120.448 50.975 119.31 51.4915 117.69 51.4915C115.173 51.4915 113.483 50.0454 113.483 47.9451C113.483 46.3958 114.345 45.3284 116.069 44.812C116.621 44.6398 117.517 44.4677 118.552 44.33C119.207 44.2267 119.966 44.1234 121.276 44.0201C121.242 42.5051 121.173 42.0576 120.759 41.61C120.345 41.1624 119.621 40.8869 118.724 40.8869C117 40.8869 116.138 41.6444 116.035 43.2282H113.931C114.138 41.7821 114.414 41.0591 115.173 40.4049C116 39.6474 117.31 39.1998 118.724 39.1998C120.483 39.1998 121.862 39.7851 122.621 40.9213C123.242 41.7821 123.345 42.6429 123.31 46.3613C123.276 48.7026 123.379 49.9421 123.69 51.216H121.655ZM115.655 48.014C115.655 49.1846 116.552 49.8732 118 49.8732C119.242 49.8732 120.207 49.4256 120.793 48.5305C121.138 48.014 121.276 47.3254 121.276 46.017V45.6039C117.104 45.8793 115.655 46.4991 115.655 48.014Z" fill="white"/>
<path d="M128.586 39.5787H131.207V41.1969H128.586V47.4288C128.586 48.7372 128.621 48.9782 128.828 49.2536C129.035 49.5291 129.517 49.7012 130.069 49.7012C130.483 49.7012 130.862 49.6323 131.207 49.5291V51.2506C130.276 51.4227 129.931 51.4572 129.448 51.4572C128.379 51.4572 127.448 50.9751 126.966 50.1832C126.69 49.6668 126.586 49.1847 126.586 48.0485V47.2911V41.1625H124.448V39.5442H126.586V36.7209H128.586V39.5787Z" fill="white"/>
<path d="M133 35.1372H135V37.4785H133V35.1372ZM135.035 39.5787V51.2506H133.035V39.5787H135.035Z" fill="white"/>
<path d="M148.345 45.3629C148.345 49.1158 146.104 51.5603 142.655 51.5603C139.276 51.5603 137.035 49.0469 137.035 45.3284C137.035 41.6444 139.311 39.1998 142.724 39.1998C146.069 39.2343 148.345 41.7132 148.345 45.3629ZM139.207 45.2596C139.207 48.1173 140.483 49.8732 142.621 49.8732C144.759 49.8732 146.173 48.1173 146.173 45.3973C146.173 42.6429 144.793 40.8869 142.655 40.8869C140.517 40.8869 139.207 42.574 139.207 45.2596Z" fill="white"/>
<path d="M152.276 40.956C153.172 39.7854 154.241 39.3033 155.828 39.3033C157.448 39.3033 158.724 39.9575 159.414 41.0937C159.862 41.8512 160 42.6431 160 44.6056V51.2507H158V44.2269C158 41.9889 157.172 40.9904 155.483 40.9904C154.345 40.9904 153.414 41.5069 152.862 42.4021C152.517 42.953 152.448 43.5727 152.448 45.673V51.2507H150.448V39.5788H152.345V40.956H152.276Z" fill="white"/>
</g>
</svg>
