<svg width="22" height="22" viewBox="0 0 22 22" fill="none" xmlns="http://www.w3.org/2000/svg">
<path d="M3.15655 8.43987C2.76297 9.04096 2.80886 9.86321 3.30119 10.4122L1.72593 9.65794C1.72593 9.65794 1.72592 9.65794 1.72592 9.65794C1.58501 9.59046 1.5 9.45235 1.5 9.30562C1.5 9.15537 1.58916 9.01437 1.73546 8.94882C1.73547 8.94881 1.73549 8.94881 1.7355 8.9488L3.01568 8.37547L3.15655 8.43987Z" fill="url(#paint0_linear_1_467)" stroke="white"/>
<path d="M11.2276 4.6677C11.0784 4.65395 10.9281 4.65388 10.7788 4.66749C10.9275 4.6444 11.079 4.64447 11.2276 4.6677ZM20.4861 7.07784C20.4136 7.56758 20.0652 7.95202 19.6235 8.10889C20.0471 7.92981 20.3835 7.55839 20.4861 7.07784Z" fill="url(#paint1_linear_1_467)" stroke="white"/>
<path d="M20.2712 12.9859L18.9683 13.6216L18.7567 13.7249L18.6238 13.7898C19.2725 13.1535 19.2634 12.0894 18.6182 11.4612L20.2708 12.2658L20.2709 12.2658C20.4138 12.3354 20.5 12.4763 20.5 12.6259C20.5 12.7754 20.414 12.9162 20.2713 12.9859C20.2712 12.9859 20.2712 12.9859 20.2712 12.9859ZM10.3874 17.2189C10.7887 17.3197 11.2097 17.3175 11.6098 17.2125C11.2238 17.394 10.7753 17.3963 10.3874 17.2189ZM11.5793 8.03432L13.0278 8.73956L11.5588 8.05078C11.5588 8.05078 11.5588 8.05078 11.5588 8.05077C11.5542 8.04861 11.5523 8.04702 11.552 8.04673C11.5518 8.04624 11.5513 8.04486 11.5512 8.04258C11.5511 8.04071 11.5514 8.03948 11.5515 8.03889C11.5522 8.03831 11.554 8.03684 11.5575 8.03485L11.5577 8.03477C11.5638 8.03135 11.5723 8.03094 11.5793 8.03432Z" fill="url(#paint2_linear_1_467)" stroke="white"/>
<path d="M5.02493 7.83729L10.1504 5.35261C10.6863 5.0928 11.314 5.09223 11.8504 5.35096L18.3795 8.50059C19.589 9.08405 21 8.21565 21 6.88786C21 6.21111 20.6142 5.59192 20.002 5.28617L11.832 1.20544C11.3064 0.942906 10.688 0.931419 10.1528 1.17428L1.72743 4.9971C1.28405 5.19827 1 5.63558 1 6.11687C1 6.59682 1.28257 7.03318 1.72415 7.23511L3.01781 7.82644M5.02493 7.83729L3.97388 7.35988M5.02493 7.83729L17.8945 13.683M3.01781 7.82644L1.53109 8.49227C1.20766 8.63716 1 8.95509 1 9.3054C1 9.64739 1.19801 9.9593 1.50999 10.1087L10.4295 14.3797C10.5563 14.4404 10.7053 14.4363 10.8285 14.3687C11.1338 14.2012 11.1221 13.7643 10.8083 13.613L4.03533 10.3469C3.1662 9.92776 3.18235 8.70068 4.0623 8.30399M3.01781 7.82644L4.0623 8.30399M4.0623 8.30399L16.888 14.1673M16.888 14.1673L17.8945 13.683M16.888 14.1673L11.8328 16.6C11.3063 16.8533 10.6917 16.8572 10.162 16.6106L3.58757 13.5497C2.38465 12.9897 1 13.855 1 15.1668C1 15.844 1.38772 16.463 2.0017 16.766L10.1711 20.7985C10.6951 21.0572 11.3098 21.0672 11.8421 20.8256L20.2735 17C20.7163 16.7992 21 16.3625 21 15.8818C21 15.4014 20.7165 14.9648 20.2741 14.7639L18.976 14.1742M17.8945 13.683L17.9939 13.6352C18.832 13.194 18.8038 11.9999 17.9458 11.5976L11.3466 8.50338C10.9682 8.32594 10.9491 7.80188 11.3137 7.59824C11.4628 7.51485 11.6442 7.50977 11.798 7.58459L20.4897 11.8162C20.8022 11.9683 21 12.2822 21 12.6258C21 12.9692 20.8026 13.2828 20.4905 13.4351L18.976 14.1742M18.976 14.1742L17.9733 14.6635M3.97388 7.35988L2.10858 6.51261C1.95639 6.44344 1.8589 6.29329 1.8589 6.12804C1.8589 5.96222 1.95704 5.81169 2.11 5.74283L10.1621 2.12042C10.6921 1.882 11.3029 1.89228 11.8243 2.14853L19.4803 5.91043C19.81 6.07238 20.0184 6.40441 20.0184 6.76772C20.0184 7.47703 19.2639 7.94023 18.6184 7.62711L11.8547 4.34574C11.3159 4.08434 10.6845 4.08511 10.1463 4.34771L3.97388 7.35988ZM17.9733 14.6635L11.848 17.6527C11.313 17.9137 10.6857 17.9161 10.1488 17.6591L3.26003 14.3619C2.61233 14.0519 1.8589 14.5171 1.8589 15.2272C1.8589 15.5921 2.0683 15.9256 2.39958 16.0882L10.1699 19.9027C10.6946 20.1603 11.3096 20.1689 11.8414 19.926L19.7453 16.3166C19.9119 16.2405 20.0184 16.076 20.0184 15.8951C20.0184 15.7142 19.9119 15.5498 19.7455 15.4737L17.9733 14.6635Z" stroke="white"/>
<defs>
<linearGradient id="paint0_linear_1_467" x1="1" y1="6.46174" x2="20.7293" y2="16.0911" gradientUnits="userSpaceOnUse">
<stop stop-color="#ECF251"/>
<stop offset="1" stop-color="#A9F04F"/>
</linearGradient>
<linearGradient id="paint1_linear_1_467" x1="1" y1="6.46153" x2="20.7293" y2="16.0909" gradientUnits="userSpaceOnUse">
<stop stop-color="#ECF251"/>
<stop offset="1" stop-color="#A9F04F"/>
</linearGradient>
<linearGradient id="paint2_linear_1_467" x1="1" y1="6.46163" x2="20.7293" y2="16.091" gradientUnits="userSpaceOnUse">
<stop stop-color="#ECF251"/>
<stop offset="1" stop-color="#A9F04F"/>
</linearGradient>
</defs>
</svg>
