<svg width="14" height="14" viewBox="0 0 14 14" fill="none" xmlns="http://www.w3.org/2000/svg">
<path d="M7.47952 3.42538C8.71678 3.42538 9.71978 2.84708 9.71978 2.13371C9.71978 1.42034 8.71678 0.842041 7.47952 0.842041C6.24226 0.842041 5.23926 1.42034 5.23926 2.13371C5.23926 2.84708 6.24226 3.42538 7.47952 3.42538Z" fill="white"/>
<path d="M7.47952 13.1578C8.71678 13.1578 9.71978 12.5795 9.71978 11.8661C9.71978 11.1528 8.71678 10.5745 7.47952 10.5745C6.24226 10.5745 5.23926 11.1528 5.23926 11.8661C5.23926 12.5795 6.24226 13.1578 7.47952 13.1578Z" fill="white"/>
<path d="M4.35684 5.21323C4.97547 4.15102 4.97146 3.00059 4.34787 2.64366C3.72429 2.28674 2.71728 2.85848 2.09865 3.92069C1.48001 4.9829 1.48403 6.13334 2.10761 6.49027C2.7312 6.84719 3.73821 6.27544 4.35684 5.21323Z" fill="white"/>
<path d="M12.8582 10.0791C13.4769 9.01685 13.4732 7.86661 12.85 7.50992C12.2269 7.15324 11.2202 7.72518 10.6016 8.78739C9.98294 9.8496 9.98662 10.9998 10.6098 11.3565C11.2329 11.7132 12.2396 11.1413 12.8582 10.0791Z" fill="white"/>
<path d="M4.34885 11.3563C4.97243 10.9994 4.97645 9.84898 4.35782 8.78677C3.73919 7.72455 2.73217 7.15281 2.10859 7.50973C1.48501 7.86666 1.48099 9.0171 2.09962 10.0793C2.71825 11.1415 3.72527 11.7133 4.34885 11.3563Z" fill="white"/>
<path d="M12.85 6.49056C13.4732 6.13388 13.4769 4.98364 12.8582 3.92143C12.2396 2.85922 11.2329 2.28728 10.6098 2.64396C9.98662 3.00065 9.98294 4.15089 10.6016 5.2131C11.2202 6.27531 12.2269 6.84725 12.85 6.49056Z" fill="white"/>
</svg>
