<svg width="16" height="16" viewBox="0 0 16 16" fill="none" xmlns="http://www.w3.org/2000/svg">
<path fill-rule="evenodd" clip-rule="evenodd" d="M5.75977 0.960035C5.75977 0.429823 6.18959 0 6.7198 0C10.2546 0 13.12 2.86548 13.12 6.40023C13.12 6.93044 12.6902 7.36027 12.16 7.36027C11.6298 7.36027 11.2 6.93044 11.2 6.40023C11.2 3.92589 9.19414 1.92007 6.7198 1.92007C6.18959 1.92007 5.75977 1.49025 5.75977 0.960035Z" fill="url(#paint0_linear_1200_57)"/>
<path fill-rule="evenodd" clip-rule="evenodd" d="M10.2401 15.0406C10.2401 15.5708 9.81032 16.0006 9.28011 16.0006C5.74538 16.0006 2.87988 13.1352 2.87988 9.60042C2.87988 9.0702 3.3097 8.64038 3.83991 8.64038C4.37013 8.64038 4.79995 9.0702 4.79995 9.60042C4.79995 12.0747 6.8058 14.0806 9.28011 14.0806C9.81032 14.0806 10.2401 14.5104 10.2401 15.0406Z" fill="url(#paint1_linear_1200_57)"/>
<path fill-rule="evenodd" clip-rule="evenodd" d="M0.960035 10.2405C0.429823 10.2405 2.31764e-08 9.8107 0 9.28049C-1.54509e-07 5.74573 2.86548 2.88025 6.40023 2.88025C6.93044 2.88025 7.36027 3.31008 7.36027 3.84029C7.36027 4.3705 6.93044 4.80033 6.40023 4.80033C3.92592 4.80033 1.92007 6.80615 1.92007 9.28049C1.92007 9.8107 1.49025 10.2405 0.960035 10.2405Z" fill="url(#paint2_linear_1200_57)"/>
<path fill-rule="evenodd" clip-rule="evenodd" d="M15.0399 5.76025C15.5701 5.76025 15.9999 6.19008 15.9999 6.72029C15.9999 10.2551 13.1344 13.1205 9.59968 13.1205C9.06947 13.1205 8.63965 12.6907 8.63965 12.1605C8.63965 11.6303 9.06947 11.2005 9.59968 11.2005C12.074 11.2005 14.0798 9.19463 14.0798 6.72029C14.0798 6.19008 14.5097 5.76025 15.0399 5.76025Z" fill="url(#paint3_linear_1200_57)"/>
<defs>
<linearGradient id="paint0_linear_1200_57" x1="6.1249" y1="1.12167" x2="12.3773" y2="7.15019" gradientUnits="userSpaceOnUse">
<stop stop-color="#1945E1"/>
<stop offset="1" stop-color="#206DE1"/>
</linearGradient>
<linearGradient id="paint1_linear_1200_57" x1="3.24502" y1="9.76205" x2="9.49737" y2="15.7906" gradientUnits="userSpaceOnUse">
<stop stop-color="#1945E1"/>
<stop offset="1" stop-color="#206DE1"/>
</linearGradient>
<linearGradient id="paint2_linear_1200_57" x1="0.365137" y1="4.00192" x2="6.6175" y2="10.0304" gradientUnits="userSpaceOnUse">
<stop stop-color="#1945E1"/>
<stop offset="1" stop-color="#206DE1"/>
</linearGradient>
<linearGradient id="paint3_linear_1200_57" x1="9.00479" y1="6.88193" x2="15.2571" y2="12.9104" gradientUnits="userSpaceOnUse">
<stop stop-color="#1945E1"/>
<stop offset="1" stop-color="#206DE1"/>
</linearGradient>
</defs>
</svg>
